<svg width="1080" height="178" viewBox="0 0 1080 178" fill="none" xmlns="http://www.w3.org/2000/svg">
<g clip-path="url(#clip0_1634_1287)">
<rect width="1080" height="178" fill="white"/>
<path d="M80.1895 88.8654V88.9254C80.1922 92.4303 78.8093 95.7941 76.3423 98.2836C73.8753 100.773 70.5242 102.186 67.0195 102.215H66.9495C63.4247 102.229 60.0391 100.841 57.5374 98.3582C55.0356 95.8752 53.6227 92.5001 53.6095 88.9754C53.5962 85.4507 54.9837 82.065 57.4666 79.5633C59.9496 77.0616 63.3247 75.6487 66.8495 75.6354C68.5843 75.6122 70.3061 75.9364 71.9137 76.5891C73.5212 77.2417 74.9818 78.2095 76.2095 79.4354C77.4646 80.6652 78.4628 82.1321 79.146 83.7509C79.8293 85.3698 80.1839 87.1083 80.1895 88.8654Z" fill="url(#paint0_linear_1634_1287)"/>
<mask id="mask0_1634_1287" style="mask-type:luminance" maskUnits="userSpaceOnUse" x="53" y="75" width="28" height="28">
<path d="M80.1895 88.8654V88.9254C80.1922 92.4303 78.8093 95.7941 76.3423 98.2836C73.8753 100.773 70.5242 102.186 67.0195 102.215H66.9495C63.4247 102.229 60.0391 100.841 57.5374 98.3582C55.0356 95.8752 53.6227 92.5001 53.6095 88.9754C53.5962 85.4507 54.9837 82.065 57.4666 79.5633C59.9496 77.0616 63.3247 75.6487 66.8495 75.6354C68.5843 75.6122 70.3061 75.9364 71.9137 76.5891C73.5212 77.2417 74.9818 78.2095 76.2095 79.4354C77.4646 80.6652 78.4628 82.1321 79.146 83.7509C79.8293 85.3698 80.1839 87.1083 80.1895 88.8654Z" fill="white"/>
</mask>
<g mask="url(#mask0_1634_1287)">
<path d="M53.6689 75.5754H53.6289V102.215H53.6689V75.5754Z" fill="url(#paint1_linear_1634_1287)"/>
<path d="M54.168 75.5754H53.668V102.215H54.168V75.5754Z" fill="url(#paint2_linear_1634_1287)"/>
<path d="M54.668 75.5754H54.168V102.215H54.668V75.5754Z" fill="url(#paint3_linear_1634_1287)"/>
<path d="M55.168 75.5754H54.668V102.215H55.168V75.5754Z" fill="url(#paint4_linear_1634_1287)"/>
<path d="M55.668 75.5754H55.168V102.215H55.668V75.5754Z" fill="url(#paint5_linear_1634_1287)"/>
<path d="M56.168 75.5754H55.668V102.215H56.168V75.5754Z" fill="url(#paint6_linear_1634_1287)"/>
<path d="M56.668 75.5754H56.168V102.215H56.668V75.5754Z" fill="url(#paint7_linear_1634_1287)"/>
<path d="M57.168 75.5754H56.668V102.215H57.168V75.5754Z" fill="url(#paint8_linear_1634_1287)"/>
<path d="M57.668 75.5754H57.168V102.215H57.668V75.5754Z" fill="url(#paint9_linear_1634_1287)"/>
<path d="M58.168 75.5754H57.668V102.215H58.168V75.5754Z" fill="url(#paint10_linear_1634_1287)"/>
<path d="M58.668 75.5754H58.168V102.215H58.668V75.5754Z" fill="url(#paint11_linear_1634_1287)"/>
<path d="M59.168 75.5754H58.668V102.215H59.168V75.5754Z" fill="url(#paint12_linear_1634_1287)"/>
<path d="M59.668 75.5754H59.168V102.215H59.668V75.5754Z" fill="url(#paint13_linear_1634_1287)"/>
<path d="M60.168 75.5754H59.668V102.215H60.168V75.5754Z" fill="url(#paint14_linear_1634_1287)"/>
<path d="M60.668 75.5754H60.168V102.215H60.668V75.5754Z" fill="url(#paint15_linear_1634_1287)"/>
<path d="M61.1797 75.5754H60.6797V102.215H61.1797V75.5754Z" fill="url(#paint16_linear_1634_1287)"/>
<path d="M61.6797 75.5754H61.1797V102.215H61.6797V75.5754Z" fill="url(#paint17_linear_1634_1287)"/>
<path d="M62.1797 75.5754H61.6797V102.215H62.1797V75.5754Z" fill="url(#paint18_linear_1634_1287)"/>
<path d="M62.6797 75.5754H62.1797V102.215H62.6797V75.5754Z" fill="url(#paint19_linear_1634_1287)"/>
<path d="M63.1797 75.5754H62.6797V102.215H63.1797V75.5754Z" fill="url(#paint20_linear_1634_1287)"/>
<path d="M63.6797 75.5754H63.1797V102.215H63.6797V75.5754Z" fill="url(#paint21_linear_1634_1287)"/>
<path d="M64.1797 75.5754H63.6797V102.215H64.1797V75.5754Z" fill="url(#paint22_linear_1634_1287)"/>
<path d="M64.6797 75.5754H64.1797V102.215H64.6797V75.5754Z" fill="url(#paint23_linear_1634_1287)"/>
<path d="M65.1797 75.5754H64.6797V102.215H65.1797V75.5754Z" fill="url(#paint24_linear_1634_1287)"/>
<path d="M65.6797 75.5754H65.1797V102.215H65.6797V75.5754Z" fill="url(#paint25_linear_1634_1287)"/>
<path d="M66.1797 75.5754H65.6797V102.215H66.1797V75.5754Z" fill="url(#paint26_linear_1634_1287)"/>
<path d="M66.6797 75.5754H66.1797V102.215H66.6797V75.5754Z" fill="url(#paint27_linear_1634_1287)"/>
<path d="M67.1797 75.5754H66.6797V102.215H67.1797V75.5754Z" fill="url(#paint28_linear_1634_1287)"/>
<path d="M67.6797 75.5754H67.1797V102.215H67.6797V75.5754Z" fill="url(#paint29_linear_1634_1287)"/>
<path d="M68.1797 75.5754H67.6797V102.215H68.1797V75.5754Z" fill="url(#paint30_linear_1634_1287)"/>
<path d="M68.6797 75.5754H68.1797V102.215H68.6797V75.5754Z" fill="url(#paint31_linear_1634_1287)"/>
<path d="M69.1797 75.5754H68.6797V102.215H69.1797V75.5754Z" fill="url(#paint32_linear_1634_1287)"/>
<path d="M69.6797 75.5754H69.1797V102.215H69.6797V75.5754Z" fill="url(#paint33_linear_1634_1287)"/>
<path d="M70.1797 75.5754H69.6797V102.215H70.1797V75.5754Z" fill="url(#paint34_linear_1634_1287)"/>
<path d="M70.6797 75.5754H70.1797V102.215H70.6797V75.5754Z" fill="url(#paint35_linear_1634_1287)"/>
<path d="M71.1797 75.5754H70.6797V102.215H71.1797V75.5754Z" fill="url(#paint36_linear_1634_1287)"/>
<path d="M71.6797 75.5754H71.1797V102.215H71.6797V75.5754Z" fill="url(#paint37_linear_1634_1287)"/>
<path d="M72.1797 75.5754H71.6797V102.215H72.1797V75.5754Z" fill="url(#paint38_linear_1634_1287)"/>
<path d="M72.6797 75.5754H72.1797V102.215H72.6797V75.5754Z" fill="url(#paint39_linear_1634_1287)"/>
<path d="M73.1797 75.5754H72.6797V102.215H73.1797V75.5754Z" fill="url(#paint40_linear_1634_1287)"/>
<path d="M73.6797 75.5754H73.1797V102.215H73.6797V75.5754Z" fill="url(#paint41_linear_1634_1287)"/>
<path d="M74.1797 75.5754H73.6797V102.215H74.1797V75.5754Z" fill="url(#paint42_linear_1634_1287)"/>
<path d="M74.6797 75.5754H74.1797V102.215H74.6797V75.5754Z" fill="url(#paint43_linear_1634_1287)"/>
<path d="M75.1797 75.5754H74.6797V102.215H75.1797V75.5754Z" fill="url(#paint44_linear_1634_1287)"/>
<path d="M75.6797 75.5754H75.1797V102.215H75.6797V75.5754Z" fill="url(#paint45_linear_1634_1287)"/>
<path d="M76.1797 75.5754H75.6797V102.215H76.1797V75.5754Z" fill="url(#paint46_linear_1634_1287)"/>
<path d="M76.6797 75.5754H76.1797V102.215H76.6797V75.5754Z" fill="url(#paint47_linear_1634_1287)"/>
<path d="M77.1797 75.5754H76.6797V102.215H77.1797V75.5754Z" fill="url(#paint48_linear_1634_1287)"/>
<path d="M77.6797 75.5754H77.1797V102.215H77.6797V75.5754Z" fill="url(#paint49_linear_1634_1287)"/>
<path d="M78.1875 75.5754H77.6875V102.215H78.1875V75.5754Z" fill="url(#paint50_linear_1634_1287)"/>
<path d="M78.6875 75.5754H78.1875V102.215H78.6875V75.5754Z" fill="url(#paint51_linear_1634_1287)"/>
<path d="M79.1875 75.5754H78.6875V102.215H79.1875V75.5754Z" fill="url(#paint52_linear_1634_1287)"/>
<path d="M79.6875 75.5754H79.1875V102.215H79.6875V75.5754Z" fill="url(#paint53_linear_1634_1287)"/>
<path d="M80.1875 75.5754H79.6875V102.215H80.1875V75.5754Z" fill="url(#paint54_linear_1634_1287)"/>
</g>
<path d="M195.1 108.695C193.75 110.095 192.29 111.455 191.1 112.545C189.91 113.635 188.55 114.915 187.34 116.165C187.34 116.165 187.28 116.295 187.25 116.375C187.18 121.695 187.18 127.155 187.18 132.435V134.845C187.18 137.435 187.18 140.015 187.18 142.625C187.18 153.015 183.4 162.285 176.59 168.725C169.965 174.821 161.251 178.136 152.25 177.985C151.54 177.985 150.82 177.985 150.09 177.915C142.75 177.555 137.29 171.965 137.43 164.915C137.57 157.865 142.98 152.735 150.34 152.525H153.04C158.4 152.365 161.58 149.245 161.76 143.925C161.83 141.925 161.82 139.775 161.76 137.795V134.985C161.76 132.825 161.76 130.685 161.76 128.535C161.76 123.465 161.76 118.065 161.69 112.775C161.559 110.348 162.004 107.925 162.988 105.702C163.971 103.48 165.466 101.521 167.35 99.9854C169.18 98.4254 171.01 96.6654 172.78 94.9854L174.04 93.7654L175.76 92.1254C177.58 90.4154 177.76 89.3754 177.76 88.9954C177.76 88.6154 177.55 87.5654 175.68 85.7854L173.51 83.7854C171.27 81.6554 168.97 79.4454 166.65 77.4054C165.051 76.0136 163.78 74.2846 162.929 72.3427C162.079 70.4009 161.669 68.2946 161.73 66.1754C161.79 54.8054 161.79 44.7854 161.73 34.6254C161.73 29.8254 159.36 26.6254 155.27 25.7554C154.205 25.5964 153.127 25.5361 152.05 25.5754C151.54 25.5754 151.05 25.5754 150.51 25.5754C142.93 25.3954 137.29 19.8254 137.4 12.6454C137.49 5.64542 143.01 0.385419 150.5 0.145419C166.44 -0.364581 177.68 6.28541 183.96 19.8854C186.05 24.4354 186.58 29.4854 187.05 33.8854C187.313 36.9514 187.373 40.0315 187.23 43.1054V43.3754C187.23 44.6354 187.18 45.8954 187.18 47.1654V51.9554C187.18 55.1354 187.18 58.4154 187.25 61.5954C187.282 61.6983 187.33 61.796 187.39 61.8854C188.59 63.1354 189.98 64.4154 191.2 65.5554L191.53 65.8554C192.64 66.8554 193.78 67.9554 194.91 69.1054C200.112 74.3693 203.045 81.4613 203.08 88.8616C203.116 96.262 200.251 103.382 195.1 108.695Z" fill="url(#paint55_linear_1634_1287)"/>
<path d="M65.7212 164.655C65.8868 167.815 64.8411 170.919 62.7971 173.335C60.7532 175.75 57.865 177.296 54.7212 177.655C53.2741 177.825 51.8182 177.909 50.3612 177.905C42.234 178.02 34.3281 175.257 28.0412 170.105C24.7189 167.382 21.9742 164.023 19.9685 160.224C17.9627 156.426 16.7363 152.265 16.3612 147.985C15.7697 138.51 15.6662 129.011 16.0512 119.525V119.405C16.1212 116.405 15.3712 115.235 13.8912 114.065C11.0179 111.823 8.41685 109.252 6.14121 106.405C1.87051 101.062 -0.301427 94.343 0.033726 87.5111C0.368879 80.6791 3.18805 74.2048 7.96122 69.3053C9.25122 67.9553 10.6112 66.7053 11.8012 65.5953C13.2212 64.2853 14.4912 63.1053 15.6512 61.8753C15.7558 61.7509 15.8371 61.6086 15.8912 61.4553C15.9612 57.6953 15.9412 53.8853 15.8912 50.1953C15.8912 43.6953 15.8912 36.9853 16.2512 30.2753C17.2512 14.0353 31.5712 0.475308 48.2512 0.0453083C50.0412 -0.00469171 51.6112 -0.0246917 53.1712 0.0453083C56.4207 0.0959364 59.5268 1.39234 61.8481 3.66686C64.1694 5.94138 65.5287 9.02037 65.6455 12.2682C65.7623 15.516 64.6275 18.6846 62.4756 21.12C60.3236 23.5553 57.3187 25.0714 54.0812 25.3553C53.0106 25.4483 51.9354 25.4784 50.8612 25.4453H49.5712C45.0812 25.5553 41.8512 28.4453 41.5112 32.7553C41.2812 35.8653 41.3012 39.1453 41.3312 42.3053C41.3312 43.5753 41.3312 44.8453 41.3312 46.1253V50.6153C41.3312 55.7153 41.3312 60.9853 41.3312 66.1253C41.3895 68.1981 40.9905 70.2582 40.1626 72.1594C39.3348 74.0605 38.0983 75.756 36.5412 77.1253C33.2812 80.0753 30.1112 83.1253 27.0412 86.0253L26.8112 86.2553C25.9935 86.9139 25.4542 87.8566 25.3012 88.8953C25.4622 89.9725 26.0315 90.9465 26.8912 91.6153L27.7812 92.4653C30.6812 95.1953 33.6712 98.0453 36.6412 100.755C38.1726 102.096 39.3869 103.761 40.1962 105.629C41.0056 107.497 41.3899 109.521 41.3212 111.555C41.3212 114.615 41.3212 117.685 41.3212 120.765V132.685C41.3212 136.225 41.3212 139.765 41.3212 143.315C41.3812 149.145 44.6412 152.395 50.5312 152.455H51.9612C52.5612 152.455 53.1712 152.455 53.7712 152.505C56.918 152.68 59.8867 154.022 62.0967 156.269C64.3066 158.515 65.5991 161.506 65.7212 164.655Z" fill="url(#paint56_linear_1634_1287)"/>
<path d="M152.262 88.9853C152.246 93.2239 150.555 97.2844 147.558 100.282C144.561 103.279 140.501 104.969 136.262 104.985C134.154 104.985 132.067 104.569 130.12 103.76C128.174 102.951 126.407 101.765 124.92 100.271C123.433 98.7765 122.256 97.0032 121.457 95.0528C120.657 93.1023 120.251 91.0131 120.262 88.9052C120.259 86.7875 120.676 84.6902 121.49 82.735C122.304 80.7798 123.497 79.0057 125.002 77.5153C126.477 76.0314 128.232 74.8545 130.164 74.053C132.097 73.2514 134.17 72.8409 136.262 72.8452C140.521 72.8717 144.597 74.5851 147.596 77.6102C150.595 80.6353 152.273 84.7256 152.262 88.9853Z" fill="url(#paint57_linear_1634_1287)"/>
<path d="M82.9686 88.8553V88.9253C82.9547 92.0804 82.0082 95.161 80.2483 97.7796C78.4884 100.398 75.9935 102.438 73.0774 103.643C70.1613 104.847 66.9541 105.163 63.8592 104.55C60.7643 103.936 57.9197 102.422 55.6832 100.196C53.4467 97.971 51.918 95.134 51.2895 92.0421C50.6609 88.9502 50.9605 85.7416 52.1506 82.8195C53.3407 79.8975 55.3681 77.3925 57.978 75.6196C60.5879 73.8467 63.6637 72.8849 66.8186 72.8553C68.9184 72.828 71.0025 73.2209 72.9482 74.0109C74.894 74.8009 76.6621 75.972 78.1486 77.4553C79.6688 78.9402 80.878 80.7131 81.7056 82.6704C82.5331 84.6277 82.9625 86.7303 82.9686 88.8553Z" fill="url(#paint58_linear_1634_1287)"/>
<path d="M117.681 88.9854C117.697 92.7385 116.41 96.3808 114.039 99.29C111.668 102.199 108.361 104.195 104.681 104.937C101.002 105.678 97.1798 105.119 93.8671 103.355C90.5544 101.591 87.957 98.7314 86.5185 95.265C85.0799 91.7985 84.8897 87.9401 85.9801 84.3489C87.0705 80.7578 89.374 77.6566 92.4971 75.5752C95.6201 73.4938 99.369 72.5614 103.103 72.9371C106.837 73.3129 110.325 74.9736 112.971 77.6354C115.98 80.6473 117.673 84.7282 117.681 88.9854Z" fill="url(#paint59_linear_1634_1287)"/>
<path d="M269.361 93.1553C274.552 74.2123 281.109 55.6704 288.981 37.6753H325.271C333.225 55.7142 339.839 74.3146 345.061 93.3253C350.305 111.797 354.192 130.627 356.691 149.665H332.381C331.234 141.799 329.847 134.159 328.221 126.745H286.031C284.637 133.699 283.247 141.339 281.861 149.665H257.551C260.154 130.574 264.1 111.691 269.361 93.1553ZM324.361 106.785C320.067 88.1186 315.204 72.2019 309.771 59.0353H304.391C298.265 74.5188 293.457 90.4923 290.021 106.785H324.361Z" fill="black"/>
<path d="M364.498 69.6253L366.588 59.2053L355.818 60.4253L355.648 49.1353L355.818 37.6753H405.478C418.438 37.6753 428.565 41.032 435.858 47.7453C443.152 54.4586 446.805 63.8353 446.818 75.8753C446.818 87.2086 443.288 96.2653 436.228 103.045C429.168 109.825 419.168 113.675 406.228 114.595L388.288 115.985V149.665H364.498V69.6253ZM404.608 94.4553C410.508 93.9953 415.052 92.1419 418.238 88.8953C421.425 85.6486 423.015 81.3153 423.008 75.8953C423.008 70.3453 421.418 66.0253 418.238 62.9653C415.058 59.9053 410.568 58.3653 404.778 58.3653H388.288V95.6853L404.608 94.4553Z" fill="black"/>
<path d="M451.492 128.835L475.622 129.695V57.6453L451.492 58.5153L452.182 37.6753H523.182L523.882 58.5153L499.572 57.6453V129.695L523.882 128.835L523.182 149.665H452.182L451.492 128.835Z" fill="black"/>
<path d="M551.582 143.326C546.202 137.366 543.508 127.846 543.502 114.766V84.2155L527.012 85.9855V64.2855H544.892L543.332 39.1055H568.512L565.732 64.2855H601.322C601.807 67.7941 602.038 71.3334 602.012 74.8755C602.033 78.5902 601.803 82.302 601.322 85.9855L566.942 83.7255V113.595C566.942 119.849 568.245 124.449 570.852 127.395C573.458 130.342 577.365 131.819 582.572 131.826C588.472 131.826 595.358 130.609 603.232 128.175C604.5 133.67 605.428 139.237 606.012 144.845C601.181 147.194 596.116 149.028 590.902 150.315C585.853 151.612 580.664 152.284 575.452 152.315C564.925 152.289 556.968 149.292 551.582 143.326Z" fill="black"/>
<path d="M629.269 146.715C622.731 143.069 617.415 137.572 613.989 130.915C610.409 124.089 608.616 116.089 608.609 106.915C608.609 97.6552 610.403 89.6119 613.989 82.7852C617.403 76.1402 622.724 70.6663 629.269 67.0653C635.869 63.4253 643.566 61.6019 652.359 61.5952C661.153 61.5886 668.853 63.4119 675.459 67.0653C681.993 70.6528 687.288 76.1328 690.649 82.7852C694.183 89.6119 695.946 97.6552 695.939 106.915C695.939 116.055 694.176 124.055 690.649 130.915C687.276 137.58 681.986 143.083 675.459 146.715C668.859 150.415 661.159 152.269 652.359 152.275C643.559 152.282 635.863 150.429 629.269 146.715ZM637.269 125.875C640.856 130.275 645.833 132.475 652.199 132.475C658.679 132.475 663.743 130.249 667.389 125.795C671.036 121.342 672.859 114.945 672.859 106.605C672.859 98.3919 671.036 92.1119 667.389 87.7653C663.743 83.4186 658.679 81.2486 652.199 81.2553C645.833 81.2553 640.856 83.4552 637.269 87.8552C633.683 92.2552 631.889 98.6219 631.889 106.955C631.883 115.175 633.673 121.482 637.259 125.875H637.269Z" fill="black"/>
<path d="M721.289 146.715C714.747 143.073 709.431 137.575 706.009 130.915C702.415 124.089 700.622 116.089 700.629 106.915C700.629 97.6552 702.422 89.6119 706.009 82.7852C709.42 76.138 714.741 70.6633 721.289 67.0653C727.889 63.4253 735.586 61.6019 744.379 61.5952C753.172 61.5886 760.872 63.4119 767.479 67.0653C774.012 70.6528 779.307 76.1328 782.669 82.7852C786.202 89.6119 787.966 97.6552 787.959 106.915C787.959 116.055 786.196 124.055 782.669 130.915C779.296 137.58 774.006 143.083 767.479 146.715C760.879 150.415 753.179 152.269 744.379 152.275C735.579 152.282 727.882 150.429 721.289 146.715ZM729.289 125.875C732.876 130.275 737.852 132.475 744.219 132.475C750.699 132.475 755.762 130.249 759.409 125.795C763.055 121.342 764.879 114.945 764.879 106.605C764.879 98.3919 763.055 92.1119 759.409 87.7653C755.762 83.4186 750.699 81.2486 744.219 81.2553C737.846 81.2553 732.869 83.4552 729.289 87.8552C725.709 92.2552 723.915 98.6219 723.909 106.955C723.902 115.175 725.692 121.482 729.279 125.875H729.289Z" fill="black"/>
<path d="M790.742 128.655L809.322 130.225V50.2254C801.562 51.4987 795.542 52.5954 791.262 53.5154C791.029 48.422 790.912 44.662 790.912 42.2354C790.912 39.5754 791.032 35.8054 791.262 30.9454C797.629 30.4854 805.849 30.2554 815.922 30.2554C823.322 30.2554 828.762 30.3121 832.242 30.4254V130.425L850.122 128.685L849.942 149.685H790.942L790.742 128.655Z" fill="black"/>
<path d="M898.899 117.895C893.939 121.475 888.567 124.446 882.899 126.745V149.665H859.979V50.3553L849.819 51.5653C849.585 44.3986 849.469 39.422 849.469 36.6353V30.9053C855.029 30.4453 861.569 30.2153 869.089 30.2153C875.455 30.2153 880.085 30.332 882.979 30.5653V105.045C890.246 99.8667 896.585 93.497 901.729 86.2053C906.426 79.563 909.841 72.1017 911.799 64.2053C916.885 63.972 920.885 63.8553 923.799 63.8553C926.812 63.8553 930.865 63.972 935.959 64.2053C934.271 71.3886 931.613 78.3088 928.059 84.7753C924.262 91.823 919.625 98.3843 914.249 104.315C923.975 118.924 932.901 134.05 940.989 149.625H914.079C908.245 136.925 903.185 126.349 898.899 117.895Z" fill="black"/>
<path d="M943 128.655L960.36 130.225V84.0353L943.87 87.1653C943.523 83.3453 943.35 79.582 943.35 75.8753C943.35 72.0553 943.523 68.352 943.87 64.7654C950.123 64.1854 957.703 63.8953 966.61 63.8953C970.323 63.8953 975.88 64.012 983.28 64.2453V130.395L998.91 128.655L998.73 149.655H943.18L943 128.655ZM957.59 48.9853C956.214 47.7787 955.125 46.2795 954.404 44.5977C953.682 42.9158 953.346 41.0939 953.42 39.2653C953.333 37.4087 953.663 35.5562 954.384 33.8433C955.106 32.1304 956.201 30.6004 957.59 29.3653C960.357 26.9387 964.177 25.722 969.05 25.7153C973.79 25.7153 977.52 26.932 980.24 29.3653C981.605 30.615 982.678 32.1498 983.383 33.8607C984.088 35.5717 984.408 37.4169 984.32 39.2653C984.396 41.0858 984.07 42.9008 983.365 44.5809C982.66 46.261 981.593 47.7648 980.24 48.9853C977.52 51.412 973.79 52.6286 969.05 52.6353C964.177 52.622 960.357 51.4053 957.59 48.9853Z" fill="black"/>
<path d="M1025.21 143.325C1019.83 137.365 1017.14 127.845 1017.14 114.765V84.2154L1000.64 85.9455V64.2455H1018.53L1016.96 39.0654H1042.14L1039.36 64.2455H1074.95C1075.45 67.7533 1075.68 71.293 1075.65 74.8354C1075.67 78.5505 1075.44 82.2627 1074.95 85.9455L1040.58 83.6855V113.555C1040.58 119.809 1041.88 124.409 1044.48 127.355C1047.08 130.302 1050.99 131.779 1056.2 131.785C1062.11 131.785 1068.99 130.569 1076.86 128.135C1078.13 133.629 1079.06 139.196 1079.64 144.805C1074.81 147.153 1069.75 148.986 1064.54 150.275C1059.49 151.572 1054.3 152.243 1049.08 152.275C1038.55 152.275 1030.6 149.292 1025.21 143.325Z" fill="black"/>
</g>
<defs>
<linearGradient id="paint0_linear_1634_1287" x1="53.6695" y1="88.9254" x2="80.1895" y2="88.9254" gradientUnits="userSpaceOnUse">
<stop stop-color="#567BD6"/>
<stop offset="0.25" stop-color="#5075D1"/>
<stop offset="0.59" stop-color="#3F65C4"/>
<stop offset="0.98" stop-color="#234BAE"/>
<stop offset="1" stop-color="#2149AD"/>
</linearGradient>
<linearGradient id="paint1_linear_1634_1287" x1="53.6289" y1="88.8954" x2="53.6689" y2="88.8954" gradientUnits="userSpaceOnUse">
<stop stop-color="#567BD6"/>
<stop offset="0.25" stop-color="#5075D1"/>
<stop offset="0.59" stop-color="#3F65C4"/>
<stop offset="0.98" stop-color="#234BAE"/>
<stop offset="1" stop-color="#2149AD"/>
</linearGradient>
<linearGradient id="paint2_linear_1634_1287" x1="53.668" y1="88.8954" x2="54.168" y2="88.8954" gradientUnits="userSpaceOnUse">
<stop stop-color="#567BD6"/>
<stop offset="0.25" stop-color="#5075D1"/>
<stop offset="0.59" stop-color="#3F65C4"/>
<stop offset="0.98" stop-color="#234BAE"/>
<stop offset="1" stop-color="#2149AD"/>
</linearGradient>
<linearGradient id="paint3_linear_1634_1287" x1="54.168" y1="88.8954" x2="54.668" y2="88.8954" gradientUnits="userSpaceOnUse">
<stop stop-color="#567BD6"/>
<stop offset="0.25" stop-color="#5075D1"/>
<stop offset="0.59" stop-color="#3F65C4"/>
<stop offset="0.98" stop-color="#234BAE"/>
<stop offset="1" stop-color="#2149AD"/>
</linearGradient>
<linearGradient id="paint4_linear_1634_1287" x1="54.668" y1="88.8954" x2="55.168" y2="88.8954" gradientUnits="userSpaceOnUse">
<stop stop-color="#567BD6"/>
<stop offset="0.25" stop-color="#5075D1"/>
<stop offset="0.59" stop-color="#3F65C4"/>
<stop offset="0.98" stop-color="#234BAE"/>
<stop offset="1" stop-color="#2149AD"/>
</linearGradient>
<linearGradient id="paint5_linear_1634_1287" x1="55.168" y1="88.8954" x2="55.668" y2="88.8954" gradientUnits="userSpaceOnUse">
<stop stop-color="#567BD6"/>
<stop offset="0.25" stop-color="#5075D1"/>
<stop offset="0.59" stop-color="#3F65C4"/>
<stop offset="0.98" stop-color="#234BAE"/>
<stop offset="1" stop-color="#2149AD"/>
</linearGradient>
<linearGradient id="paint6_linear_1634_1287" x1="55.668" y1="88.8954" x2="56.168" y2="88.8954" gradientUnits="userSpaceOnUse">
<stop stop-color="#567BD6"/>
<stop offset="0.25" stop-color="#5075D1"/>
<stop offset="0.59" stop-color="#3F65C4"/>
<stop offset="0.98" stop-color="#234BAE"/>
<stop offset="1" stop-color="#2149AD"/>
</linearGradient>
<linearGradient id="paint7_linear_1634_1287" x1="56.168" y1="88.8954" x2="56.668" y2="88.8954" gradientUnits="userSpaceOnUse">
<stop stop-color="#567BD6"/>
<stop offset="0.25" stop-color="#5075D1"/>
<stop offset="0.59" stop-color="#3F65C4"/>
<stop offset="0.98" stop-color="#234BAE"/>
<stop offset="1" stop-color="#2149AD"/>
</linearGradient>
<linearGradient id="paint8_linear_1634_1287" x1="56.668" y1="88.8954" x2="57.168" y2="88.8954" gradientUnits="userSpaceOnUse">
<stop stop-color="#567BD6"/>
<stop offset="0.25" stop-color="#5075D1"/>
<stop offset="0.59" stop-color="#3F65C4"/>
<stop offset="0.98" stop-color="#234BAE"/>
<stop offset="1" stop-color="#2149AD"/>
</linearGradient>
<linearGradient id="paint9_linear_1634_1287" x1="57.168" y1="88.8954" x2="57.668" y2="88.8954" gradientUnits="userSpaceOnUse">
<stop stop-color="#567BD6"/>
<stop offset="0.25" stop-color="#5075D1"/>
<stop offset="0.59" stop-color="#3F65C4"/>
<stop offset="0.98" stop-color="#234BAE"/>
<stop offset="1" stop-color="#2149AD"/>
</linearGradient>
<linearGradient id="paint10_linear_1634_1287" x1="57.668" y1="88.8954" x2="58.168" y2="88.8954" gradientUnits="userSpaceOnUse">
<stop stop-color="#567BD6"/>
<stop offset="0.25" stop-color="#5075D1"/>
<stop offset="0.59" stop-color="#3F65C4"/>
<stop offset="0.98" stop-color="#234BAE"/>
<stop offset="1" stop-color="#2149AD"/>
</linearGradient>
<linearGradient id="paint11_linear_1634_1287" x1="58.168" y1="88.8954" x2="58.668" y2="88.8954" gradientUnits="userSpaceOnUse">
<stop stop-color="#567BD6"/>
<stop offset="0.25" stop-color="#5075D1"/>
<stop offset="0.59" stop-color="#3F65C4"/>
<stop offset="0.98" stop-color="#234BAE"/>
<stop offset="1" stop-color="#2149AD"/>
</linearGradient>
<linearGradient id="paint12_linear_1634_1287" x1="58.668" y1="88.8954" x2="59.168" y2="88.8954" gradientUnits="userSpaceOnUse">
<stop stop-color="#567BD6"/>
<stop offset="0.25" stop-color="#5075D1"/>
<stop offset="0.59" stop-color="#3F65C4"/>
<stop offset="0.98" stop-color="#234BAE"/>
<stop offset="1" stop-color="#2149AD"/>
</linearGradient>
<linearGradient id="paint13_linear_1634_1287" x1="59.168" y1="88.8954" x2="59.668" y2="88.8954" gradientUnits="userSpaceOnUse">
<stop stop-color="#567BD6"/>
<stop offset="0.25" stop-color="#5075D1"/>
<stop offset="0.59" stop-color="#3F65C4"/>
<stop offset="0.98" stop-color="#234BAE"/>
<stop offset="1" stop-color="#2149AD"/>
</linearGradient>
<linearGradient id="paint14_linear_1634_1287" x1="59.668" y1="88.8954" x2="60.168" y2="88.8954" gradientUnits="userSpaceOnUse">
<stop stop-color="#567BD6"/>
<stop offset="0.25" stop-color="#5075D1"/>
<stop offset="0.59" stop-color="#3F65C4"/>
<stop offset="0.98" stop-color="#234BAE"/>
<stop offset="1" stop-color="#2149AD"/>
</linearGradient>
<linearGradient id="paint15_linear_1634_1287" x1="60.168" y1="88.8954" x2="60.678" y2="88.8954" gradientUnits="userSpaceOnUse">
<stop stop-color="#567BD6"/>
<stop offset="0.25" stop-color="#5075D1"/>
<stop offset="0.59" stop-color="#3F65C4"/>
<stop offset="0.98" stop-color="#234BAE"/>
<stop offset="1" stop-color="#2149AD"/>
</linearGradient>
<linearGradient id="paint16_linear_1634_1287" x1="60.6797" y1="88.8954" x2="61.1797" y2="88.8954" gradientUnits="userSpaceOnUse">
<stop stop-color="#567BD6"/>
<stop offset="0.25" stop-color="#5075D1"/>
<stop offset="0.59" stop-color="#3F65C4"/>
<stop offset="0.98" stop-color="#234BAE"/>
<stop offset="1" stop-color="#2149AD"/>
</linearGradient>
<linearGradient id="paint17_linear_1634_1287" x1="61.1797" y1="88.8954" x2="61.6797" y2="88.8954" gradientUnits="userSpaceOnUse">
<stop stop-color="#567BD6"/>
<stop offset="0.25" stop-color="#5075D1"/>
<stop offset="0.59" stop-color="#3F65C4"/>
<stop offset="0.98" stop-color="#234BAE"/>
<stop offset="1" stop-color="#2149AD"/>
</linearGradient>
<linearGradient id="paint18_linear_1634_1287" x1="61.6797" y1="88.8954" x2="62.1797" y2="88.8954" gradientUnits="userSpaceOnUse">
<stop stop-color="#567BD6"/>
<stop offset="0.25" stop-color="#5075D1"/>
<stop offset="0.59" stop-color="#3F65C4"/>
<stop offset="0.98" stop-color="#234BAE"/>
<stop offset="1" stop-color="#2149AD"/>
</linearGradient>
<linearGradient id="paint19_linear_1634_1287" x1="62.1797" y1="88.8954" x2="62.6797" y2="88.8954" gradientUnits="userSpaceOnUse">
<stop stop-color="#567BD6"/>
<stop offset="0.25" stop-color="#5075D1"/>
<stop offset="0.59" stop-color="#3F65C4"/>
<stop offset="0.98" stop-color="#234BAE"/>
<stop offset="1" stop-color="#2149AD"/>
</linearGradient>
<linearGradient id="paint20_linear_1634_1287" x1="62.6797" y1="88.8954" x2="63.1797" y2="88.8954" gradientUnits="userSpaceOnUse">
<stop stop-color="#567BD6"/>
<stop offset="0.25" stop-color="#5075D1"/>
<stop offset="0.59" stop-color="#3F65C4"/>
<stop offset="0.98" stop-color="#234BAE"/>
<stop offset="1" stop-color="#2149AD"/>
</linearGradient>
<linearGradient id="paint21_linear_1634_1287" x1="63.1797" y1="88.8954" x2="63.6797" y2="88.8954" gradientUnits="userSpaceOnUse">
<stop stop-color="#567BD6"/>
<stop offset="0.25" stop-color="#5075D1"/>
<stop offset="0.59" stop-color="#3F65C4"/>
<stop offset="0.98" stop-color="#234BAE"/>
<stop offset="1" stop-color="#2149AD"/>
</linearGradient>
<linearGradient id="paint22_linear_1634_1287" x1="63.6797" y1="88.8954" x2="64.1797" y2="88.8954" gradientUnits="userSpaceOnUse">
<stop stop-color="#567BD6"/>
<stop offset="0.25" stop-color="#5075D1"/>
<stop offset="0.59" stop-color="#3F65C4"/>
<stop offset="0.98" stop-color="#234BAE"/>
<stop offset="1" stop-color="#2149AD"/>
</linearGradient>
<linearGradient id="paint23_linear_1634_1287" x1="64.1797" y1="88.8954" x2="64.6797" y2="88.8954" gradientUnits="userSpaceOnUse">
<stop stop-color="#567BD6"/>
<stop offset="0.25" stop-color="#5075D1"/>
<stop offset="0.59" stop-color="#3F65C4"/>
<stop offset="0.98" stop-color="#234BAE"/>
<stop offset="1" stop-color="#2149AD"/>
</linearGradient>
<linearGradient id="paint24_linear_1634_1287" x1="64.6797" y1="88.8954" x2="65.1797" y2="88.8954" gradientUnits="userSpaceOnUse">
<stop stop-color="#567BD6"/>
<stop offset="0.25" stop-color="#5075D1"/>
<stop offset="0.59" stop-color="#3F65C4"/>
<stop offset="0.98" stop-color="#234BAE"/>
<stop offset="1" stop-color="#2149AD"/>
</linearGradient>
<linearGradient id="paint25_linear_1634_1287" x1="65.1797" y1="88.8954" x2="65.6797" y2="88.8954" gradientUnits="userSpaceOnUse">
<stop stop-color="#567BD6"/>
<stop offset="0.25" stop-color="#5075D1"/>
<stop offset="0.59" stop-color="#3F65C4"/>
<stop offset="0.98" stop-color="#234BAE"/>
<stop offset="1" stop-color="#2149AD"/>
</linearGradient>
<linearGradient id="paint26_linear_1634_1287" x1="65.6797" y1="88.8954" x2="66.1797" y2="88.8954" gradientUnits="userSpaceOnUse">
<stop stop-color="#567BD6"/>
<stop offset="0.25" stop-color="#5075D1"/>
<stop offset="0.59" stop-color="#3F65C4"/>
<stop offset="0.98" stop-color="#234BAE"/>
<stop offset="1" stop-color="#2149AD"/>
</linearGradient>
<linearGradient id="paint27_linear_1634_1287" x1="66.1797" y1="88.8954" x2="66.6797" y2="88.8954" gradientUnits="userSpaceOnUse">
<stop stop-color="#567BD6"/>
<stop offset="0.25" stop-color="#5075D1"/>
<stop offset="0.59" stop-color="#3F65C4"/>
<stop offset="0.98" stop-color="#234BAE"/>
<stop offset="1" stop-color="#2149AD"/>
</linearGradient>
<linearGradient id="paint28_linear_1634_1287" x1="66.6797" y1="88.8954" x2="67.1797" y2="88.8954" gradientUnits="userSpaceOnUse">
<stop stop-color="#567BD6"/>
<stop offset="0.25" stop-color="#5075D1"/>
<stop offset="0.59" stop-color="#3F65C4"/>
<stop offset="0.98" stop-color="#234BAE"/>
<stop offset="1" stop-color="#2149AD"/>
</linearGradient>
<linearGradient id="paint29_linear_1634_1287" x1="67.1797" y1="88.8954" x2="67.6797" y2="88.8954" gradientUnits="userSpaceOnUse">
<stop stop-color="#567BD6"/>
<stop offset="0.25" stop-color="#5075D1"/>
<stop offset="0.59" stop-color="#3F65C4"/>
<stop offset="0.98" stop-color="#234BAE"/>
<stop offset="1" stop-color="#2149AD"/>
</linearGradient>
<linearGradient id="paint30_linear_1634_1287" x1="67.6797" y1="88.8954" x2="68.1797" y2="88.8954" gradientUnits="userSpaceOnUse">
<stop stop-color="#567BD6"/>
<stop offset="0.25" stop-color="#5075D1"/>
<stop offset="0.59" stop-color="#3F65C4"/>
<stop offset="0.98" stop-color="#234BAE"/>
<stop offset="1" stop-color="#2149AD"/>
</linearGradient>
<linearGradient id="paint31_linear_1634_1287" x1="68.1797" y1="88.8954" x2="68.6797" y2="88.8954" gradientUnits="userSpaceOnUse">
<stop stop-color="#567BD6"/>
<stop offset="0.25" stop-color="#5075D1"/>
<stop offset="0.59" stop-color="#3F65C4"/>
<stop offset="0.98" stop-color="#234BAE"/>
<stop offset="1" stop-color="#2149AD"/>
</linearGradient>
<linearGradient id="paint32_linear_1634_1287" x1="68.6797" y1="88.8954" x2="69.1797" y2="88.8954" gradientUnits="userSpaceOnUse">
<stop stop-color="#567BD6"/>
<stop offset="0.25" stop-color="#5075D1"/>
<stop offset="0.59" stop-color="#3F65C4"/>
<stop offset="0.98" stop-color="#234BAE"/>
<stop offset="1" stop-color="#2149AD"/>
</linearGradient>
<linearGradient id="paint33_linear_1634_1287" x1="69.1797" y1="88.8954" x2="69.6797" y2="88.8954" gradientUnits="userSpaceOnUse">
<stop stop-color="#567BD6"/>
<stop offset="0.25" stop-color="#5075D1"/>
<stop offset="0.59" stop-color="#3F65C4"/>
<stop offset="0.98" stop-color="#234BAE"/>
<stop offset="1" stop-color="#2149AD"/>
</linearGradient>
<linearGradient id="paint34_linear_1634_1287" x1="69.6797" y1="88.8954" x2="70.1797" y2="88.8954" gradientUnits="userSpaceOnUse">
<stop stop-color="#567BD6"/>
<stop offset="0.25" stop-color="#5075D1"/>
<stop offset="0.59" stop-color="#3F65C4"/>
<stop offset="0.98" stop-color="#234BAE"/>
<stop offset="1" stop-color="#2149AD"/>
</linearGradient>
<linearGradient id="paint35_linear_1634_1287" x1="70.1797" y1="88.8954" x2="70.6797" y2="88.8954" gradientUnits="userSpaceOnUse">
<stop stop-color="#567BD6"/>
<stop offset="0.25" stop-color="#5075D1"/>
<stop offset="0.59" stop-color="#3F65C4"/>
<stop offset="0.98" stop-color="#234BAE"/>
<stop offset="1" stop-color="#2149AD"/>
</linearGradient>
<linearGradient id="paint36_linear_1634_1287" x1="70.6797" y1="88.8954" x2="71.1797" y2="88.8954" gradientUnits="userSpaceOnUse">
<stop stop-color="#567BD6"/>
<stop offset="0.25" stop-color="#5075D1"/>
<stop offset="0.59" stop-color="#3F65C4"/>
<stop offset="0.98" stop-color="#234BAE"/>
<stop offset="1" stop-color="#2149AD"/>
</linearGradient>
<linearGradient id="paint37_linear_1634_1287" x1="71.1797" y1="88.8954" x2="71.6797" y2="88.8954" gradientUnits="userSpaceOnUse">
<stop stop-color="#567BD6"/>
<stop offset="0.25" stop-color="#5075D1"/>
<stop offset="0.59" stop-color="#3F65C4"/>
<stop offset="0.98" stop-color="#234BAE"/>
<stop offset="1" stop-color="#2149AD"/>
</linearGradient>
<linearGradient id="paint38_linear_1634_1287" x1="71.6797" y1="88.8954" x2="72.1797" y2="88.8954" gradientUnits="userSpaceOnUse">
<stop stop-color="#567BD6"/>
<stop offset="0.25" stop-color="#5075D1"/>
<stop offset="0.59" stop-color="#3F65C4"/>
<stop offset="0.98" stop-color="#234BAE"/>
<stop offset="1" stop-color="#2149AD"/>
</linearGradient>
<linearGradient id="paint39_linear_1634_1287" x1="72.1797" y1="88.8954" x2="72.6797" y2="88.8954" gradientUnits="userSpaceOnUse">
<stop stop-color="#567BD6"/>
<stop offset="0.25" stop-color="#5075D1"/>
<stop offset="0.59" stop-color="#3F65C4"/>
<stop offset="0.98" stop-color="#234BAE"/>
<stop offset="1" stop-color="#2149AD"/>
</linearGradient>
<linearGradient id="paint40_linear_1634_1287" x1="72.6797" y1="88.8954" x2="73.1797" y2="88.8954" gradientUnits="userSpaceOnUse">
<stop stop-color="#567BD6"/>
<stop offset="0.25" stop-color="#5075D1"/>
<stop offset="0.59" stop-color="#3F65C4"/>
<stop offset="0.98" stop-color="#234BAE"/>
<stop offset="1" stop-color="#2149AD"/>
</linearGradient>
<linearGradient id="paint41_linear_1634_1287" x1="73.1797" y1="88.8954" x2="73.6797" y2="88.8954" gradientUnits="userSpaceOnUse">
<stop stop-color="#567BD6"/>
<stop offset="0.25" stop-color="#5075D1"/>
<stop offset="0.59" stop-color="#3F65C4"/>
<stop offset="0.98" stop-color="#234BAE"/>
<stop offset="1" stop-color="#2149AD"/>
</linearGradient>
<linearGradient id="paint42_linear_1634_1287" x1="73.6797" y1="88.8954" x2="74.1797" y2="88.8954" gradientUnits="userSpaceOnUse">
<stop stop-color="#567BD6"/>
<stop offset="0.25" stop-color="#5075D1"/>
<stop offset="0.59" stop-color="#3F65C4"/>
<stop offset="0.98" stop-color="#234BAE"/>
<stop offset="1" stop-color="#2149AD"/>
</linearGradient>
<linearGradient id="paint43_linear_1634_1287" x1="74.1797" y1="88.8954" x2="74.6797" y2="88.8954" gradientUnits="userSpaceOnUse">
<stop stop-color="#567BD6"/>
<stop offset="0.25" stop-color="#5075D1"/>
<stop offset="0.59" stop-color="#3F65C4"/>
<stop offset="0.98" stop-color="#234BAE"/>
<stop offset="1" stop-color="#2149AD"/>
</linearGradient>
<linearGradient id="paint44_linear_1634_1287" x1="74.6797" y1="88.8954" x2="75.1797" y2="88.8954" gradientUnits="userSpaceOnUse">
<stop stop-color="#567BD6"/>
<stop offset="0.25" stop-color="#5075D1"/>
<stop offset="0.59" stop-color="#3F65C4"/>
<stop offset="0.98" stop-color="#234BAE"/>
<stop offset="1" stop-color="#2149AD"/>
</linearGradient>
<linearGradient id="paint45_linear_1634_1287" x1="75.1797" y1="88.8954" x2="75.6797" y2="88.8954" gradientUnits="userSpaceOnUse">
<stop stop-color="#567BD6"/>
<stop offset="0.25" stop-color="#5075D1"/>
<stop offset="0.59" stop-color="#3F65C4"/>
<stop offset="0.98" stop-color="#234BAE"/>
<stop offset="1" stop-color="#2149AD"/>
</linearGradient>
<linearGradient id="paint46_linear_1634_1287" x1="75.6797" y1="88.8954" x2="76.1797" y2="88.8954" gradientUnits="userSpaceOnUse">
<stop stop-color="#567BD6"/>
<stop offset="0.25" stop-color="#5075D1"/>
<stop offset="0.59" stop-color="#3F65C4"/>
<stop offset="0.98" stop-color="#234BAE"/>
<stop offset="1" stop-color="#2149AD"/>
</linearGradient>
<linearGradient id="paint47_linear_1634_1287" x1="76.1797" y1="88.8954" x2="76.6797" y2="88.8954" gradientUnits="userSpaceOnUse">
<stop stop-color="#567BD6"/>
<stop offset="0.25" stop-color="#5075D1"/>
<stop offset="0.59" stop-color="#3F65C4"/>
<stop offset="0.98" stop-color="#234BAE"/>
<stop offset="1" stop-color="#2149AD"/>
</linearGradient>
<linearGradient id="paint48_linear_1634_1287" x1="76.6797" y1="88.8954" x2="77.1797" y2="88.8954" gradientUnits="userSpaceOnUse">
<stop stop-color="#567BD6"/>
<stop offset="0.25" stop-color="#5075D1"/>
<stop offset="0.59" stop-color="#3F65C4"/>
<stop offset="0.98" stop-color="#234BAE"/>
<stop offset="1" stop-color="#2149AD"/>
</linearGradient>
<linearGradient id="paint49_linear_1634_1287" x1="77.1797" y1="88.8954" x2="77.6897" y2="88.8954" gradientUnits="userSpaceOnUse">
<stop stop-color="#567BD6"/>
<stop offset="0.25" stop-color="#5075D1"/>
<stop offset="0.59" stop-color="#3F65C4"/>
<stop offset="0.98" stop-color="#234BAE"/>
<stop offset="1" stop-color="#2149AD"/>
</linearGradient>
<linearGradient id="paint50_linear_1634_1287" x1="77.6875" y1="88.8954" x2="78.1875" y2="88.8954" gradientUnits="userSpaceOnUse">
<stop stop-color="#567BD6"/>
<stop offset="0.25" stop-color="#5075D1"/>
<stop offset="0.59" stop-color="#3F65C4"/>
<stop offset="0.98" stop-color="#234BAE"/>
<stop offset="1" stop-color="#2149AD"/>
</linearGradient>
<linearGradient id="paint51_linear_1634_1287" x1="78.1875" y1="88.8954" x2="78.6875" y2="88.8954" gradientUnits="userSpaceOnUse">
<stop stop-color="#567BD6"/>
<stop offset="0.25" stop-color="#5075D1"/>
<stop offset="0.59" stop-color="#3F65C4"/>
<stop offset="0.98" stop-color="#234BAE"/>
<stop offset="1" stop-color="#2149AD"/>
</linearGradient>
<linearGradient id="paint52_linear_1634_1287" x1="78.6875" y1="88.8954" x2="79.1875" y2="88.8954" gradientUnits="userSpaceOnUse">
<stop stop-color="#567BD6"/>
<stop offset="0.25" stop-color="#5075D1"/>
<stop offset="0.59" stop-color="#3F65C4"/>
<stop offset="0.98" stop-color="#234BAE"/>
<stop offset="1" stop-color="#2149AD"/>
</linearGradient>
<linearGradient id="paint53_linear_1634_1287" x1="79.1875" y1="88.8954" x2="79.6875" y2="88.8954" gradientUnits="userSpaceOnUse">
<stop stop-color="#567BD6"/>
<stop offset="0.25" stop-color="#5075D1"/>
<stop offset="0.59" stop-color="#3F65C4"/>
<stop offset="0.98" stop-color="#234BAE"/>
<stop offset="1" stop-color="#2149AD"/>
</linearGradient>
<linearGradient id="paint54_linear_1634_1287" x1="79.6875" y1="88.8954" x2="80.1875" y2="88.8954" gradientUnits="userSpaceOnUse">
<stop stop-color="#567BD6"/>
<stop offset="0.25" stop-color="#5075D1"/>
<stop offset="0.59" stop-color="#3F65C4"/>
<stop offset="0.98" stop-color="#234BAE"/>
<stop offset="1" stop-color="#2149AD"/>
</linearGradient>
<linearGradient id="paint55_linear_1634_1287" x1="137.42" y1="88.9854" x2="203.12" y2="88.9854" gradientUnits="userSpaceOnUse">
<stop stop-color="#567BD6"/>
<stop offset="0.25" stop-color="#5075D1"/>
<stop offset="0.59" stop-color="#3F65C4"/>
<stop offset="0.98" stop-color="#234BAE"/>
<stop offset="1" stop-color="#2149AD"/>
</linearGradient>
<linearGradient id="paint56_linear_1634_1287" x1="0.00119594" y1="88.9953" x2="65.7312" y2="88.9953" gradientUnits="userSpaceOnUse">
<stop stop-color="#567BD6"/>
<stop offset="0.25" stop-color="#5075D1"/>
<stop offset="0.59" stop-color="#3F65C4"/>
<stop offset="0.98" stop-color="#234BAE"/>
<stop offset="1" stop-color="#2149AD"/>
</linearGradient>
<linearGradient id="paint57_linear_1634_1287" x1="120.202" y1="88.9253" x2="152.262" y2="88.9253" gradientUnits="userSpaceOnUse">
<stop stop-color="#567BD6"/>
<stop offset="0.25" stop-color="#5075D1"/>
<stop offset="0.59" stop-color="#3F65C4"/>
<stop offset="0.98" stop-color="#234BAE"/>
<stop offset="1" stop-color="#2149AD"/>
</linearGradient>
<linearGradient id="paint58_linear_1634_1287" x1="50.8886" y1="88.9253" x2="82.9686" y2="88.9253" gradientUnits="userSpaceOnUse">
<stop stop-color="#567BD6"/>
<stop offset="0.25" stop-color="#5075D1"/>
<stop offset="0.59" stop-color="#3F65C4"/>
<stop offset="0.98" stop-color="#234BAE"/>
<stop offset="1" stop-color="#2149AD"/>
</linearGradient>
<linearGradient id="paint59_linear_1634_1287" x1="85.4911" y1="88.9254" x2="117.681" y2="88.9254" gradientUnits="userSpaceOnUse">
<stop stop-color="#567BD6"/>
<stop offset="0.25" stop-color="#5075D1"/>
<stop offset="0.59" stop-color="#3F65C4"/>
<stop offset="0.98" stop-color="#234BAE"/>
<stop offset="1" stop-color="#2149AD"/>
</linearGradient>
<clipPath id="clip0_1634_1287">
<rect width="1080" height="178" fill="white"/>
</clipPath>
</defs>
</svg>
