<svg width="1080" height="178" viewBox="0 0 1080 178" fill="none" xmlns="http://www.w3.org/2000/svg">
<path d="M80.2032 88.8988C80.2073 92.4059 78.8236 95.7722 76.354 98.2633C73.8844 100.754 70.5295 102.168 67.0213 102.195C63.4936 102.209 60.1049 100.822 57.6007 98.3378C55.0964 95.854 53.6818 92.4775 53.6679 88.951C53.6541 85.4246 55.0422 82.037 57.5269 79.5336C60.0115 77.0303 63.3893 75.6162 66.9169 75.6023C68.6528 75.5782 70.3758 75.9021 71.9843 76.555C73.5927 77.2079 75.0539 78.1764 76.2815 79.4034C77.5338 80.6461 78.5257 82.1259 79.1991 83.7563C79.8725 85.3867 80.2138 87.1349 80.2032 88.8988Z" fill="white"/>
<mask id="mask0_1_1045" style="mask-type:luminance" maskUnits="userSpaceOnUse" x="53" y="75" width="28" height="28">
<path d="M80.2032 88.8988C80.2073 92.4059 78.8236 95.7722 76.354 98.2633C73.8844 100.754 70.5295 102.168 67.0213 102.195C63.4936 102.209 60.1049 100.822 57.6007 98.3378C55.0964 95.854 53.6818 92.4775 53.6679 88.951C53.6541 85.4246 55.0422 82.037 57.5269 79.5336C60.0115 77.0303 63.3893 75.6162 66.9169 75.6023C68.6528 75.5782 70.3758 75.9021 71.9843 76.555C73.5927 77.2079 75.0539 78.1764 76.2815 79.4034C77.5338 80.6461 78.5257 82.1259 79.1991 83.7563C79.8725 85.3867 80.2138 87.1349 80.2032 88.8988Z" fill="white"/>
</mask>
<g mask="url(#mask0_1_1045)">
<path d="M53.6754 75.6024H53.6307V102.24H53.6754V75.6024Z" fill="white"/>
<path d="M54.1824 75.6024H53.6754V102.24H54.1824V75.6024Z" fill="white"/>
<path d="M54.6745 75.6024H54.1675V102.24H54.6745V75.6024Z" fill="white"/>
<path d="M55.1815 75.6024H54.6745V102.24H55.1815V75.6024Z" fill="white"/>
<path d="M55.6885 75.6024H55.1815V102.24H55.6885V75.6024Z" fill="white"/>
<path d="M56.1805 75.6024H55.6736V102.24H56.1805V75.6024Z" fill="white"/>
<path d="M56.6875 75.6024H56.1805V102.24H56.6875V75.6024Z" fill="white"/>
<path d="M57.1796 75.6024H56.6726V102.24H57.1796V75.6024Z" fill="white"/>
<path d="M57.6866 75.6024H57.1796V102.24H57.6866V75.6024Z" fill="white"/>
<path d="M58.1787 75.6024H57.6717V102.24H58.1787V75.6024Z" fill="white"/>
<path d="M58.6857 75.6024H58.1787V102.24H58.6857V75.6024Z" fill="white"/>
<path d="M59.1778 75.6024H58.6708V102.24H59.1778V75.6024Z" fill="white"/>
<path d="M59.6848 75.6024H59.1778V102.24H59.6848V75.6024Z" fill="white"/>
<path d="M60.1918 75.6024H59.6848V102.24H60.1918V75.6024Z" fill="white"/>
<path d="M60.6839 75.6024H60.1769V102.24H60.6839V75.6024Z" fill="white"/>
<path d="M61.1909 75.6024H60.6839V102.24H61.1909V75.6024Z" fill="white"/>
<path d="M61.683 75.6024H61.176V102.24H61.683V75.6024Z" fill="white"/>
<path d="M62.1899 75.6024H61.683V102.24H62.1899V75.6024Z" fill="white"/>
<path d="M62.682 75.6024H62.175V102.24H62.682V75.6024Z" fill="white"/>
<path d="M63.189 75.6024H62.682V102.24H63.189V75.6024Z" fill="white"/>
<path d="M63.696 75.6024H63.189V102.24H63.696V75.6024Z" fill="white"/>
<path d="M64.1881 75.6024H63.6811V102.24H64.1881V75.6024Z" fill="white"/>
<path d="M64.6951 75.6024H64.1881V102.24H64.6951V75.6024Z" fill="white"/>
<path d="M65.1872 75.6024H64.6802V102.24H65.1872V75.6024Z" fill="white"/>
<path d="M65.6942 75.6024H65.1872V102.24H65.6942V75.6024Z" fill="white"/>
<path d="M66.1863 75.6024H65.6793V102.24H66.1863V75.6024Z" fill="white"/>
<path d="M66.6933 75.6024H66.1863V102.24H66.6933V75.6024Z" fill="white"/>
<path d="M67.1854 75.6024H66.6784V102.24H67.1854V75.6024Z" fill="white"/>
<path d="M67.6924 75.6024H67.1854V102.24H67.6924V75.6024Z" fill="white"/>
<path d="M68.1993 75.6024H67.6924V102.24H68.1993V75.6024Z" fill="white"/>
<path d="M68.6914 75.6024H68.1844V102.24H68.6914V75.6024Z" fill="white"/>
<path d="M69.1984 75.6024H68.6914V102.24H69.1984V75.6024Z" fill="white"/>
<path d="M69.6905 75.6024H69.1835V102.24H69.6905V75.6024Z" fill="white"/>
<path d="M70.1975 75.6024H69.6905V102.24H70.1975V75.6024Z" fill="white"/>
<path d="M70.6896 75.6024H70.1826V102.24H70.6896V75.6024Z" fill="white"/>
<path d="M71.1966 75.6024H70.6896V102.24H71.1966V75.6024Z" fill="white"/>
<path d="M71.6887 75.6024H71.1817V102.24H71.6887V75.6024Z" fill="white"/>
<path d="M72.1957 75.6024H71.6887V102.24H72.1957V75.6024Z" fill="white"/>
<path d="M72.7027 75.6024H72.1957V102.24H72.7027V75.6024Z" fill="white"/>
<path d="M73.1948 75.6024H72.6878V102.24H73.1948V75.6024Z" fill="white"/>
<path d="M73.7018 75.6024H73.1948V102.24H73.7018V75.6024Z" fill="white"/>
<path d="M74.1938 75.6024H73.6869V102.24H74.1938V75.6024Z" fill="white"/>
<path d="M74.7008 75.6024H74.1938V102.24H74.7008V75.6024Z" fill="white"/>
<path d="M75.1929 75.6024H74.6859V102.24H75.1929V75.6024Z" fill="white"/>
<path d="M75.6999 75.6024H75.1929V102.24H75.6999V75.6024Z" fill="white"/>
<path d="M76.2069 75.6024H75.6999V102.24H76.2069V75.6024Z" fill="white"/>
<path d="M76.699 75.6024H76.192V102.24H76.699V75.6024Z" fill="white"/>
<path d="M77.206 75.6024H76.699V102.24H77.206V75.6024Z" fill="white"/>
<path d="M77.6981 75.6024H77.1911V102.24H77.6981V75.6024Z" fill="white"/>
<path d="M78.2051 75.6024H77.6981V102.24H78.2051V75.6024Z" fill="white"/>
<path d="M78.6972 75.6024H78.1902V102.24H78.6972V75.6024Z" fill="white"/>
<path d="M79.2042 75.6024H78.6972V102.24H79.2042V75.6024Z" fill="white"/>
<path d="M79.6963 75.6024H79.1893V102.24H79.6963V75.6024Z" fill="white"/>
<path d="M80.2032 75.6024H79.6963V102.24H80.2032V75.6024Z" fill="white"/>
</g>
<path d="M195.142 108.724C193.8 110.126 192.339 111.497 191.161 112.57C189.983 113.643 188.596 114.955 187.388 116.192C187.388 116.192 187.388 116.327 187.314 116.401C187.239 121.723 187.239 127.178 187.239 132.47V134.885C187.239 137.464 187.239 140.043 187.239 142.651C187.351 147.494 186.47 152.309 184.649 156.798C182.828 161.287 180.106 165.355 176.652 168.752C170.013 174.847 161.283 178.156 152.271 177.994C151.556 177.994 150.78 177.994 150.109 177.92C148.424 177.9 146.759 177.549 145.209 176.886C143.66 176.223 142.256 175.261 141.079 174.055C139.902 172.849 138.974 171.423 138.349 169.858C137.723 168.294 137.412 166.621 137.434 164.936C137.568 157.96 142.996 152.758 150.363 152.549H153.062C158.415 152.4 161.606 149.27 161.785 143.948C161.859 141.906 161.785 139.804 161.785 137.822V135.049C161.785 132.888 161.785 130.756 161.785 128.609C161.785 123.526 161.785 118.175 161.71 112.838C161.567 110.407 162 107.975 162.975 105.743C163.949 103.51 165.437 101.539 167.317 99.9892C169.151 98.4985 170.985 96.6651 172.76 94.9956L174.027 93.7733L175.742 92.1336C177.561 90.4193 177.77 89.3758 177.77 89.0032C177.77 88.6305 177.561 87.5126 175.683 85.7984L173.52 83.7413C171.284 81.6097 168.972 79.4035 166.661 77.3613C165.061 75.9707 163.79 74.2426 162.939 72.3016C162.088 70.3607 161.679 68.2551 161.74 66.1368C161.74 54.7633 161.74 44.7461 161.74 34.58C161.74 29.7801 159.369 26.5603 155.283 25.6361C154.213 25.4779 153.129 25.418 152.048 25.4572H150.556C142.966 25.2784 137.33 19.7034 137.434 12.5334C137.539 5.36344 143.056 0.265436 150.542 0.0269338C166.497 -0.479883 177.74 6.1684 184.018 19.763C185.804 24.2449 186.846 28.9876 187.105 33.8048C187.369 36.8731 187.434 39.9552 187.299 43.0319V43.2853C187.299 44.5524 187.299 45.8194 187.299 47.0864V51.8714C187.299 55.0614 187.299 58.3407 187.373 61.5158C187.397 61.619 187.442 61.7157 187.508 61.799C188.7 63.0512 190.087 64.3331 191.31 65.466L191.653 65.779C192.756 66.8075 193.905 67.8809 195.023 69.0287C200.244 74.3093 203.181 81.4278 203.204 88.8521C203.226 96.2763 200.331 103.412 195.142 108.724Z" fill="white"/>
<path d="M65.7837 164.683C65.9596 167.855 64.9142 170.974 62.8622 173.399C60.8101 175.825 57.9071 177.373 54.749 177.726C53.2987 177.894 51.8399 177.979 50.3799 177.979C42.2343 178.104 34.3085 175.336 28.0124 170.168C24.6964 167.445 21.958 164.086 19.9582 160.29C17.9583 156.494 16.7371 152.337 16.3664 148.062C15.7793 138.588 15.6748 129.091 16.0533 119.606V119.472C16.1278 116.491 15.3823 115.313 13.8911 114.135C11.018 111.89 8.41584 109.319 6.13703 106.474C1.86894 101.128 -0.301234 94.4099 0.0337102 87.5788C0.368655 80.7478 3.1857 74.2738 7.95626 69.3715C9.25357 68.0299 10.6105 66.7778 11.8035 65.6747C13.2946 64.363 14.4876 63.1853 15.6507 61.9481C15.7499 61.8212 15.8303 61.6806 15.8892 61.5307C15.9638 57.7594 15.8892 53.9583 15.8892 50.2615C15.8892 43.7623 15.8893 37.0544 16.2471 30.3466C17.2313 14.1135 31.5763 0.533742 48.2476 0.13127C50.037 0.13127 51.6176 0.0567379 53.1684 0.13127C56.53 0.0106907 59.8018 1.22997 62.2641 3.52087C64.7264 5.81178 66.1775 8.98666 66.2981 12.3471C66.4187 15.7075 65.199 18.9781 62.9073 21.4396C60.6156 23.901 57.4396 25.3516 54.078 25.4721C53.0074 25.5718 51.9319 25.6067 50.8571 25.5765H49.5747C47.5449 25.5102 45.5688 26.235 44.0635 27.5978C42.5583 28.9607 41.6418 30.8549 41.5075 32.8806C41.2689 35.996 41.2987 39.2755 41.3285 42.4356C41.3285 43.7027 41.3285 44.9846 41.3285 46.2516V50.7236C41.3285 55.8215 41.3285 61.158 41.3285 66.2411C41.3915 68.3199 40.9936 70.3869 40.1635 72.294C39.3334 74.201 38.0915 75.9009 36.527 77.2718C33.2762 80.2531 30.1001 83.2344 27.0283 86.2157L26.7897 86.4393C25.9795 87.101 25.4474 88.0425 25.2985 89.0777C25.5162 90.1381 26.1293 91.0761 27.0133 91.7012L27.9081 92.5509C30.8009 95.2788 33.7981 98.1259 36.7656 100.839C38.3 102.179 39.5164 103.845 40.3263 105.714C41.1362 107.584 41.5193 109.61 41.4478 111.646C41.4478 114.702 41.4478 117.772 41.4478 120.843V132.768C41.4478 136.301 41.4478 139.849 41.4478 143.397C41.4478 149.225 44.7731 152.475 50.6632 152.534H52.1544C52.7509 152.534 53.3623 152.534 53.9587 152.534C57.0862 152.732 60.0284 154.085 62.2138 156.33C64.3991 158.575 65.6715 161.552 65.7837 164.683Z" fill="white"/>
<path d="M152.271 89.0181C152.256 93.2684 150.558 97.3396 147.548 100.342C144.539 103.345 140.463 105.035 136.211 105.042C131.97 105.023 127.909 103.327 124.914 100.325C121.919 97.3225 120.234 93.2579 120.226 89.0181C120.219 86.9 120.635 84.8017 121.449 82.8461C122.263 80.8906 123.459 79.1171 124.968 77.6296C126.443 76.1465 128.197 74.9705 130.13 74.1696C132.062 73.3687 134.134 72.9589 136.226 72.9639C140.478 72.9835 144.55 74.6817 147.555 77.6887C150.561 80.6956 152.256 84.7677 152.271 89.0181Z" fill="white"/>
<path d="M82.9768 88.8989C82.9708 92.0654 82.0274 95.1593 80.2653 97.7907C78.5033 100.422 76.0015 102.473 73.0752 103.686C70.149 104.898 66.9292 105.218 63.8216 104.604C60.714 103.99 57.8577 102.47 55.6127 100.236C53.3676 98.0025 51.8343 95.1543 51.2059 92.0507C50.5774 88.9471 50.882 85.727 52.0813 82.7962C53.2806 79.8654 55.3209 77.3549 57.9451 75.5814C60.5693 73.8078 63.6599 72.8504 66.8275 72.8298C68.9306 72.8026 71.018 73.1961 72.9667 73.9871C74.9155 74.7781 76.6864 75.9507 78.1752 77.4358C79.6981 78.9312 80.9073 80.7153 81.7317 82.6836C82.5562 84.652 82.9795 86.7649 82.9768 88.8989Z" fill="white"/>
<path d="M117.691 89.0181C117.677 92.1948 116.721 95.2961 114.946 97.9308C113.171 100.566 110.654 102.616 107.715 103.823C104.775 105.03 101.544 105.339 98.4286 104.713C95.3131 104.086 92.453 102.552 90.209 100.302C88.3552 98.4273 86.9918 96.1249 86.2393 93.5983C85.4867 91.0717 85.3682 88.3987 85.894 85.8155C86.4199 83.2322 87.5741 80.8181 89.2545 78.7865C90.935 76.7549 93.0901 75.1682 95.5295 74.1666C97.9689 73.165 100.617 72.7793 103.241 73.0436C105.865 73.3079 108.384 74.2139 110.574 75.6819C112.764 77.1498 114.56 79.1344 115.801 81.4603C117.042 83.7862 117.691 86.3819 117.691 89.0181Z" fill="white"/>
<path d="M269.432 93.1919C274.618 74.2466 281.177 55.7038 289.056 37.7103H325.351C333.315 55.7454 339.934 74.3446 345.154 93.3558C350.409 111.827 354.297 130.66 356.785 149.702H332.479C331.316 141.831 329.924 134.189 328.303 126.776H286.103C284.722 133.732 283.33 141.374 281.928 149.702H257.622C260.22 130.61 264.167 111.726 269.432 93.1919ZM324.486 106.816C320.923 90.5482 316.045 74.5958 309.902 59.1159H304.504C298.366 74.5814 293.547 90.5385 290.1 106.816H324.486Z" fill="white"/>
<path d="M364.598 69.6398L366.686 59.2053L355.92 60.4128L355.741 49.1286L355.92 37.6656H405.59C418.514 37.6656 428.644 41.0245 435.98 47.7423C443.317 54.4601 446.965 63.8362 446.926 75.8707C446.926 87.2095 443.392 96.2627 436.323 103.03C429.255 109.798 419.245 113.648 406.291 114.583L388.397 115.969V149.657H364.539L364.598 69.6398ZM404.726 94.4738C410.631 94.0167 415.174 92.1634 418.355 88.9138C419.981 87.1744 421.241 85.1264 422.061 82.891C422.881 80.6556 423.243 78.2785 423.127 75.9005C423.127 70.3355 421.536 66.0226 418.355 62.9618C415.164 59.8911 410.69 58.3557 404.934 58.3557H388.397V95.6216L404.726 94.4738Z" fill="white"/>
<path d="M451.608 128.863L475.75 129.727V57.7147L451.608 58.5793L452.309 37.7103H523.348L524.034 58.5793L499.713 57.7147V129.757L524.019 128.893L523.333 149.762H452.309L451.608 128.863Z" fill="white"/>
<path d="M551.74 143.367C546.352 137.404 543.657 127.884 543.657 114.806V84.248L527.165 86.0368V64.2735H545.059L543.568 39.0966H568.754L565.98 64.2735H601.589C602.074 67.7851 602.304 71.3272 602.275 74.872C602.299 78.585 602.07 82.2954 601.589 85.9772L567.188 83.7264V113.539C567.188 119.78 568.495 124.381 571.11 127.342C573.724 130.304 577.631 131.795 582.83 131.814C589.862 131.62 596.826 130.39 603.498 128.162C604.767 133.66 605.693 139.23 606.272 144.843C601.441 147.184 596.378 149.013 591.166 150.298C586.114 151.6 580.92 152.271 575.703 152.296C565.115 152.296 557.128 149.319 551.74 143.367Z" fill="white"/>
<path d="M629.444 146.751C622.9 143.108 617.582 137.61 614.16 130.95C610.615 123.43 608.777 115.219 608.777 106.906C608.777 98.5925 610.615 90.3819 614.16 82.8617C617.562 76.2061 622.887 70.7268 629.444 67.1355C636.619 63.5431 644.533 61.6725 652.557 61.6725C660.582 61.6725 668.496 63.5431 675.67 67.1355C682.207 70.7239 687.505 76.2064 690.865 82.8617C694.353 90.398 696.159 98.6023 696.159 106.906C696.159 115.209 694.353 123.414 690.865 130.95C687.486 137.611 682.195 143.112 675.67 146.751C668.513 150.4 660.592 152.303 652.557 152.303C644.522 152.303 636.602 150.4 629.444 146.751ZM637.437 125.882C639.237 128.066 641.522 129.801 644.111 130.947C646.7 132.094 649.52 132.62 652.349 132.485C658.83 132.485 663.895 130.254 667.544 125.792C671.192 121.33 673.016 114.935 673.016 106.608C673.016 98.3892 671.192 92.1086 667.544 87.7659C663.895 83.4232 658.83 81.2568 652.349 81.2668C645.986 81.2668 641.016 83.4629 637.437 87.8554C633.858 92.2478 632.059 98.6129 632.039 106.951C632.049 115.199 633.853 121.519 637.452 125.911L637.437 125.882Z" fill="white"/>
<path d="M721.509 146.751C714.965 143.108 709.646 137.61 706.224 130.95C702.679 123.43 700.841 115.219 700.841 106.906C700.841 98.5925 702.679 90.3819 706.224 82.8617C709.626 76.2061 714.952 70.7268 721.509 67.1355C728.684 63.5431 736.597 61.6725 744.622 61.6725C752.646 61.6725 760.56 63.5431 767.735 67.1355C774.272 70.7239 779.569 76.2064 782.93 82.8617C786.417 90.398 788.224 98.6023 788.224 106.906C788.224 115.209 786.417 123.414 782.93 130.95C779.55 137.611 774.26 143.112 767.735 146.751C760.577 150.4 752.657 152.303 744.622 152.303C736.587 152.303 728.666 150.4 721.509 146.751ZM729.487 125.882C731.289 128.064 733.575 129.796 736.163 130.943C738.751 132.089 741.571 132.617 744.398 132.485C750.88 132.485 755.945 130.254 759.593 125.792C763.242 121.33 765.091 114.945 765.14 106.637C765.14 98.4191 763.316 92.1385 759.668 87.7958C756.019 83.453 750.954 81.2867 744.473 81.2966C741.646 81.1619 738.827 81.6872 736.239 82.8308C733.65 83.9744 731.364 85.7049 729.561 87.8852C725.982 92.2876 724.188 98.6526 724.178 106.98C724.168 115.308 725.938 121.618 729.487 125.911V125.882Z" fill="white"/>
<path d="M790.967 128.684L809.562 130.175V50.2614C801.798 51.5334 795.774 52.6316 791.489 53.5558C791.266 48.4727 791.146 44.7014 791.146 42.2716C791.146 39.6183 791.266 35.847 791.489 30.9875C797.861 30.5303 806.083 30.2968 816.153 30.2869C823.559 30.2869 829.002 30.3465 832.481 30.4657V130.473L850.375 128.729L850.196 149.747H791.146L790.967 128.684Z" fill="white"/>
<path d="M899.166 117.922C894.214 121.498 888.853 124.471 883.196 126.776V149.702H860.262V50.3957L850.017 51.6031C849.789 44.4282 849.674 39.4594 849.674 36.6967V30.8832C855.232 30.4261 861.773 30.1926 869.298 30.1826C875.661 30.1826 880.293 30.3019 883.196 30.5404V105.072C890.466 99.8992 896.809 93.5338 901.955 86.2456C906.648 79.6111 910.061 72.1597 912.02 64.2736C917.12 64.045 921.096 63.9307 923.949 63.9307C926.932 63.9307 931.003 64.05 936.102 64.2736C934.418 71.4584 931.759 78.3793 928.199 84.8444C924.408 91.8949 919.771 98.4573 914.391 104.387C924.115 119.001 933.045 134.128 941.143 149.702H914.257C908.481 136.972 903.451 126.379 899.166 117.922Z" fill="white"/>
<path d="M943.275 128.684L960.647 130.175V83.9648L944.155 87.0952C943.797 83.2642 943.633 79.5078 943.633 75.811C943.633 72.1143 943.797 68.2833 944.155 64.6908C950.408 64.1045 957.988 63.8163 966.895 63.8262C970.613 63.8262 976.175 63.9406 983.581 64.1692V130.324L999.253 128.684L999.074 149.702H943.454L943.275 128.684ZM957.874 48.9945C956.495 47.7898 955.404 46.2912 954.681 44.6092C953.959 42.9271 953.623 41.1045 953.698 39.2755C953.612 37.4188 953.942 35.5664 954.664 33.8537C955.387 32.1411 956.483 30.6117 957.874 29.3776C960.647 26.9528 964.469 25.7404 969.341 25.7404C973.397 25.5081 977.394 26.8061 980.539 29.3776C981.901 30.6287 982.972 32.1637 983.676 33.874C984.379 35.5844 984.698 37.4283 984.61 39.2755C984.687 41.0949 984.362 42.9089 983.658 44.5886C982.955 46.2683 981.89 47.7726 980.539 48.9945C977.396 51.5713 973.399 52.8746 969.341 52.6464C964.43 52.6464 960.607 51.4292 957.874 48.9945Z" fill="white"/>
<path d="M1025.51 143.367C1020.12 137.404 1017.44 127.884 1017.45 114.806V84.248L1000.94 86.0368V64.2735H1018.83L1017.34 39.0966H1042.5L1039.72 64.2735H1075.3C1075.79 67.7847 1076.03 71.3268 1076 74.872C1076.03 78.6052 1075.79 82.3356 1075.3 86.0368L1040.92 83.786V113.599C1040.92 119.84 1042.22 124.441 1044.82 127.402C1047.43 130.363 1051.33 131.854 1056.54 131.874C1063.58 131.68 1070.54 130.449 1077.21 128.222C1078.48 133.72 1079.41 139.291 1080 144.902C1075.16 147.222 1070.08 149.03 1064.86 150.298C1059.82 151.6 1054.63 152.271 1049.42 152.296C1038.84 152.296 1030.87 149.319 1025.51 143.367Z" fill="white"/>
</svg>
