<svg width="586" height="478" viewBox="0 0 586 478" fill="none" xmlns="http://www.w3.org/2000/svg">
  <path d="M59.4063 288.456C61.7478 300.437 66.5039 311.816 73.3851 321.9C80.2662 331.983 89.1282 340.56 99.4312 347.108C132.991 365.735 175.632 363.272 183.176 363.426C214.272 363.426 242.443 349.879 248.755 346.338C255.066 342.798 279.235 327.711 281.544 311.547C283.854 295.384 272.154 276.757 253.835 273.832C193.644 264.133 148.231 175.309 138.071 163.301C127.91 151.294 111.747 139.61 97.7378 139.44C77.4175 139.764 65.1022 165.01 62.0233 172.861C55.4038 191.627 53.7104 236.424 53.7104 236.424C53.7258 256.606 58.1902 282.452 59.4063 288.456Z" fill="white" />
  <path d="M233.684 166.088C233.684 166.088 228.912 144.382 207.052 146.537C177.803 149.447 158.56 129.912 133.314 138.07C117.458 153.911 102.987 189.472 102.987 189.472C102.987 189.472 90.9797 221.338 92.5191 236.27C94.0585 251.202 110.376 257.822 110.376 257.822L105.604 287.071L281.868 261.516L304.651 202.557L243.69 208.268L233.684 166.088Z" fill="white" />
  <path d="M285.562 426.696C285.562 426.696 281.252 446.709 279.866 452.866C294.491 450.865 344.368 457.946 350.064 465.951C355.76 473.956 343.29 475.034 343.29 475.034H214.287L233.838 415.32L285.562 426.696Z" fill="white" />
  <path d="M212.902 476.127C212.7 475.689 212.646 475.197 212.748 474.726L232.298 414.996C232.433 414.63 232.691 414.322 233.028 414.125C233.365 413.928 233.76 413.855 234.146 413.919L285.716 425.31C285.92 425.347 286.115 425.424 286.288 425.538C286.462 425.652 286.61 425.799 286.725 425.972C286.84 426.144 286.919 426.338 286.957 426.542C286.996 426.746 286.992 426.955 286.948 427.158C286.948 427.312 283.407 443.629 281.714 451.173C298.801 450.095 345.138 456.561 351.295 465.181C353.143 467.66 353.604 469.969 352.681 471.955C350.833 475.803 344.214 476.573 343.29 476.573H214.287C213.791 476.567 213.308 476.412 212.902 476.127V476.127ZM280.174 454.421C279.923 454.477 279.661 454.464 279.417 454.382C279.173 454.301 278.956 454.155 278.789 453.959C278.63 453.77 278.519 453.545 278.466 453.304C278.412 453.063 278.417 452.812 278.481 452.574C279.558 447.493 282.791 432.715 283.869 427.943L235.069 417.167L216.596 473.51H343.29C344.676 473.356 348.986 472.586 349.91 470.585C350.372 469.646 349.91 468.43 348.832 466.89C344.214 460.409 304.805 454.113 286.024 454.113C284.069 454.03 282.11 454.133 280.174 454.421V454.421Z" fill="black" />
  <path d="M399.941 406.083C399.941 406.083 412.103 429.328 416.413 435.332C444.892 427.019 502.774 426.388 505.545 432.099C508.316 437.811 500.157 439.627 500.157 439.627L371.462 475.034L348.371 420.846L399.941 406.083Z" fill="white" />
  <path d="M370.369 475.85L347.278 421.678C347.123 421.282 347.123 420.842 347.278 420.446C347.372 420.262 347.502 420.1 347.661 419.967C347.82 419.835 348.003 419.736 348.201 419.676L399.772 404.744C400.121 404.654 400.491 404.681 400.824 404.82C401.157 404.959 401.436 405.202 401.619 405.514C401.619 405.652 412.703 426.758 417.321 433.685C443.645 426.45 503.529 423.833 507.223 431.53C507.632 432.337 507.858 433.225 507.884 434.13C507.911 435.034 507.738 435.934 507.377 436.764C505.684 439.997 501.219 441.059 500.758 441.213L372.062 476.619H371.6C371 476.573 370.369 476.265 370.369 475.85ZM416.859 436.595C416.549 436.662 416.226 436.641 415.927 436.535C415.628 436.429 415.365 436.242 415.166 435.994C411.317 430.606 401.619 412.441 399.156 407.669L350.51 421.832L372.37 473.094L499.834 437.98C500.911 437.842 503.682 436.918 504.452 435.224C504.614 434.826 504.685 434.397 504.658 433.968C504.631 433.539 504.508 433.121 504.298 432.746C502.913 430.914 492.137 429.837 477.82 429.837C459.055 429.79 434.116 431.776 416.875 436.548L416.859 436.595Z" fill="black" />
  <path d="M369.461 281.221L312.04 435.471L209.669 417.767L287.41 261.978L348.371 254.589C351.743 254.228 355.151 254.727 358.278 256.04C361.406 257.352 364.15 259.434 366.255 262.093C368.361 264.751 369.759 267.9 370.319 271.244C370.88 274.589 370.584 278.021 369.461 281.221V281.221Z" fill="#7286C0" />
  <path d="M255.389 266.612C255.082 266.15 224.139 215.503 221.368 173.785C221.321 173.579 221.322 173.366 221.37 173.16C221.418 172.955 221.513 172.763 221.647 172.599C221.78 172.436 221.95 172.305 222.141 172.217C222.333 172.129 222.543 172.086 222.754 172.092C223.677 172.092 224.447 172.538 224.447 173.477C227.218 214.426 257.699 264.457 258.006 264.903C258.12 265.074 258.198 265.266 258.237 265.468C258.275 265.67 258.273 265.877 258.23 266.078C258.187 266.279 258.104 266.469 257.986 266.638C257.869 266.806 257.718 266.949 257.545 267.058C257.314 267.198 257.042 267.253 256.775 267.212C256.252 267.201 255.755 266.985 255.389 266.612Z" fill="black" />
  <path d="M98.3689 251.526C95.2884 248.258 93.0156 244.314 91.7325 240.01C90.4494 235.706 90.1916 231.162 90.9797 226.741C100.062 173.323 129.465 139.61 129.773 139.302C129.895 139.121 130.053 138.968 130.238 138.853C130.424 138.737 130.631 138.663 130.847 138.634C131.064 138.605 131.283 138.623 131.492 138.685C131.701 138.748 131.894 138.854 132.059 138.997C132.224 139.14 132.357 139.316 132.448 139.514C132.54 139.712 132.588 139.927 132.59 140.145C132.593 140.363 132.548 140.579 132.461 140.779C132.373 140.978 132.244 141.157 132.082 141.303C131.928 141.596 103.141 174.539 94.0585 227.187C93.406 231.171 93.6735 235.251 94.8406 239.116C96.0076 242.98 98.0433 246.526 100.792 249.483C103.54 252.439 106.929 254.728 110.698 256.173C114.467 257.619 118.517 258.182 122.538 257.822C160.254 254.435 212.286 245.968 221.368 244.429L217.52 194.552L137.162 216.103C136.958 216.201 136.734 216.252 136.508 216.254C136.281 216.255 136.057 216.206 135.852 216.111C135.646 216.016 135.464 215.876 135.319 215.703C135.173 215.529 135.068 215.325 135.01 215.106C134.952 214.887 134.944 214.658 134.985 214.435C135.026 214.212 135.116 214.001 135.248 213.817C135.38 213.633 135.551 213.48 135.749 213.37C135.947 213.26 136.167 213.194 136.393 213.179L218.444 191.165C218.643 191.076 218.864 191.043 219.081 191.07C219.298 191.098 219.503 191.183 219.675 191.319C219.858 191.434 220.01 191.593 220.117 191.781C220.224 191.969 220.284 192.18 220.291 192.396L224.447 245.506C224.482 245.699 224.478 245.897 224.434 246.087C224.391 246.278 224.309 246.458 224.194 246.617C224.079 246.775 223.933 246.908 223.765 247.008C223.596 247.109 223.41 247.174 223.216 247.2C222.6 247.2 164.256 257.206 122.846 260.901C121.928 261.029 121.001 261.08 120.075 261.055C115.995 261.05 111.96 260.201 108.225 258.561C104.489 256.921 101.133 254.526 98.3689 251.526V251.526Z" fill="black" />
  <path d="M242.458 208.714L232.452 165.765C231.116 160.185 227.811 155.275 223.145 151.938C218.478 148.6 212.763 147.06 207.052 147.599C206.643 147.64 206.236 147.517 205.918 147.257C205.6 146.998 205.399 146.622 205.358 146.214C205.317 145.806 205.44 145.398 205.7 145.08C205.96 144.763 206.335 144.561 206.744 144.521C213.194 143.968 219.629 145.745 224.882 149.53C230.135 153.314 233.858 158.855 235.377 165.149L245.075 206.867L311.732 200.248C312.133 200.238 312.525 200.372 312.836 200.626C313.146 200.881 313.356 201.238 313.425 201.633C313.447 201.835 313.428 202.04 313.369 202.235C313.311 202.43 313.215 202.611 313.086 202.769C312.957 202.926 312.798 203.057 312.619 203.152C312.439 203.248 312.242 203.307 312.04 203.326L243.844 210.1C243.662 210.1 243.482 210.064 243.314 209.994C243.145 209.925 242.993 209.823 242.864 209.694C242.735 209.565 242.633 209.413 242.564 209.245C242.494 209.077 242.458 208.896 242.458 208.714V208.714Z" fill="black" />
  <path d="M271.554 201.833C284.485 198.292 286.794 190.457 286.178 188.594C284.793 184.746 281.714 183.976 276.48 187.978C271.246 191.981 255.39 192.597 255.39 192.597C260.316 195.321 271.554 201.833 271.554 201.833Z" fill="white" />
  <path d="M270.784 203.373C270.784 203.219 259.7 196.907 254.774 194.136C254.478 193.976 254.243 193.724 254.104 193.419C253.965 193.113 253.93 192.77 254.004 192.443C254.07 192.115 254.241 191.817 254.491 191.595C254.741 191.373 255.056 191.238 255.39 191.211C259.7 191.057 271.707 189.826 275.556 186.901C278.789 184.458 281.56 183.535 283.869 184.13C284.808 184.401 285.658 184.915 286.334 185.621C287.01 186.326 287.487 187.198 287.717 188.148C287.915 189.035 287.935 189.954 287.777 190.849C287.618 191.745 287.284 192.6 286.794 193.366C285.408 195.999 281.56 200.909 272.015 203.373H271.553C271.246 203.373 270.938 203.172 270.784 203.373ZM277.403 189.518C273.863 192.135 265.858 193.366 260.624 193.982C264.934 196.445 270.014 199.37 271.707 200.294C283.407 196.907 284.792 190.134 284.639 189.21C284.331 187.978 283.715 187.209 282.945 187.055C282.791 186.901 282.637 186.901 282.329 186.901C280.452 187.231 278.728 188.147 277.403 189.518V189.518Z" fill="black" />
  <path d="M222.585 237.517C231.667 237.363 236.901 229.512 236.901 229.512C237.492 232.038 237.545 234.661 237.055 237.209C236.771 237.871 236.662 238.595 236.738 239.312C236.814 240.029 237.074 240.713 237.491 241.301C237.909 241.888 238.47 242.358 239.121 242.666C239.773 242.974 240.493 243.109 241.212 243.059C244.29 242.905 246.138 238.749 247.061 235.978C251.064 239.826 254.758 237.979 258.145 234.9C259.398 235.758 260.925 236.123 262.431 235.924C263.937 235.725 265.317 234.977 266.304 233.822C270.768 227.957 268.151 216.258 264.919 211.193C270.153 213.333 275.695 228.28 279.081 230.436C285.701 232.899 287.24 227.049 285.855 222.893C279.697 206.097 263.995 193.32 255.528 192.551C247.061 191.781 219.66 202.557 219.66 202.557C219.66 202.557 221.984 232.268 222.585 237.517Z" fill="white" />
  <path d="M236.301 242.736C235.693 241.934 235.291 240.995 235.13 240.002C234.969 239.01 235.054 237.992 235.377 237.04C235.714 235.839 235.819 234.585 235.685 233.345C232.213 236.982 227.469 239.133 222.446 239.349C222.063 239.351 221.693 239.21 221.408 238.954C221.124 238.697 220.945 238.344 220.907 237.963L218.136 202.711C218.109 202.39 218.184 202.069 218.35 201.792C218.515 201.516 218.764 201.299 219.059 201.171C220.137 200.709 246.769 190.395 255.543 191.165C265.242 191.935 281.098 205.79 287.102 222.569C288.025 225.34 288.025 229.035 285.716 231.19C284.485 232.268 282.175 233.499 278.327 231.96C278.173 231.96 278.173 231.806 278.019 231.806C276.48 230.728 274.786 227.957 272.323 223.647C271.246 221.953 270.168 219.952 269.09 218.259C270.476 223.801 270.63 230.436 267.397 234.731C266.831 235.527 266.095 236.188 265.244 236.667C264.392 237.146 263.445 237.431 262.471 237.502C261.005 237.699 259.513 237.486 258.16 236.886C256.159 238.733 252.157 241.35 247.692 238.579C246.461 241.504 244.46 244.583 241.227 244.737H240.765C239.923 244.732 239.09 244.552 238.322 244.208C237.553 243.863 236.865 243.362 236.301 242.736V242.736ZM248 235.038C250.771 237.64 253.234 237.348 256.929 233.945C257.217 233.663 257.604 233.505 258.007 233.505C258.409 233.505 258.796 233.663 259.084 233.945C260.007 234.504 261.096 234.722 262.163 234.561C262.703 234.499 263.226 234.331 263.702 234.067C264.177 233.803 264.596 233.448 264.934 233.022C268.782 227.942 266.473 217.012 263.395 212.086C263.216 211.803 263.134 211.47 263.162 211.136C263.19 210.803 263.326 210.488 263.548 210.238C263.736 209.98 264.006 209.793 264.314 209.709C264.622 209.625 264.949 209.649 265.242 209.777C268.782 211.316 271.861 216.704 274.94 222.092C276.634 224.863 278.481 228.25 279.558 229.019C280.944 229.481 282.637 229.789 283.561 228.865C284.484 227.942 284.792 225.479 284.177 223.477C278.173 206.698 262.779 194.69 255.236 194.075C248.154 193.459 226.294 201.464 221.214 203.465L223.677 236.101C230.913 235.177 235.377 228.865 235.377 228.865C235.548 228.627 235.784 228.442 236.057 228.333C236.33 228.223 236.628 228.195 236.916 228.25C237.214 228.263 237.498 228.376 237.721 228.572C237.945 228.768 238.096 229.034 238.148 229.327C238.822 232.104 238.875 234.995 238.302 237.794C238.139 238.283 238.096 238.804 238.176 239.313C238.257 239.822 238.458 240.304 238.764 240.719C239.063 241.025 239.423 241.265 239.821 241.424C240.219 241.583 240.645 241.658 241.073 241.643C242.766 241.489 244.306 239.487 245.691 235.485C245.79 235.26 245.938 235.06 246.124 234.9C246.311 234.74 246.531 234.624 246.769 234.561H247.077C247.26 234.558 247.441 234.602 247.602 234.688C247.764 234.774 247.901 234.9 248 235.054V235.038Z" fill="black" />
  <path d="M257.699 236.27C257.496 236.24 257.302 236.164 257.132 236.049C256.962 235.934 256.82 235.782 256.716 235.605C256.613 235.428 256.551 235.229 256.534 235.025C256.518 234.82 256.547 234.614 256.621 234.423C256.621 234.269 259.238 225.186 255.39 217.335C255.264 217.149 255.181 216.937 255.146 216.715C255.111 216.493 255.125 216.266 255.187 216.05C255.25 215.834 255.358 215.634 255.506 215.465C255.653 215.295 255.836 215.16 256.042 215.069C256.247 214.978 256.47 214.932 256.695 214.937C256.919 214.941 257.14 214.994 257.342 215.092C257.544 215.191 257.722 215.333 257.863 215.507C258.005 215.682 258.106 215.886 258.161 216.104C262.471 225.032 259.7 234.884 259.546 235.346C259.412 235.649 259.198 235.91 258.927 236.1C258.655 236.29 258.337 236.402 258.007 236.424C257.853 236.424 257.699 236.424 257.699 236.27Z" fill="black" />
  <path d="M246.769 237.671C246.375 237.563 246.034 237.316 245.808 236.977C245.582 236.638 245.486 236.228 245.537 235.823C246.461 230.728 246.461 224.416 244.921 223.185C244.595 222.94 244.379 222.575 244.321 222.171C244.263 221.767 244.369 221.356 244.614 221.03C244.859 220.703 245.223 220.487 245.627 220.429C246.032 220.372 246.442 220.477 246.769 220.722C250.771 223.662 249.078 234.284 248.616 236.424C248.544 236.777 248.351 237.093 248.069 237.318C247.788 237.543 247.437 237.663 247.077 237.655L246.769 237.671Z" fill="black" />
  <path d="M362.533 280.344L427.558 406.083L329.743 435.209L288.641 324.371L161.177 348.848C154.662 350.082 147.957 349.888 141.524 348.279C135.091 346.67 129.084 343.684 123.918 339.527C118.752 335.371 114.549 330.143 111.599 324.204C108.65 318.265 107.025 311.756 106.836 305.128L106.374 286.963L309.115 256.944C319.323 255.359 329.77 256.719 339.232 260.863C348.694 265.008 356.777 271.766 362.533 280.344V280.344Z" fill="#7286C0" />
  <path d="M195.506 342.197C195.432 341.788 195.519 341.366 195.749 341.019C195.978 340.672 196.332 340.427 196.738 340.335L313.118 318.013C313.32 317.973 313.528 317.972 313.73 318.013C313.932 318.053 314.125 318.132 314.296 318.246C314.468 318.361 314.615 318.508 314.73 318.679C314.845 318.85 314.925 319.043 314.965 319.245C315.005 319.447 315.006 319.655 314.966 319.857C314.926 320.059 314.846 320.252 314.732 320.423C314.617 320.595 314.47 320.742 314.299 320.857C314.128 320.972 313.936 321.052 313.733 321.092L197.353 343.46H197.046C196.681 343.466 196.326 343.342 196.044 343.111C195.762 342.88 195.572 342.556 195.506 342.197Z" fill="black" />
  <path d="M328.204 435.625L287.101 324.787C287.03 324.596 286.998 324.392 287.006 324.189C287.014 323.985 287.063 323.785 287.148 323.601C287.234 323.416 287.356 323.25 287.507 323.113C287.657 322.975 287.833 322.869 288.025 322.801C288.217 322.727 288.422 322.693 288.627 322.7C288.832 322.707 289.034 322.755 289.22 322.841C289.407 322.927 289.574 323.049 289.713 323.201C289.851 323.353 289.958 323.531 290.026 323.724L331.129 434.562C331.2 434.753 331.232 434.957 331.224 435.16C331.216 435.364 331.168 435.564 331.082 435.748C330.996 435.933 330.874 436.099 330.724 436.236C330.573 436.374 330.397 436.48 330.205 436.548C330.147 436.611 330.075 436.659 329.995 436.689C329.914 436.718 329.828 436.728 329.743 436.718C329.413 436.688 329.097 436.571 328.826 436.379C328.556 436.187 328.341 435.927 328.204 435.625Z" fill="black" />
  <path d="M376.696 303.542L361.456 280.913C355.812 272.597 347.933 266.045 338.727 262.014C329.52 257.983 319.362 256.636 309.423 258.13L258.161 265.673C257.828 265.632 257.518 265.485 257.277 265.252C257.036 265.02 256.878 264.715 256.825 264.385C256.773 264.054 256.83 263.715 256.988 263.42C257.145 263.125 257.395 262.889 257.699 262.748L308.961 255.205C319.47 253.615 330.215 255.042 339.944 259.321C349.674 263.6 357.988 270.554 363.919 279.374L379.159 302.018C379.27 302.189 379.347 302.38 379.384 302.58C379.421 302.78 379.418 302.986 379.375 303.185C379.332 303.384 379.25 303.572 379.133 303.739C379.017 303.906 378.869 304.049 378.697 304.158C378.42 304.34 378.103 304.451 377.773 304.481C377.312 304.481 376.696 304.328 376.696 303.542Z" fill="black" />
  <path d="M411.64 235.978L411.948 247.354L232.452 268.906L230.451 258.299L411.64 235.978Z" fill="white" />
  <path d="M230.913 269.367L229.066 258.745C229.001 258.31 229.112 257.868 229.374 257.514C229.501 257.342 229.662 257.199 229.848 257.093C230.033 256.987 230.239 256.92 230.451 256.898L411.641 234.423C411.848 234.372 412.065 234.371 412.273 234.418C412.481 234.466 412.675 234.562 412.839 234.698C413.004 234.834 413.134 235.007 413.22 235.202C413.306 235.398 413.345 235.61 413.334 235.824L413.488 247.369C413.468 247.746 413.32 248.104 413.068 248.384C412.815 248.664 412.475 248.849 412.103 248.909L232.606 270.46H232.452C232.111 270.475 231.774 270.376 231.496 270.178C231.217 269.98 231.012 269.695 230.913 269.367ZM410.101 237.671L232.299 259.684L233.684 267.212L410.255 246.122L410.101 237.671Z" fill="black" />
  <path d="M285.716 251.51L319.121 165.472L446.585 149.462L411.64 235.977L285.716 251.51Z" fill="white" />
  <path d="M284.485 252.434C284.347 252.204 284.262 251.948 284.236 251.681C284.209 251.415 284.241 251.147 284.331 250.895L317.736 164.841C317.821 164.579 317.985 164.35 318.206 164.185C318.426 164.019 318.692 163.926 318.968 163.917L446.585 147.907C446.848 147.894 447.111 147.943 447.352 148.05C447.592 148.157 447.804 148.319 447.971 148.523C448.108 148.753 448.193 149.01 448.22 149.276C448.247 149.542 448.214 149.81 448.125 150.063L413.18 236.578C413.095 236.84 412.931 237.069 412.71 237.234C412.49 237.4 412.224 237.493 411.949 237.502L285.87 253.05H285.701C285.462 253.062 285.224 253.012 285.011 252.904C284.797 252.796 284.616 252.634 284.485 252.434V252.434ZM444.261 151.294L320.184 166.842L288.01 249.663L410.548 234.577L444.261 151.294Z" fill="black" />
  <path d="M104.68 286.763C104.68 279.99 108.529 258.284 108.683 257.36C108.72 257.156 108.797 256.961 108.911 256.788C109.024 256.615 109.172 256.466 109.344 256.351C109.517 256.236 109.711 256.157 109.915 256.119C110.118 256.08 110.328 256.084 110.53 256.129C110.924 256.236 111.265 256.483 111.491 256.822C111.717 257.162 111.813 257.571 111.762 257.976C111.762 258.284 107.913 280.451 107.913 286.917C107.927 287.123 107.896 287.329 107.824 287.522C107.751 287.715 107.638 287.89 107.493 288.036C107.347 288.181 107.172 288.294 106.979 288.367C106.786 288.439 106.579 288.47 106.374 288.456C105.934 288.427 105.52 288.24 105.209 287.928C104.897 287.617 104.709 287.203 104.68 286.763V286.763Z" fill="black" />
  <path d="M367.23 185.471L352.753 199.949L367.23 214.426L381.708 199.949L367.23 185.471Z" fill="#7286C0" />
  <path d="M136.239 359.885C106.066 354.959 83.2827 340.181 71.1212 317.397C58.9598 294.614 53.7258 244.737 53.7258 244.737L79.8959 249.509C79.8959 249.509 78.0487 265.211 94.8283 269.829C147.015 282.299 159.176 310.932 163.179 338.487C167.181 366.043 191.504 363.118 191.504 363.118C166.257 365.012 166.411 364.811 136.239 359.885Z" fill="white" />
  <path d="M161.793 338.487C158.098 312.317 147.169 283.684 94.5204 271.215C89.6658 270.112 85.3728 267.292 82.4312 263.276C79.4897 259.26 78.0974 254.316 78.5105 249.355C78.5163 249.147 78.5666 248.944 78.6581 248.757C78.7496 248.571 78.88 248.407 79.0407 248.275C79.2013 248.144 79.3883 248.049 79.589 247.996C79.7897 247.943 79.9994 247.934 80.2039 247.969C80.4064 247.989 80.6031 248.048 80.7826 248.144C80.9622 248.239 81.1209 248.37 81.2498 248.527C81.3786 248.685 81.475 248.866 81.5332 249.061C81.5915 249.256 81.6106 249.46 81.5893 249.663C81.4354 250.279 80.0499 263.979 95.2901 268.29C149.94 281.375 161.177 312.471 164.872 338.179C168.566 363.888 190.426 361.579 191.35 361.425C191.758 361.384 192.166 361.507 192.484 361.767C192.801 362.026 193.002 362.402 193.043 362.81C193.084 363.218 192.961 363.626 192.701 363.944C192.441 364.261 192.066 364.463 191.658 364.503C190.997 364.614 190.327 364.666 189.656 364.657C183.499 364.657 165.18 362.656 161.793 338.487Z" fill="black" />
  <path d="M115.918 356.345C81.743 345.723 60.9608 316.935 54.1874 270.907C47.8758 227.665 56.4965 186.562 57.5741 181.944C64.0397 152.987 82.8206 137.901 98.2148 137.901H98.3687C112.223 138.07 123.923 148.538 124.385 149C124.636 149.279 124.777 149.641 124.781 150.016C124.785 150.392 124.651 150.756 124.405 151.04C124.159 151.324 123.818 151.508 123.445 151.557C123.073 151.607 122.695 151.519 122.384 151.309C122.23 151.156 110.992 141.149 98.3687 140.98H98.2148C86.8231 140.98 67.4264 152.079 60.653 182.714C59.7293 187.162 51.1086 227.803 57.4202 270.46C64.0397 315.104 84.0521 343.106 116.996 353.42C193.967 377.604 248 344.66 248.462 344.353C248.632 344.238 248.823 344.159 249.025 344.119C249.226 344.08 249.433 344.081 249.634 344.122C249.834 344.164 250.025 344.245 250.194 344.361C250.363 344.478 250.507 344.626 250.617 344.799C250.731 344.97 250.809 345.162 250.848 345.364C250.886 345.566 250.884 345.773 250.841 345.974C250.798 346.175 250.715 346.365 250.597 346.533C250.479 346.702 250.329 346.845 250.155 346.954C249.848 347.262 219.983 365.427 173.338 365.427C153.848 365.335 134.486 362.272 115.918 356.345V356.345Z" fill="black" />
  <path d="M149.631 476.573C149.429 476.554 149.232 476.495 149.053 476.399C148.873 476.303 148.714 476.173 148.586 476.016C148.457 475.858 148.36 475.677 148.302 475.482C148.244 475.287 148.225 475.082 148.246 474.88L161.947 363.888C161.967 363.686 162.027 363.489 162.123 363.31C162.219 363.131 162.349 362.973 162.507 362.844C162.664 362.716 162.845 362.619 163.039 362.561C163.234 362.502 163.438 362.482 163.64 362.502C163.842 362.523 164.039 362.582 164.218 362.678C164.397 362.774 164.555 362.905 164.684 363.062C164.812 363.219 164.909 363.4 164.967 363.595C165.026 363.789 165.046 363.994 165.026 364.196L151.325 475.188C151.268 475.561 151.084 475.903 150.803 476.156C150.522 476.409 150.163 476.556 149.785 476.573H149.631Z" fill="black" />
  <path d="M44.4892 476.419C44.2956 476.351 44.1177 476.244 43.9659 476.106C43.8141 475.967 43.6916 475.8 43.6056 475.613C43.5195 475.427 43.4716 475.225 43.4647 475.02C43.4579 474.815 43.4921 474.61 43.5655 474.418L90.1945 341.274C90.3354 340.886 90.6245 340.57 90.9984 340.395C91.3723 340.221 91.8002 340.202 92.1881 340.342C92.576 340.483 92.892 340.772 93.0666 341.146C93.2413 341.52 93.2603 341.948 93.1194 342.336L46.4751 475.496C46.3814 475.795 46.1986 476.059 45.951 476.251C45.7034 476.444 45.4028 476.556 45.0896 476.573C44.8777 476.593 44.6656 476.538 44.4892 476.419V476.419Z" fill="black" />
  <path d="M220.429 70.0588C220.429 70.0588 230.282 32.497 188.871 37.885C167.781 40.9638 142.689 56.0502 147.923 71.2904C141.303 75.2929 129.45 93.7659 133.914 111.931C138.224 129.788 150.232 135.484 165.472 133.637C165.164 127.479 159.93 77.2941 159.93 77.2941L220.429 70.0588Z" fill="#7286C0" />
  <path d="M190.565 134.561V143.335C190.565 143.335 181.944 149.185 166.242 143.489C165.78 138.409 165.164 122.707 165.164 122.707C164.394 124.203 163.131 125.388 161.588 126.061C160.046 126.734 158.318 126.854 156.697 126.402C150.386 125.17 148.846 119.782 148.385 115.164C147.923 110.546 151.155 102.079 162.701 109.622L160.084 77.2943L217.197 70.3669C217.197 70.3669 231.359 68.2117 231.667 75.293C231.975 82.3744 227.511 84.6835 218.12 86.8387C217.966 91.149 221.815 137.024 195.953 135.176L190.565 134.561Z" fill="white" />
  <path d="M189.795 90.6871C191.07 90.6871 192.104 89.6533 192.104 88.378C192.104 87.1027 191.07 86.0688 189.795 86.0688C188.52 86.0688 187.486 87.1027 187.486 88.378C187.486 89.6533 188.52 90.6871 189.795 90.6871Z" fill="black" />
  <path d="M199.955 90.0714C201.23 90.0714 202.264 89.0375 202.264 87.7623C202.264 86.487 201.23 85.4531 199.955 85.4531C198.68 85.4531 197.646 86.487 197.646 87.7623C197.646 89.0375 198.68 90.0714 199.955 90.0714Z" fill="black" />
  <path d="M179.173 147.646C174.535 147.61 169.943 146.723 165.626 145.029C165.338 144.917 165.085 144.729 164.896 144.485C164.706 144.241 164.586 143.95 164.548 143.643C164.24 140.102 163.779 131.482 163.625 126.556C162.559 127.292 161.35 127.795 160.077 128.034C158.804 128.273 157.495 128.241 156.235 127.941C150.54 126.863 147.307 122.553 146.691 115.318C146.489 113.562 146.752 111.785 147.455 110.163C148.158 108.542 149.274 107.134 150.694 106.081C153.926 104.234 158.083 104.85 163.317 108.236C163.664 108.461 163.907 108.814 163.994 109.218C164.081 109.623 164.003 110.045 163.779 110.392C163.554 110.739 163.201 110.982 162.797 111.069C162.392 111.156 161.97 111.078 161.623 110.853C157.467 108.236 154.234 107.467 152.233 108.698C150.232 109.93 149.616 113.163 149.77 115.01C150.232 121.014 152.541 124.092 156.697 124.862C161.777 125.786 163.471 122.091 163.471 122.091C163.605 121.767 163.847 121.499 164.155 121.331C164.463 121.163 164.819 121.106 165.164 121.168C165.492 121.233 165.79 121.404 166.012 121.654C166.234 121.904 166.369 122.22 166.396 122.553C166.396 122.707 167.011 136.562 167.473 142.258C179.327 146.26 186.562 143.335 188.871 142.258V134.561C188.871 134.152 189.033 133.761 189.322 133.472C189.611 133.183 190.002 133.021 190.411 133.021C190.819 133.021 191.21 133.183 191.499 133.472C191.788 133.761 191.95 134.152 191.95 134.561V143.335C191.907 143.808 191.687 144.248 191.334 144.567C191.026 144.875 186.87 147.646 179.173 147.646Z" fill="black" />
  <path d="M197.184 136.716H195.491L185.023 135.638C184.638 135.547 184.294 135.332 184.043 135.026C183.793 134.72 183.65 134.34 183.637 133.945C183.707 133.55 183.916 133.192 184.227 132.938C184.538 132.684 184.929 132.55 185.331 132.559L195.799 133.637C197.863 133.867 199.953 133.642 201.922 132.977C203.89 132.312 205.688 131.224 207.19 129.788C217.043 120.398 216.427 96.9988 216.273 89.3017V86.8387C216.3 86.5053 216.435 86.1898 216.657 85.9398C216.879 85.6898 217.176 85.519 217.504 85.4532C227.203 83.298 229.974 80.9889 229.82 75.447C229.846 75.0627 229.775 74.6779 229.614 74.3282C229.453 73.9784 229.206 73.6749 228.896 73.4458C226.279 71.2906 219.66 71.7524 217.197 72.0603C216.98 72.1604 216.744 72.2091 216.506 72.2024C216.268 72.1957 216.035 72.1339 215.825 72.0218C215.614 71.9097 215.433 71.7504 215.295 71.5563C215.157 71.3623 215.066 71.1389 215.029 70.9037C214.991 70.6684 215.009 70.4278 215.081 70.2006C215.153 69.9735 215.276 69.7661 215.441 69.5947C215.607 69.4233 215.81 69.2926 216.034 69.2129C216.258 69.1332 216.498 69.1067 216.735 69.1354C217.812 68.9814 226.741 67.7499 230.743 71.1366C231.387 71.6621 231.911 72.3179 232.283 73.0609C232.654 73.8038 232.864 74.617 232.899 75.447C233.206 84.0677 227.049 86.5308 219.352 88.3781V89.4557C219.506 97.4607 220.121 122.091 209.345 132.252C205.989 135.202 201.652 136.794 197.184 136.716V136.716Z" fill="black" />
  <path d="M147.923 72.8298C147.645 72.8313 147.372 72.7612 147.129 72.6264C146.887 72.4916 146.683 72.2966 146.537 72.0601C146.383 71.5983 141.303 62.6697 132.375 65.9024C132.183 65.9732 131.979 66.0054 131.774 65.9973C131.57 65.9892 131.369 65.9409 131.183 65.8551C130.997 65.7693 130.83 65.6478 130.691 65.4974C130.552 65.3471 130.444 65.1709 130.373 64.9788C130.303 64.7868 130.27 64.5826 130.279 64.3781C130.287 64.1736 130.335 63.9727 130.421 63.7869C130.507 63.601 130.628 63.4339 130.778 63.2951C130.929 63.1562 131.105 63.0483 131.297 62.9776C140.38 59.5908 146.999 66.3643 149.154 70.5207C149.262 70.7011 149.331 70.9015 149.358 71.1097C149.385 71.3179 149.37 71.5294 149.312 71.7313C149.254 71.9331 149.156 72.1211 149.023 72.2835C148.89 72.446 148.725 72.5795 148.539 72.6759C148.385 72.6759 148.231 72.8298 147.923 72.8298Z" fill="black" />
  <path d="M341.973 21.4279L269.859 40.5889L289.02 112.702L361.134 93.5414L341.973 21.4279Z" fill="white" />
  <path d="M448.771 126.494C456.661 126.494 463.057 120.098 463.057 112.208C463.057 104.318 456.661 97.9224 448.771 97.9224C440.881 97.9224 434.485 104.318 434.485 112.208C434.485 120.098 440.881 126.494 448.771 126.494Z" fill="#C07272" />
  <path d="M448.51 0L454.898 18.6885L473.895 24.3228L457.931 36.0224L458.547 55.9271L442.429 44.3814L423.741 51.0625L429.821 32.22L417.506 16.5641L437.426 16.4102L448.51 0Z" fill="#7286C0" />
  <path d="M287.871 115.964C287.61 115.988 287.348 115.934 287.117 115.81C286.786 115.58 286.521 115.267 286.347 114.902L266.442 39.8246C266.352 39.4414 266.411 39.0378 266.609 38.697C266.806 38.3563 267.127 38.1042 267.505 37.9927L342.659 18.0881C343.04 18.0015 343.44 18.0631 343.777 18.2603C344.114 18.4576 344.364 18.7757 344.476 19.1503L364.396 94.2277C364.482 94.6088 364.421 95.0084 364.223 95.3458C364.026 95.6831 363.708 95.9328 363.333 96.0442L288.256 115.964H287.871ZM269.783 40.5328L288.933 112.547L360.963 93.4118L341.828 21.367L269.783 40.5328Z" fill="black" />
  <path d="M302.623 58.0269L292.64 60.6794L300.835 91.5214L310.818 88.8688L302.623 58.0269Z" fill="#C07272" />
  <path d="M319.89 63.9339L309.907 66.5864L315.489 87.5941L325.472 84.9415L319.89 63.9339Z" fill="#94CFCB" />
  <path d="M330.001 42.4732L320.018 45.1257L330.245 83.615L340.228 80.9624L330.001 42.4732Z" fill="#7286C0" />
  <path d="M299.124 93.4735C298.797 93.4495 298.481 93.3384 298.21 93.1517C297.94 92.965 297.724 92.7094 297.585 92.4114C297.494 92.0281 297.554 91.6246 297.751 91.2838C297.949 90.943 298.269 90.691 298.647 90.5795L341.351 79.1877C341.69 79.1888 342.02 79.302 342.288 79.5099C342.557 79.7177 342.749 80.0085 342.835 80.337C342.921 80.6654 342.896 81.0131 342.764 81.3259C342.632 81.6387 342.4 81.8991 342.105 82.0665L299.556 93.4735H299.124Z" fill="black" />
  <path d="M360.439 128.572C377.477 128.572 391.289 114.76 391.289 97.7223C391.289 80.6843 377.477 66.8723 360.439 66.8723C343.401 66.8723 329.589 80.6843 329.589 97.7223C329.589 114.76 343.401 128.572 360.439 128.572Z" fill="white" />
  <path d="M360.44 130.081C354.046 130.081 347.796 128.185 342.479 124.633C337.163 121.08 333.019 116.032 330.573 110.124C328.126 104.217 327.486 97.7172 328.733 91.4462C329.98 85.1753 333.059 79.4151 337.58 74.8939C342.102 70.3728 347.862 67.2939 354.133 66.0465C360.404 64.7991 366.904 65.4393 372.811 67.8861C378.718 70.3329 383.767 74.4765 387.319 79.7927C390.871 85.109 392.767 91.3593 392.767 97.7531C392.767 106.327 389.361 114.55 383.299 120.612C377.236 126.675 369.013 130.081 360.44 130.081V130.081ZM360.44 68.2425C354.658 68.2577 349.011 69.986 344.211 73.2092C339.411 76.4323 335.674 81.0057 333.472 86.3515C331.27 91.6974 330.702 97.576 331.839 103.245C332.976 108.913 335.768 114.118 339.862 118.201C343.955 122.283 349.167 125.061 354.839 126.184C360.51 127.306 366.387 126.723 371.727 124.506C377.067 122.29 381.631 118.542 384.841 113.733C388.052 108.925 389.766 103.273 389.766 97.4914C389.741 89.7283 386.641 82.2913 381.145 76.8091C375.648 71.3269 368.203 68.2465 360.44 68.2425Z" fill="black" />
  <path d="M345.846 107.143C345.646 107.149 345.447 107.11 345.264 107.03C345.08 106.951 344.916 106.832 344.784 106.682C344.637 106.546 344.52 106.382 344.44 106.199C344.361 106.016 344.319 105.819 344.319 105.619C344.319 105.42 344.361 105.223 344.44 105.04C344.52 104.857 344.637 104.693 344.784 104.557L353.743 95.6133C354.03 95.3358 354.414 95.1807 354.813 95.1807C355.212 95.1807 355.596 95.3358 355.883 95.6133L361.502 101.248L374.11 88.6243C374.406 88.4307 374.761 88.3453 375.113 88.3826C375.465 88.4198 375.794 88.5775 376.043 88.8289C376.293 89.0803 376.448 89.41 376.483 89.7626C376.518 90.1151 376.43 90.4688 376.234 90.7641L362.564 104.434C362.278 104.707 361.897 104.859 361.502 104.859C361.106 104.859 360.726 104.707 360.44 104.434L354.805 98.8152L346.908 106.712C346.618 106.98 346.24 107.133 345.846 107.143V107.143Z" fill="black" />
  <path d="M374.987 98.1687C374.78 98.1876 374.571 98.1608 374.376 98.0901C374.181 98.0194 374.003 97.9067 373.856 97.7598C373.709 97.6128 373.597 97.4354 373.526 97.24C373.455 97.0446 373.429 96.8361 373.447 96.6292V91.1489H367.967C367.559 91.1489 367.167 90.9867 366.879 90.698C366.59 90.4093 366.428 90.0178 366.428 89.6095C366.428 89.2012 366.59 88.8096 366.879 88.5209C367.167 88.2322 367.559 88.0701 367.967 88.0701H374.987C375.193 88.0539 375.401 88.0825 375.595 88.1542C375.789 88.2258 375.965 88.3387 376.111 88.485C376.258 88.6313 376.371 88.8076 376.442 89.0017C376.514 89.1959 376.543 89.4032 376.526 89.6095V96.6138C376.545 96.8213 376.518 97.0304 376.447 97.2264C376.377 97.4225 376.264 97.6008 376.118 97.7488C375.971 97.8969 375.794 98.0111 375.599 98.0836C375.403 98.1561 375.195 98.1852 374.987 98.1687V98.1687Z" fill="black" />
  <path d="M583.901 477.759H1.53942C1.13114 477.759 0.739581 477.596 0.450884 477.308C0.162187 477.019 0 476.627 0 476.219C0 475.811 0.162187 475.419 0.450884 475.131C0.739581 474.842 1.13114 474.68 1.53942 474.68H584.055C584.261 474.666 584.467 474.697 584.66 474.769C584.853 474.842 585.028 474.955 585.174 475.1C585.32 475.246 585.433 475.421 585.505 475.614C585.578 475.807 585.608 476.013 585.595 476.219C585.596 476.435 585.552 476.649 585.465 476.846C585.378 477.044 585.251 477.221 585.091 477.366C584.931 477.511 584.743 477.621 584.538 477.689C584.333 477.756 584.116 477.78 583.901 477.759Z" fill="black" />
</svg>
