<svg xmlns="http://www.w3.org/2000/svg" viewBox="0 0 299 236" fill="none" xmlns:v="https://vecta.io/nano"><path d="M55.115 163.868a15.25 15.25 0 0 0 15.246-15.246 15.25 15.25 0 0 0-15.246-15.246 15.25 15.25 0 0 0-15.246 15.246 15.25 15.25 0 0 0 15.246 15.246z" fill="#7286c0"/><path d="M18.634 171.213h65.708s-5.021-14.036-15.548-14.036-15.064 6.292-15.064 6.292-2.843-21.477-20.328-21.477-19.36 16.395-19.36 29.221h4.592z" fill="#e3e6ed"/><path d="M.605 42.349h86.332s-.181-20.207-13.068-20.207c-8.288 0-10.466 5.929-10.466 5.929s-.363-16.093-16.637-16.093c-8.228 0-15.911 6.897-18.15 17.242-6.171-5.143-9.619-6.473-13.128-6.473S1.331 28.676.605 42.349z" fill="#fff"/><path d="M86.937 42.954H.605a.55.55 0 0 1-.423-.181c-.11-.114-.174-.265-.181-.423.726-13.975 11.555-20.146 15.548-20.146 3.327 0 6.655 1.029 12.765 5.989 2.48-9.922 9.982-16.758 18.513-16.758 13.189 0 16.274 10.406 17 14.762 1.331-1.876 4.295-4.598 10.043-4.598 13.31 0 13.612 20.57 13.673 20.812a.55.55 0 0 1-.181.424c-.125.084-.273.127-.424.121h0zM1.27 41.744h85.062c-.181-3.328-1.513-18.997-12.402-18.997-7.744 0-9.801 5.324-9.861 5.505-.053.127-.148.233-.269.299s-.261.089-.397.064-.263-.104-.352-.215-.135-.249-.133-.39c0-.605-.544-15.488-16.032-15.488-8.228 0-15.427 6.897-17.545 16.758-.028.101-.081.194-.156.268s-.166.128-.268.156-.211.026-.316.005-.203-.064-.289-.126c-6.352-5.324-9.619-6.352-12.765-6.352S2.238 28.918 1.27 41.744h0z" fill="#000"/><path d="M297.299 105.269H183.917s-1.149-26.499 19.905-26.499c10.103 0 18.149 8.833 18.149 8.833s1.936-22.627 19.905-22.627c13.249 0 25.349 14.036 26.74 26.015 4.901-7.441 9.559-8.47 13.492-8.47 6.291-.03 16.637 7.683 15.191 22.748z" fill="#fff"/><path d="M297.299 105.873H183.917a.6.6 0 0 1-.605-.605c0-.544-.544-13.914 6.958-21.719 3.448-3.57 7.986-5.384 13.552-5.384 8.409 0 15.306 5.808 17.726 8.107.726-4.84 4.537-21.961 20.328-21.961 13.067 0 24.865 13.128 27.103 24.986 4.84-6.594 9.499-7.502 13.129-7.502 3.448 0 7.441 2.057 10.466 5.324 4.114 4.537 6.05 11.011 5.384 18.149a.76.76 0 0 1-.23.411c-.119.109-.269.177-.429.194zm-112.831-1.21h112.226c.484-6.594-1.271-12.462-5.082-16.697-2.783-3.025-6.413-4.961-9.559-4.961-3.751 0-8.228.968-13.007 8.228-.072.105-.174.185-.294.229s-.249.048-.372.013a.66.66 0 0 1-.484-.544c-1.391-11.797-13.067-25.47-26.135-25.47-17.182 0-19.3 21.84-19.3 22.082-.012.122-.058.237-.133.333s-.175.169-.29.211a.68.68 0 0 1-.357-.001c-.117-.032-.224-.094-.309-.181-.06-.06-7.985-8.651-17.726-8.651-5.203 0-9.498 1.694-12.705 5.022-6.116 6.715-6.479 17.787-6.479 20.388h.006z" fill="#000"/><path d="M73.664 23.873V190.47h131.785V23.873c0-1.752-.696-3.433-1.935-4.672s-2.919-1.935-4.672-1.935H80.331c-1.757 0-3.442.694-4.689 1.932s-1.954 2.918-1.966 4.675" fill="#fff"/><path d="M73.664 23.873c.002-1.753.699-3.433 1.939-4.672a6.61 6.61 0 0 1 4.674-1.935h118.506c1.753 0 3.434.696 4.674 1.935a6.61 6.61 0 0 1 1.938 4.672V0H73.664v23.873zm131.785 166.596H73.664v42.446h131.785v-42.446z" fill="#e3e6ed"/><g fill="#000"><path d="M205.449 191.038c-.076.004-.152-.007-.223-.034s-.135-.069-.189-.123-.095-.118-.122-.189-.039-.147-.035-.223V30.709c.015-.142.081-.273.187-.368s.243-.148.385-.148.279.053.385.148.172.226.187.368v159.76a.61.61 0 0 1-.179.395c-.106.105-.247.167-.396.174h0zm-131.785 0c-.076.004-.152-.007-.223-.034s-.135-.069-.189-.123a.53.53 0 0 1-.122-.189.54.54 0 0 1-.034-.223V23.873a.57.57 0 0 1 .569-.569.57.57 0 0 1 .569.569v166.596a.53.53 0 0 1-.032.224.52.52 0 0 1-.122.19.54.54 0 0 1-.19.123.55.55 0 0 1-.224.032h0z"/><path d="M205.449 24.442a.54.54 0 0 1-.412-.157.55.55 0 0 1-.122-.189c-.027-.071-.039-.147-.035-.223a6.05 6.05 0 0 0-6.049-6.05h-118.5a6.05 6.05 0 0 0-6.05 6.05.57.57 0 0 1-.166.402c-.053.053-.115.095-.184.123a.57.57 0 0 1-.435 0c-.069-.028-.132-.07-.184-.123s-.095-.116-.123-.184a.57.57 0 0 1-.043-.218 7.19 7.19 0 0 1 2.103-5.074c1.345-1.346 3.169-2.104 5.072-2.107h118.524a7.19 7.19 0 0 1 7.181 7.181c-.009.149-.072.29-.179.395s-.247.167-.396.174zm-54.183-15.44h-23.365a.57.57 0 0 1-.217-.043c-.069-.029-.132-.07-.185-.123s-.095-.116-.123-.184a.56.56 0 0 1-.043-.218.56.56 0 0 1 .043-.218c.028-.069.07-.132.123-.184s.116-.095.185-.123a.57.57 0 0 1 .217-.043h23.359a.55.55 0 0 1 .224.032c.072.026.136.068.19.122a.52.52 0 0 1 .122.19c.027.071.038.148.033.224 0 .15-.059.294-.165.4s-.248.167-.398.169h0zm58.744 182.036h-18.803c-.15 0-.295-.06-.402-.166s-.166-.252-.166-.403a.57.57 0 0 1 .166-.402c.106-.107.252-.166.402-.166h18.803a.53.53 0 0 1 .569.568c0 .151-.06.296-.166.403s-.252.166-.403.166h0zm-27.121 0H69.108a.57.57 0 0 1-.569-.568.57.57 0 0 1 .569-.569h113.781a.57.57 0 0 1 .569.569.57.57 0 0 1-.569.568h0zm-43.299 30.939c-2.035 0-4.023-.603-5.714-1.733a10.28 10.28 0 0 1-4.374-10.558 10.29 10.29 0 0 1 8.081-8.081 10.28 10.28 0 0 1 5.942.586c1.88.778 3.486 2.096 4.616 3.788s1.733 3.679 1.733 5.714c0 2.727-1.083 5.343-3.012 7.272s-4.545 3.012-7.272 3.012h0zm0-19.486c-1.816-.002-3.591.536-5.101 1.543a9.18 9.18 0 0 0-3.383 4.118c-.696 1.677-.878 3.522-.525 5.303a9.17 9.17 0 0 0 12.513 6.693c1.678-.694 3.111-1.871 4.12-3.38s1.547-3.284 1.547-5.1c.002-1.205-.234-2.398-.695-3.512a9.18 9.18 0 0 0-1.987-2.979 9.16 9.16 0 0 0-6.489-2.686h0z"/></g><path d="M166.99 128.536c6.343-6.337 10.293-14.678 11.176-23.601s-1.355-17.877-6.333-25.334a38.76 38.76 0 0 0-20.969-15.565c-8.579-2.606-17.797-2.157-26.083 1.271s-15.126 9.624-19.355 17.53a38.75 38.75 0 0 0-3.84 25.83c1.746 8.795 6.489 16.713 13.418 22.403a38.76 38.76 0 0 0 24.586 8.804v-38.72l27.4 27.382z" fill="#7286c0"/><path d="M178.333 147.57h-9.8a.52.52 0 0 1-.22-.044.51.51 0 0 1-.18-.132l-12.305-12.305c-.103-.106-.16-.248-.16-.395s.06-.289.164-.394a.56.56 0 0 1 .788-.01l12.136 12.136h9.577c.077-.004.153.008.225.035s.136.07.19.124.095.12.122.191a.54.54 0 0 1 .032.225.57.57 0 0 1-.569.569h0zm0 7.858h-9.8c-.151 0-.296-.06-.403-.166s-.166-.252-.166-.402a.57.57 0 0 1 .569-.569h9.8c.076-.004.152.007.223.034a.53.53 0 0 1 .312.312c.027.071.038.147.034.223 0 .15-.06.295-.166.402s-.252.166-.403.166h0zm0 7.811h-9.801c-.141-.015-.272-.081-.367-.187a.57.57 0 0 1-.148-.385.57.57 0 0 1 .148-.385c.095-.105.226-.172.367-.186h9.801a.53.53 0 0 1 .223.034.55.55 0 0 1 .189.122.54.54 0 0 1 .157.412c-.007.149-.069.291-.174.397s-.246.169-.395.178h0z" fill="#000"/><path d="M181.521 150.189a3.19 3.19 0 0 0 3.189-3.188 3.19 3.19 0 0 0-3.189-3.189 3.19 3.19 0 0 0-3.188 3.189 3.19 3.19 0 0 0 3.188 3.188z" fill="#fff"/><path d="M181.522 150.758c-.745.001-1.474-.219-2.093-.632a3.77 3.77 0 0 1-1.389-1.688 3.76 3.76 0 0 1-.216-2.176c.145-.73.504-1.401 1.031-1.928a3.76 3.76 0 0 1 4.103-.814c.688.285 1.276.768 1.689 1.388s.633 1.348.632 2.093c-.01.994-.409 1.944-1.111 2.646a3.79 3.79 0 0 1-2.646 1.111h0zm0-6.383a2.63 2.63 0 0 0-2.582 3.135c.1.509.35.978.717 1.345a2.63 2.63 0 0 0 1.344.721 2.62 2.62 0 0 0 1.518-.149c.48-.198.89-.535 1.179-.967a2.62 2.62 0 0 0 .443-1.459 2.65 2.65 0 0 0-2.619-2.626h0zm10.623-108.354H83.44a.57.57 0 0 1-.402-.167c-.053-.053-.095-.116-.123-.184a.57.57 0 0 1 0-.435c.028-.069.07-.132.123-.184a.57.57 0 0 1 .402-.167h108.766c.075-.004.151.007.222.034a.54.54 0 0 1 .19.123c.054.054.095.118.122.189a.53.53 0 0 1 .034.223.6.6 0 0 1-.198.413.61.61 0 0 1-.431.156zm0 11.985H83.44a.57.57 0 0 1-.569-.569.57.57 0 0 1 .569-.569h108.766c.075-.004.151.007.222.034s.136.069.19.122.095.118.122.189a.53.53 0 0 1 .034.223.6.6 0 0 1-.198.413.61.61 0 0 1-.431.156zm0 128.748H83.44c-.151 0-.295-.059-.402-.166a.57.57 0 0 1 0-.804.57.57 0 0 1 .402-.167h108.766c.075-.004.151.007.222.034a.54.54 0 0 1 .19.123.55.55 0 0 1 .122.189.53.53 0 0 1 .034.223c-.009.158-.08.306-.198.413a.6.6 0 0 1-.431.155zm66.102 59.108H29.378a.61.61 0 0 1-.428-.177.6.6 0 0 1-.177-.428c0-.161.064-.314.177-.428a.6.6 0 0 1 .428-.177h228.929c.081-.005.162.007.238.035a.56.56 0 0 1 .202.13.58.58 0 0 1 .13.202.55.55 0 0 1 .035.238c.001.085-.017.169-.051.246a.6.6 0 0 1-.147.205.62.62 0 0 1-.217.127c-.081.026-.166.036-.25.027h0z" fill="#000"/></svg>