
<svg width="38" height="18" viewBox="0 0 38 18" fill="none" xmlns="http://www.w3.org/2000/svg">
<path d="M13.9101 12.64H9.70672L9.0329 14.624H6.16113L10.2362 3.39197H13.4127L17.4878 14.624H14.5839L13.9101 12.64ZM13.2042 10.528L11.8084 6.41597L10.4287 10.528H13.2042Z" fill="black"/>
<path d="M26.6695 7.00797C26.6695 7.65863 26.5197 8.25597 26.2203 8.79997C25.9208 9.3333 25.4609 9.7653 24.8405 10.096C24.2202 10.4266 23.4501 10.592 22.5303 10.592H20.8297V14.624H18.0863V3.39197H22.5303C23.4287 3.39197 24.1881 3.54663 24.8085 3.85597C25.4288 4.1653 25.8941 4.59197 26.2042 5.13597C26.5144 5.67997 26.6695 6.30397 26.6695 7.00797ZM22.3217 8.41597C22.8458 8.41597 23.2362 8.2933 23.4929 8.04797C23.7496 7.80263 23.8779 7.45597 23.8779 7.00797C23.8779 6.55997 23.7496 6.2133 23.4929 5.96797C23.2362 5.72263 22.8458 5.59997 22.3217 5.59997H20.8297V8.41597H22.3217Z" fill="black"/>
<path d="M30.1994 3.39197V14.624H27.456V3.39197H30.1994Z" fill="black"/>
<path d="M0 7.904C0.524084 7.88267 0.909126 7.77067 1.15512 7.568C1.40112 7.35467 1.52412 7.056 1.52412 6.672C1.52412 6.384 1.47064 5.81333 1.36369 4.96C1.35299 4.87467 1.32091 4.60267 1.26743 4.144C1.21395 3.67467 1.18721 3.25333 1.18721 2.88C1.18721 1.97333 1.4653 1.26933 2.02147 0.768C2.57764 0.256 3.32098 0 4.2515 0H5.40663V2.24H4.78093C4.43867 2.24 4.19267 2.31467 4.04294 2.464C3.8932 2.61333 3.81833 2.84267 3.81833 3.152C3.81833 3.38667 3.86111 3.92 3.94668 4.752C4.04294 5.78667 4.09107 6.464 4.09107 6.784C4.09107 7.37067 3.94668 7.856 3.65789 8.24C3.37981 8.624 2.95199 8.86933 2.37442 8.976V9.008C2.95199 9.12533 3.37981 9.376 3.65789 9.76C3.94668 10.1333 4.09107 10.6187 4.09107 11.216C4.09107 11.536 4.04294 12.2133 3.94668 13.248C3.86111 14.0587 3.81833 14.5867 3.81833 14.832C3.81833 15.1413 3.8932 15.3707 4.04294 15.52C4.19267 15.68 4.43867 15.76 4.78093 15.76H5.40663V18H4.2515C3.32098 18 2.57764 17.744 2.02147 17.232C1.4653 16.7307 1.18721 16.0213 1.18721 15.104C1.18721 14.7307 1.21395 14.3147 1.26743 13.856C1.32091 13.3867 1.35299 13.1093 1.36369 13.024C1.47064 12.1707 1.52412 11.6 1.52412 11.312C1.52412 10.9493 1.40112 10.6613 1.15512 10.448C0.909126 10.224 0.524084 10.1013 0 10.08V7.904Z" fill="#7286C0"/>
<path d="M37.4066 10.08C36.8825 10.1013 36.4975 10.224 36.2515 10.448C36.0055 10.6613 35.8825 10.9493 35.8825 11.312C35.8825 11.6 35.936 12.1707 36.0429 13.024C36.0536 13.1093 36.0857 13.3867 36.1392 13.856C36.1927 14.3147 36.2194 14.7307 36.2194 15.104C36.2194 16.0213 35.9413 16.7307 35.3852 17.232C34.829 17.744 34.0856 18 33.1551 18H32V15.76H32.6257C32.9679 15.76 33.2139 15.68 33.3637 15.52C33.5134 15.3707 33.5883 15.1413 33.5883 14.832C33.5883 14.5867 33.5455 14.0587 33.4599 13.248C33.3637 12.2133 33.3156 11.536 33.3156 11.216C33.3156 10.6187 33.4546 10.1333 33.7327 9.76C34.0215 9.376 34.4546 9.12533 35.0322 9.008V8.976C34.4546 8.86933 34.0215 8.624 33.7327 8.24C33.4546 7.856 33.3156 7.37067 33.3156 6.784C33.3156 6.464 33.3637 5.78667 33.4599 4.752C33.5455 3.92 33.5883 3.38667 33.5883 3.152C33.5883 2.84267 33.5134 2.61333 33.3637 2.464C33.2139 2.31467 32.9679 2.24 32.6257 2.24H32V0H33.1551C34.0856 0 34.829 0.256 35.3852 0.768C35.9413 1.26933 36.2194 1.97333 36.2194 2.88C36.2194 3.25333 36.1927 3.67467 36.1392 4.144C36.0857 4.60267 36.0536 4.87467 36.0429 4.96C35.936 5.81333 35.8825 6.384 35.8825 6.672C35.8825 7.056 36.0055 7.35467 36.2515 7.568C36.4975 7.77067 36.8825 7.88267 37.4066 7.904V10.08Z" fill="#7286C0"/>
</svg>
