<svg width="444" height="193" viewBox="0 0 444 193" fill="none" xmlns="http://www.w3.org/2000/svg">
<g clip-path="url(#clip0_1004_135)">
<rect width="444" height="193" fill="white"/>
<path d="M444.333 108.08C438.097 108.309 433.516 109.624 430.588 112.026C427.661 114.313 426.198 117.401 426.198 121.29C426.198 124.378 426.834 130.497 428.107 139.646C428.234 140.561 428.616 143.535 429.252 148.567C429.889 153.485 430.207 157.945 430.207 161.948C430.207 171.784 426.898 179.39 420.28 184.765C413.662 190.255 404.817 193 393.745 193H380V168.982H387.445C391.518 168.982 394.445 168.124 396.226 166.409C398.008 164.808 398.899 162.349 398.899 159.032C398.899 156.401 398.39 150.74 397.372 142.048C396.226 130.954 395.654 123.692 395.654 120.26C395.654 113.856 397.308 108.652 400.617 104.649C404.053 100.532 409.208 97.8439 416.08 96.5858V96.2427C409.208 95.099 404.053 92.4684 400.617 88.3511C397.308 84.2338 395.654 79.0299 395.654 72.7396C395.654 69.3084 396.226 62.0459 397.372 50.952C398.39 42.0311 398.899 36.3126 398.899 33.7964C398.899 30.4797 398.008 28.0207 396.226 26.4196C394.445 24.8184 391.518 24.0178 387.445 24.0178H380V0H393.745C404.817 0 413.662 2.74489 420.28 8.23466C426.898 13.6101 430.207 21.1585 430.207 30.88C430.207 34.883 429.889 39.4006 429.252 44.4329C428.616 49.3508 428.234 52.2673 428.107 53.1822C426.834 62.3319 426.198 68.4507 426.198 71.5387C426.198 75.656 427.661 78.8584 430.588 81.1458C433.516 83.3188 438.097 84.5197 444.333 84.7484V108.08Z" fill="#4F68B0"/>
<path d="M-0.000325644 84.92C6.23574 84.6913 10.8174 83.376 13.7445 80.9742C16.6716 78.6868 18.1352 75.5988 18.1352 71.7102C18.1352 68.6222 17.4991 62.5034 16.2264 53.3538C16.0991 52.4388 15.7171 49.4652 15.0807 44.4329C14.4444 39.515 14.1263 35.0545 14.1263 31.0516C14.1263 21.2157 17.4352 13.6101 24.0531 8.23466C30.6709 2.74488 39.5161 -1.90735e-06 50.5883 -1.90735e-06H64.333L64.333 24.0178H56.888C52.8155 24.0178 49.8883 24.8755 48.1066 26.5911C46.3248 28.1923 45.4339 30.6513 45.4339 33.968C45.4339 36.5985 45.943 42.2598 46.9612 50.952C48.1066 62.0459 48.6791 69.3084 48.6791 72.7395C48.6791 79.1443 47.0248 84.3482 43.7159 88.3511C40.2797 92.4684 35.1254 95.1561 28.253 96.4142V96.7573C35.1254 97.901 40.2797 100.532 43.7159 104.649C47.0248 108.766 48.6791 113.97 48.6791 120.26C48.6791 123.692 48.1066 130.954 46.9612 142.048C45.943 150.969 45.4339 156.687 45.4339 159.204C45.4339 162.52 46.3248 164.979 48.1066 166.58C49.8883 168.182 52.8155 168.982 56.888 168.982H64.333V193H50.5883C39.5161 193 30.6709 190.255 24.0531 184.765C17.4352 179.39 14.1263 171.841 14.1263 162.12C14.1263 158.117 14.4444 153.599 15.0807 148.567C15.7171 143.649 16.0991 140.733 16.2264 139.818C17.4991 130.668 18.1352 124.549 18.1352 121.461C18.1352 117.344 16.6716 114.142 13.7445 111.854C10.8174 109.681 6.23574 108.48 -0.000325644 108.252V84.92Z" fill="#4F68B0"/>
<path d="M123.461 25.7618H165.947L208.433 169.833H170.133L162.18 141.336H124.507L116.554 169.833H77.417L123.461 25.7618ZM156.32 109.672L145.227 68.2821H144.39L132.461 109.672H156.32Z" fill="black"/>
<path d="M214.723 42.0462C217.235 39.9353 220.374 37.8997 224.141 35.9396C228.048 33.8286 232.304 32.0193 236.908 30.5114C241.652 28.8528 246.745 27.5712 252.186 26.6665C257.628 25.611 263.209 25.0833 268.93 25.0833C286.231 25.0833 299.905 29.7575 309.951 39.106C319.997 48.3036 325.02 61.5724 325.02 78.9122C325.02 87.9591 323.624 95.8751 320.834 102.66C318.183 109.445 314.485 115.1 309.741 119.623C304.997 124.147 299.486 127.539 293.207 129.801C286.929 131.912 280.231 132.967 273.115 132.967C268.092 132.967 263.697 132.44 259.93 131.384C256.302 130.329 253.093 128.972 250.303 127.313V169.833H214.723V42.0462ZM250.303 81.6263C250.303 88.713 252.326 93.915 256.372 97.2321C260.418 100.399 265.023 101.982 270.185 101.982C275.906 101.982 280.51 100.097 283.999 96.3275C287.626 92.4072 289.44 86.4513 289.44 78.4599C289.44 71.0716 287.626 65.3419 283.999 61.2708C280.51 57.0489 274.79 54.938 266.837 54.938C260.418 54.938 254.907 56.295 250.303 59.0091V81.6263Z" fill="black"/>
<path d="M331.338 25.988H366.917V169.833H331.338V25.988Z" fill="black"/>
</g>
<defs>
<clipPath id="clip0_1004_135">
<rect width="444" height="193" fill="white"/>
</clipPath>
</defs>
</svg>
