<svg width="40" height="40" viewBox="0 0 40 40" fill="none" xmlns="http://www.w3.org/2000/svg">
<path d="M6.86719 18.8782V22.1811C6.86719 23.0716 7.49819 24.1645 8.26939 24.6098L18.0848 30.2767C18.9525 30.7777 20.0215 30.7777 20.8892 30.2767L32.6266 23.5506C33.4943 23.0496 34.0288 22.1238 34.0288 21.1219V17.819C34.0288 16.8171 33.4943 15.8913 32.6266 15.3903L22.8112 9.72341C21.9435 9.22241 20.8745 9.22241 20.0068 9.72341L8.26939 16.4495C7.40169 16.9505 6.86719 17.8763 6.86719 18.8782Z" fill="white" stroke="#717A88" stroke-width="0.7" stroke-miterlimit="10"/>
<path d="M21.2549 24.1575L30.5316 18.8536C31.0756 18.5397 31.7554 18.9322 31.7554 19.5603V20.4479C31.7554 20.9495 31.4878 21.413 31.0534 21.6638L21.7766 26.969C21.2326 27.283 20.5527 26.8905 20.5527 26.2624V25.3736C20.5527 24.8719 20.8204 24.4083 21.2549 24.1575Z" stroke="#8A929D" stroke-width="0.5" stroke-linejoin="round"/>
<path d="M6.94922 18.2051L17.386 24.1365C17.8087 24.3767 18.0698 24.8254 18.0698 25.3116V30.2763" stroke="#8A929D" stroke-width="0.5" stroke-linecap="round" stroke-linejoin="round"/>
<path d="M6.94922 20.1562L18.0698 26.4762" stroke="#8A929D" stroke-width="0.5" stroke-linecap="round" stroke-linejoin="round"/>
<path d="M6.94922 22.0381L18.0698 28.3581" stroke="#8A929D" stroke-width="0.5" stroke-linecap="round" stroke-linejoin="round"/>
<path d="M6.86719 18.8782V22.1811C6.86719 23.0716 7.49819 24.1645 8.26939 24.6098L18.0848 30.2767C18.9525 30.7777 20.0215 30.7777 20.8892 30.2767L32.6266 23.5506C33.4943 23.0496 34.0288 22.1238 34.0288 21.1219V17.819C34.0288 16.8171 33.4943 15.8913 32.6266 15.3903L22.8112 9.72341C21.9435 9.22241 20.8745 9.22241 20.0068 9.72341L8.26939 16.4495C7.40169 16.9505 6.86719 17.8763 6.86719 18.8782Z" stroke="#717A88" stroke-width="0.7" stroke-miterlimit="10"/>
<path d="M9.7364 23.6348L5.9707 25.7419L8.7679 25.7686L8.8917 27.849L12.8712 25.4163L9.7364 23.6348Z" fill="white" stroke="#8A929D" stroke-width="0.5" stroke-linejoin="round"/>
</svg>
