<?xml version="1.0" ?><!-- Uploaded to: SVG Repo, www.svgrepo.com, Generator: SVG Repo Mixer Tools -->
<svg fill="rgb(251 191 36)" width="800px" height="800px" viewBox="0 0 24 24" id="Layer_1" version="1.1" xml:space="preserve" xmlns="http://www.w3.org/2000/svg" xmlns:xlink="http://www.w3.org/1999/xlink">
<path d="M12.09,16.68l-0.39-0.39c-0.39-0.39-1.02-0.39-1.41,0s-0.39,1.02,0,1.41l1,1C11.49,18.9,11.74,19,12,19  c0.21,0,0.42-0.07,0.6-0.2l4-3c0.44-0.33,0.53-0.96,0.2-1.4c-0.33-0.44-0.96-0.53-1.4-0.2L12.09,16.68z"/><path d="M4,20.48V22h16v-1.52c0-1.43-0.4-2.82-1.17-4.02c-0.3-0.47-0.92-0.6-1.38-0.31c-0.47,0.3-0.6,0.92-0.31,1.38  c0.47,0.74,0.76,1.59,0.84,2.46H6.02c0.24-2.8,2.6-5,5.46-5h1.04c0.14,0,0.27,0,0.41,0.01c0.54,0.04,1.03-0.37,1.07-0.92  c0.04-0.55-0.37-1.03-0.92-1.07C12.89,13.01,12.71,13,12.52,13h-1.04C7.36,13,4,16.36,4,20.48z"/>
<path d="M15,3h-1.59l-0.71-0.71C12.52,2.11,12.27,2,12,2H9C8.45,2,8,2.45,8,3v3v1v1c0,2.21,1.79,4,4,4s4-1.79,4-4V7V6V4  C16,3.45,15.55,3,15,3z M12,10c-1.1,0-2-0.9-2-2h4C14,9.1,13.1,10,12,10z M10,6V4h1.59l0.71,0.71C12.48,4.89,12.73,5,13,5h1v1H10z"/></svg>