<?xml version="1.0" encoding="UTF-8"?>
<svg xmlns="http://www.w3.org/2000/svg" style="display: none;">
  <symbol id="chevron-down" viewBox="0 0 13 12" fill="none">
    <path d="M3.96924 4.5L6.96924 7.5L9.96924 4.5" stroke="currentColor" stroke-width="1.66667" stroke-linecap="round" stroke-linejoin="round"/>
  </symbol>

  <symbol id="chevron-left" viewBox="0 0 7 12" fill="none">
    <path d="M6 11L1 6L6 1" stroke="currentColor" stroke-width="2" stroke-linecap="round" stroke-linejoin="round"/>
  </symbol>

  <symbol id="chevron-right" viewBox="0 0 7 12" fill="none">
    <path d="M1 11L6 6L1 1" stroke="currentColor" stroke-width="2" stroke-linecap="round" stroke-linejoin="round"/>
  </symbol>

  <symbol id="pie-chart" viewBox="0 0 25 25" fill="none">
    <path d="M21.7099 16.39C21.0737 17.8945 20.0787 19.2202 18.8118 20.2513C17.5449 21.2824 16.0447 21.9874 14.4424 22.3048C12.84 22.6221 11.1843 22.5421 9.62006 22.0718C8.05578 21.6014 6.63054 20.7551 5.46893 19.6067C4.30733 18.4582 3.44473 17.0428 2.95655 15.4839C2.46837 13.9251 2.36948 12.2705 2.66851 10.6646C2.96755 9.05878 3.65541 7.55063 4.67196 6.27203C5.68851 4.99343 7.0028 3.98332 8.49992 3.33M22.4999 12.5C22.4999 11.1868 22.2413 9.88642 21.7387 8.67317C21.2362 7.45991 20.4996 6.35752 19.571 5.42893C18.6424 4.50035 17.54 3.76375 16.3267 3.2612C15.1135 2.75866 13.8131 2.5 12.4999 2.5V12.5H22.4999Z" stroke="currentColor" stroke-width="2" stroke-linecap="round" stroke-linejoin="round"/>
  </symbol>

  <symbol id="activity" viewBox="0 0 25 25" fill="none">
    <path d="M22.5 12.5H18.5L15.5 21.5L9.5 3.5L6.5 12.5H2.5" stroke="currentColor" stroke-width="2" stroke-linecap="round" stroke-linejoin="round"/>
  </symbol>

  <symbol id="bar-chart-2" viewBox="0 0 25 24" fill="none">
    <path d="M18.5 20V10M12.5 20V4M6.5 20V14" stroke="currentColor" stroke-width="2" stroke-linecap="round" stroke-linejoin="round"/>
  </symbol>

  <symbol id="star" viewBox="0 0 23 22" fill="none">
    <path d="M11.5 1L14.59 7.26L21.5 8.27L16.5 13.14L17.68 20.02L11.5 16.77L5.32 20.02L6.5 13.14L1.5 8.27L8.41 7.26L11.5 1Z" fill="#FEC62E"/>
    <path d="M11.9484 0.778688C11.8641 0.608036 11.6903 0.5 11.5 0.5C11.3097 0.5 11.1359 0.608036 11.0516 0.778688L8.07787 6.80323L1.42769 7.77526C1.23941 7.80278 1.08307 7.93478 1.02438 8.11578C0.965688 8.29679 1.01482 8.49541 1.15113 8.62818L5.96274 13.3147L4.8272 19.9355C4.79502 20.1231 4.87214 20.3127 5.02613 20.4245C5.18012 20.5364 5.38427 20.5511 5.55273 20.4625L11.5 17.3349L17.4473 20.4625C17.6157 20.5511 17.8199 20.5364 17.9739 20.4245C18.1279 20.3127 18.205 20.1231 18.1728 19.9355L17.0373 13.3147L21.8489 8.62818C21.9852 8.49541 22.0343 8.29679 21.9756 8.11578C21.9169 7.93478 21.7606 7.80278 21.5723 7.77526L14.9221 6.80323L11.9484 0.778688Z" stroke="#8F6C1A" stroke-opacity="0.8" stroke-linecap="round" stroke-linejoin="round"/>
  </symbol>

  <symbol id="rss" viewBox="0 0 19 18" fill="none">
    <path d="M1.5 8C3.88695 8 6.17613 8.94821 7.86396 10.636C9.55179 12.3239 10.5 14.6131 10.5 17M1.5 1C5.74346 1 9.81313 2.68571 12.8137 5.68629C15.8143 8.68687 17.5 12.7565 17.5 17M3.5 16C3.5 16.5523 3.05228 17 2.5 17C1.94772 17 1.5 16.5523 1.5 16C1.5 15.4477 1.94772 15 2.5 15C3.05228 15 3.5 15.4477 3.5 16Z" stroke="currentColor" stroke-width="2" stroke-linecap="round" stroke-linejoin="round"/>
  </symbol>

  <symbol id="hard-drive" viewBox="0 0 23 18" fill="none">
    <path d="M21.5 9H1.5M21.5 9V15C21.5 15.5304 21.2893 16.0391 20.9142 16.4142C20.5391 16.7893 20.0304 17 19.5 17H3.5C2.96957 17 2.46086 16.7893 2.08579 16.4142C1.71071 16.0391 1.5 15.5304 1.5 15V9M21.5 9L18.05 2.11C17.8844 1.77679 17.6292 1.49637 17.313 1.30028C16.9967 1.10419 16.6321 1.0002 16.26 1H6.74C6.36792 1.0002 6.00326 1.10419 5.68704 1.30028C5.37083 1.49637 5.11558 1.77679 4.95 2.11L1.5 9M5.5 13H5.51M9.5 13H9.51" stroke="currentColor" stroke-width="2" stroke-linecap="round" stroke-linejoin="round"/>
  </symbol>

  <symbol id="database" viewBox="0 0 21 22" fill="none">
    <path d="M19.5 4C19.5 5.65685 15.4706 7 10.5 7C5.52944 7 1.5 5.65685 1.5 4M19.5 4C19.5 2.34315 15.4706 1 10.5 1C5.52944 1 1.5 2.34315 1.5 4M19.5 4V18C19.5 19.66 15.5 21 10.5 21C5.5 21 1.5 19.66 1.5 18V4M19.5 11C19.5 12.66 15.5 14 10.5 14C5.5 14 1.5 12.66 1.5 11" stroke="currentColor" stroke-width="2" stroke-linecap="round" stroke-linejoin="round"/>
  </symbol>

  <symbol id="server" viewBox="0 0 23 22" fill="none">
    <path d="M5.5 5H5.51M5.5 17H5.51M3.5 1H19.5C20.6046 1 21.5 1.89543 21.5 3V7C21.5 8.10457 20.6046 9 19.5 9H3.5C2.39543 9 1.5 8.10457 1.5 7V3C1.5 1.89543 2.39543 1 3.5 1ZM3.5 13H19.5C20.6046 13 21.5 13.8954 21.5 15V19C21.5 20.1046 20.6046 21 19.5 21H3.5C2.39543 21 1.5 20.1046 1.5 19V15C1.5 13.8954 2.39543 13 3.5 13Z" stroke="currentColor" stroke-width="2" stroke-linecap="round" stroke-linejoin="round"/>
  </symbol>

  <symbol id="monitor" viewBox="0 0 23 20" fill="none">
    <path d="M7.5 19H15.5M11.5 15V19M3.5 1H19.5C20.6046 1 21.5 1.89543 21.5 3V13C21.5 14.1046 20.6046 15 19.5 15H3.5C2.39543 15 1.5 14.1046 1.5 13V3C1.5 1.89543 2.39543 1 3.5 1Z" stroke="currentColor" stroke-width="2" stroke-linecap="round" stroke-linejoin="round"/>
  </symbol>

  <symbol id="smartphone" viewBox="0 0 17 22" fill="none">
    <path d="M8.5 17H8.51M3.5 1H13.5C14.6046 1 15.5 1.89543 15.5 3V19C15.5 20.1046 14.6046 21 13.5 21H3.5C2.39543 21 1.5 20.1046 1.5 19V3C1.5 1.89543 2.39543 1 3.5 1Z" stroke="currentColor" stroke-width="2" stroke-linecap="round" stroke-linejoin="round"/>
  </symbol>

  <symbol id="align-left" viewBox="0 0 17 12" fill="none">
    <path d="M12.6667 4.33333H1M16 1H1M16 7.66667H1M12.6667 11H1" stroke="currentColor" stroke-width="2" stroke-linecap="round" stroke-linejoin="round"/>
  </symbol>

  <symbol id="compass" viewBox="0 0 19 20" fill="none">
    <path d="M9.49984 18.3332C14.1022 18.3332 17.8332 14.6022 17.8332 9.99984C17.8332 5.39746 14.1022 1.6665 9.49984 1.6665C4.89746 1.6665 1.1665 5.39746 1.1665 9.99984C1.1665 14.6022 4.89746 18.3332 9.49984 18.3332Z" stroke="currentColor" stroke-width="2" stroke-linecap="round" stroke-linejoin="round"/>
    <path d="M13.0332 6.46651L11.2665 11.7665L5.96651 13.5332L7.73318 8.23318L13.0332 6.46651Z" stroke="currentColor" stroke-width="2" stroke-linecap="round" stroke-linejoin="round"/>
  </symbol>

  <symbol id="layout" viewBox="0 0 17 18" fill="none">
    <path d="M1 6.5H16M6 16.5V6.5M2.66667 1.5H14.3333C15.2538 1.5 16 2.24619 16 3.16667V14.8333C16 15.7538 15.2538 16.5 14.3333 16.5H2.66667C1.74619 16.5 1 15.7538 1 14.8333V3.16667C1 2.24619 1.74619 1.5 2.66667 1.5Z" stroke="currentColor" stroke-width="2" stroke-linecap="round" stroke-linejoin="round"/>
  </symbol>

  <symbol id="copy" viewBox="0 0 19 22" fill="none">
    <path d="M3.6665 14H2.83317C2.39114 14 1.96722 13.7893 1.65466 13.4142C1.3421 13.0391 1.1665 12.5304 1.1665 12V3C1.1665 2.46957 1.3421 1.96086 1.65466 1.58579C1.96722 1.21071 2.39114 1 2.83317 1H10.3332C10.7752 1 11.1991 1.21071 11.5117 1.58579C11.8242 1.96086 11.9998 2.46957 11.9998 3V4M8.6665 8H16.1665C17.087 8 17.8332 8.89543 17.8332 10V19C17.8332 20.1046 17.087 21 16.1665 21H8.6665C7.74603 21 6.99984 20.1046 6.99984 19V10C6.99984 8.89543 7.74603 8 8.6665 8Z" stroke="currentColor" stroke-width="2" stroke-linecap="round" stroke-linejoin="round"/>
  </symbol>

  <symbol id="grid" viewBox="0 0 17 18" fill="none">
    <path d="M6.83333 1.5H1V7.33333H6.83333V1.5Z" stroke="currentColor" stroke-width="2" stroke-linecap="round" stroke-linejoin="round"/>
    <path d="M16 1.5H10.1667V7.33333H16V1.5Z" stroke="currentColor" stroke-width="2" stroke-linecap="round" stroke-linejoin="round"/>
    <path d="M16 10.6667H10.1667V16.5H16V10.6667Z" stroke="currentColor" stroke-width="2" stroke-linecap="round" stroke-linejoin="round"/>
    <path d="M6.83333 10.6667H1V16.5H6.83333V10.6667Z" stroke="currentColor" stroke-width="2" stroke-linecap="round" stroke-linejoin="round"/>
  </symbol>

  <symbol id="calendar" viewBox="0 0 17 20" fill="none">
    <path d="M11.8333 1.6665V4.99984M5.16667 1.6665V4.99984M1 8.33317H16M2.66667 3.33317H14.3333C15.2538 3.33317 16 4.07936 16 4.99984V16.6665C16 17.587 15.2538 18.3332 14.3333 18.3332H2.66667C1.74619 18.3332 1 17.587 1 16.6665V4.99984C1 4.07936 1.74619 3.33317 2.66667 3.33317Z" stroke="currentColor" stroke-width="2" stroke-linecap="round" stroke-linejoin="round"/>
  </symbol>

  <symbol id="bar-chart" viewBox="0 0 13 16" fill="none">
    <path d="M6.5 14.6668V6.3335M11.5 14.6668V1.3335M1.5 14.6668V11.3335" stroke="currentColor" stroke-width="2" stroke-linecap="round" stroke-linejoin="round"/>
  </symbol>

  <symbol id="radio" viewBox="0 0 22 18" fill="none">
    <path d="M15.2398 4.75999C15.7977 5.31723 16.2402 5.97896 16.5422 6.70735C16.8441 7.43574 16.9995 8.2165 16.9995 9.00499C16.9995 9.79349 16.8441 10.5742 16.5422 11.3026C16.2402 12.031 15.7977 12.6928 15.2398 13.25M6.75982 13.24C6.20196 12.6828 5.75941 12.021 5.45746 11.2926C5.15551 10.5642 5.0001 9.78349 5.0001 8.99499C5.0001 8.2065 5.15551 7.42574 5.45746 6.69735C5.75941 5.96896 6.20196 5.30723 6.75982 4.74999M18.0698 1.92999C19.9445 3.80527 20.9977 6.34835 20.9977 8.99999C20.9977 11.6516 19.9445 14.1947 18.0698 16.07M3.92982 16.07C2.05511 14.1947 1.00195 11.6516 1.00195 8.99999C1.00195 6.34835 2.05511 3.80527 3.92982 1.92999M12.9998 9C12.9998 10.1046 12.1044 11 10.9998 11C9.89525 11 8.99982 10.1046 8.99982 9C8.99982 7.89543 9.89525 7 10.9998 7C12.1044 7 12.9998 7.89543 12.9998 9Z" stroke="currentColor" stroke-width="2" stroke-linecap="round" stroke-linejoin="round"/>
  </symbol>

  <symbol id="github" viewBox="0 0 25 24" fill="none">
    <path fill-rule="evenodd" clip-rule="evenodd" d="M12.5099 0C5.86875 0 0.5 5.40833 0.5 12.0992C0.5 17.4475 3.93994 21.9748 8.71205 23.5771C9.30869 23.6976 9.52724 23.3168 9.52724 22.9965C9.52724 22.716 9.50757 21.7545 9.50757 20.7527C6.1667 21.474 5.47099 19.3104 5.47099 19.3104C4.93409 17.9082 4.13858 17.5478 4.13858 17.5478C3.04511 16.8066 4.21823 16.8066 4.21823 16.8066C5.43117 16.8868 6.06763 18.0486 6.06763 18.0486C7.14118 19.8913 8.87111 19.3707 9.56706 19.0501C9.66638 18.2688 9.98473 17.728 10.3228 17.4276C7.65817 17.1471 4.85469 16.1055 4.85469 11.458C4.85469 10.1359 5.3316 9.05428 6.08729 8.21304C5.96807 7.91263 5.5504 6.67043 6.20677 5.00787C6.20677 5.00787 7.22083 4.6873 9.50732 6.24981C10.4863 5.98497 11.4958 5.85024 12.5099 5.84911C13.524 5.84911 14.5577 5.98948 15.5123 6.24981C17.799 4.6873 18.8131 5.00787 18.8131 5.00787C19.4695 6.67043 19.0515 7.91263 18.9323 8.21304C19.7079 9.05428 20.1652 10.1359 20.1652 11.458C20.1652 16.1055 17.3617 17.1269 14.6772 17.4276C15.1148 17.8081 15.4924 18.5292 15.4924 19.6711C15.4924 21.2936 15.4727 22.5957 15.4727 22.9962C15.4727 23.3168 15.6915 23.6976 16.2879 23.5774C21.06 21.9745 24.4999 17.4475 24.4999 12.0992C24.5196 5.40833 19.1312 0 12.5099 0Z" fill="#24292F"/>
  </symbol>

  <symbol id="twitter" viewBox="0 0 23 21" fill="none">
    <path d="M17.8263 0.904297H21.1998L13.8297 9.32779L22.5 20.7903H15.7112L10.394 13.8383L4.30995 20.7903H0.934432L8.81743 11.7804L0.5 0.904297H7.46111L12.2674 7.25863L17.8263 0.904297ZM16.6423 18.7711H18.5116L6.44539 2.81743H4.43946L16.6423 18.7711Z" fill="black"/>
  </symbol>

  <symbol id="linkedin" viewBox="0 0 25 24" fill="none">
    <path d="M22.7283 0H2.27167C1.80179 0 1.35116 0.186657 1.01891 0.518909C0.686657 0.851161 0.5 1.30179 0.5 1.77167V22.2283C0.5 22.6982 0.686657 23.1488 1.01891 23.4811C1.35116 23.8133 1.80179 24 2.27167 24H22.7283C23.1982 24 23.6488 23.8133 23.9811 23.4811C24.3133 23.1488 24.5 22.6982 24.5 22.2283V1.77167C24.5 1.30179 24.3133 0.851161 23.9811 0.518909C23.6488 0.186657 23.1982 0 22.7283 0ZM7.65333 20.445H4.045V8.98333H7.65333V20.445ZM5.84667 7.395C5.43736 7.3927 5.03792 7.2692 4.69873 7.04009C4.35955 6.81098 4.09584 6.48653 3.94088 6.10769C3.78591 5.72885 3.74665 5.31259 3.82803 4.91145C3.90941 4.51032 4.1078 4.14228 4.39816 3.85378C4.68851 3.56529 5.05782 3.36927 5.45947 3.29046C5.86112 3.21165 6.27711 3.25359 6.65495 3.41099C7.03279 3.56838 7.35554 3.83417 7.58247 4.17481C7.80939 4.51546 7.93032 4.91569 7.93 5.325C7.93386 5.59903 7.88251 5.87104 7.77901 6.1248C7.67551 6.37857 7.52198 6.6089 7.32757 6.80207C7.13316 6.99523 6.90185 7.14728 6.64742 7.24915C6.393 7.35102 6.12067 7.40062 5.84667 7.395ZM20.9533 20.455H17.3467V14.1933C17.3467 12.3467 16.5617 11.7767 15.5483 11.7767C14.4783 11.7767 13.4283 12.5833 13.4283 14.24V20.455H9.82V8.99167H13.29V10.58H13.3367C13.685 9.875 14.905 8.67 16.7667 8.67C18.78 8.67 20.955 9.865 20.955 13.365L20.9533 20.455Z" fill="#0A66C2"/>
  </symbol>

  <svg id="youtube" viewBox="0 0 25 18" fill="none">
    <path d="M24.0221 3.1859C23.8864 2.67531 23.619 2.20932 23.2466 1.83455C22.8743 1.45979 22.41 1.1894 21.9003 1.05044C20.0239 0.545898 12.5239 0.545898 12.5239 0.545898C12.5239 0.545898 5.02393 0.545898 3.14756 1.05044C2.63786 1.1894 2.17358 1.45979 1.80121 1.83455C1.42884 2.20932 1.16143 2.67531 1.02574 3.1859C0.523926 5.07044 0.523926 9.00044 0.523926 9.00044C0.523926 9.00044 0.523926 12.9304 1.02574 14.815C1.16143 15.3256 1.42884 15.7916 1.80121 16.1663C2.17358 16.5411 2.63786 16.8115 3.14756 16.9504C5.02393 17.455 12.5239 17.455 12.5239 17.455C12.5239 17.455 20.0239 17.455 21.9003 16.9504C22.41 16.8115 22.8743 16.5411 23.2466 16.1663C23.619 15.7916 23.8864 15.3256 24.0221 14.815C24.5239 12.9304 24.5239 9.00044 24.5239 9.00044C24.5239 9.00044 24.5239 5.07044 24.0221 3.1859Z" fill="#FF0302"/>
    <path d="M10.0693 12.5691V5.43184L16.3421 9.00048L10.0693 12.5691Z" fill="#FEFEFE"/>
  </svg>

  <svg id="discord" viewBox="0 0 25 19" fill="none">
    <path d="M20.817 2.15606C19.2873 1.45418 17.647 0.937064 15.9319 0.640891C15.9007 0.635175 15.8695 0.64946 15.8534 0.67803C15.6424 1.05324 15.4087 1.54274 15.2451 1.92749C13.4004 1.65132 11.5652 1.65132 9.75832 1.92749C9.59465 1.53419 9.35248 1.05324 9.14057 0.67803C9.12448 0.650413 9.09328 0.636128 9.06205 0.640891C7.34791 0.936118 5.70756 1.45323 4.17693 2.15606C4.16368 2.16177 4.15233 2.17131 4.14479 2.18368C1.03339 6.83204 0.18105 11.3661 0.59918 15.844C0.601072 15.8659 0.61337 15.8869 0.630398 15.9002C2.68321 17.4078 4.67171 18.323 6.62328 18.9296C6.65451 18.9391 6.68761 18.9277 6.70748 18.902C7.16913 18.2716 7.58064 17.6068 7.93348 16.9078C7.9543 16.8668 7.93442 16.8183 7.89186 16.8021C7.23913 16.5545 6.6176 16.2526 6.01973 15.9098C5.97244 15.8821 5.96865 15.8145 6.01216 15.7821C6.13797 15.6878 6.26382 15.5897 6.38396 15.4907C6.40569 15.4726 6.43598 15.4688 6.46153 15.4802C10.3893 17.2735 14.6415 17.2735 18.523 15.4802C18.5485 15.4678 18.5788 15.4717 18.6015 15.4898C18.7216 15.5888 18.8475 15.6878 18.9742 15.7821C19.0177 15.8145 19.0149 15.8821 18.9676 15.9098C18.3697 16.2592 17.7482 16.5545 17.0945 16.8011C17.052 16.8173 17.033 16.8668 17.0538 16.9078C17.4143 17.6058 17.8258 18.2706 18.2789 18.901C18.2978 18.9277 18.3319 18.9391 18.3631 18.9296C20.3241 18.323 22.3126 17.4078 24.3654 15.9002C24.3834 15.8869 24.3948 15.8669 24.3967 15.845C24.8971 10.6681 23.5585 6.17113 20.8482 2.18462C20.8416 2.17131 20.8303 2.16177 20.817 2.15606ZM8.52002 13.1175C7.3375 13.1175 6.36313 12.0318 6.36313 10.6985C6.36313 9.36526 7.3186 8.27961 8.52002 8.27961C9.73087 8.27961 10.6958 9.37479 10.6769 10.6985C10.6769 12.0318 9.72141 13.1175 8.52002 13.1175ZM16.4947 13.1175C15.3123 13.1175 14.3379 12.0318 14.3379 10.6985C14.3379 9.36526 15.2933 8.27961 16.4947 8.27961C17.7056 8.27961 18.6705 9.37479 18.6516 10.6985C18.6516 12.0318 17.7056 13.1175 16.4947 13.1175Z" fill="#5865F2"/>
  </svg>


  <symbol id="cloud" viewBox="0 0 25 18" fill="none">
    <path d="M18.5001 7H17.2401C16.866 5.551 16.0929 4.23599 15.0088 3.2044C13.9246 2.1728 12.5728 1.46599 11.107 1.16428C9.64124 0.862561 8.1202 0.97804 6.71676 1.49759C5.31332 2.01714 4.08375 2.91993 3.16776 4.10338C2.25177 5.28683 1.6861 6.70348 1.53502 8.19235C1.38393 9.68123 1.6535 11.1826 2.31309 12.526C2.97267 13.8693 3.99583 15.0007 5.26629 15.7916C6.53676 16.5824 8.00359 17.0011 9.50011 17H18.5001C19.8262 17 21.098 16.4732 22.0356 15.5355C22.9733 14.5979 23.5001 13.3261 23.5001 12C23.5001 10.6739 22.9733 9.40215 22.0356 8.46447C21.098 7.52678 19.8262 7 18.5001 7Z" stroke="#0068FF" stroke-opacity="0.8" stroke-width="2" stroke-linecap="round" stroke-linejoin="round"/>
  </symbol>

  <symbol id="plus-square" viewBox="0 0 24 24" fill="none">
    <path d="M19 3H5C3.89543 3 3 3.89543 3 5V19C3 20.1046 3.89543 21 5 21H19C20.1046 21 21 20.1046 21 19V5C21 3.89543 20.1046 3 19 3Z" stroke="currentColor" stroke-width="2" stroke-linecap="round" stroke-linejoin="round"/>
    <path d="M12 8V16" stroke="currentColor" stroke-width="2" stroke-linecap="round" stroke-linejoin="round"/>
    <path d="M8 12H16" stroke="currentColor" stroke-width="2" stroke-linecap="round" stroke-linejoin="round" />
  </symbol>

  <symbol id="minus-square" viewBox="0 0 24 24" fill="none">
    <path d="M19 3H5C3.89543 3 3 3.89543 3 5V19C3 20.1046 3.89543 21 5 21H19C20.1046 21 21 20.1046 21 19V5C21 3.89543 20.1046 3 19 3Z" stroke="currentColor" stroke-width="2" stroke-linecap="round" stroke-linejoin="round"/>
    <path d="M8 12H16" stroke="currentColor" stroke-width="2" stroke-linecap="round" stroke-linejoin="round" />
  </symbol>


</svg>
