<?xml version="1.0" encoding="UTF-8"?>
<svg xmlns="http://www.w3.org/2000/svg" style="display: none;">
<symbol id="reddit-alien" viewBox="0 0 512 512">
<path d="M373 138.6c-25.2 0-46.3-17.5-51.9-41l0 0c-30.6 4.3-54.2 30.7-54.2 62.4l0 .2c47.4 1.8 90.6 15.1 124.9 36.3c12.6-9.7 28.4-15.5 45.5-15.5c41.3 0 74.7 33.4 74.7 74.7c0 29.8-17.4 55.5-42.7 67.5c-2.4 86.8-97 156.6-213.2 156.6S45.5 410.1 43 323.4C17.6 311.5 0 285.7 0 255.7c0-41.3 33.4-74.7 74.7-74.7c17.2 0 33 5.8 45.7 15.6c34-21.1 76.8-34.4 123.7-36.4l0-.3c0-44.3 33.7-80.9 76.8-85.5C325.8 50.2 347.2 32 373 32c29.4 0 53.3 23.9 53.3 53.3s-23.9 53.3-53.3 53.3zM157.5 255.3c-20.9 0-38.9 20.8-40.2 47.9s17.1 38.1 38 38.1s36.6-9.8 37.8-36.9s-14.7-49.1-35.7-49.1zM395 303.1c-1.2-27.1-19.2-47.9-40.2-47.9s-36.9 22-35.7 49.1c1.2 27.1 16.9 36.9 37.8 36.9s39.3-11 38-38.1zm-60.1 70.8c1.5-3.6-1-7.7-4.9-8.1c-23-2.3-47.9-3.6-73.8-3.6s-50.8 1.3-73.8 3.6c-3.9 .4-6.4 4.5-4.9 8.1c12.9 30.8 43.3 52.4 78.7 52.4s65.8-21.6 78.7-52.4z"/>
</symbol>
<symbol id="git" viewBox="0 0 512 512">
<path d="M216.29 158.39H137C97 147.9 6.51 150.63 6.51 233.18c0 30.09 15 51.23 35 61-25.1 23-37 33.85-37 49.21 0 11 4.47 21.14 17.89 26.81C8.13 383.61 0 393.35 0 411.65c0 32.11 28.05 50.82 101.63 50.82 70.75 0 111.79-26.42 111.79-73.18 0-58.66-45.16-56.5-151.63-63l13.43-21.55c27.27 7.58 118.7 10 118.7-67.89 0-18.7-7.73-31.71-15-41.07l37.41-2.84zm-63.42 241.9c0 32.06-104.89 32.1-104.89 2.43 0-8.14 5.27-15 10.57-21.54 77.71 5.3 94.32 3.37 94.32 19.11zm-50.81-134.58c-52.8 0-50.46-71.16 1.2-71.16 49.54 0 50.82 71.16-1.2 71.16zm133.3 100.51v-32.1c26.75-3.66 27.24-2 27.24-11V203.61c0-8.5-2.05-7.38-27.24-16.26l4.47-32.92H324v168.71c0 6.51.4 7.32 6.51 8.14l20.73 2.84v32.1zm52.45-244.31c-23.17 0-36.59-13.43-36.59-36.61s13.42-35.77 36.59-35.77c23.58 0 37 12.62 37 35.77s-13.42 36.61-37 36.61zM512 350.46c-17.49 8.53-43.1 16.26-66.28 16.26-48.38 0-66.67-19.5-66.67-65.46V194.75c0-5.42 1.05-4.06-31.71-4.06V154.5c35.78-4.07 50-22 54.47-66.27h38.63c0 65.83-1.34 61.81 3.26 61.81H501v40.65h-60.56v97.15c0 6.92-4.92 51.41 60.57 26.84z"/>
</symbol>
<symbol id="apple" viewBox="0 0 384 512">
<path d="M318.7 268.7c-.2-36.7 16.4-64.4 50-84.8-18.8-26.9-47.2-41.7-84.7-44.6-35.5-2.8-74.3 20.7-88.5 20.7-15 0-49.4-19.7-76.4-19.7C63.3 141.2 4 184.8 4 273.5q0 39.3 14.4 81.2c12.8 36.7 59 126.7 107.2 125.2 25.2-.6 43-17.9 75.8-17.9 31.8 0 48.3 17.9 76.4 17.9 48.6-.7 90.4-82.5 102.6-119.3-65.2-30.7-61.7-90-61.7-91.9zm-56.6-164.2c27.3-32.4 24.8-61.9 24-72.5-24.1 1.4-52 16.4-67.9 34.9-17.5 19.8-27.8 44.3-25.6 71.9 26.1 2 49.9-11.4 69.5-34.3z"/>
</symbol>
<symbol id="java" viewBox="0 0 384 512">
<path d="M277.74 312.9c9.8-6.7 23.4-12.5 23.4-12.5s-38.7 7-77.2 10.2c-47.1 3.9-97.7 4.7-123.1 1.3-60.1-8 33-30.1 33-30.1s-36.1-2.4-80.6 19c-52.5 25.4 130 37 224.5 12.1zm-85.4-32.1c-19-42.7-83.1-80.2 0-145.8C296 53.2 242.84 0 242.84 0c21.5 84.5-75.6 110.1-110.7 162.6-23.9 35.9 11.7 74.4 60.2 118.2zm114.6-176.2c.1 0-175.2 43.8-91.5 140.2 24.7 28.4-6.5 54-6.5 54s62.7-32.4 33.9-72.9c-26.9-37.8-47.5-56.6 64.1-121.3zm-6.1 270.5a12.19 12.19 0 0 1-2 2.6c128.3-33.7 81.1-118.9 19.8-97.3a17.33 17.33 0 0 0-8.2 6.3 70.45 70.45 0 0 1 11-3c31-6.5 75.5 41.5-20.6 91.4zM348 437.4s14.5 11.9-15.9 21.2c-57.9 17.5-240.8 22.8-291.6.7-18.3-7.9 16-19 26.8-21.3 11.2-2.4 17.7-2 17.7-2-20.3-14.3-131.3 28.1-56.4 40.2C232.84 509.4 401 461.3 348 437.4zM124.44 396c-78.7 22 47.9 67.4 148.1 24.5a185.89 185.89 0 0 1-28.2-13.8c-44.7 8.5-65.4 9.1-106 4.5-33.5-3.8-13.9-15.2-13.9-15.2zm179.8 97.2c-78.7 14.8-175.8 13.1-233.3 3.6 0-.1 11.8 9.7 72.4 13.6 92.2 5.9 233.8-3.3 237.1-46.9 0 0-6.4 16.5-76.2 29.7zM260.64 353c-59.2 11.4-93.5 11.1-136.8 6.6-33.5-3.5-11.6-19.7-11.6-19.7-86.8 28.8 48.2 61.4 169.5 25.9a60.37 60.37 0 0 1-21.1-12.8z"/>
</symbol>
<symbol id="free-code-camp" viewBox="0 0 576 512">
<path d="M97.22,96.21c10.36-10.65,16-17.12,16-21.9,0-2.76-1.92-5.51-3.83-7.42A14.81,14.81,0,0,0,101,64.05c-8.48,0-20.92,8.79-35.84,25.69C23.68,137,2.51,182.81,3.37,250.34s17.47,117,54.06,161.87C76.22,435.86,90.62,448,100.9,448a13.55,13.55,0,0,0,8.37-3.84c1.91-2.76,3.81-5.63,3.81-8.38,0-5.63-3.86-12.2-13.2-20.55-44.45-42.33-67.32-97-67.48-165C32.25,188.8,54,137.83,97.22,96.21ZM239.47,420.07c.58.37.91.55.91.55Zm93.79.55.17-.13C333.24,420.62,333.17,420.67,333.26,420.62Zm3.13-158.18c-16.24-4.15,50.41-82.89-68.05-177.17,0,0,15.54,49.38-62.83,159.57-74.27,104.35,23.46,168.73,34,175.23-6.73-4.35-47.4-35.7,9.55-128.64,11-18.3,25.53-34.87,43.5-72.16,0,0,15.91,22.45,7.6,71.13C287.7,364,354,342.91,355,343.94c22.75,26.78-17.72,73.51-21.58,76.55,5.49-3.65,117.71-78,33-188.1C360.43,238.4,352.62,266.59,336.39,262.44ZM510.88,89.69C496,72.79,483.52,64,475,64a14.81,14.81,0,0,0-8.39,2.84c-1.91,1.91-3.83,4.66-3.83,7.42,0,4.78,5.6,11.26,16,21.9,43.23,41.61,65,92.59,64.82,154.06-.16,68-23,122.63-67.48,165-9.34,8.35-13.18,14.92-13.2,20.55,0,2.75,1.9,5.62,3.81,8.38A13.61,13.61,0,0,0,475.1,448c10.28,0,24.68-12.13,43.47-35.79,36.59-44.85,53.14-94.38,54.06-161.87S552.32,137,510.88,89.69Z"/>
</symbol>
<symbol id="square-reddit" viewBox="0 0 448 512">
<path d="M64 32l320 0c35.3 0 64 28.7 64 64l0 320c0 35.3-28.7 64-64 64L64 480c-35.3 0-64-28.7-64-64L0 96C0 60.7 28.7 32 64 32zM305.9 166.4c20.6 0 37.3-16.7 37.3-37.3s-16.7-37.3-37.3-37.3c-18 0-33.1 12.8-36.6 29.8c-30.2 3.2-53.8 28.8-53.8 59.9l0 .2c-32.8 1.4-62.8 10.7-86.6 25.5c-8.8-6.8-19.9-10.9-32-10.9c-28.9 0-52.3 23.4-52.3 52.3c0 21 12.3 39 30.1 47.4c1.7 60.7 67.9 109.6 149.3 109.6s147.6-48.9 149.3-109.7c17.7-8.4 29.9-26.4 29.9-47.3c0-28.9-23.4-52.3-52.3-52.3c-12 0-23 4-31.9 10.8c-24-14.9-54.3-24.2-87.5-25.4l0-.1c0-22.2 16.5-40.7 37.9-43.7l0 0c3.9 16.5 18.7 28.7 36.3 28.7zM155 248.1c14.6 0 25.8 15.4 25 34.4s-11.8 25.9-26.5 25.9s-27.5-7.7-26.6-26.7s13.5-33.5 28.1-33.5zm166.4 33.5c.9 19-12 26.7-26.6 26.7s-25.6-6.9-26.5-25.9c-.9-19 10.3-34.4 25-34.4s27.3 14.6 28.1 33.5zm-42.1 49.6c-9 21.5-30.3 36.7-55.1 36.7s-46.1-15.1-55.1-36.7c-1.1-2.6 .7-5.4 3.4-5.7c16.1-1.6 33.5-2.5 51.7-2.5s35.6 .9 51.7 2.5c2.7 .3 4.5 3.1 3.4 5.7z"/>
</symbol>
<symbol id="x-twitter" viewBox="0 0 512 512">
<path d="M389.2 48h70.6L305.6 224.2 487 464H345L233.7 318.6 106.5 464H35.8L200.7 275.5 26.8 48H172.4L272.9 180.9 389.2 48zM364.4 421.8h39.1L151.1 88h-42L364.4 421.8z"/>
</symbol>
<symbol id="html5" viewBox="0 0 384 512">
<path d="M0 32l34.9 395.8L191.5 480l157.6-52.2L384 32H0zm308.2 127.9H124.4l4.1 49.4h175.6l-13.6 148.4-97.9 27v.3h-1.1l-98.7-27.3-6-75.8h47.7L138 320l53.5 14.5 53.7-14.5 6-62.2H84.3L71.5 112.2h241.1l-4.4 47.7z"/>
</symbol>
<symbol id="linkedin" viewBox="0 0 448 512">
<path d="M416 32H31.9C14.3 32 0 46.5 0 64.3v383.4C0 465.5 14.3 480 31.9 480H416c17.6 0 32-14.5 32-32.3V64.3c0-17.8-14.4-32.3-32-32.3zM135.4 416H69V202.2h66.5V416zm-33.2-243c-21.3 0-38.5-17.3-38.5-38.5S80.9 96 102.2 96c21.2 0 38.5 17.3 38.5 38.5 0 21.3-17.2 38.5-38.5 38.5zm282.1 243h-66.4V312c0-24.8-.5-56.7-34.5-56.7-34.6 0-39.9 27-39.9 54.9V416h-66.4V202.2h63.7v29.2h.9c8.9-16.8 30.6-34.5 62.9-34.5 67.2 0 79.7 44.3 79.7 101.9V416z"/>
</symbol>
<symbol id="docker" viewBox="0 0 640 512">
<path d="M349.9 236.3h-66.1v-59.4h66.1v59.4zm0-204.3h-66.1v60.7h66.1V32zm78.2 144.8H362v59.4h66.1v-59.4zm-156.3-72.1h-66.1v60.1h66.1v-60.1zm78.1 0h-66.1v60.1h66.1v-60.1zm276.8 100c-14.4-9.7-47.6-13.2-73.1-8.4-3.3-24-16.7-44.9-41.1-63.7l-14-9.3-9.3 14c-18.4 27.8-23.4 73.6-3.7 103.8-8.7 4.7-25.8 11.1-48.4 10.7H2.4c-8.7 50.8 5.8 116.8 44 162.1 37.1 43.9 92.7 66.2 165.4 66.2 157.4 0 273.9-72.5 328.4-204.2 21.4.4 67.6.1 91.3-45.2 1.5-2.5 6.6-13.2 8.5-17.1l-13.3-8.9zm-511.1-27.9h-66v59.4h66.1v-59.4zm78.1 0h-66.1v59.4h66.1v-59.4zm78.1 0h-66.1v59.4h66.1v-59.4zm-78.1-72.1h-66.1v60.1h66.1v-60.1z"/>
</symbol>
<symbol id="golang" viewBox="0 0 640 512">
<path d="M400.1 194.8C389.2 197.6 380.2 199.1 371 202.4C363.7 204.3 356.3 206.3 347.8 208.5L347.2 208.6C343 209.8 342.6 209.9 338.7 205.4C334 200.1 330.6 196.7 324.1 193.5C304.4 183.9 285.4 186.7 267.7 198.2C246.5 211.9 235.6 232.2 235.9 257.4C236.2 282.4 253.3 302.9 277.1 306.3C299.1 309.1 316.9 301.7 330.9 285.8C333 283.2 334.9 280.5 337 277.5V277.5L337 277.5C337.8 276.5 338.5 275.4 339.3 274.2H279.2C272.7 274.2 271.1 270.2 273.3 264.9C277.3 255.2 284.8 239 289.2 230.9C290.1 229.1 292.3 225.1 296.1 225.1H397.2C401.7 211.7 409 198.2 418.8 185.4C441.5 155.5 468.1 139.9 506 133.4C537.8 127.8 567.7 130.9 594.9 149.3C619.5 166.1 634.7 188.9 638.8 218.8C644.1 260.9 631.9 295.1 602.1 324.4C582.4 345.3 557.2 358.4 528.2 364.3C522.6 365.3 517.1 365.8 511.7 366.3C508.8 366.5 506 366.8 503.2 367.1C474.9 366.5 449 358.4 427.2 339.7C411.9 326.4 401.3 310.1 396.1 291.2C392.4 298.5 388.1 305.6 382.1 312.3C360.5 341.9 331.2 360.3 294.2 365.2C263.6 369.3 235.3 363.4 210.3 344.7C187.3 327.2 174.2 304.2 170.8 275.5C166.7 241.5 176.7 210.1 197.2 184.2C219.4 155.2 248.7 136.8 284.5 130.3C313.8 124.1 341.8 128.4 367.1 145.6C383.6 156.5 395.4 171.4 403.2 189.5C405.1 192.3 403.8 193.9 400.1 194.8zM48.3 200.4C47.05 200.4 46.74 199.8 47.36 198.8L53.91 190.4C54.53 189.5 56.09 188.9 57.34 188.9H168.6C169.8 188.9 170.1 189.8 169.5 190.7L164.2 198.8C163.6 199.8 162 200.7 161.1 200.7L48.3 200.4zM1.246 229.1C0 229.1-.3116 228.4 .3116 227.5L6.855 219.1C7.479 218.2 9.037 217.5 10.28 217.5H152.4C153.6 217.5 154.2 218.5 153.9 219.4L151.4 226.9C151.1 228.1 149.9 228.8 148.6 228.8L1.246 229.1zM75.72 255.9C75.1 256.8 75.41 257.7 76.65 257.7L144.6 258C145.5 258 146.8 257.1 146.8 255.9L147.4 248.4C147.4 247.1 146.8 246.2 145.5 246.2H83.2C81.95 246.2 80.71 247.1 80.08 248.1L75.72 255.9zM577.2 237.9C577 235.3 576.9 233.1 576.5 230.9C570.9 200.1 542.5 182.6 512.9 189.5C483.9 196 465.2 214.4 458.4 243.7C452.8 268 464.6 292.6 487 302.6C504.2 310.1 521.3 309.2 537.8 300.7C562.4 287.1 575.8 268 577.4 241.2C577.3 240 577.3 238.9 577.2 237.9z"/>
</symbol>
<symbol id="python" viewBox="0 0 448 512">
<path d="M439.8 200.5c-7.7-30.9-22.3-54.2-53.4-54.2h-40.1v47.4c0 36.8-31.2 67.8-66.8 67.8H172.7c-29.2 0-53.4 25-53.4 54.3v101.8c0 29 25.2 46 53.4 54.3 33.8 9.9 66.3 11.7 106.8 0 26.9-7.8 53.4-23.5 53.4-54.3v-40.7H226.2v-13.6h160.2c31.1 0 42.6-21.7 53.4-54.2 11.2-33.5 10.7-65.7 0-108.6zM286.2 404c11.1 0 20.1 9.1 20.1 20.3 0 11.3-9 20.4-20.1 20.4-11 0-20.1-9.2-20.1-20.4.1-11.3 9.1-20.3 20.1-20.3zM167.8 248.1h106.8c29.7 0 53.4-24.5 53.4-54.3V91.9c0-29-24.4-50.7-53.4-55.6-35.8-5.9-74.7-5.6-106.8.1-45.2 8-53.4 24.7-53.4 55.6v40.7h106.9v13.6h-147c-31.1 0-58.3 18.7-66.8 54.2-9.8 40.7-10.2 66.1 0 108.6 7.6 31.6 25.7 54.2 56.8 54.2H101v-48.8c0-35.3 30.5-66.4 66.8-66.4zm-6.7-142.6c-11.1 0-20.1-9.1-20.1-20.3.1-11.3 9-20.4 20.1-20.4 11 0 20.1 9.2 20.1 20.4s-9 20.3-20.1 20.3z"/>
</symbol>
<symbol id="youtube" viewBox="0 0 576 512">
<path d="M549.655 124.083c-6.281-23.65-24.787-42.276-48.284-48.597C458.781 64 288 64 288 64S117.22 64 74.629 75.486c-23.497 6.322-42.003 24.947-48.284 48.597-11.412 42.867-11.412 132.305-11.412 132.305s0 89.438 11.412 132.305c6.281 23.65 24.787 41.5 48.284 47.821C117.22 448 288 448 288 448s170.78 0 213.371-11.486c23.497-6.321 42.003-24.171 48.284-47.821 11.412-42.867 11.412-132.305 11.412-132.305s0-89.438-11.412-132.305zm-317.51 213.508V175.185l142.739 81.205-142.739 81.201z"/>
</symbol>
<symbol id="google" viewBox="0 0 488 512">
<path d="M488 261.8C488 403.3 391.1 504 248 504 110.8 504 0 393.2 0 256S110.8 8 248 8c66.8 0 123 24.5 166.3 64.9l-67.5 64.9C258.5 52.6 94.3 116.6 94.3 256c0 86.5 69.1 156.6 153.7 156.6 98.2 0 135-70.4 140.8-106.9H248v-85.3h236.1c2.3 12.7 3.9 24.9 3.9 41.4z"/>
</symbol>
<symbol id="readme" viewBox="0 0 576 512">
<path d="M528.3 46.5H388.5c-48.1 0-89.9 33.3-100.4 80.3-10.6-47-52.3-80.3-100.4-80.3H48c-26.5 0-48 21.5-48 48v245.8c0 26.5 21.5 48 48 48h89.7c102.2 0 132.7 24.4 147.3 75 .7 2.8 5.2 2.8 6 0 14.7-50.6 45.2-75 147.3-75H528c26.5 0 48-21.5 48-48V94.6c0-26.4-21.3-47.9-47.7-48.1zM242 311.9c0 1.9-1.5 3.5-3.5 3.5H78.2c-1.9 0-3.5-1.5-3.5-3.5V289c0-1.9 1.5-3.5 3.5-3.5h160.4c1.9 0 3.5 1.5 3.5 3.5v22.9zm0-60.9c0 1.9-1.5 3.5-3.5 3.5H78.2c-1.9 0-3.5-1.5-3.5-3.5v-22.9c0-1.9 1.5-3.5 3.5-3.5h160.4c1.9 0 3.5 1.5 3.5 3.5V251zm0-60.9c0 1.9-1.5 3.5-3.5 3.5H78.2c-1.9 0-3.5-1.5-3.5-3.5v-22.9c0-1.9 1.5-3.5 3.5-3.5h160.4c1.9 0 3.5 1.5 3.5 3.5v22.9zm259.3 121.7c0 1.9-1.5 3.5-3.5 3.5H337.5c-1.9 0-3.5-1.5-3.5-3.5v-22.9c0-1.9 1.5-3.5 3.5-3.5h160.4c1.9 0 3.5 1.5 3.5 3.5v22.9zm0-60.9c0 1.9-1.5 3.5-3.5 3.5H337.5c-1.9 0-3.5-1.5-3.5-3.5V228c0-1.9 1.5-3.5 3.5-3.5h160.4c1.9 0 3.5 1.5 3.5 3.5v22.9zm0-60.9c0 1.9-1.5 3.5-3.5 3.5H337.5c-1.9 0-3.5-1.5-3.5-3.5v-22.8c0-1.9 1.5-3.5 3.5-3.5h160.4c1.9 0 3.5 1.5 3.5 3.5V190z"/>
</symbol>
<symbol id="trello" viewBox="0 0 448 512">
<path d="M392.3 32H56.1C25.1 32 0 57.1 0 88c-.1 0 0-4 0 336 0 30.9 25.1 56 56 56h336.2c30.8-.2 55.7-25.2 55.7-56V88c.1-30.8-24.8-55.8-55.6-56zM197 371.3c-.2 14.7-12.1 26.6-26.9 26.6H87.4c-14.8.1-26.9-11.8-27-26.6V117.1c0-14.8 12-26.9 26.9-26.9h82.9c14.8 0 26.9 12 26.9 26.9v254.2zm193.1-112c0 14.8-12 26.9-26.9 26.9h-81c-14.8 0-26.9-12-26.9-26.9V117.2c0-14.8 12-26.9 26.8-26.9h81.1c14.8 0 26.9 12 26.9 26.9v142.1z"/>
</symbol>
<symbol id="stripe" viewBox="0 0 640 512">
<path d="M165 144.7l-43.3 9.2-.2 142.4c0 26.3 19.8 43.3 46.1 43.3 14.6 0 25.3-2.7 31.2-5.9v-33.8c-5.7 2.3-33.7 10.5-33.7-15.7V221h33.7v-37.8h-33.7zm89.1 51.6l-2.7-13.1H213v153.2h44.3V233.3c10.5-13.8 28.2-11.1 33.9-9.3v-40.8c-6-2.1-26.7-6-37.1 13.1zm92.3-72.3l-44.6 9.5v36.2l44.6-9.5zM44.9 228.3c0-6.9 5.8-9.6 15.1-9.7 13.5 0 30.7 4.1 44.2 11.4v-41.8c-14.7-5.8-29.4-8.1-44.1-8.1-36 0-60 18.8-60 50.2 0 49.2 67.5 41.2 67.5 62.4 0 8.2-7.1 10.9-17 10.9-14.7 0-33.7-6.1-48.6-14.2v40c16.5 7.1 33.2 10.1 48.5 10.1 36.9 0 62.3-15.8 62.3-47.8 0-52.9-67.9-43.4-67.9-63.4zM640 261.6c0-45.5-22-81.4-64.2-81.4s-67.9 35.9-67.9 81.1c0 53.5 30.3 78.2 73.5 78.2 21.2 0 37.1-4.8 49.2-11.5v-33.4c-12.1 6.1-26 9.8-43.6 9.8-17.3 0-32.5-6.1-34.5-26.9h86.9c.2-2.3.6-11.6.6-15.9zm-87.9-16.8c0-20 12.3-28.4 23.4-28.4 10.9 0 22.5 8.4 22.5 28.4zm-112.9-64.6c-17.4 0-28.6 8.2-34.8 13.9l-2.3-11H363v204.8l44.4-9.4.1-50.2c6.4 4.7 15.9 11.2 31.4 11.2 31.8 0 60.8-23.2 60.8-79.6.1-51.6-29.3-79.7-60.5-79.7zm-10.6 122.5c-10.4 0-16.6-3.8-20.9-8.4l-.3-66c4.6-5.1 11-8.8 21.2-8.8 16.2 0 27.4 18.2 27.4 41.4.1 23.9-10.9 41.8-27.4 41.8zm-126.7 33.7h44.6V183.2h-44.6z"/>
</symbol>
<symbol id="discord" viewBox="0 0 640 512">
<path d="M524.531,69.836a1.5,1.5,0,0,0-.764-.7A485.065,485.065,0,0,0,404.081,32.03a1.816,1.816,0,0,0-1.923.91,337.461,337.461,0,0,0-14.9,30.6,447.848,447.848,0,0,0-134.426,0,309.541,309.541,0,0,0-15.135-30.6,1.89,1.89,0,0,0-1.924-.91A483.689,483.689,0,0,0,116.085,69.137a1.712,1.712,0,0,0-.788.676C39.068,183.651,18.186,294.69,28.43,404.354a2.016,2.016,0,0,0,.765,1.375A487.666,487.666,0,0,0,176.02,479.918a1.9,1.9,0,0,0,2.063-.676A348.2,348.2,0,0,0,208.12,430.4a1.86,1.86,0,0,0-1.019-2.588,321.173,321.173,0,0,1-45.868-21.853,1.885,1.885,0,0,1-.185-3.126c3.082-2.309,6.166-4.711,9.109-7.137a1.819,1.819,0,0,1,1.9-.256c96.229,43.917,200.41,43.917,295.5,0a1.812,1.812,0,0,1,1.924.233c2.944,2.426,6.027,4.851,9.132,7.16a1.884,1.884,0,0,1-.162,3.126,301.407,301.407,0,0,1-45.89,21.83,1.875,1.875,0,0,0-1,2.611,391.055,391.055,0,0,0,30.014,48.815,1.864,1.864,0,0,0,2.063.7A486.048,486.048,0,0,0,610.7,405.729a1.882,1.882,0,0,0,.765-1.352C623.729,277.594,590.933,167.465,524.531,69.836ZM222.491,337.58c-28.972,0-52.844-26.587-52.844-59.239S193.056,219.1,222.491,219.1c29.665,0,53.306,26.82,52.843,59.239C275.334,310.993,251.924,337.58,222.491,337.58Zm195.38,0c-28.971,0-52.843-26.587-52.843-59.239S388.437,219.1,417.871,219.1c29.667,0,53.307,26.82,52.844,59.239C470.715,310.993,447.538,337.58,417.871,337.58Z"/>
</symbol>
<symbol id="instagram" viewBox="0 0 448 512">
<path d="M224.1 141c-63.6 0-114.9 51.3-114.9 114.9s51.3 114.9 114.9 114.9S339 319.5 339 255.9 287.7 141 224.1 141zm0 189.6c-41.1 0-74.7-33.5-74.7-74.7s33.5-74.7 74.7-74.7 74.7 33.5 74.7 74.7-33.6 74.7-74.7 74.7zm146.4-194.3c0 14.9-12 26.8-26.8 26.8-14.9 0-26.8-12-26.8-26.8s12-26.8 26.8-26.8 26.8 12 26.8 26.8zm76.1 27.2c-1.7-35.9-9.9-67.7-36.2-93.9-26.2-26.2-58-34.4-93.9-36.2-37-2.1-147.9-2.1-184.9 0-35.8 1.7-67.6 9.9-93.9 36.1s-34.4 58-36.2 93.9c-2.1 37-2.1 147.9 0 184.9 1.7 35.9 9.9 67.7 36.2 93.9s58 34.4 93.9 36.2c37 2.1 147.9 2.1 184.9 0 35.9-1.7 67.7-9.9 93.9-36.2 26.2-26.2 34.4-58 36.2-93.9 2.1-37 2.1-147.8 0-184.8zM398.8 388c-7.8 19.6-22.9 34.7-42.6 42.6-29.5 11.7-99.5 9-132.1 9s-102.7 2.6-132.1-9c-19.6-7.8-34.7-22.9-42.6-42.6-11.7-29.5-9-99.5-9-132.1s-2.6-102.7 9-132.1c7.8-19.6 22.9-34.7 42.6-42.6 29.5-11.7 99.5-9 132.1-9s102.7-2.6 132.1 9c19.6 7.8 34.7 22.9 42.6 42.6 11.7 29.5 9 99.5 9 132.1s2.7 102.7-9 132.1z"/>
</symbol>
<symbol id="codepen" viewBox="0 0 512 512">
<path d="M502.285 159.704l-234-156c-7.987-4.915-16.511-4.96-24.571 0l-234 156C3.714 163.703 0 170.847 0 177.989v155.999c0 7.143 3.714 14.286 9.715 18.286l234 156.022c7.987 4.915 16.511 4.96 24.571 0l234-156.022c6-3.999 9.715-11.143 9.715-18.286V177.989c-.001-7.142-3.715-14.286-9.716-18.285zM278 63.131l172.286 114.858-76.857 51.429L278 165.703V63.131zm-44 0v102.572l-95.429 63.715-76.857-51.429L234 63.131zM44 219.132l55.143 36.857L44 292.846v-73.714zm190 229.715L61.714 333.989l76.857-51.429L234 346.275v102.572zm22-140.858l-77.715-52 77.715-52 77.715 52-77.715 52zm22 140.858V346.275l95.429-63.715 76.857 51.429L278 448.847zm190-156.001l-55.143-36.857L468 219.132v73.714z"/>
</symbol>
<symbol id="microsoft" viewBox="0 0 448 512">
<path d="M0 32h214.6v214.6H0V32zm233.4 0H448v214.6H233.4V32zM0 265.4h214.6V480H0V265.4zm233.4 0H448V480H233.4V265.4z"/>
</symbol>
<symbol id="square-twitter" viewBox="0 0 448 512">
<path d="M64 32C28.7 32 0 60.7 0 96V416c0 35.3 28.7 64 64 64H384c35.3 0 64-28.7 64-64V96c0-35.3-28.7-64-64-64H64zM351.3 199.3v0c0 86.7-66 186.6-186.6 186.6c-37.2 0-71.7-10.8-100.7-29.4c5.3 .6 10.4 .8 15.8 .8c30.7 0 58.9-10.4 81.4-28c-28.8-.6-53-19.5-61.3-45.5c10.1 1.5 19.2 1.5 29.6-1.2c-30-6.1-52.5-32.5-52.5-64.4v-.8c8.7 4.9 18.9 7.9 29.6 8.3c-9-6-16.4-14.1-21.5-23.6s-7.8-20.2-7.7-31c0-12.2 3.2-23.4 8.9-33.1c32.3 39.8 80.8 65.8 135.2 68.6c-9.3-44.5 24-80.6 64-80.6c18.9 0 35.9 7.9 47.9 20.7c14.8-2.8 29-8.3 41.6-15.8c-4.9 15.2-15.2 28-28.8 36.1c13.2-1.4 26-5.1 37.8-10.2c-8.9 13.1-20.1 24.7-32.9 34c.2 2.8 .2 5.7 .2 8.5z"/>
</symbol>
<symbol id="github" viewBox="0 0 496 512">
<path d="M165.9 397.4c0 2-2.3 3.6-5.2 3.6-3.3.3-5.6-1.3-5.6-3.6 0-2 2.3-3.6 5.2-3.6 3-.3 5.6 1.3 5.6 3.6zm-31.1-4.5c-.7 2 1.3 4.3 4.3 4.9 2.6 1 5.6 0 6.2-2s-1.3-4.3-4.3-5.2c-2.6-.7-5.5.3-6.2 2.3zm44.2-1.7c-2.9.7-4.9 2.6-4.6 4.9.3 2 2.9 3.3 5.9 2.6 2.9-.7 4.9-2.6 4.6-4.6-.3-1.9-3-3.2-5.9-2.9zM244.8 8C106.1 8 0 113.3 0 252c0 110.9 69.8 205.8 169.5 239.2 12.8 2.3 17.3-5.6 17.3-12.1 0-6.2-.3-40.4-.3-61.4 0 0-70 15-84.7-29.8 0 0-11.4-29.1-27.8-36.6 0 0-22.9-15.7 1.6-15.4 0 0 24.9 2 38.6 25.8 21.9 38.6 58.6 27.5 72.9 20.9 2.3-16 8.8-27.1 16-33.7-55.9-6.2-112.3-14.3-112.3-110.5 0-27.5 7.6-41.3 23.6-58.9-2.6-6.5-11.1-33.3 2.6-67.9 20.9-6.5 69 27 69 27 20-5.6 41.5-8.5 62.8-8.5s42.8 2.9 62.8 8.5c0 0 48.1-33.6 69-27 13.7 34.7 5.2 61.4 2.6 67.9 16 17.7 25.8 31.5 25.8 58.9 0 96.5-58.9 104.2-114.8 110.5 9.2 7.9 17 22.9 17 46.4 0 33.7-.3 75.4-.3 83.6 0 6.5 4.6 14.4 17.3 12.1C428.2 457.8 496 362.9 496 252 496 113.3 383.5 8 244.8 8zM97.2 352.9c-1.3 1-1 3.3.7 5.2 1.6 1.6 3.9 2.3 5.2 1 1.3-1 1-3.3-.7-5.2-1.6-1.6-3.9-2.3-5.2-1zm-10.8-8.1c-.7 1.3.3 2.9 2.3 3.9 1.6 1 3.6.7 4.3-.7.7-1.3-.3-2.9-2.3-3.9-2-.6-3.6-.3-4.3.7zm32.4 35.6c-1.6 1.3-1 4.3 1.3 6.2 2.3 2.3 5.2 2.6 6.5 1 1.3-1.3.7-4.3-1.3-6.2-2.2-2.3-5.2-2.6-6.5-1zm-11.4-14.7c-1.6 1-1.6 3.6 0 5.9 1.6 2.3 4.3 3.3 5.6 2.3 1.6-1.3 1.6-3.9 0-6.2-1.4-2.3-4-3.3-5.6-2z"/>
</symbol>
<symbol id="figma" viewBox="0 0 384 512">
<path d="M14 95.7924C14 42.8877 56.8878 0 109.793 0H274.161C327.066 0 369.954 42.8877 369.954 95.7924C369.954 129.292 352.758 158.776 326.711 175.897C352.758 193.019 369.954 222.502 369.954 256.002C369.954 308.907 327.066 351.795 274.161 351.795H272.081C247.279 351.795 224.678 342.369 207.666 326.904V415.167C207.666 468.777 163.657 512 110.309 512C57.5361 512 14 469.243 14 416.207C14 382.709 31.1945 353.227 57.2392 336.105C31.1945 318.983 14 289.5 14 256.002C14 222.502 31.196 193.019 57.2425 175.897C31.196 158.776 14 129.292 14 95.7924ZM176.288 191.587H109.793C74.2172 191.587 45.3778 220.427 45.3778 256.002C45.3778 291.44 73.9948 320.194 109.381 320.416C109.518 320.415 109.655 320.415 109.793 320.415H176.288V191.587ZM207.666 256.002C207.666 291.577 236.505 320.417 272.081 320.417H274.161C309.737 320.417 338.576 291.577 338.576 256.002C338.576 220.427 309.737 191.587 274.161 191.587H272.081C236.505 191.587 207.666 220.427 207.666 256.002ZM109.793 351.795C109.655 351.795 109.518 351.794 109.381 351.794C73.9948 352.015 45.3778 380.769 45.3778 416.207C45.3778 451.652 74.6025 480.622 110.309 480.622C146.591 480.622 176.288 451.186 176.288 415.167V351.795H109.793ZM109.793 31.3778C74.2172 31.3778 45.3778 60.2173 45.3778 95.7924C45.3778 131.368 74.2172 160.207 109.793 160.207H176.288V31.3778H109.793ZM207.666 160.207H274.161C309.737 160.207 338.576 131.368 338.576 95.7924C338.576 60.2173 309.737 31.3778 274.161 31.3778H207.666V160.207Z"/>
</symbol>
<symbol id="facebook" viewBox="0 0 512 512">
<path d="M512 256C512 114.6 397.4 0 256 0S0 114.6 0 256C0 376 82.7 476.8 194.2 504.5V334.2H141.4V256h52.8V222.3c0-87.1 39.4-127.5 125-127.5c16.2 0 44.2 3.2 55.7 6.4V172c-6-.6-16.5-1-29.6-1c-42 0-58.2 15.9-58.2 57.2V256h83.6l-14.4 78.2H287V510.1C413.8 494.8 512 386.9 512 256h0z"/>
</symbol>
<symbol id="google-drive" viewBox="0 0 512 512">
<path d="M339 314.9L175.4 32h161.2l163.6 282.9H339zm-137.5 23.6L120.9 480h310.5L512 338.5H201.5zM154.1 67.4L0 338.5 80.6 480 237 208.8 154.1 67.4z"/>
</symbol>
<symbol id="slack" viewBox="0 0 448 512">
<path d="M94.12 315.1c0 25.9-21.16 47.06-47.06 47.06S0 341 0 315.1c0-25.9 21.16-47.06 47.06-47.06h47.06v47.06zm23.72 0c0-25.9 21.16-47.06 47.06-47.06s47.06 21.16 47.06 47.06v117.84c0 25.9-21.16 47.06-47.06 47.06s-47.06-21.16-47.06-47.06V315.1zm47.06-188.98c-25.9 0-47.06-21.16-47.06-47.06S139 32 164.9 32s47.06 21.16 47.06 47.06v47.06H164.9zm0 23.72c25.9 0 47.06 21.16 47.06 47.06s-21.16 47.06-47.06 47.06H47.06C21.16 243.96 0 222.8 0 196.9s21.16-47.06 47.06-47.06H164.9zm188.98 47.06c0-25.9 21.16-47.06 47.06-47.06 25.9 0 47.06 21.16 47.06 47.06s-21.16 47.06-47.06 47.06h-47.06V196.9zm-23.72 0c0 25.9-21.16 47.06-47.06 47.06-25.9 0-47.06-21.16-47.06-47.06V79.06c0-25.9 21.16-47.06 47.06-47.06 25.9 0 47.06 21.16 47.06 47.06V196.9zM283.1 385.88c25.9 0 47.06 21.16 47.06 47.06 0 25.9-21.16 47.06-47.06 47.06-25.9 0-47.06-21.16-47.06-47.06v-47.06h47.06zm0-23.72c-25.9 0-47.06-21.16-47.06-47.06 0-25.9 21.16-47.06 47.06-47.06h117.84c25.9 0 47.06 21.16 47.06 47.06 0 25.9-21.16 47.06-47.06 47.06H283.1z"/>
</symbol>
<symbol id="square-js" viewBox="0 0 448 512">
<path d="M448 96c0-35.3-28.7-64-64-64H64C28.7 32 0 60.7 0 96V416c0 35.3 28.7 64 64 64H384c35.3 0 64-28.7 64-64V96zM180.9 444.9c-33.7 0-53.2-17.4-63.2-38.5L152 385.7c6.6 11.7 12.6 21.6 27.1 21.6c13.8 0 22.6-5.4 22.6-26.5V237.7h42.1V381.4c0 43.6-25.6 63.5-62.9 63.5zm85.8-43L301 382.1c9 14.7 20.8 25.6 41.5 25.6c17.4 0 28.6-8.7 28.6-20.8c0-14.4-11.4-19.5-30.7-28l-10.5-4.5c-30.4-12.9-50.5-29.2-50.5-63.5c0-31.6 24.1-55.6 61.6-55.6c26.8 0 46 9.3 59.8 33.7L368 290c-7.2-12.9-15-18-27.1-18c-12.3 0-20.1 7.8-20.1 18c0 12.6 7.8 17.7 25.9 25.6l10.5 4.5c35.8 15.3 55.9 31 55.9 66.2c0 37.8-29.8 58.6-69.7 58.6c-39.1 0-64.4-18.6-76.7-43z"/>
</symbol>
<symbol id="twitter" viewBox="0 0 512 512">
<path d="M459.37 151.716c.325 4.548.325 9.097.325 13.645 0 138.72-105.583 298.558-298.558 298.558-59.452 0-114.68-17.219-161.137-47.106 8.447.974 16.568 1.299 25.34 1.299 49.055 0 94.213-16.568 130.274-44.832-46.132-.975-84.792-31.188-98.112-72.772 6.498.974 12.995 1.624 19.818 1.624 9.421 0 18.843-1.3 27.614-3.573-48.081-9.747-84.143-51.98-84.143-102.985v-1.299c13.969 7.797 30.214 12.67 47.431 13.319-28.264-18.843-46.781-51.005-46.781-87.391 0-19.492 5.197-37.36 14.294-52.954 51.655 63.675 129.3 105.258 216.365 109.807-1.624-7.797-2.599-15.918-2.599-24.04 0-57.828 46.782-104.934 104.934-104.934 30.213 0 57.502 12.67 76.67 33.137 23.715-4.548 46.456-13.32 66.599-25.34-7.798 24.366-24.366 44.833-46.132 57.827 21.117-2.273 41.584-8.122 60.426-16.243-14.292 20.791-32.161 39.308-52.628 54.253z"/>
</symbol>
<symbol id="twitch" viewBox="0 0 512 512">
<path d="M391.17,103.47H352.54v109.7h38.63ZM285,103H246.37V212.75H285ZM120.83,0,24.31,91.42V420.58H140.14V512l96.53-91.42h77.25L487.69,256V0ZM449.07,237.75l-77.22,73.12H294.61l-67.6,64v-64H140.14V36.58H449.07Z"/>
</symbol>
<symbol id="swift" viewBox="0 0 448 512">
<path d="M448 156.09c0-4.51-.08-9-.2-13.52a196.31 196.31 0 0 0-2.58-29.42 99.62 99.62 0 0 0-9.22-28A94.08 94.08 0 0 0 394.84 44a99.17 99.17 0 0 0-28-9.22 195 195 0 0 0-29.43-2.59c-4.51-.12-9-.17-13.52-.2H124.14c-4.51 0-9 .08-13.52.2-2.45.07-4.91.15-7.37.27a171.68 171.68 0 0 0-22.06 2.32 103.06 103.06 0 0 0-21.21 6.1q-3.46 1.45-6.81 3.12a94.66 94.66 0 0 0-18.39 12.32c-1.88 1.61-3.69 3.28-5.43 5A93.86 93.86 0 0 0 12 85.17a99.45 99.45 0 0 0-9.22 28 196.31 196.31 0 0 0-2.54 29.4c-.13 4.51-.18 9-.21 13.52v199.83c0 4.51.08 9 .21 13.51a196.08 196.08 0 0 0 2.58 29.42 99.3 99.3 0 0 0 9.22 28A94.31 94.31 0 0 0 53.17 468a99.47 99.47 0 0 0 28 9.21 195 195 0 0 0 29.43 2.59c4.5.12 9 .17 13.52.2H323.91c4.51 0 9-.08 13.52-.2a196.59 196.59 0 0 0 29.44-2.59 99.57 99.57 0 0 0 28-9.21A94.22 94.22 0 0 0 436 426.84a99.3 99.3 0 0 0 9.22-28 194.79 194.79 0 0 0 2.59-29.42c.12-4.5.17-9 .2-13.51V172.14c-.01-5.35-.01-10.7-.01-16.05zm-69.88 241c-20-38.93-57.23-29.27-76.31-19.47-1.72 1-3.48 2-5.25 3l-.42.25c-39.5 21-92.53 22.54-145.85-.38A234.64 234.64 0 0 1 45 290.12a230.63 230.63 0 0 0 39.17 23.37c56.36 26.4 113 24.49 153 0-57-43.85-104.6-101-141.09-147.22a197.09 197.09 0 0 1-18.78-25.9c43.7 40 112.7 90.22 137.48 104.12-52.57-55.49-98.89-123.94-96.72-121.74 82.79 83.42 159.18 130.59 159.18 130.59 2.88 1.58 5 2.85 6.73 4a127.44 127.44 0 0 0 4.16-12.47c13.22-48.33-1.66-103.58-35.31-149.2C329.61 141.75 375 229.34 356.4 303.42c-.44 1.73-.95 3.4-1.44 5.09 38.52 47.4 28.04 98.17 23.13 88.59z"/>
</symbol>
<symbol id="git-alt" viewBox="0 0 448 512">
<path d="M439.55 236.05L244 40.45a28.87 28.87 0 0 0-40.81 0l-40.66 40.63 51.52 51.52c27.06-9.14 52.68 16.77 43.39 43.68l49.66 49.66c34.23-11.8 61.18 31 35.47 56.69-26.49 26.49-70.21-2.87-56-37.34L240.22 199v121.85c25.3 12.54 22.26 41.85 9.08 55a34.34 34.34 0 0 1-48.55 0c-17.57-17.6-11.07-46.91 11.25-56v-123c-20.8-8.51-24.6-30.74-18.64-45L142.57 101 8.45 235.14a28.86 28.86 0 0 0 0 40.81l195.61 195.6a28.86 28.86 0 0 0 40.8 0l194.69-194.69a28.86 28.86 0 0 0 0-40.81z"/>
</symbol>
<symbol id="discourse" viewBox="0 0 448 512">
<path d="M225.9 32C103.3 32 0 130.5 0 252.1 0 256 .1 480 .1 480l225.8-.2c122.7 0 222.1-102.3 222.1-223.9C448 134.3 348.6 32 225.9 32zM224 384c-19.4 0-37.9-4.3-54.4-12.1L88.5 392l22.9-75c-9.8-18.1-15.4-38.9-15.4-61 0-70.7 57.3-128 128-128s128 57.3 128 128-57.3 128-128 128z"/>
</symbol>
<symbol id="node" viewBox="0 0 640 512">
<path d="M316.3 452c-2.1 0-4.2-.6-6.1-1.6L291 439c-2.9-1.6-1.5-2.2-.5-2.5 3.8-1.3 4.6-1.6 8.7-4 .4-.2 1-.1 1.4.1l14.8 8.8c.5.3 1.3.3 1.8 0L375 408c.5-.3.9-.9.9-1.6v-66.7c0-.7-.3-1.3-.9-1.6l-57.8-33.3c-.5-.3-1.2-.3-1.8 0l-57.8 33.3c-.6.3-.9 1-.9 1.6v66.7c0 .6.4 1.2.9 1.5l15.8 9.1c8.6 4.3 13.9-.8 13.9-5.8v-65.9c0-.9.7-1.7 1.7-1.7h7.3c.9 0 1.7.7 1.7 1.7v65.9c0 11.5-6.2 18-17.1 18-3.3 0-6 0-13.3-3.6l-15.2-8.7c-3.7-2.2-6.1-6.2-6.1-10.5v-66.7c0-4.3 2.3-8.4 6.1-10.5l57.8-33.4c3.7-2.1 8.5-2.1 12.1 0l57.8 33.4c3.7 2.2 6.1 6.2 6.1 10.5v66.7c0 4.3-2.3 8.4-6.1 10.5l-57.8 33.4c-1.7 1.1-3.8 1.7-6 1.7zm46.7-65.8c0-12.5-8.4-15.8-26.2-18.2-18-2.4-19.8-3.6-19.8-7.8 0-3.5 1.5-8.1 14.8-8.1 11.9 0 16.3 2.6 18.1 10.6.2.8.8 1.3 1.6 1.3h7.5c.5 0 .9-.2 1.2-.5.3-.4.5-.8.4-1.3-1.2-13.8-10.3-20.2-28.8-20.2-16.5 0-26.3 7-26.3 18.6 0 12.7 9.8 16.1 25.6 17.7 18.9 1.9 20.4 4.6 20.4 8.3 0 6.5-5.2 9.2-17.4 9.2-15.3 0-18.7-3.8-19.8-11.4-.1-.8-.8-1.4-1.7-1.4h-7.5c-.9 0-1.7.7-1.7 1.7 0 9.7 5.3 21.3 30.6 21.3 18.5 0 29-7.2 29-19.8zm54.5-50.1c0 6.1-5 11.1-11.1 11.1s-11.1-5-11.1-11.1c0-6.3 5.2-11.1 11.1-11.1 6-.1 11.1 4.8 11.1 11.1zm-1.8 0c0-5.2-4.2-9.3-9.4-9.3-5.1 0-9.3 4.1-9.3 9.3 0 5.2 4.2 9.4 9.3 9.4 5.2-.1 9.4-4.3 9.4-9.4zm-4.5 6.2h-2.6c-.1-.6-.5-3.8-.5-3.9-.2-.7-.4-1.1-1.3-1.1h-2.2v5h-2.4v-12.5h4.3c1.5 0 4.4 0 4.4 3.3 0 2.3-1.5 2.8-2.4 3.1 1.7.1 1.8 1.2 2.1 2.8.1 1 .3 2.7.6 3.3zm-2.8-8.8c0-1.7-1.2-1.7-1.8-1.7h-2v3.5h1.9c1.6 0 1.9-1.1 1.9-1.8zM137.3 191c0-2.7-1.4-5.1-3.7-6.4l-61.3-35.3c-1-.6-2.2-.9-3.4-1h-.6c-1.2 0-2.3.4-3.4 1L3.7 184.6C1.4 185.9 0 188.4 0 191l.1 95c0 1.3.7 2.5 1.8 3.2 1.1.7 2.5.7 3.7 0L42 268.3c2.3-1.4 3.7-3.8 3.7-6.4v-44.4c0-2.6 1.4-5.1 3.7-6.4l15.5-8.9c1.2-.7 2.4-1 3.7-1 1.3 0 2.6.3 3.7 1l15.5 8.9c2.3 1.3 3.7 3.8 3.7 6.4v44.4c0 2.6 1.4 5.1 3.7 6.4l36.4 20.9c1.1.7 2.6.7 3.7 0 1.1-.6 1.8-1.9 1.8-3.2l.2-95zM472.5 87.3v176.4c0 2.6-1.4 5.1-3.7 6.4l-61.3 35.4c-2.3 1.3-5.1 1.3-7.4 0l-61.3-35.4c-2.3-1.3-3.7-3.8-3.7-6.4v-70.8c0-2.6 1.4-5.1 3.7-6.4l61.3-35.4c2.3-1.3 5.1-1.3 7.4 0l15.3 8.8c1.7 1 3.9-.3 3.9-2.2v-94c0-2.8 3-4.6 5.5-3.2l36.5 20.4c2.3 1.2 3.8 3.7 3.8 6.4zm-46 128.9c0-.7-.4-1.3-.9-1.6l-21-12.2c-.6-.3-1.3-.3-1.9 0l-21 12.2c-.6.3-.9.9-.9 1.6v24.3c0 .7.4 1.3.9 1.6l21 12.1c.6.3 1.3.3 1.8 0l21-12.1c.6-.3.9-.9.9-1.6v-24.3zm209.8-.7c2.3-1.3 3.7-3.8 3.7-6.4V192c0-2.6-1.4-5.1-3.7-6.4l-60.9-35.4c-2.3-1.3-5.1-1.3-7.4 0l-61.3 35.4c-2.3 1.3-3.7 3.8-3.7 6.4v70.8c0 2.7 1.4 5.1 3.7 6.4l60.9 34.7c2.2 1.3 5 1.3 7.3 0l36.8-20.5c2.5-1.4 2.5-5 0-6.4L550 241.6c-1.2-.7-1.9-1.9-1.9-3.2v-22.2c0-1.3.7-2.5 1.9-3.2l19.2-11.1c1.1-.7 2.6-.7 3.7 0l19.2 11.1c1.1.7 1.9 1.9 1.9 3.2v17.4c0 2.8 3.1 4.6 5.6 3.2l36.7-21.3zM559 219c-.4.3-.7.7-.7 1.2v13.6c0 .5.3 1 .7 1.2l11.8 6.8c.4.3 1 .3 1.4 0L584 235c.4-.3.7-.7.7-1.2v-13.6c0-.5-.3-1-.7-1.2l-11.8-6.8c-.4-.3-1-.3-1.4 0L559 219zm-254.2 43.5v-70.4c0-2.6-1.6-5.1-3.9-6.4l-61.1-35.2c-2.1-1.2-5-1.4-7.4 0l-61.1 35.2c-2.3 1.3-3.9 3.7-3.9 6.4v70.4c0 2.8 1.9 5.2 4 6.4l61.2 35.2c2.4 1.4 5.2 1.3 7.4 0l61-35.2c1.8-1 3.1-2.7 3.6-4.7.1-.5.2-1.1.2-1.7zm-74.3-124.9l-.8.5h1.1l-.3-.5zm76.2 130.2l-.4-.7v.9l.4-.2z"/>
</symbol>
<symbol id="unsplash" viewBox="0 0 448 512">
<path d="M448,230.17V480H0V230.17H141.13V355.09H306.87V230.17ZM306.87,32H141.13V156.91H306.87Z"/>
</symbol>
<symbol id="react" viewBox="0 0 512 512">
<path d="M418.2 177.2c-5.4-1.8-10.8-3.5-16.2-5.1.9-3.7 1.7-7.4 2.5-11.1 12.3-59.6 4.2-107.5-23.1-123.3-26.3-15.1-69.2.6-112.6 38.4-4.3 3.7-8.5 7.6-12.5 11.5-2.7-2.6-5.5-5.2-8.3-7.7-45.5-40.4-91.1-57.4-118.4-41.5-26.2 15.2-34 60.3-23 116.7 1.1 5.6 2.3 11.1 3.7 16.7-6.4 1.8-12.7 3.8-18.6 5.9C38.3 196.2 0 225.4 0 255.6c0 31.2 40.8 62.5 96.3 81.5 4.5 1.5 9 3 13.6 4.3-1.5 6-2.8 11.9-4 18-10.5 55.5-2.3 99.5 23.9 114.6 27 15.6 72.4-.4 116.6-39.1 3.5-3.1 7-6.3 10.5-9.7 4.4 4.3 9 8.4 13.6 12.4 42.8 36.8 85.1 51.7 111.2 36.6 27-15.6 35.8-62.9 24.4-120.5-.9-4.4-1.9-8.9-3-13.5 3.2-.9 6.3-1.9 9.4-2.9 57.7-19.1 99.5-50 99.5-81.7 0-30.3-39.4-59.7-93.8-78.4zM282.9 92.3c37.2-32.4 71.9-45.1 87.7-36 16.9 9.7 23.4 48.9 12.8 100.4-.7 3.4-1.4 6.7-2.3 10-22.2-5-44.7-8.6-67.3-10.6-13-18.6-27.2-36.4-42.6-53.1 3.9-3.7 7.7-7.2 11.7-10.7zM167.2 307.5c5.1 8.7 10.3 17.4 15.8 25.9-15.6-1.7-31.1-4.2-46.4-7.5 4.4-14.4 9.9-29.3 16.3-44.5 4.6 8.8 9.3 17.5 14.3 26.1zm-30.3-120.3c14.4-3.2 29.7-5.8 45.6-7.8-5.3 8.3-10.5 16.8-15.4 25.4-4.9 8.5-9.7 17.2-14.2 26-6.3-14.9-11.6-29.5-16-43.6zm27.4 68.9c6.6-13.8 13.8-27.3 21.4-40.6s15.8-26.2 24.4-38.9c15-1.1 30.3-1.7 45.9-1.7s31 .6 45.9 1.7c8.5 12.6 16.6 25.5 24.3 38.7s14.9 26.7 21.7 40.4c-6.7 13.8-13.9 27.4-21.6 40.8-7.6 13.3-15.7 26.2-24.2 39-14.9 1.1-30.4 1.6-46.1 1.6s-30.9-.5-45.6-1.4c-8.7-12.7-16.9-25.7-24.6-39s-14.8-26.8-21.5-40.6zm180.6 51.2c5.1-8.8 9.9-17.7 14.6-26.7 6.4 14.5 12 29.2 16.9 44.3-15.5 3.5-31.2 6.2-47 8 5.4-8.4 10.5-17 15.5-25.6zm14.4-76.5c-4.7-8.8-9.5-17.6-14.5-26.2-4.9-8.5-10-16.9-15.3-25.2 16.1 2 31.5 4.7 45.9 8-4.6 14.8-10 29.2-16.1 43.4zM256.2 118.3c10.5 11.4 20.4 23.4 29.6 35.8-19.8-.9-39.7-.9-59.5 0 9.8-12.9 19.9-24.9 29.9-35.8zM140.2 57c16.8-9.8 54.1 4.2 93.4 39 2.5 2.2 5 4.6 7.6 7-15.5 16.7-29.8 34.5-42.9 53.1-22.6 2-45 5.5-67.2 10.4-1.3-5.1-2.4-10.3-3.5-15.5-9.4-48.4-3.2-84.9 12.6-94zm-24.5 263.6c-4.2-1.2-8.3-2.5-12.4-3.9-21.3-6.7-45.5-17.3-63-31.2-10.1-7-16.9-17.8-18.8-29.9 0-18.3 31.6-41.7 77.2-57.6 5.7-2 11.5-3.8 17.3-5.5 6.8 21.7 15 43 24.5 63.6-9.6 20.9-17.9 42.5-24.8 64.5zm116.6 98c-16.5 15.1-35.6 27.1-56.4 35.3-11.1 5.3-23.9 5.8-35.3 1.3-15.9-9.2-22.5-44.5-13.5-92 1.1-5.6 2.3-11.2 3.7-16.7 22.4 4.8 45 8.1 67.9 9.8 13.2 18.7 27.7 36.6 43.2 53.4-3.2 3.1-6.4 6.1-9.6 8.9zm24.5-24.3c-10.2-11-20.4-23.2-30.3-36.3 9.6.4 19.5.6 29.5.6 10.3 0 20.4-.2 30.4-.7-9.2 12.7-19.1 24.8-29.6 36.4zm130.7 30c-.9 12.2-6.9 23.6-16.5 31.3-15.9 9.2-49.8-2.8-86.4-34.2-4.2-3.6-8.4-7.5-12.7-11.5 15.3-16.9 29.4-34.8 42.2-53.6 22.9-1.9 45.7-5.4 68.2-10.5 1 4.1 1.9 8.2 2.7 12.2 4.9 21.6 5.7 44.1 2.5 66.3zm18.2-107.5c-2.8.9-5.6 1.8-8.5 2.6-7-21.8-15.6-43.1-25.5-63.8 9.6-20.4 17.7-41.4 24.5-62.9 5.2 1.5 10.2 3.1 15 4.7 46.6 16 79.3 39.8 79.3 58 0 19.6-34.9 44.9-84.8 61.4zm-149.7-15c25.3 0 45.8-20.5 45.8-45.8s-20.5-45.8-45.8-45.8c-25.3 0-45.8 20.5-45.8 45.8s20.5 45.8 45.8 45.8z"/>
</symbol>
<symbol id="facebook-f" viewBox="0 0 320 512">
<path d="M80 299.3V512H196V299.3h86.5l18-97.8H196V166.9c0-51.7 20.3-71.5 72.7-71.5c16.3 0 29.4 .4 37 1.2V7.9C291.4 4 256.4 0 236.2 0C129.3 0 80 50.5 80 159.4v42.1H14v97.8H80z"/>
</symbol>
<symbol id="angular" viewBox="0 0 448 512">
<path d="M185.7 268.1h76.2l-38.1-91.6-38.1 91.6zM223.8 32L16 106.4l31.8 275.7 176 97.9 176-97.9 31.8-275.7zM354 373.8h-48.6l-26.2-65.4H168.6l-26.2 65.4H93.7L223.8 81.5z"/>
</symbol>
</svg>