<?xml version="1.0" encoding="UTF-8"?>
<svg xmlns="http://www.w3.org/2000/svg" style="display: none;">
<symbol id="magnifying-glass" viewBox="0 0 512 512">
<path d="M368 208A160 160 0 1 0 48 208a160 160 0 1 0 320 0zM337.1 371.1C301.7 399.2 256.8 416 208 416C93.1 416 0 322.9 0 208S93.1 0 208 0S416 93.1 416 208c0 48.8-16.8 93.7-44.9 129.1L505 471c9.4 9.4 9.4 24.6 0 33.9s-24.6 9.4-33.9 0L337.1 371.1z"/>
</symbol>
<symbol id="brightness-low" viewBox="0 0 512 512">
<path d="M288 80a32 32 0 1 0 -64 0 32 32 0 1 0 64 0zM256 208a48 48 0 1 1 0 96 48 48 0 1 1 0-96zm0 144a96 96 0 1 0 0-192 96 96 0 1 0 0 192zm0 112a32 32 0 1 0 0-64 32 32 0 1 0 0 64zM432 288a32 32 0 1 0 0-64 32 32 0 1 0 0 64zM48 256a32 32 0 1 0 64 0 32 32 0 1 0 -64 0zM160 128a32 32 0 1 0 -64 0 32 32 0 1 0 64 0zM416 384a32 32 0 1 0 -64 0 32 32 0 1 0 64 0zm0-256a32 32 0 1 0 -64 0 32 32 0 1 0 64 0zM96 384a32 32 0 1 0 64 0 32 32 0 1 0 -64 0z"/>
</symbol>
<symbol id="star-and-crescent" viewBox="0 0 512 512">
<path d="M40 256c0 95.9 62.5 177.2 149 205.4C123.2 416.8 80 341.4 80 256s43.2-160.8 109-205.4C102.5 78.8 40 160.1 40 256zM256 0c22.2 0 43.7 2.8 64.2 8.1c2.6 .7 5.2 1.4 7.8 2.1c1.4 .4 2.8 .8 4.2 1.3c4.3 1.3 8.5 2.8 12.7 4.3c1.6 .6 3.1 1.2 4.7 1.8c7.4 2.9 11.5 10.7 9.8 18.4s-8.8 13-16.7 12.4c-1.7-.1-3.4-.2-5-.3c-3.2-.1-6.4-.2-9.6-.2c-.9 0-1.7 0-2.6 0c-3.2 0-6.5 .2-9.7 .3C206.6 54.7 120 145.2 120 256s86.6 201.3 195.7 207.6c3.2 .2 6.4 .3 9.7 .3c.9 0 1.7 0 2.6 0c3.2 0 6.4-.1 9.6-.2c1.7-.1 3.4-.2 5-.3c7.9-.5 15 4.7 16.7 12.4s-2.4 15.5-9.8 18.4c-1.6 .6-3.1 1.2-4.7 1.8c-4.2 1.6-8.4 3-12.7 4.3c-1.4 .4-2.8 .8-4.2 1.3c-2.6 .8-5.2 1.5-7.8 2.1c-20.5 5.3-42 8.1-64.2 8.1C114.6 512 0 397.4 0 256S114.6 0 256 0zM357.2 174.2l1.7-3.4 10.9-22.2 5.5-11.2c3.5-7.1 13.7-7.1 17.2 0l5.5 11.2 10.9 22.2 1.7 3.4 13.3 27c1.4 2.8 4.1 4.8 7.2 5.3l29.8 4.3 3.7 .5 24.5 3.6 12.4 1.8c7.9 1.1 11 10.8 5.3 16.4l-9 8.7-17.7 17.3-2.7 2.6-21.6 21c-2.3 2.2-3.3 5.4-2.8 8.5l5.1 29.7 .6 3.7 4.2 24.4 2.1 12.3c1.3 7.8-6.9 13.8-13.9 10.1l-11.1-5.8-21.9-11.5-3.3-1.7-26.6-14c-2.8-1.5-6.1-1.5-8.9 0l-26.6 14-3.3 1.7-21.9 11.5-11.1 5.8c-7 3.7-15.3-2.3-13.9-10.1l2.1-12.3 4.2-24.4 .6-3.7 5.1-29.7c.5-3.1-.5-6.3-2.8-8.5l-21.6-21-2.7-2.6-17.7-17.3-9-8.7c-5.7-5.6-2.6-15.2 5.3-16.4l12.4-1.8 24.5-3.6 3.7-.5 29.8-4.3c3.1-.5 5.8-2.4 7.2-5.3l13.3-27zm-7.7 78.6a36.3 36.3 0 1 0 69 22.4 36.3 36.3 0 1 0 -69-22.4z"/>
</symbol>
<symbol id="xmark-large" viewBox="0 0 448 512">
<path d="M41 39C31.6 29.7 16.4 29.7 7 39S-2.3 63.6 7 73l183 183L7 439c-9.4 9.4-9.4 24.6 0 33.9s24.6 9.4 33.9 0l183-183L407 473c9.4 9.4 24.6 9.4 33.9 0s9.4-24.6 0-33.9l-183-183L441 73c9.4-9.4 9.4-24.6 0-33.9s-24.6-9.4-33.9 0l-183 183L41 39z"/>
</symbol>
<symbol id="caret-right" viewBox="0 0 256 512">
<path d="M201.4 256L112 166.6l0 178.7L201.4 256zm45.3-22.6c12.5 12.5 12.5 32.8 0 45.3l-128 128c-9.2 9.2-22.9 11.9-34.9 6.9s-19.8-16.6-19.8-29.6l0-256c0-12.9 7.8-24.6 19.8-29.6s25.7-2.2 34.9 6.9l128 128z"/>
</symbol>
<symbol id="angle-right" viewBox="0 0 320 512">
<path d="M273 239c9.4 9.4 9.4 24.6 0 33.9L113 433c-9.4 9.4-24.6 9.4-33.9 0s-9.4-24.6 0-33.9l143-143L79 113c-9.4-9.4-9.4-24.6 0-33.9s24.6-9.4 33.9 0L273 239z"/>
</symbol>
<symbol id="angle-down" viewBox="0 0 448 512">
<path d="M241 337c-9.4 9.4-24.6 9.4-33.9 0L47 177c-9.4-9.4-9.4-24.6 0-33.9s24.6-9.4 33.9 0l143 143L367 143c9.4-9.4 24.6-9.4 33.9 0s9.4 24.6 0 33.9L241 337z"/>
</symbol>
<symbol id="brightness" viewBox="0 0 512 512">
<path d="M232 88c0 13.3 10.7 24 24 24s24-10.7 24-24V24c0-13.3-10.7-24-24-24s-24 10.7-24 24V88zm24 120a48 48 0 1 1 0 96 48 48 0 1 1 0-96zm0 144a96 96 0 1 0 0-192 96 96 0 1 0 0 192zM0 256c0 13.3 10.7 24 24 24H88c13.3 0 24-10.7 24-24s-10.7-24-24-24H24c-13.3 0-24 10.7-24 24zm424-24c-13.3 0-24 10.7-24 24s10.7 24 24 24h64c13.3 0 24-10.7 24-24s-10.7-24-24-24H424zM256 512c13.3 0 24-10.7 24-24V424c0-13.3-10.7-24-24-24s-24 10.7-24 24v64c0 13.3 10.7 24 24 24zM75 75c-9.4 9.4-9.4 24.6 0 33.9l45.3 45.3c9.4 9.4 24.6 9.4 33.9 0s9.4-24.6 0-33.9L108.9 75c-9.4-9.4-24.6-9.4-33.9 0zM391.8 357.8c-9.4-9.4-24.6-9.4-33.9 0s-9.4 24.6 0 33.9L403.1 437c9.4 9.4 24.6 9.4 33.9 0s9.4-24.6 0-33.9l-45.3-45.3zM75 437c9.4 9.4 24.6 9.4 33.9 0l45.3-45.3c9.4-9.4 9.4-24.6 0-33.9s-24.6-9.4-33.9 0L75 403.1c-9.4 9.4-9.4 24.6 0 33.9zM357.8 120.2c-9.4 9.4-9.4 24.6 0 33.9s24.6 9.4 33.9 0L437 108.9c9.4-9.4 9.4-24.6 0-33.9s-24.6-9.4-33.9 0l-45.3 45.3z"/>
</symbol>
<symbol id="bars-filter" viewBox="0 0 448 512">
<path d="M0 88C0 74.7 10.7 64 24 64H424c13.3 0 24 10.7 24 24s-10.7 24-24 24H24C10.7 112 0 101.3 0 88zM64 248c0-13.3 10.7-24 24-24H360c13.3 0 24 10.7 24 24s-10.7 24-24 24H88c-13.3 0-24-10.7-24-24zM288 408c0 13.3-10.7 24-24 24H184c-13.3 0-24-10.7-24-24s10.7-24 24-24h80c13.3 0 24 10.7 24 24z"/>
</symbol>
<symbol id="star" viewBox="0 0 576 512">
<path d="M287.9 0c9.2 0 17.6 5.2 21.6 13.5l68.6 141.3 153.2 22.6c9 1.3 16.5 7.6 19.3 16.3s.5 18.1-5.9 24.5L433.6 328.4l26.2 155.6c1.5 9-2.2 18.1-9.7 23.5s-17.3 6-25.3 1.7l-137-73.2L151 509.1c-8.1 4.3-17.9 3.7-25.3-1.7s-11.2-14.5-9.7-23.5l26.2-155.6L31.1 218.2c-6.5-6.4-8.7-15.9-5.9-24.5s10.3-14.9 19.3-16.3l153.2-22.6L266.3 13.5C270.4 5.2 278.7 0 287.9 0zm0 79L235.4 187.2c-3.5 7.1-10.2 12.1-18.1 13.3L99 217.9 184.9 303c5.5 5.5 8.1 13.3 6.8 21L171.4 443.7l105.2-56.2c7.1-3.8 15.6-3.8 22.6 0l105.2 56.2L384.2 324.1c-1.3-7.7 1.2-15.5 6.8-21l85.9-85.1L358.6 200.5c-7.8-1.2-14.6-6.1-18.1-13.3L287.9 79z"/>
</symbol>
<symbol id="arrow-left-from-line" viewBox="0 0 448 512">
<path d="M7.6 238.5C2.7 243.1 0 249.4 0 256s2.7 12.9 7.6 17.5l136 128c9.7 9.1 24.8 8.6 33.9-1s8.6-24.8-1-33.9L84.5 280l83.5 0 128 0c13.3 0 24-10.7 24-24s-10.7-24-24-24l-128 0-83.5 0 91.9-86.5c9.7-9.1 10.1-24.3 1-33.9s-24.3-10.1-33.9-1l-136 128zM400 424c0 13.3 10.7 24 24 24s24-10.7 24-24l0-336c0-13.3-10.7-24-24-24s-24 10.7-24 24l0 336z"/>
</symbol>
<symbol id="bars" viewBox="0 0 448 512">
<path d="M0 88C0 74.7 10.7 64 24 64H424c13.3 0 24 10.7 24 24s-10.7 24-24 24H24C10.7 112 0 101.3 0 88zM0 248c0-13.3 10.7-24 24-24H424c13.3 0 24 10.7 24 24s-10.7 24-24 24H24c-13.3 0-24-10.7-24-24zM448 408c0 13.3-10.7 24-24 24H24c-13.3 0-24-10.7-24-24s10.7-24 24-24H424c13.3 0 24 10.7 24 24z"/>
</symbol>
<symbol id="caret-down" viewBox="0 0 320 512">
<path d="M160 329.4L249.4 240 70.6 240 160 329.4zm22.6 45.3c-12.5 12.5-32.8 12.5-45.3 0l-128-128c-9.2-9.2-11.9-22.9-6.9-34.9s16.6-19.8 29.6-19.8l256 0c12.9 0 24.6 7.8 29.6 19.8s2.2 25.7-6.9 34.9l-128 128z"/>
</symbol>
<symbol id="bars-sort" viewBox="0 0 448 512">
<path d="M0 88C0 74.7 10.7 64 24 64H424c13.3 0 24 10.7 24 24s-10.7 24-24 24H24C10.7 112 0 101.3 0 88zM0 248c0-13.3 10.7-24 24-24H296c13.3 0 24 10.7 24 24s-10.7 24-24 24H24c-13.3 0-24-10.7-24-24zM192 408c0 13.3-10.7 24-24 24H24c-13.3 0-24-10.7-24-24s10.7-24 24-24H168c13.3 0 24 10.7 24 24z"/>
</symbol>
<symbol id="bars-progress" viewBox="0 0 512 512">
<path d="M464 112v64H320V112H464zM48 64C21.5 64 0 85.5 0 112v64c0 26.5 21.5 48 48 48H464c26.5 0 48-21.5 48-48V112c0-26.5-21.5-48-48-48H48zM464 336v64H192V336H464zM48 288c-26.5 0-48 21.5-48 48v64c0 26.5 21.5 48 48 48H464c26.5 0 48-21.5 48-48V336c0-26.5-21.5-48-48-48H48z"/>
</symbol>
<symbol id="square-caret-right" viewBox="0 0 448 512">
<path d="M400 96c0-8.8-7.2-16-16-16L64 80c-8.8 0-16 7.2-16 16l0 320c0 8.8 7.2 16 16 16l320 0c8.8 0 16-7.2 16-16l0-320zM384 32c35.3 0 64 28.7 64 64l0 320c0 35.3-28.7 64-64 64L64 480c-35.3 0-64-28.7-64-64L0 96C0 60.7 28.7 32 64 32l320 0zM320 256c0 6.7-2.8 13-7.7 17.6l-112 104c-7 6.5-17.2 8.2-25.9 4.4s-14.4-12.5-14.4-22l0-208c0-9.5 5.7-18.2 14.4-22s18.9-2.1 25.9 4.4l112 104c4.9 4.5 7.7 10.9 7.7 17.6z"/>
</symbol>
<symbol id="sparkles" viewBox="0 0 512 512">
<path d="M327.5 85.2c-4.5 1.7-7.5 6-7.5 10.8s3 9.1 7.5 10.8L384 128l21.2 56.5c1.7 4.5 6 7.5 10.8 7.5s9.1-3 10.8-7.5L448 128l56.5-21.2c4.5-1.7 7.5-6 7.5-10.8s-3-9.1-7.5-10.8L448 64 426.8 7.5C425.1 3 420.8 0 416 0s-9.1 3-10.8 7.5L384 64 327.5 85.2zM9.3 240C3.6 242.6 0 248.3 0 254.6s3.6 11.9 9.3 14.5L26.3 277l8.1 3.7 .6 .3 88.3 40.8L164.1 410l.3 .6 3.7 8.1 7.9 17.1c2.6 5.7 8.3 9.3 14.5 9.3s11.9-3.6 14.5-9.3l7.9-17.1 3.7-8.1 .3-.6 40.8-88.3L346 281l.6-.3 8.1-3.7 17.1-7.9c5.7-2.6 9.3-8.3 9.3-14.5s-3.6-11.9-9.3-14.5l-17.1-7.9-8.1-3.7-.6-.3-88.3-40.8L217 99.1l-.3-.6L213 90.3l-7.9-17.1c-2.6-5.7-8.3-9.3-14.5-9.3s-11.9 3.6-14.5 9.3l-7.9 17.1-3.7 8.1-.3 .6-40.8 88.3L35.1 228.1l-.6 .3-8.1 3.7L9.3 240zm83 14.5l51.2-23.6c10.4-4.8 18.7-13.1 23.5-23.5l23.6-51.2 23.6 51.2c4.8 10.4 13.1 18.7 23.5 23.5l51.2 23.6-51.2 23.6c-10.4 4.8-18.7 13.1-23.5 23.5l-23.6 51.2-23.6-51.2c-4.8-10.4-13.1-18.7-23.5-23.5L92.3 254.6zM384 384l-56.5 21.2c-4.5 1.7-7.5 6-7.5 10.8s3 9.1 7.5 10.8L384 448l21.2 56.5c1.7 4.5 6 7.5 10.8 7.5s9.1-3 10.8-7.5L448 448l56.5-21.2c4.5-1.7 7.5-6 7.5-10.8s-3-9.1-7.5-10.8L448 384l-21.2-56.5c-1.7-4.5-6-7.5-10.8-7.5s-9.1 3-10.8 7.5L384 384z"/>
</symbol>
<symbol id="circle-caret-right" viewBox="0 0 512 512">
<path d="M464 256A208 208 0 1 1 48 256a208 208 0 1 1 416 0zM0 256a256 256 0 1 0 512 0A256 256 0 1 0 0 256zm368 0c0-6.7-2.8-13-7.7-17.6l-112-104c-7-6.5-17.2-8.2-25.9-4.4s-14.4 12.5-14.4 22l0 208c0 9.5 5.7 18.2 14.4 22s18.9 2.1 25.9-4.4l112-104c4.9-4.5 7.7-10.9 7.7-17.6z"/>
</symbol>
<symbol id="moon-stars" viewBox="0 0 512 512">
<path d="M295.8 137.8c1 3.6 4.4 6.2 8.2 6.2s7.1-2.5 8.2-6.2l11-38.6 38.6-11c3.6-1 6.2-4.4 6.2-8.2s-2.5-7.1-6.2-8.2l-38.6-11-11-38.6c-1-3.6-4.4-6.2-8.2-6.2s-7.1 2.5-8.2 6.2l-11 38.6-38.6 11c-3.6 1-6.2 4.4-6.2 8.2s2.5 7.1 6.2 8.2l38.6 11 11 38.6zM403.8 310.8c1.6 5.5 6.6 9.2 12.2 9.2s10.7-3.8 12.2-9.2l16.6-58 58-16.6c5.5-1.6 9.2-6.6 9.2-12.2s-3.8-10.7-9.2-12.2l-58-16.6-16.6-58c-1.6-5.5-6.6-9.2-12.2-9.2s-10.7 3.8-12.2 9.2l-16.6 58-58 16.6c-5.5 1.6-9.2 6.6-9.2 12.2s3.8 10.7 9.2 12.2l58 16.6 16.6 58zM48 320c0-70 50-128.3 116.2-141.3C141.6 206.3 128 241.5 128 280c0 83.2 63.5 151.6 144.7 159.3c-23 15.6-50.8 24.7-80.7 24.7c-79.5 0-144-64.5-144-144zM192 128C86 128 0 214 0 320S86 512 192 512c69.4 0 130.2-36.9 163.9-92c5.3-8.7 4.6-19.9-2-27.8s-17.3-10.8-26.9-7.2c-12.1 4.5-25.3 7-39.1 7c-61.9 0-112-50.1-112-112c0-45 26.6-83.9 65-101.7c9.3-4.3 14.8-14 13.8-24.2s-8.4-18.6-18.3-20.9c-14.3-3.4-29.2-5.2-44.4-5.2z"/>
</symbol>
<symbol id="chart-bar" viewBox="0 0 512 512">
<path d="M24 32c13.3 0 24 10.7 24 24V408c0 13.3 10.7 24 24 24H488c13.3 0 24 10.7 24 24s-10.7 24-24 24H72c-39.8 0-72-32.2-72-72V56C0 42.7 10.7 32 24 32zM128 136c0-13.3 10.7-24 24-24l208 0c13.3 0 24 10.7 24 24s-10.7 24-24 24l-208 0c-13.3 0-24-10.7-24-24zm24 72H296c13.3 0 24 10.7 24 24s-10.7 24-24 24H152c-13.3 0-24-10.7-24-24s10.7-24 24-24zm0 96H424c13.3 0 24 10.7 24 24s-10.7 24-24 24H152c-13.3 0-24-10.7-24-24s10.7-24 24-24z"/>
</symbol>
<symbol id="mountain-sun" viewBox="0 0 640 512">
<path d="M480 80a80 80 0 1 1 160 0A80 80 0 1 1 480 80zM412.7 281.7l48.2-79C465 196.1 472.2 192 480 192s15 4.1 19.1 10.7l132 216.3c5.8 9.6 8.9 20.6 8.9 31.8c0 33.8-27.4 61.1-61.1 61.1H456.1h0H55.9C25 512 0 487 0 456.1c0-10.5 3-20.8 8.6-29.7L225.2 81c6.6-10.6 18.3-17 30.8-17s24.1 6.4 30.8 17l126 200.7zm28.5 45.4l62.2 99.2c5.6 8.9 8.6 19.2 8.6 29.7c0 2.7-.2 5.3-.6 7.9h67.4c7.2 0 13.1-5.9 13.1-13.1c0-2.4-.7-4.8-1.9-6.8L480 263.6l-38.8 63.6zM456.1 464c4.4 0 7.9-3.5 7.9-7.9c0-1.5-.4-2.9-1.2-4.2L256 122.3 49.2 451.9c-.8 1.3-1.2 2.7-1.2 4.2c0 4.4 3.5 7.9 7.9 7.9H456.1z"/>
</symbol>
<symbol id="arrow-right-to-line" viewBox="0 0 448 512">
<path d="M448 88c0-13.3-10.7-24-24-24s-24 10.7-24 24l0 336c0 13.3 10.7 24 24 24s24-10.7 24-24l0-336zM312.4 273.5c4.8-4.5 7.6-10.9 7.6-17.5s-2.7-12.9-7.6-17.5l-136-128c-9.7-9.1-24.8-8.6-33.9 1s-8.6 24.8 1 33.9L235.5 232 152 232 24 232c-13.3 0-24 10.7-24 24s10.7 24 24 24l128 0 83.5 0-91.9 86.5c-9.7 9.1-10.1 24.3-1 33.9s24.3 10.1 33.9 1l136-128z"/>
</symbol>
<symbol id="house" viewBox="0 0 576 512">
<path d="M272.5 5.7c9-7.6 22.1-7.6 31.1 0l264 224c10.1 8.6 11.4 23.7 2.8 33.8s-23.7 11.3-33.8 2.8L512 245.5V432c0 44.2-35.8 80-80 80H144c-44.2 0-80-35.8-80-80V245.5L39.5 266.3c-10.1 8.6-25.3 7.3-33.8-2.8s-7.3-25.3 2.8-33.8l264-224zM288 55.5L112 204.8V432c0 17.7 14.3 32 32 32h48V312c0-22.1 17.9-40 40-40H344c22.1 0 40 17.9 40 40V464h48c17.7 0 32-14.3 32-32V204.8L288 55.5zM240 464h96V320H240V464z"/>
</symbol>
<symbol id="xmark" viewBox="0 0 384 512">
<path d="M345 137c9.4-9.4 9.4-24.6 0-33.9s-24.6-9.4-33.9 0l-119 119L73 103c-9.4-9.4-24.6-9.4-33.9 0s-9.4 24.6 0 33.9l119 119L39 375c-9.4 9.4-9.4 24.6 0 33.9s24.6 9.4 33.9 0l119-119L311 409c9.4 9.4 24.6 9.4 33.9 0s9.4-24.6 0-33.9l-119-119L345 137z"/>
</symbol>
<symbol id="sun-bright" viewBox="0 0 512 512">
<path d="M280 24V88c0 13.3-10.7 24-24 24s-24-10.7-24-24V24c0-13.3 10.7-24 24-24s24 10.7 24 24zm157 84.9l-45.3 45.3c-9.4 9.4-24.6 9.4-33.9 0s-9.4-24.6 0-33.9L403.1 75c9.4-9.4 24.6-9.4 33.9 0s9.4 24.6 0 33.9zM108.9 75l45.3 45.3c9.4 9.4 9.4 24.6 0 33.9s-24.6 9.4-33.9 0L75 108.9c-9.4-9.4-9.4-24.6 0-33.9s24.6-9.4 33.9 0zM24 232H88c13.3 0 24 10.7 24 24s-10.7 24-24 24H24c-13.3 0-24-10.7-24-24s10.7-24 24-24zm400 0h64c13.3 0 24 10.7 24 24s-10.7 24-24 24H424c-13.3 0-24-10.7-24-24s10.7-24 24-24zM154.2 391.8L108.9 437c-9.4 9.4-24.6 9.4-33.9 0s-9.4-24.6 0-33.9l45.3-45.3c9.4-9.4 24.6-9.4 33.9 0s9.4 24.6 0 33.9zm237.6-33.9L437 403.1c9.4 9.4 9.4 24.6 0 33.9s-24.6 9.4-33.9 0l-45.3-45.3c-9.4-9.4-9.4-24.6 0-33.9s24.6-9.4 33.9 0zM280 424v64c0 13.3-10.7 24-24 24s-24-10.7-24-24V424c0-13.3 10.7-24 24-24s24 10.7 24 24zm40-168a64 64 0 1 0 -128 0 64 64 0 1 0 128 0zm-176 0a112 112 0 1 1 224 0 112 112 0 1 1 -224 0z"/>
</symbol>
</svg>
