<?xml version="1.0" encoding="UTF-8"?>
<svg xmlns="http://www.w3.org/2000/svg" style="display: none;">
<symbol id="caret-right" viewBox="0 0 256 512">
<path d="M246.6 278.6c12.5-12.5 12.5-32.8 0-45.3l-128-128c-9.2-9.2-22.9-11.9-34.9-6.9s-19.8 16.6-19.8 29.6l0 256c0 12.9 7.8 24.6 19.8 29.6s25.7 2.2 34.9-6.9l128-128z"/>
</symbol>
<symbol id="square-caret-right" viewBox="0 0 448 512">
<path d="M448 96c0-35.3-28.7-64-64-64L64 32C28.7 32 0 60.7 0 96L0 416c0 35.3 28.7 64 64 64l320 0c35.3 0 64-28.7 64-64l0-320zM320 256c0 6.7-2.8 13-7.7 17.6l-112 104c-7 6.5-17.2 8.2-25.9 4.4s-14.4-12.5-14.4-22l0-208c0-9.5 5.7-18.2 14.4-22s18.9-2.1 25.9 4.4l112 104c4.9 4.5 7.7 10.9 7.7 17.6z"/>
</symbol>
<symbol id="circle-caret-down" viewBox="0 0 512 512">
<path d="M256 0a256 256 0 1 0 0 512A256 256 0 1 0 256 0zm0 368c-6.7 0-13-2.8-17.6-7.7l-104-112c-6.5-7-8.2-17.2-4.4-25.9s12.5-14.4 22-14.4l208 0c9.5 0 18.2 5.7 22 14.4s2.1 18.9-4.4 25.9l-104 112c-4.5 4.9-10.9 7.7-17.6 7.7z"/>
</symbol>
<symbol id="circle-caret-right" viewBox="0 0 512 512">
<path d="M0 256a256 256 0 1 0 512 0A256 256 0 1 0 0 256zm368 0c0 6.7-2.8 13-7.7 17.6l-112 104c-7 6.5-17.2 8.2-25.9 4.4s-14.4-12.5-14.4-22l0-208c0-9.5 5.7-18.2 14.4-22s18.9-2.1 25.9 4.4l112 104c4.9 4.5 7.7 10.9 7.7 17.6z"/>
</symbol>
<symbol id="magnifying-glass" viewBox="0 0 512 512">
<path d="M416 208c0 45.9-14.9 88.3-40 122.7L502.6 457.4c12.5 12.5 12.5 32.8 0 45.3s-32.8 12.5-45.3 0L330.7 376c-34.4 25.2-76.8 40-122.7 40C93.1 416 0 322.9 0 208S93.1 0 208 0S416 93.1 416 208zM208 352a144 144 0 1 0 0-288 144 144 0 1 0 0 288z"/>
</symbol>
<symbol id="caret-down" viewBox="0 0 320 512">
<path d="M137.4 374.6c12.5 12.5 32.8 12.5 45.3 0l128-128c9.2-9.2 11.9-22.9 6.9-34.9s-16.6-19.8-29.6-19.8L32 192c-12.9 0-24.6 7.8-29.6 19.8s-2.2 25.7 6.9 34.9l128 128z"/>
</symbol>
<symbol id="square-caret-down" viewBox="0 0 448 512">
<path d="M384 480c35.3 0 64-28.7 64-64l0-320c0-35.3-28.7-64-64-64L64 32C28.7 32 0 60.7 0 96L0 416c0 35.3 28.7 64 64 64l320 0zM224 352c-6.7 0-13-2.8-17.6-7.7l-104-112c-6.5-7-8.2-17.2-4.4-25.9s12.5-14.4 22-14.4l208 0c9.5 0 18.2 5.7 22 14.4s2.1 18.9-4.4 25.9l-104 112c-4.5 4.9-10.9 7.7-17.6 7.7z"/>
</symbol>
<symbol id="badge-check" viewBox="0 0 512 512">
<path fill="currentColor" d="M256 0c36.8 0 68.8 20.7 84.9 51.1C373.8 41 411 49 437 75s34 63.3 23.9 96.1C491.3 187.2 512 219.2 512 256s-20.7 68.8-51.1 84.9C471 373.8 463 411 437 437s-63.3 34-96.1 23.9C324.8 491.3 292.8 512 256 512s-68.8-20.7-84.9-51.1C138.2 471 101 463 75 437s-34-63.3-23.9-96.1C20.7 324.8 0 292.8 0 256s20.7-68.8 51.1-84.9C41 138.2 49 101 75 75s63.3-34 96.1-23.9C187.2 20.7 219.2 0 256 0zM369 209c9.4-9.4 9.4-24.6 0-33.9s-24.6-9.4-33.9 0l-111 111-47-47c-9.4-9.4-24.6-9.4-33.9 0s-9.4 24.6 0 33.9l64 64c9.4 9.4 24.6 9.4 33.9 0L369 209z"></path>
</symbol>
<symbol id="chevron-right" viewBox="0 0 320 512">
<path d="M310.6 233.4c12.5 12.5 12.5 32.8 0 45.3l-192 192c-12.5 12.5-32.8 12.5-45.3 0s-12.5-32.8 0-45.3L242.7 256 73.4 86.6c-12.5-12.5-12.5-32.8 0-45.3s32.8-12.5 45.3 0l192 192z"/>
</symbol>
</svg>
