<svg xmlns="http://www.w3.org/2000/svg" viewBox="0 0 275 172" fill="none" xmlns:v="https://vecta.io/nano"><path d="M115.978 16.157h157.856l-48.306 138.466H67.675l48.303-138.465z" fill="#fff"/><path d="M225.528 155.081H67.676c-.057 0-.113-.021-.162-.061a.38.38 0 0 1-.113-.165c-.048-.145-.06-.307-.034-.462l48.302-138.527c.025-.082.067-.153.123-.202s.12-.075.186-.074h157.86c.058 0 .114.022.163.063a.39.39 0 0 1 .113.168c.046.144.058.303.034.457l-48.306 138.528c-.025.083-.068.154-.124.203a.27.27 0 0 1-.19.073h0zm-157.286-.919h157.06L273.28 16.564H116.22L68.242 154.162zm158.252-27.228h-53.24c-.085-.012-.164-.066-.221-.151a.55.55 0 0 1-.09-.309c0-.114.032-.224.09-.309s.136-.138.221-.15h53.033l34.675-99.373H137.297c-.048.007-.097 0-.143-.02a.34.34 0 0 1-.125-.096c-.036-.043-.065-.096-.085-.155a.59.59 0 0 1-.03-.188c0-.065.01-.129.03-.188s.049-.112.085-.155.079-.076.125-.096.095-.027.143-.02h124.185c.057 0 .113.021.162.061a.39.39 0 0 1 .113.165 1 1 0 0 1 .034.462l-34.987 100.247a.41.41 0 0 1-.119.21c-.056.05-.123.073-.191.066z" fill="#000"/><path d="M213.934 170.052H5.35V154.62h220.178c-.001 4.093-1.223 8.017-3.397 10.911s-5.123 4.52-8.197 4.521z" fill="#fff"/><path d="M213.933 170.499H5.349c-.046.004-.092-.005-.135-.027s-.082-.055-.114-.098-.058-.095-.074-.152-.023-.118-.021-.179v-15.426a.56.56 0 0 1 .019-.18.47.47 0 0 1 .074-.154c.033-.044.072-.078.115-.1a.25.25 0 0 1 .135-.027h220.179c.046-.004.092.005.136.027s.082.056.114.1a.46.46 0 0 1 .074.154.54.54 0 0 1 .019.18c-.001 4.212-1.259 8.251-3.497 11.229s-5.275 4.652-8.441 4.653h0zm-208.206-.918h208.206c2.923-.006 5.73-1.522 7.829-4.228s3.324-6.393 3.419-10.279H5.708l.019 14.507z" fill="#000"/><path d="M239.503 43.746h-25.328l2.312-6.153h25.328l-2.312 6.153z" fill="#dedede"/><g fill="#000"><path d="M224.148 85.248h-25.325c-.062-.005-.122-.028-.176-.068s-.101-.096-.137-.163-.051-.147-.051-.228.018-.16.051-.228l15.355-41.045c.03-.078.074-.144.128-.192a.32.32 0 0 1 .182-.084h25.339c.061.005.121.028.175.068a.48.48 0 0 1 .134.163c.034.068.052.147.052.228s-.018.16-.052.228l-15.355 41.045a.43.43 0 0 1-.126.207c-.058.05-.126.074-.194.069zm-24.774-.893h24.566l15.008-40.152h-24.566l-15.008 40.152z"/><path d="M240.951 44.144H212.76c-.085-.011-.164-.061-.222-.14s-.089-.181-.089-.288.032-.209.089-.288.137-.129.222-.14h28.191c.046-.003.092.005.136.026s.082.052.114.093.058.09.074.143.023.111.019.168c0 .113-.036.221-.1.301s-.152.125-.243.125h0z"/></g><path d="M216.936 62.017h-2.553l-4.036 10.786h2.553l4.036-10.786zm6.695-6.285h-2.554l-6.382 17.07h2.554l6.382-17.07zm2.897 3.85h-2.554l-4.933 13.22h2.553l4.934-13.22z" fill="#94cfcb"/><path d="M223.148 73.201h-14.356c-.091 0-.178-.045-.243-.125s-.1-.188-.1-.301.036-.221.1-.301.152-.125.243-.125h14.356c.045-.003.091.005.134.025a.32.32 0 0 1 .114.092.41.41 0 0 1 .074.142c.017.053.024.11.021.167a.48.48 0 0 1-.101.301c-.064.08-.151.125-.242.125z" fill="#000"/><path d="M197.684 50.728c3.407-3.544 4.857-8.651 3.238-11.408s-5.693-2.118-9.101 1.426-4.857 8.651-3.238 11.408 5.694 2.118 9.101-1.426z" fill="#fff"/><g fill="#000"><path d="M191.714 54.31c-1.622 0-2.897-.828-3.587-2.299-.793-1.696-.691-4.04.207-6.524 1.724-4.637 5.967-8.401 9.452-8.401 1.622 0 2.901.828 3.591 2.299.792 1.696.69 4.015-.207 6.524-1.728 4.632-5.971 8.401-9.456 8.401zm6.072-16.255c-3.244 0-7.212 3.538-8.83 7.899-.795 2.158-.897 4.221-.245 5.601.555 1.194 1.622 1.837 3.018 1.837 3.243 0 7.211-3.538 8.833-7.899.792-2.158.898-4.221.242-5.601-.566-1.204-1.649-1.837-3.018-1.837z"/><path d="M194.75 46.175h-6.107a.33.33 0 0 1-.222-.15.56.56 0 0 1-.089-.309.56.56 0 0 1 .089-.309c.058-.085.137-.138.222-.15h5.899l2.935-7.89c.017-.055.043-.105.076-.145s.072-.07.115-.088.088-.023.133-.015.087.029.124.062c.082.05.145.141.178.252s.031.235-.004.345l-3.036 8.126c-.027.081-.07.15-.126.199s-.121.073-.187.072h0z"/><path d="M194.75 46.175c-.066.001-.13-.025-.186-.073s-.098-.117-.123-.198l-2.173-5.716a.55.55 0 0 1-.049-.169.58.58 0 0 1 .007-.181.55.55 0 0 1 .061-.163c.028-.049.064-.087.105-.116s.085-.046.131-.05.092.004.135.024.083.053.117.095a.46.46 0 0 1 .078.149l2.172 5.736a.66.66 0 0 1 .011.33.52.52 0 0 1-.146.267c-.034.065-.068.065-.14.065zm.83 13.166h-11.561c-.085-.011-.164-.061-.222-.14s-.089-.181-.089-.288.032-.209.089-.288a.33.33 0 0 1 .222-.14h11.561c.085.011.164.061.221.14a.49.49 0 0 1 .09.288.49.49 0 0 1-.09.288c-.057.079-.136.129-.221.14h0zm-6.28 5.232h-7.246c-.085-.011-.164-.061-.222-.14s-.089-.181-.089-.288.032-.209.089-.288a.33.33 0 0 1 .222-.14h7.246c.085.011.164.061.221.14a.49.49 0 0 1 .09.288.49.49 0 0 1-.09.288c-.057.079-.136.129-.221.14h0zm-1.966 5.281h-7.245c-.049.006-.098 0-.144-.019a.34.34 0 0 1-.125-.089c-.036-.04-.065-.09-.084-.145a.54.54 0 0 1-.03-.175c0-.06.01-.12.03-.175s.048-.104.084-.145a.34.34 0 0 1 .125-.089c.046-.019.095-.025.144-.019h7.245c.086.011.165.061.222.14s.089.181.089.288a.49.49 0 0 1-.089.288c-.057.079-.136.129-.222.14h0zm25.777 44.921H187.78c-.086-.012-.165-.066-.222-.15a.56.56 0 0 1-.089-.309.56.56 0 0 1 .089-.31c.057-.084.136-.138.222-.15h25.12l7.97-21.309a.4.4 0 0 1 .19-.238c.085-.042.178-.039.261.01s.147.14.179.253.03.237-.007.347l-8.076 21.586a.44.44 0 0 1-.122.198c-.054.048-.118.073-.184.073h0zm-17.117-5.561c-.107-.012-.207-.079-.279-.186a.55.55 0 0 1-.053-.169c-.009-.06-.008-.122.002-.182a.52.52 0 0 1 .056-.168c.027-.05.061-.092.101-.123l8.969-7.972c.037-.043.084-.07.133-.078s.098.004.142.033c.045.018.086.046.121.085s.066.087.087.141l1.131 2.987 6.356-5.677c.077-.049.165-.059.247-.028s.152.101.199.196.064.21.052.322a.52.52 0 0 1-.121.288l-6.661 5.923c-.037.043-.083.07-.132.078s-.099-.003-.143-.033c-.088-.039-.162-.119-.208-.226l-1.18-2.971-8.623 7.67c-.06.047-.127.078-.196.09h0z"/><path d="M211.52 102.573c-.049.006-.099-.01-.14-.045-.081-.05-.145-.14-.176-.251a.59.59 0 0 1 .006-.343l1.207-3.147h-2.346c-.048.007-.097 0-.143-.02s-.089-.052-.125-.095-.065-.096-.085-.154a.58.58 0 0 1-.03-.187.58.58 0 0 1 .03-.187c.02-.059.049-.111.085-.154s.078-.076.125-.095.095-.027.143-.02h2.897c.061.005.121.027.175.066a.49.49 0 0 1 .138.159.53.53 0 0 1 .051.229.53.53 0 0 1-.051.23l-1.452 3.836c-.085.104-.194.167-.309.18h0z"/></g><path d="M138.138 21.163L123.405 0l-14.733 21.163h4.141V154.14h21.153V21.163h4.172z" fill="#7286c0"/><path d="M172.085 61.315L157.352 40.15l-14.733 21.165h4.142v92.84h21.152v-92.84h4.172z" fill="#e3e6ed"/><path d="M100.257 25.329H36.426v128.826h63.831V25.329z" fill="#fff"/><g fill="#000"><path d="M100.223 154.621H36.426a.26.26 0 0 1-.136-.026.33.33 0 0 1-.116-.098c-.033-.043-.058-.095-.075-.153a.56.56 0 0 1-.021-.18V25.327a.55.55 0 0 1 .021-.181.48.48 0 0 1 .075-.154c.033-.044.072-.078.115-.099a.27.27 0 0 1 .136-.028h63.831c.046-.004.092.006.136.028s.082.056.114.1a.46.46 0 0 1 .074.154c.016.058.023.119.019.181v128.827c-.011.124-.055.24-.124.325a.36.36 0 0 1-.253.142h0zm-63.454-.919H99.91V25.783H36.769v127.919zm31.537-64.946h-.068C56.093 84.714 56.851 64.05 57.092 56.244l.072-2.345a.54.54 0 0 1 .032-.206.41.41 0 0 1 .103-.16c.044-.045.095-.076.149-.092s.11-.015.164.001c8.675 3.349 10.35-3.815 10.384-3.861a.53.53 0 0 1 .057-.161c.027-.048.061-.089.099-.119s.082-.051.126-.059.09-.005.133.011.084.042.12.078a.42.42 0 0 1 .088.134.56.56 0 0 1 .042.169c.005.059.002.12-.01.178-.034.09-1.863 7.852-10.799 4.639 0 .502-.038 1.099-.072 1.792-.275 8.309-.966 27.738 10.595 31.593a.31.31 0 0 1 .121.075.43.43 0 0 1 .089.132c.023.051.037.109.043.168a.58.58 0 0 1-.011.177.51.51 0 0 1-.026.151c-.016.048-.04.089-.07.124s-.064.06-.101.076a.22.22 0 0 1-.116.016h0z"/><path d="M68.34 88.755a.33.33 0 0 1-.216-.11c-.062-.066-.106-.156-.127-.257a.61.61 0 0 1 .04-.339c.045-.102.117-.178.202-.214C79.834 83.98 79.143 64.552 78.83 56.244l-.068-1.792c-8.936 3.213-10.765-4.593-10.799-4.639a.59.59 0 0 1 .037-.339.37.37 0 0 1 .205-.207c.086-.03.178-.014.255.045s.134.156.158.27c.068.276 1.724 7.209 10.384 3.86a.26.26 0 0 1 .163-.005.32.32 0 0 1 .146.096c.045.039.082.094.107.158a.53.53 0 0 1 .033.208c0 .552.034 1.38.068 2.344.275 7.806 1.003 28.469-11.142 32.51h-.038zm-.035-21.171c-.566-.001-1.119-.225-1.59-.644s-.837-1.014-1.053-1.71-.272-1.461-.161-2.199.384-1.416.784-1.948.911-.894 1.466-1.041a2.21 2.21 0 0 1 1.654.218c.523.288.97.776 1.284 1.402s.482 1.362.482 2.115a4.9 4.9 0 0 1-.216 1.46 4.07 4.07 0 0 1-.621 1.237c-.266.354-.583.634-.931.825s-.721.288-1.098.286h0zm0-6.652c-.43.001-.849.171-1.206.489s-.635.77-.799 1.298-.206 1.109-.122 1.669.291 1.075.595 1.478.691.678 1.113.789.858.054 1.255-.165.736-.589.974-1.064.366-1.034.366-1.605a3.72 3.72 0 0 0-.164-1.108c-.109-.351-.269-.671-.472-.939a2.24 2.24 0 0 0-.707-.626c-.264-.144-.548-.218-.834-.216h0z"/><path d="M69.781 78.699h-1.452c-.046.003-.092-.007-.135-.029s-.082-.056-.114-.1-.058-.096-.074-.153a.57.57 0 0 1-.02-.18V67.133c-.005-.064 0-.129.015-.191s.04-.118.072-.166a.37.37 0 0 1 .117-.113c.044-.026.093-.04.141-.04s.097.014.141.04a.37.37 0 0 1 .117.113.51.51 0 0 1 .072.166c.015.062.02.127.015.191v10.648h1.105c.046-.004.092.006.135.027a.33.33 0 0 1 .114.098c.032.043.058.095.074.152a.56.56 0 0 1 .021.179.55.55 0 0 1-.1.325c-.064.087-.151.136-.243.137z"/><path d="M69.781 74.639h-1.452a.33.33 0 0 1-.222-.14.49.49 0 0 1-.089-.288.49.49 0 0 1 .089-.288.33.33 0 0 1 .222-.14h1.452c.046-.003.092.005.135.025s.082.051.114.092a.42.42 0 0 1 .074.142.49.49 0 0 1 .021.167c0 .113-.036.222-.1.302s-.152.126-.243.128zm0-1.84h-1.452a.33.33 0 0 1-.222-.14.49.49 0 0 1-.089-.288.49.49 0 0 1 .089-.288.33.33 0 0 1 .222-.14h1.452c.046-.004.092.005.135.026s.082.052.115.093.058.09.074.143a.49.49 0 0 1 .019.168c-.001.112-.038.22-.102.299s-.151.125-.242.126h0zm-3.666 44.014h-2.414c-.046.004-.092-.005-.136-.027a.33.33 0 0 1-.115-.1.47.47 0 0 1-.074-.154.56.56 0 0 1-.019-.18v-1.285a3.66 3.66 0 0 1-1.131-.642l-.69.918a.36.36 0 0 1-.11.101.27.27 0 0 1-.131.035.27.27 0 0 1-.131-.035.36.36 0 0 1-.11-.101l-1.694-2.248a.48.48 0 0 1-.076-.147.57.57 0 0 1-.027-.174.58.58 0 0 1 .027-.175.46.46 0 0 1 .076-.146l.69-.919c-.202-.476-.364-.981-.483-1.505h-.966a.25.25 0 0 1-.136-.028.34.34 0 0 1-.115-.099.49.49 0 0 1-.074-.154c-.016-.057-.023-.12-.019-.181v-3.211a.56.56 0 0 1 .02-.179.44.44 0 0 1 .074-.152c.033-.043.071-.077.114-.099s.089-.031.135-.027h.966a6.71 6.71 0 0 1 .483-1.506l-.69-.918a.47.47 0 0 1-.076-.147.57.57 0 0 1 0-.348.46.46 0 0 1 .076-.147l1.694-2.253c.03-.045.068-.08.109-.104a.25.25 0 0 1 .132-.032h0a.25.25 0 0 1 .132.034c.042.023.079.058.11.102l.69.918c.357-.271.737-.487 1.131-.642v-1.285c-.003-.061.004-.122.021-.179a.47.47 0 0 1 .074-.152.33.33 0 0 1 .114-.098c.043-.022.089-.031.135-.027h2.414a.25.25 0 0 1 .136.026.33.33 0 0 1 .116.098c.033.043.058.095.075.153s.024.119.021.18v1.285c.398.14.78.356 1.132.642l.69-.918a.35.35 0 0 1 .11-.101.26.26 0 0 1 .131-.036.26.26 0 0 1 .131.036.35.35 0 0 1 .11.101l1.69 2.253c.033.041.059.091.077.146a.57.57 0 0 1 .027.175.57.57 0 0 1-.027.175c-.018.055-.044.105-.077.146l-.675.898a8.33 8.33 0 0 1 .483 1.506h.966a.25.25 0 0 1 .136.025.34.34 0 0 1 .116.098.48.48 0 0 1 .075.153c.016.058.024.119.021.18v3.212a.55.55 0 0 1-.021.181.48.48 0 0 1-.075.154c-.033.044-.072.077-.115.099a.26.26 0 0 1-.136.028h-.966c-.104.531-.266 1.038-.483 1.505l.69.918c.034.041.06.091.078.146a.53.53 0 0 1 .024.176.57.57 0 0 1-.025.175c-.017.056-.044.105-.077.146l-1.69 2.248c-.031.044-.068.079-.11.102a.25.25 0 0 1-.132.033h0c-.045.003-.09-.008-.132-.032a.32.32 0 0 1-.109-.103l-.69-.918c-.357.271-.737.487-1.131.642v1.285c.005.065 0 .13-.017.192a.47.47 0 0 1-.078.164c-.035.046-.077.082-.123.103a.26.26 0 0 1-.145.022zm-2.033-.918h1.724v-1.149a.54.54 0 0 1 .073-.298.33.33 0 0 1 .203-.159c.513-.146 1.004-.411 1.448-.783.065-.047.139-.068.213-.06a.33.33 0 0 1 .202.106l.622.828 1.207-1.606-.622-.813a.49.49 0 0 1-.095-.268c-.006-.101.015-.202.061-.284.282-.601.481-1.264.588-1.957.014-.107.056-.203.119-.27s.143-.102.224-.097h.864v-2.298h-.864c-.081.005-.161-.029-.224-.097s-.106-.163-.119-.269c-.11-.683-.309-1.336-.588-1.927a.64.64 0 0 1-.046-.283c.006-.098.034-.192.079-.269l.622-.823-1.207-1.611-.622.828c-.052.075-.124.121-.201.129s-.153-.021-.214-.084a3.88 3.88 0 0 0-1.448-.778c-.08-.019-.152-.077-.203-.161a.55.55 0 0 1-.072-.3v-1.144h-1.724v1.144a.55.55 0 0 1-.075.3c-.052.085-.124.142-.204.161a3.88 3.88 0 0 0-1.448.778c-.064.052-.138.075-.213.067s-.145-.047-.202-.112l-.619-.828-1.207 1.611.619.823c.056.07.091.165.097.267s-.016.204-.063.285c-.28.591-.478 1.243-.585 1.927a.49.49 0 0 1-.122.27c-.064.068-.144.101-.225.096h-.86v2.298h.86c.081-.005.162.029.225.097a.5.5 0 0 1 .122.27c.107.683.305 1.336.585 1.927a.59.59 0 0 1 .057.299.56.56 0 0 1-.095.283l-.619.828 1.207 1.606.619-.828c.054-.072.125-.117.201-.125s.152.02.214.079a3.95 3.95 0 0 0 1.448.783c.08.018.153.075.204.159a.55.55 0 0 1 .075.298l.004 1.134zm.859-4.227c-.741 0-1.452-.392-1.976-1.089s-.819-1.643-.819-2.629.294-1.931.819-2.629 1.235-1.089 1.976-1.089c.048-.006.097.001.144.021s.089.052.125.096.065.096.085.155.03.123.03.188a.58.58 0 0 1-.03.187.5.5 0 0 1-.085.156c-.036.044-.079.076-.125.096s-.095.026-.144.02c-.416 0-.823.164-1.169.471s-.616.745-.775 1.257a3.67 3.67 0 0 0-.12 1.617 3.18 3.18 0 0 0 .576 1.434c.294.392.669.658 1.078.766s.832.053 1.216-.159.713-.571.945-1.031.355-1.002.355-1.556c.008-.677-.176-1.333-.517-1.836a.57.57 0 0 1-.066-.322.52.52 0 0 1 .116-.295.3.3 0 0 1 .236-.112.31.31 0 0 1 .23.132c.437.676.671 1.542.656 2.433a4.74 4.74 0 0 1-.198 1.421 3.93 3.93 0 0 1-.596 1.208c-.257.346-.563.621-.901.808a2.18 2.18 0 0 1-1.066.281h0z"/><path d="M72.904 130.367H70.49a.25.25 0 0 1-.135-.028.34.34 0 0 1-.115-.099.49.49 0 0 1-.074-.154c-.016-.057-.023-.119-.019-.181v-1.285a3.67 3.67 0 0 1-1.132-.642l-.69.918a.35.35 0 0 1-.11.101.27.27 0 0 1-.131.035.27.27 0 0 1-.131-.035.35.35 0 0 1-.11-.101l-1.694-2.249a.46.46 0 0 1-.076-.147.57.57 0 0 1-.027-.174.57.57 0 0 1 .027-.175.45.45 0 0 1 .076-.146l.69-.919c-.203-.477-.364-.982-.483-1.506h-.966a.25.25 0 0 1-.136-.028.34.34 0 0 1-.115-.099.48.48 0 0 1-.074-.154c-.016-.058-.023-.119-.019-.181v-3.213a.57.57 0 0 1 .02-.179.45.45 0 0 1 .074-.152.33.33 0 0 1 .114-.098c.043-.022.089-.031.135-.027h.966c.105-.531.267-1.038.483-1.506l-.69-.919a.48.48 0 0 1-.076-.147.57.57 0 0 1-.027-.174.58.58 0 0 1 .027-.175.46.46 0 0 1 .076-.146l1.694-2.254c.03-.045.068-.08.109-.104a.25.25 0 0 1 .132-.032h0c.045-.001.09.01.132.033s.079.059.11.103l.69.918a4.76 4.76 0 0 1 1.132-.642v-1.285c-.003-.061.004-.122.02-.179a.47.47 0 0 1 .074-.153.33.33 0 0 1 .114-.098c.043-.022.089-.031.134-.027h2.414a.25.25 0 0 1 .136.025.34.34 0 0 1 .116.098c.033.044.058.096.075.153s.024.119.021.181v1.285a3.79 3.79 0 0 1 1.132.642l.69-.918c.031-.044.069-.078.11-.101a.26.26 0 0 1 .131-.036.26.26 0 0 1 .131.036c.041.023.079.057.11.101l1.69 2.254c.033.041.059.091.077.146a.57.57 0 0 1 .027.175.57.57 0 0 1-.027.175.45.45 0 0 1-.077.146l-.675.899c.205.474.367.98.483 1.506h.966a.25.25 0 0 1 .136.025.34.34 0 0 1 .116.098.48.48 0 0 1 .075.153c.017.058.023.119.021.18v3.213a.55.55 0 0 1-.021.181.47.47 0 0 1-.075.154c-.033.043-.072.077-.115.099s-.09.032-.136.028h-.966a6.58 6.58 0 0 1-.483 1.506l.69.919a.43.43 0 0 1 .078.145.54.54 0 0 1 .024.176.55.55 0 0 1-.025.175c-.018.055-.044.105-.077.146l-1.69 2.249c-.031.044-.068.079-.11.102a.25.25 0 0 1-.131.034.25.25 0 0 1-.132-.032c-.042-.024-.079-.059-.109-.104l-.69-.919a4.71 4.71 0 0 1-1.132.643v1.285a.58.58 0 0 1-.017.193.48.48 0 0 1-.078.164c-.035.047-.077.081-.123.103a.25.25 0 0 1-.145.022h0zm-2.033-.919h1.724v-1.149a.54.54 0 0 1 .073-.298.33.33 0 0 1 .203-.159c.514-.146 1.004-.411 1.448-.783a.3.3 0 0 1 .213-.061.33.33 0 0 1 .202.106l.622.828 1.207-1.606-.622-.813a.49.49 0 0 1-.095-.268c-.006-.101.015-.202.061-.284.282-.601.481-1.264.588-1.958.014-.107.056-.203.119-.27s.143-.102.224-.097h.864v-2.299h-.864c-.081.005-.16-.029-.224-.096a.49.49 0 0 1-.119-.27 7.21 7.21 0 0 0-.588-1.928.64.64 0 0 1-.045-.283c.006-.098.034-.192.079-.269l.622-.823-1.207-1.612-.622.829a.29.29 0 0 1-.201.129c-.077.008-.153-.022-.214-.084a3.87 3.87 0 0 0-1.448-.778c-.08-.02-.152-.077-.203-.162a.55.55 0 0 1-.072-.3v-1.145h-1.724v1.145a.55.55 0 0 1-.075.3.34.34 0 0 1-.204.162c-.514.142-1.004.406-1.448.778a.29.29 0 0 1-.213.067c-.075-.008-.145-.048-.202-.112l-.619-.829-1.207 1.612.619.823c.056.07.091.165.097.267s-.016.204-.063.285c-.28.591-.478 1.244-.585 1.928a.49.49 0 0 1-.122.27c-.064.067-.144.102-.225.096h-.86v2.299h.86c.081-.005.161.029.225.097s.107.163.122.27a7.07 7.07 0 0 0 .585 1.927.6.6 0 0 1 .057.3.56.56 0 0 1-.095.283l-.619.828 1.207 1.606.619-.828c.054-.072.125-.116.201-.124s.152.02.214.079a3.95 3.95 0 0 0 1.448.783c.08.018.153.075.204.159a.55.55 0 0 1 .075.298l.004 1.134zm.86-4.23c-.741 0-1.452-.391-1.976-1.089s-.819-1.643-.819-2.629.294-1.931.819-2.629 1.235-1.089 1.976-1.089c.048-.006.097 0 .143.02s.089.053.125.096a.49.49 0 0 1 .085.156c.02.059.03.123.03.187a.59.59 0 0 1-.03.188c-.02.059-.049.112-.085.155s-.079.076-.125.096-.095.027-.143.02c-.416 0-.823.165-1.169.472s-.616.745-.775 1.257a3.67 3.67 0 0 0-.12 1.617 3.18 3.18 0 0 0 .576 1.434c.294.392.669.658 1.078.766s.831.053 1.216-.159.713-.571.945-1.031.355-1.002.355-1.556c.008-.677-.176-1.333-.517-1.836-.052-.093-.075-.207-.066-.322s.051-.22.116-.295a.3.3 0 0 1 .236-.112.31.31 0 0 1 .23.132c.437.675.671 1.542.656 2.433a4.77 4.77 0 0 1-.198 1.421c-.136.451-.339.862-.596 1.209a2.86 2.86 0 0 1-.901.807 2.17 2.17 0 0 1-1.066.281h0zm21.435 34.662H60.615a3.37 3.37 0 0 1-1.632-.431c-.518-.285-.987-.702-1.383-1.229s-.71-1.152-.924-1.841a7.32 7.32 0 0 1-.323-2.171.62.62 0 0 1 .022-.197c.018-.063.046-.12.081-.168a.37.37 0 0 1 .126-.108c.047-.023.098-.033.148-.029h40.359c.05-.004.101.006.148.029s.09.061.126.108.063.105.081.168a.62.62 0 0 1 .022.197c-.02 1.504-.481 2.939-1.284 3.998s-1.885 1.66-3.016 1.674h0zm-36.059-5.22c.096 1.147.507 2.208 1.154 2.977s1.486 1.192 2.353 1.189h32.551c.866-.006 1.701-.432 2.347-1.2s1.059-1.822 1.161-2.966H57.107z"/></g><path d="M1.276 170.088h271.468" stroke="#000" stroke-width="2" stroke-linecap="round" stroke-linejoin="round"/></svg>