<svg xmlns="http://www.w3.org/2000/svg" viewBox="0 0 221 311" fill="none" xmlns:v="https://vecta.io/nano"><path d="M162.575 99.025l1.411-9.558s5.811-.568 2.751-5.935-3.346-.663-3.346-.663l-.634-8.272-21.832-2.984s1.356 1.815-2.608 1.815-4.709 2.802-2.378 4.554 4.376 2.96 4.55 6.314 0 8.99 4.44 9.321l9.79.742-1.586 4.065s2.783 4.12 9.442.6z" fill="#fff"/><path d="M177.201 310.402H42.309c-.175-.017-.337-.094-.455-.215s-.183-.279-.183-.443.065-.321.183-.442.28-.198.455-.216H177.28a.72.72 0 0 1 .276.042.67.67 0 0 1 .233.141c.067.061.119.135.153.216s.049.169.044.256c-.002.092-.024.182-.065.266s-.1.159-.174.221a.72.72 0 0 1-.253.139c-.094.03-.194.042-.293.035h0z" fill="#000"/><path d="M220.208 174.028H73.551v135.706h146.657V174.028z" fill="#fff"/><path d="M72.758 309.714V174.027c0-.284.317-.482.793-.482h146.657c.475 0 .792.198.792.482v135.687c0 .284-.317.481-.792.481H73.63c-.177.017-.355-.02-.511-.106a.88.88 0 0 1-.361-.375h0zm146.657-135.229H74.344v134.771h145.071V174.485z" fill="#000"/><path d="M152.706 99.452h-5.074a20.88 20.88 0 0 0-8.189 1.659 20.81 20.81 0 0 0-6.873 4.735l-13.159 13.736-5.47-19.578-18.313 1.658 9.196 29.919 58.346 36.946c4.915-6.237 7.61-27.236 7.61-27.236l.238 1.737 3.805 24.394 23.227-3.632-17.202-49.852a20.13 20.13 0 0 0-5.994-8.862c-2.763-2.362-6.115-3.937-9.702-4.559l-3.092-.552-9.354-.513zm56.72 70.912c4.519-.078 3.885-1.647 3.885-1.647s-.079-1.413-3.092-1.569-10.94 2.588-10.94 2.588c3.171 2.511 10.147.706 10.147.628z" fill="#fff"/><path d="M198.882 170.388a.79.79 0 0 1-.317-.79c.034-.142.103-.273.199-.383s.219-.195.356-.248c.317-.079 8.086-2.761 11.178-2.603s3.726 1.735 3.805 2.209c.051.215.057.439.016.656s-.128.424-.254.606c-.555.868-1.982 1.342-4.36 1.42-1.684.424-3.415.636-5.153.632-1.982 0-4.122-.324-5.47-1.499zm13.635-1.421s-.237-.868-2.378-.947c-1.902-.078-6.104 1.105-8.878 1.973 3.17.947 7.848-.237 7.927-.237h.158c2.537-.079 3.092-.631 3.171-.71v-.079z" fill="#000"/><path d="M99.552 81.42c1.665-1.026.555-8.287.476-9.392s-1.665-2.762-3.012-1.578-2.458 11.049-2.458 11.049c1.11 1.026 3.369 1.105 4.994-.079z" fill="#fff"/><path d="M94.003 82.136a1.27 1.27 0 0 1-.238-.711c.317-2.369 1.268-10.264 2.775-11.527.32-.308.727-.511 1.167-.581a2.19 2.19 0 0 1 1.291.186c.512.218.957.566 1.291 1.009s.545.967.612 1.517c-.004.318.022.635.079.947.555 4.895.555 8.29-.951 9.237-.938.551-2.003.85-3.092.869a4.66 4.66 0 0 1-2.933-.947h0zm3.567-10.974c-.634.632-1.585 5.685-2.14 10.106a3.98 3.98 0 0 0 1.903.307c.65-.055 1.276-.269 1.823-.623.396-.237.872-1.579.238-7.737 0-.474-.079-.869-.079-1.026-.072-.251-.193-.484-.356-.688s-.366-.372-.596-.497c-.093-.063-.205-.091-.317-.079-.091.006-.18.03-.262.07a.68.68 0 0 0-.214.166h0z" fill="#000"/><path d="M96.064 62.638h19.264l3.963 31.891h-19.263l-3.964-31.891z" fill="#e3e6ed"/><path d="M110.889 67.943c.569 0 1.031-.428 1.031-.956s-.462-.956-1.031-.956-1.031.428-1.031.956.462.956 1.031.956z" fill="#000"/><path d="M65.623 215.771l-1.982 8.606s-25.923 6.316-26.636 9.237 3.25 3 3.25 3h44.79l.159-20.211-19.581-.632z" fill="#fff"/><path d="M36.529 235.827c-.248-.352-.412-.755-.481-1.178a2.82 2.82 0 0 1 .085-1.269c.713-2.92 18.55-7.656 26.715-9.629l1.823-8.129a.79.79 0 0 1 .281-.459.8.8 0 0 1 .511-.173l19.66.632c.21 0 .412.083.561.231a.79.79 0 0 1 .232.558l-.159 20.205a.79.79 0 0 1-.232.558c-.149.148-.35.231-.56.231h-44.79c-.238 0-2.497-.079-3.647-1.578zm47.802-18.706l-18.233-.552-1.823 7.971a.67.67 0 0 1-.166.413c-.101.115-.238.192-.389.219-12.208 2.999-25.288 7.103-26.081 8.681a1.16 1.16 0 0 0-.063.573c.028.193.104.376.221.532.652.582 1.503.892 2.378.869h43.997l.159-18.706z" fill="#000"/><path d="M118.42 143.714l-51.052 5.367-11.178 69.143 37.497 4.341-3.805-52.331 40.906 6.157-12.367-32.677z" fill="#7286c0"/><path d="M45.884 162.733l-7.69 4.421s-22.117-14.761-24.813-13.34 0 4.42 0 4.42l30.203 32.916 15.141-13.498-12.842-14.919z" fill="#fff"/><path d="M42.951 191.622l-30.203-32.917c-.159-.158-1.665-1.895-1.348-3.632a2.94 2.94 0 0 1 .569-1.165c.274-.341.622-.617 1.017-.808 2.695-1.5 18.233 8.446 25.209 13.104l7.293-4.184a.74.74 0 0 1 .261-.121.73.73 0 0 1 .287-.012.72.72 0 0 1 .27.097.74.74 0 0 1 .212.194l12.842 14.92a.84.84 0 0 1 .168.567c-.015.203-.102.394-.247.538L44.22 191.701c-.15.144-.347.228-.555.237a.97.97 0 0 1-.39-.083.96.96 0 0 1-.323-.233h0zm2.775-27.944l-7.135 4.105a.87.87 0 0 1-.436.119.87.87 0 0 1-.436-.119c-10.464-7.026-22.276-13.894-24.02-13.341-.634.316-.713.71-.713.868a3.44 3.44 0 0 0 .951 2.368l29.728 32.366 13.952-12.473-11.891-13.893zm129.097 4.264a.8.8 0 0 1-.217-.243c-.054-.095-.089-.2-.1-.309l-5.708-37.026a.79.79 0 0 1 .217-.453c.119-.123.276-.205.447-.231a.79.79 0 0 1 .496.083c.153.081.274.209.346.365l5.629 36.235 21.483-3.315-16.885-49.025c-1.149-3.291-3.158-6.217-5.819-8.479s-5.879-3.777-9.322-4.389l-3.092-.553a.81.81 0 0 1-.514-.343.8.8 0 0 1-.12-.604c.042-.209.166-.394.344-.512a.81.81 0 0 1 .607-.12l3.092.553a21.06 21.06 0 0 1 10.081 4.713 20.93 20.93 0 0 1 6.249 9.181l17.202 49.893a.63.63 0 0 1 .047.327c-.014.111-.058.216-.126.305-.158.237-.317.395-.555.395l-23.227 3.631h-.159c-.133-.018-.265-.045-.396-.079h0z" fill="#000"/><path d="M193.571 164.234a20.99 20.99 0 0 0 5.708 5.445c9.671-1.263 14.428 2.92 14.428 2.92s2.14 1.657 1.902 2.841c-.396 1.815-2.299 1.815-3.408 1.105a2.49 2.49 0 0 1 .451 1.1 2.48 2.48 0 0 1-.111 1.184 2.49 2.49 0 0 1-.649.998c-.294.275-.65.476-1.039.585-1.823.395-3.092-1.973-3.092-1.973s1.189 3.551-1.189 3.867-2.774-2.052-2.774-2.052c-.496-1.548-1.538-2.866-2.934-3.709-2.299-1.342-12.208-.947-12.208-.947 1.348 1.973 8.245 5.366 5.629 7.182-2.061 1.341-6.897-1.658-6.897-1.658-3.171-1.42-4.915-6.55-4.915-6.55l-2.775-8.05 13.873-2.288z" fill="#fff"/><g fill="#000"><path d="M187.071 181.756c-3.489-1.579-5.233-6.789-5.312-7.026l-2.774-8.053c-.045-.102-.06-.215-.047-.326s.058-.216.126-.305c.158-.237.317-.395.555-.395l13.873-2.131a.7.7 0 0 1 .467.055.69.69 0 0 1 .325.339c.635 1.263 3.251 3.711 5.153 4.974 9.751-1.184 14.587 2.921 14.745 3.079.397.316 2.537 2.052 2.141 3.631-.068.418-.242.811-.506 1.143a2.5 2.5 0 0 1-1.001.752 3.03 3.03 0 0 1-1.426.237 3.49 3.49 0 0 1-.159 1.263 3.16 3.16 0 0 1-.866 1.369c-.403.374-.897.637-1.433.762-.376.1-.77.117-1.154.049s-.747-.22-1.066-.443a3.37 3.37 0 0 1-.396 1.263 2.22 2.22 0 0 1-.735.767c-.304.193-.65.309-1.009.338-.84.118-1.693-.097-2.375-.599a3.22 3.22 0 0 1-1.272-2.085c-.412-1.355-1.316-2.509-2.536-3.237-1.348-.71-6.263-.947-9.989-.868.396.316.872.71 1.348 1.026 2.061 1.5 3.963 3 3.884 4.5.003.325-.084.644-.252.923s-.41.506-.699.656a3.49 3.49 0 0 1-1.823.474c-2.379 0-5.312-1.737-5.787-2.132zm14.11-6a7.6 7.6 0 0 1 3.251 4.263c.03.218.103.428.215.618a1.66 1.66 0 0 0 .438.488c.177.132.378.228.593.282s.437.066.656.033a.62.62 0 0 0 .367-.058c.114-.057.207-.147.267-.258.251-.801.223-1.663-.079-2.447-.041-.087-.063-.182-.065-.279s.016-.193.053-.282.093-.169.163-.236.154-.118.245-.15a.8.8 0 0 1 .578-.044c.191.059.353.187.453.36 0 .078 1.031 1.815 2.22 1.578a1.46 1.46 0 0 0 .699-.358 1.45 1.45 0 0 0 .41-.668 1.41 1.41 0 0 0 .138-.772c-.029-.266-.131-.518-.296-.728-.116-.146-.179-.327-.179-.513s.063-.367.179-.513c.123-.146.296-.242.485-.272s.384.012.545.114c.52.244 1.109.299 1.665.158a1.09 1.09 0 0 0 .416-.316c.11-.138.185-.3.218-.474.08-.315-.634-1.342-1.585-2.052 0 0-4.598-3.868-13.794-2.684-.092.029-.19.037-.286.023a.67.67 0 0 1-.269-.102 23.84 23.84 0 0 1-5.628-5.29l-12.446 1.974 2.457 7.184c0 .079 1.586 4.816 4.44 6.079 0 .021.008.041.023.056s.035.023.056.023c1.427.868 4.836 2.447 6.025 1.658.158-.158.238-.237.238-.316 0-.711-2.061-2.289-3.251-3.237a15.82 15.82 0 0 1-2.853-2.605c-.089-.11-.144-.243-.158-.383a.73.73 0 0 1 .078-.407.83.83 0 0 1 .305-.29c.125-.069.266-.105.409-.104.396 0 1.585-.079 3.171-.079 3.171-.008 7.848.158 9.433 1.026z"/><path d="M206.968 178.753c-.396-.948-1.744-3.552-3.488-4.184a.8.8 0 0 1-.451-.415c-.089-.192-.098-.412-.024-.611a.8.8 0 0 1 .416-.449c.194-.089.414-.097.614-.024 2.695 1.026 4.281 4.893 4.36 5.051a.71.71 0 0 1 .085.298.71.71 0 0 1-.047.306.73.73 0 0 1-.434.422c-.093.063-.205.091-.317.079-.152-.002-.3-.048-.427-.132a.8.8 0 0 1-.287-.341zm4.519-1.812c-.982-1.232-2.228-2.229-3.646-2.922-.155-.103-.268-.258-.319-.436a.78.78 0 0 1 .037-.539.79.79 0 0 1 .916-.446c1.661.838 3.121 2.023 4.281 3.474.111.173.157.379.127.582a.85.85 0 0 1-.286.523c-.144.088-.307.142-.475.158-.134.008-.267-.026-.38-.097s-.202-.175-.255-.297h0zm-106.94-45.399l-9.196-29.916c-.057-.238-.029-.49.079-.71a.67.67 0 0 1 .555-.316l18.312-1.657a.73.73 0 0 1 .285-.007.71.71 0 0 1 .266.103.73.73 0 0 1 .207.196c.055.078.094.167.114.26l5.074 18.234 12.208-12.709c2.027-2.087 4.453-3.749 7.135-4.888a21.91 21.91 0 0 1 8.482-1.742h5.073c.211 0 .412.083.561.231s.232.349.232.558-.083.41-.232.558-.35.231-.561.231h-5.073a20.02 20.02 0 0 0-7.89 1.591c-2.495 1.058-4.746 2.612-6.617 4.566l-13.16 13.734c-.097.108-.223.188-.363.23a.79.79 0 0 1-.429.007c-.127-.048-.242-.122-.337-.217a.96.96 0 0 1-.218-.336l-5.232-18.944-16.688 1.492 8.879 29.048c.033.197-.005.4-.106.573a.86.86 0 0 1-.449.374h-.238c-.436 0-.753-.229-.673-.545z"/></g><path d="M139.823 177.414c-12.287 0-20.69-5.447-26.794-12.394l-15.696-17.84-37.417 36.233c-.159 0-21.008-24.471-21.008-24.471l42.887-31.181c3.035-1.931 6.552-2.977 10.153-3.019a19.33 19.33 0 0 1 10.22 2.782l60.645 36.786s-10.623 13.183-22.99 13.104z" fill="#7286c0"/><g fill="#000"><path d="M59.202 183.57a.86.86 0 0 1 .317-.71c1.11-.947 24.892-23.996 37.338-36.151a.79.79 0 0 1 1.11 0l15.696 17.839c7.214 8.209 15.775 12.155 26.24 12.155.21 0 .412.083.56.231a.79.79 0 0 1 0 1.117c-.149.148-.35.231-.56.231-10.94 0-19.898-4.184-27.429-12.708l-15.142-17.208-37.259 35.836h-.079a.8.8 0 0 1-.511-.173.79.79 0 0 1-.282-.459zm59.139-43.812a.79.79 0 0 1-.119-.29.77.77 0 0 1 .004-.313c.022-.103.064-.2.125-.287a.8.8 0 0 1 .227-.215c10.702-6.392 21.404-24.069 21.484-24.227a.8.8 0 0 1 .218-.224c.087-.059.184-.101.287-.123s.21-.024.313-.005a.8.8 0 0 1 .64.619c.022.102.024.208.005.311s-.058.202-.116.29c-.396.71-11.019 18.15-22.038 24.779a.59.59 0 0 1-.396.079c-.132 0-.262-.037-.374-.107a.7.7 0 0 1-.26-.287h0z"/><path d="M163.05 168.888a.78.78 0 0 1-.206-.23c-.053-.089-.088-.188-.103-.29a.8.8 0 0 1 .151-.585c4.756-6 7.452-26.603 7.452-26.839.01-.104.041-.205.09-.296a.8.8 0 0 1 .198-.239c.081-.066.174-.116.274-.146a.81.81 0 0 1 .31-.03c.104.011.205.041.297.09a.8.8 0 0 1 .386.47c.03.1.041.205.03.309-.158.868-2.774 21.313-7.769 27.628-.069.102-.164.185-.275.241a.73.73 0 0 1-.359.075c-.171-.004-.337-.059-.476-.158zm-66.272-21.154l-3.329-3.868a.79.79 0 0 1 .139-1.037c.146-.126.334-.195.527-.193s.38.075.523.204l3.33 3.868c.135.157.203.362.188.568a.79.79 0 0 1-.267.537c-.139.099-.305.154-.476.158-.234.006-.462-.079-.634-.237zm2.537 24.573l-15.696-2.263c-.122.014-.245.001-.361-.04s-.22-.106-.305-.193a.78.78 0 0 1-.186-.307.77.77 0 0 1-.027-.357.78.78 0 0 1 .137-.331c.071-.098.165-.179.273-.236a.81.81 0 0 1 .351-.091.79.79 0 0 1 .356.072l15.696 2.263a.75.75 0 0 1 .283.097.74.74 0 0 1 .221.199c.06.08.102.171.124.268s.025.197.007.295a.82.82 0 0 1-.269.491.85.85 0 0 1-.524.211c-.021 0-.041-.008-.056-.023s-.023-.034-.023-.055z"/></g><path d="M110.889 100.055c-.872-3.158-4.44-5.448-4.44-5.448s.079 0 3.33.947 3.329-1.105 3.329-1.105.397-2.21-3.329-3.079c1.506-.316 3.25-.553 3.329-1.974.079-1.895-3.329-2.132-3.329-2.132s2.616.079 2.695-1.895c0-1.579-3.567-2.289-3.567-2.289s2.616 0 2.299-2.526c-.476-2.842-9.672-3.237-13.953-1.737-.238.079-.396.158-.634.237-3.964 1.816-2.616 10.026 0 13.657 1.651 2.508 2.658 5.382 2.933 8.368l11.337-1.026z" fill="#fff"/><g fill="#000"><path d="M98.839 101.786c-.077-.07-.139-.155-.18-.25a.72.72 0 0 1-.058-.303 17.22 17.22 0 0 0-2.775-7.971c-1.903-2.605-3.25-7.735-2.299-11.366.138-.73.447-1.418.901-2.008s1.042-1.064 1.715-1.386a2.82 2.82 0 0 1 .714-.316c3.726-1.263 10.623-1.263 13.556.474a2.82 2.82 0 0 1 .923.791c.246.327.418.704.504 1.104.084.417.071.847-.039 1.258s-.314.791-.595 1.11c-.009.06-.036.115-.08.158 1.031.474 2.062 1.184 2.062 2.368a2.94 2.94 0 0 1-.793 1.815h0c.443.192.817.514 1.072.923a2.36 2.36 0 0 1 .355 1.366c-.013.465-.173.914-.458 1.283s-.68.638-1.128.77a3.39 3.39 0 0 1 1.242 1.274c.293.527.439 1.123.423 1.725-.009.313-.093.62-.244.894a1.98 1.98 0 0 1-.628.684c-.793.552-1.903.632-3.329.237a9.95 9.95 0 0 1 1.981 3.473c.049.102.067.215.053.327a.59.59 0 0 1-.132.304c-.058.095-.14.173-.237.229a.67.67 0 0 1-.318.087l-11.495 1.026c-.236-.04-.474-.067-.713-.079h0zm7.293-6.551a.79.79 0 0 1-.317-1.026c.094-.16.238-.284.409-.356a.86.86 0 0 1 .542-.039l3.33.947c.321.149.668.233 1.022.247a2.67 2.67 0 0 0 1.039-.168.51.51 0 0 0 .166-.169c.041-.069.066-.146.072-.225v-.079c.079-.079.158-1.578-2.695-2.21-.211 0-.412-.083-.561-.231s-.232-.349-.232-.558.083-.41.232-.558.35-.231.561-.231l.237-.079c1.348-.237 2.299-.474 2.379-1.184.079-.947-1.982-1.342-2.537-1.342-.196-.02-.378-.111-.51-.257s-.205-.336-.204-.532a.72.72 0 0 1 .066-.288c.042-.091.101-.172.176-.238a.72.72 0 0 1 .256-.149.73.73 0 0 1 .295-.035 2.62 2.62 0 0 0 1.586-.474.8.8 0 0 0 .19-.289c.041-.109.057-.226.047-.342 0-.552-1.585-1.263-2.933-1.5-.189-.05-.356-.164-.471-.322a.85.85 0 0 1-.163-.546c.029-.191.124-.367.269-.496a.84.84 0 0 1 .524-.214 1.89 1.89 0 0 0 1.268-.474 1.23 1.23 0 0 0 .253-.524 1.24 1.24 0 0 0-.015-.581 1.39 1.39 0 0 0-.713-.789c-2.299-1.342-8.641-1.5-12.209-.316-.159.079-.396.158-.555.237a3.53 3.53 0 0 0-1.132.994c-.301.409-.51.877-.612 1.374-.872 3.078.396 7.735 2.061 10.024a18.27 18.27 0 0 1 3.013 7.971l9.671-.868c-.921-1.651-2.226-3.058-3.805-4.104z"/><path d="M102.168 83.247a.69.69 0 0 1 .085-.545.79.79 0 0 1 .47-.337c.951-.22 4.994-.073 6.263 0a.79.79 0 0 1 .381.286c.091.13.136.284.127.439a.71.71 0 0 1-.176.424.8.8 0 0 1-.412.247 47.75 47.75 0 0 0-5.787 0h-.237a.83.83 0 0 1-.444-.154.74.74 0 0 1-.27-.361zm7.69 4.678c-.079 0-5.153-.367-6.501-.294a.84.84 0 0 1-.583-.163c-.163-.124-.268-.303-.289-.498a.7.7 0 0 1 .177-.541c.134-.151.327-.248.537-.267 1.585-.073 6.5.294 6.738.294a.88.88 0 0 1 .519.282.77.77 0 0 1 .195.527.72.72 0 0 1-.259.473.83.83 0 0 1-.534.189zm-.039 3.992c-1.348-.294-5.153-1.029-6.58-.662-.105.047-.221.071-.337.072a.85.85 0 0 1-.338-.068.79.79 0 0 1-.275-.195.72.72 0 0 1-.158-.285.67.67 0 0 1-.013-.32.71.71 0 0 1 .135-.295.78.78 0 0 1 .258-.214.84.84 0 0 1 .331-.091c1.982-.514 6.739.514 7.294.662.197.052.366.172.469.337a.69.69 0 0 1 .086.545.73.73 0 0 1-.282.427.84.84 0 0 1-.511.161c-.079 0-.198 0-.079-.073z"/></g><path d="M140.925 71.586l21.832 2.984.634 8.273s2.378-.971 3.345.663a5.21 5.21 0 0 1 .69 3.426c-.444 3.45-4.17 1.389-4.17 1.389l-.491 7.018s23.037-14.684 3.963-23.77c-.087-3.75-5.382-12.371-19.025-9.473-10.552 2.724-6.778 9.489-6.778 9.489z" fill="#7286c0"/><g fill="#000"><path d="M146.142 95.311c-1.809-.143-3.516-.891-4.844-2.123-2.624-2.636-2.378-6.827-2.283-9.037.048-.387 0-.71.04-.947 0-1.91-1.134-2.447-1.213-2.462s-4.962-1.815-4.55-5.028 5.549-3.204 5.684-3.26c.21 0 .412.083.56.231a.79.79 0 0 1 .232.558c0 .481-.332.789-.792.789 0 0-3.916 0-4.154 1.863-.206 1.642 2.576 3.031 3.567 3.394.079 0 2.204.916 2.22 3.946 0 .237 0 .631-.056 1.026-.111 2.131-.333 5.77 1.879 7.893 1.348 1.357 3.433 1.942 6.342 1.744l7.927-.671a.79.79 0 0 1 .748.684c.024.183-.017.369-.115.525a.79.79 0 0 1-.427.33l-8.006.742c-1.086-.142-1.966-.095-2.759-.197zm-.193-18.731c.067-.524-.336-1.007-.9-1.078s-1.076.296-1.142.82.337 1.007.901 1.078 1.075-.296 1.141-.821z"/><path d="M151.602 78.732c.069-.523-.331-1.007-.894-1.08s-1.075.291-1.144.814.332 1.007.894 1.08 1.075-.291 1.144-.814zm5.392 22.403c-1.629-.173-3.132-.958-4.201-2.195a.79.79 0 0 1-.167-.576l.539-4.232c.027-.209.135-.4.303-.529a.79.79 0 0 1 .278-.139.8.8 0 0 1 .607.075.81.81 0 0 1 .236.203c.064.082.112.177.139.277a.79.79 0 0 1 .023.31l-.5 3.948c.635.64 2.965 2.439 7.444.537.412-3.285.848-10.477.856-10.556a.88.88 0 0 1 .405-.663.95.95 0 0 1 .792 0c.373.205 1.586.75 2.26.442.507-.253.689-1.026.689-1.666a3.74 3.74 0 0 0-.216-1.576 3.75 3.75 0 0 0-.854-1.345 2.14 2.14 0 0 0-1.918 0c-.095.045-.198.071-.303.077a.8.8 0 0 1-.308-.044.81.81 0 0 1-.269-.159.79.79 0 0 1-.186-.249.77.77 0 0 1-.077-.301c-.006-.105.009-.209.044-.308a.8.8 0 0 1 .159-.267.79.79 0 0 1 .25-.186c1.689-.742 2.838-.363 3.496.119 1.181.789 1.855 2.369 1.776 4.279-.111 1.5-.634 2.471-1.586 2.984a3.67 3.67 0 0 1-2.727.055c-.127 2.298-.547 7.493-.856 9.925a.7.7 0 0 1-.154.356c-.085.102-.196.178-.321.22a9.83 9.83 0 0 1-5.653 1.185h0zm9.656-29.038a.74.74 0 0 1-.295-.085.68.68 0 0 1-.228-.194c-.126-.154-.181-.347-.154-.538s.133-.365.297-.484c.087-.066 2.719-1.83 5.129-.735.189.091.331.247.396.435s.046.393-.052.568a.79.79 0 0 1-.469.368.86.86 0 0 1-.613-.048c-1.585-.735-3.519.625-3.519.625a.7.7 0 0 1-.492.088h0z"/></g><path d="M73.17 2.485L.792.748l3.964 43.97 68.413-7.894V7.695v-5.21z" fill="#fff"/><g fill="#000"><path d="M79.433 76.738a31.34 31.34 0 0 1-20.056-7.498C52.083 62.846 48.04 52.98 47.327 39.8a.86.86 0 0 1 .195-.566c.131-.159.315-.267.518-.302a.93.93 0 0 1 .557.208c.158.128.268.305.315.502.714 12.707 4.519 22.179 11.495 28.335 8.879 7.814 19.819 7.103 19.977 7.103a.8.8 0 0 1 .584.175.79.79 0 0 1 .112 1.116c-.134.163-.327.266-.537.287-.363.088-.738.115-1.11.079h0z"/><path d="M4.757 45.558a.85.85 0 0 1-.476-.158 1.27 1.27 0 0 1-.317-.553L0 .882A.9.9 0 0 1 .238.25C.32.167.419.102.529.061A.79.79 0 0 1 .872.014L73.249 1.75c.21 0 .412.083.561.231s.232.349.232.558a.74.74 0 0 1-.046.31c-.037.099-.096.189-.17.264s-.165.133-.265.17a.75.75 0 0 1-.311.046L1.744 1.671l3.805 42.308 66.907-7.736V7.828a.79.79 0 0 1 .232-.558c.148-.148.35-.231.561-.231s.412.083.561.231.232.349.232.558v29.126a.84.84 0 0 1-.714.789L4.915 45.637c-.041-.045-.098-.073-.159-.079h0zM27.62 28.057a.74.74 0 0 1-.285-.113c-.086-.057-.159-.132-.214-.219-.116-.172-.16-.383-.121-.587a.79.79 0 0 1 .327-.503l12.303-8.393a.8.8 0 0 1 .585-.117.79.79 0 0 1 .501.322l3.234 4.737 8.506-5.803c.173-.116.385-.159.589-.121s.386.156.505.326a.76.76 0 0 1 .117.582.79.79 0 0 1-.324.499l-9.156 6.245c-.171.114-.38.157-.583.12s-.383-.151-.503-.318l-3.234-4.737-11.653 7.911a.74.74 0 0 1-.279.147.75.75 0 0 1-.315.019h0z"/><path d="M51.901 23.75c-.103-.019-.2-.058-.288-.115a.79.79 0 0 1-.222-.216c-.059-.086-.1-.182-.122-.284s-.022-.207-.003-.309l.793-4.192-4.202-.79c-.21-.038-.397-.157-.519-.332a.8.8 0 0 1 .202-1.116.81.81 0 0 1 .602-.131l4.994.932c.105.013.206.049.296.104s.167.129.227.217a.74.74 0 0 1 .103.603l-.935 5.037c-.06.192-.186.356-.355.464a.86.86 0 0 1-.572.128h0z"/></g></svg>