<svg xmlns="http://www.w3.org/2000/svg" viewBox="0 0 223 240" fill="none" xmlns:v="https://vecta.io/nano"><style><![CDATA[.B{fill:#000}.C{fill:#fff}.D{fill:#7286c0}.E{fill:#e3e6ed}]]></style><path d="M36.733 51.895v25.246h8.324 6.8 8.324V51.895H36.733z" class="C"/><path d="M60.182 77.759H36.674c-.078.005-.157-.007-.23-.037a.55.55 0 0 1-.196-.136.6.6 0 0 1-.126-.21c-.028-.079-.039-.163-.034-.247V51.883a.63.63 0 0 1 .034-.247.6.6 0 0 1 .126-.21c.056-.06.122-.106.196-.136s.152-.042.23-.037h23.508c.078-.006.157.007.23.037s.14.076.196.136a.6.6 0 0 1 .126.21.63.63 0 0 1 .034.247v25.246c0 .167-.062.327-.172.445s-.259.184-.414.184zm-22.863-1.259h22.335V52.513H37.319v23.987z" class="B"/><path d="M68.588 26.545a5.05 5.05 0 0 1-.992-2.087c-.169-.771-.162-1.576.021-2.343s.537-1.477 1.03-2.066 1.113-1.041 1.804-1.318a4.28 4.28 0 0 1 2.168-.27 4.39 4.39 0 0 1 2.037.84 4.82 4.82 0 0 1 1.443 1.758c.342.703.52 1.483.52 2.276a5.74 5.74 0 0 1-.176 1.448v1.763h7.386V1.297H60.322v25.248h8.266" class="C"/><path d="M83.689 27.212h-7.386c-.078.006-.157-.007-.23-.037a.55.55 0 0 1-.196-.136c-.055-.06-.099-.131-.126-.21s-.039-.163-.034-.247v-1.952c.12-.407.179-.832.176-1.259 0-1.135-.42-2.224-1.168-3.027s-1.761-1.254-2.819-1.254-2.071.451-2.819 1.254-1.168 1.892-1.168 3.027a4.6 4.6 0 0 0 .997 2.833.71.71 0 0 1 .148.329c.021.122.01.247-.03.364a.62.62 0 0 1-.212.272.56.56 0 0 1-.316.106h-8.324c-.078.006-.157-.007-.23-.037a.55.55 0 0 1-.196-.135.6.6 0 0 1-.126-.21c-.028-.079-.039-.163-.034-.247V1.399c-.005-.084.007-.168.034-.247a.6.6 0 0 1 .126-.21.55.55 0 0 1 .196-.135c.073-.03.152-.042.23-.037h23.508c.078-.006.157.007.23.037a.55.55 0 0 1 .196.135.6.6 0 0 1 .126.21.63.63 0 0 1 .034.247v25.246c-.001.079-.018.158-.049.23a.58.58 0 0 1-.13.19.53.53 0 0 1-.19.119c-.07.025-.144.035-.218.028h0zm-6.8-1.259h6.214V1.966H60.768v23.987h6.648a5.72 5.72 0 0 1-.586-2.581c0-1.469.543-2.879 1.511-3.918s2.28-1.623 3.648-1.623 2.68.584 3.648 1.623 1.511 2.448 1.511 3.918c-.001.509-.06 1.017-.176 1.511v1.07h-.082z" class="B"/><path d="M63.23 34.393c-1.101-.02-2.169.407-2.99 1.196v-8.94h-8.324c.483-.599.823-1.316.992-2.087s.162-1.576-.021-2.343-.536-1.477-1.03-2.066-1.113-1.041-1.804-1.318a4.28 4.28 0 0 0-2.167-.27 4.39 4.39 0 0 0-2.037.84c-.606.452-1.101 1.055-1.443 1.758s-.52 1.483-.52 2.276c-.018 1.183.379 2.329 1.114 3.211h-8.324v25.246h8.324c-.483.599-.823 1.316-.992 2.087s-.162 1.576.021 2.343.537 1.477 1.03 2.066 1.113 1.041 1.804 1.318a4.28 4.28 0 0 0 2.168.27 4.39 4.39 0 0 0 2.037-.84 4.82 4.82 0 0 0 1.443-1.758c.342-.703.52-1.483.52-2.276.018-1.183-.379-2.329-1.114-3.211h8.324v-8.94c.663.615 1.476 1.013 2.343 1.146a4.29 4.29 0 0 0 2.548-.396c.797-.391 1.472-1.02 1.945-1.812a5.18 5.18 0 0 0 .372-4.52 4.9 4.9 0 0 0-.994-1.578 4.52 4.52 0 0 0-1.482-1.047 4.26 4.26 0 0 0-1.743-.356h0z" class="C"/><path d="M48.457 60.647c-1.368-.002-2.679-.586-3.646-1.625s-1.511-2.447-1.513-3.916c.006-.898.207-1.781.586-2.581h-7.21c-.078.006-.157-.007-.23-.037s-.14-.076-.196-.135a.6.6 0 0 1-.126-.21.63.63 0 0 1-.034-.247V26.649a.63.63 0 0 1 .034-.247.6.6 0 0 1 .126-.21c.056-.06.122-.106.196-.135s.152-.042.23-.037h7.21a5.72 5.72 0 0 1-.586-2.581c0-1.469.544-2.879 1.511-3.918s2.28-1.623 3.648-1.623 2.68.584 3.648 1.623 1.511 2.448 1.511 3.918c-.006.898-.207 1.781-.586 2.581h7.211c.078-.006.157.007.23.037s.14.076.196.135a.6.6 0 0 1 .126.21.63.63 0 0 1 .034.247v7.744c.74-.422 1.566-.638 2.404-.63 1.368 0 2.68.584 3.648 1.623s1.511 2.448 1.511 3.918-.543 2.879-1.511 3.918-2.28 1.623-3.648 1.623a5.09 5.09 0 0 1-2.404-.63v7.731a.63.63 0 0 1-.034.247.6.6 0 0 1-.126.21.55.55 0 0 1-.196.136c-.073.03-.152.042-.23.037H53.03a5.72 5.72 0 0 1 .586 2.581c-.011 1.461-.559 2.858-1.526 3.887s-2.273 1.605-3.633 1.603h0zm-11.138-9.381h7.738a.56.56 0 0 1 .315.106.62.62 0 0 1 .212.272.61.61 0 0 1 .052.368c-.021.125-.081.24-.169.325a4.35 4.35 0 0 0-.997 2.833c0 1.135.42 2.224 1.168 3.027s1.762 1.254 2.819 1.254 2.071-.451 2.819-1.254 1.168-1.892 1.168-3.027c-.01-1.041-.363-2.045-.997-2.833-.076-.093-.127-.207-.148-.329s-.01-.248.03-.364a.62.62 0 0 1 .212-.272.56.56 0 0 1 .315-.106h7.738v-8.31a.66.66 0 0 1 .098-.339.6.6 0 0 1 .253-.228.5.5 0 0 1 .343-.056c.117.023.223.087.302.182.723.699 1.665 1.081 2.638 1.07 1.057 0 2.071-.451 2.819-1.254s1.168-1.892 1.168-3.027-.42-2.224-1.168-3.027-1.761-1.254-2.819-1.254c-.969.011-1.904.39-2.638 1.07a.62.62 0 0 1-.306.159.6.6 0 0 1-.339-.033.6.6 0 0 1-.253-.228.66.66 0 0 1-.098-.339v-8.31h-7.738a.56.56 0 0 1-.315-.106.62.62 0 0 1-.212-.272.61.61 0 0 1-.052-.368c.021-.125.081-.24.169-.325a4.35 4.35 0 0 0 .997-2.833c0-1.135-.42-2.224-1.168-3.027s-1.761-1.254-2.819-1.254-2.071.451-2.819 1.254-1.168 1.892-1.168 3.027c.01 1.041.363 2.045.997 2.833.076.093.127.207.148.329s.01.248-.03.364a.62.62 0 0 1-.212.272.56.56 0 0 1-.315.106h-7.738v23.924z" class="B"/><path d="M75.365 51.895a5.05 5.05 0 0 1 .992 2.087c.169.772.162 1.575-.021 2.343s-.537 1.477-1.03 2.066-1.113 1.041-1.804 1.318a4.28 4.28 0 0 1-2.168.27 4.39 4.39 0 0 1-2.037-.84c-.606-.452-1.101-1.055-1.443-1.758s-.52-1.483-.52-2.276c-.019-1.183.379-2.329 1.114-3.211h-8.324v8.94c-.558-.518-1.225-.884-1.943-1.066s-1.467-.174-2.182.023-1.375.576-1.924 1.106a4.94 4.94 0 0 0-1.227 1.938 5.25 5.25 0 0 0-.251 2.328 5.13 5.13 0 0 0 .782 2.188c.421.651.983 1.183 1.637 1.55s1.381.559 2.119.559c1.101.02 2.169-.407 2.99-1.196v8.94h23.508v-25.26h-8.266v-.05z" class="C"/><path d="M83.689 77.759H60.182c-.078.006-.157-.007-.23-.037a.55.55 0 0 1-.196-.135.6.6 0 0 1-.126-.21.63.63 0 0 1-.034-.247v-7.744c-.74.422-1.566.638-2.404.63-1.368 0-2.68-.584-3.648-1.623s-1.511-2.448-1.511-3.918.544-2.879 1.511-3.918 2.28-1.623 3.648-1.623a5.09 5.09 0 0 1 2.404.63V51.82a.63.63 0 0 1 .034-.247.6.6 0 0 1 .126-.21.55.55 0 0 1 .196-.136c.073-.03.152-.042.23-.037h8.324a.56.56 0 0 1 .316.106.62.62 0 0 1 .212.272.61.61 0 0 1 .052.368c-.021.125-.081.24-.169.325a4.35 4.35 0 0 0-.997 2.833c0 1.136.42 2.224 1.168 3.027s1.761 1.254 2.819 1.254 2.071-.451 2.819-1.254 1.167-1.892 1.167-3.027c-.01-1.041-.363-2.045-.996-2.833a.71.71 0 0 1-.148-.329c-.021-.122-.01-.248.03-.364a.62.62 0 0 1 .212-.272.56.56 0 0 1 .316-.106h8.324c.078-.006.157.007.23.037a.55.55 0 0 1 .196.136c.055.06.099.131.126.21a.63.63 0 0 1 .034.247v25.247c.018.084.018.172-.001.256s-.054.162-.105.229-.115.12-.188.156-.153.054-.233.051h0zM60.768 76.5h22.335V52.512h-6.624a5.72 5.72 0 0 1 .586 2.581c0 1.469-.543 2.879-1.511 3.918s-2.28 1.623-3.648 1.623-2.68-.584-3.648-1.623-1.511-2.448-1.511-3.918c.006-.898.207-1.781.586-2.581h-6.624v8.311c-.002.121-.036.238-.098.339a.6.6 0 0 1-.253.228.5.5 0 0 1-.343.056c-.117-.023-.223-.087-.302-.182-.723-.699-1.665-1.081-2.638-1.07-1.057 0-2.071.451-2.819 1.254s-1.168 1.892-1.168 3.027.42 2.224 1.168 3.027 1.761 1.254 2.819 1.254c.969-.011 1.904-.39 2.638-1.07a.62.62 0 0 1 .306-.159c.114-.022.23-.011.339.033a.6.6 0 0 1 .253.228c.062.1.096.218.098.339V76.5h.059z" class="B"/><path d="M45.057 26.547c-.483-.599-.823-1.316-.992-2.087s-.162-1.576.021-2.343.537-1.477 1.03-2.066 1.113-1.041 1.804-1.318a4.28 4.28 0 0 1 2.168-.27 4.39 4.39 0 0 1 2.037.84 4.82 4.82 0 0 1 1.443 1.758c.342.702.52 1.483.52 2.276.018 1.183-.379 2.329-1.114 3.211h8.324v-8.94c.558.518 1.225.884 1.943 1.066s1.467.174 2.182-.023 1.375-.576 1.924-1.106a4.94 4.94 0 0 0 1.227-1.938 5.25 5.25 0 0 0 .251-2.328 5.13 5.13 0 0 0-.782-2.188c-.421-.651-.983-1.183-1.637-1.55a4.32 4.32 0 0 0-2.119-.559c-1.101-.02-2.169.407-2.99 1.196v-8.94H36.792v25.246h8.266v.063z" class="C"/><path d="M60.182 27.218h-8.324a.56.56 0 0 1-.316-.106.62.62 0 0 1-.212-.272.61.61 0 0 1-.052-.368c.021-.125.081-.24.169-.325a4.35 4.35 0 0 0 .996-2.833c0-1.136-.42-2.224-1.167-3.027s-1.761-1.254-2.819-1.254-2.071.451-2.819 1.254-1.168 1.892-1.168 3.027c.01 1.041.363 2.045.997 2.833a.71.71 0 0 1 .148.329c.021.122.01.248-.03.364a.62.62 0 0 1-.212.272.56.56 0 0 1-.316.106h-8.324a.52.52 0 0 1-.23-.037.55.55 0 0 1-.196-.136.6.6 0 0 1-.126-.21.63.63 0 0 1-.034-.247V1.341a.63.63 0 0 1 .034-.247.6.6 0 0 1 .126-.21.55.55 0 0 1 .196-.135c.073-.03.152-.042.23-.037H60.24c.078-.006.157.007.23.037a.55.55 0 0 1 .196.135.6.6 0 0 1 .126.21.63.63 0 0 1 .034.247v7.744c.74-.422 1.566-.638 2.404-.63 1.368 0 2.68.584 3.648 1.623s1.511 2.448 1.511 3.918-.543 2.879-1.511 3.918-2.28 1.623-3.648 1.623a5.09 5.09 0 0 1-2.404-.63v7.744a.7.7 0 0 1-.225.412.61.61 0 0 1-.42.155h0zm-7.211-1.259h6.624v-8.311c.002-.121.036-.238.098-.339a.6.6 0 0 1 .253-.228.5.5 0 0 1 .343-.056c.117.023.223.087.302.182.723.7 1.665 1.081 2.638 1.07 1.057 0 2.071-.451 2.819-1.254s1.168-1.892 1.168-3.027-.42-2.225-1.168-3.027-1.762-1.254-2.819-1.254c-.97.011-1.904.39-2.638 1.07a.62.62 0 0 1-.306.159c-.114.022-.231.011-.339-.033a.6.6 0 0 1-.253-.228c-.062-.101-.096-.218-.098-.339V2.033H37.26v23.988h6.624a5.72 5.72 0 0 1-.586-2.581c0-1.469.544-2.879 1.511-3.918s2.28-1.623 3.648-1.623 2.68.584 3.648 1.623 1.511 2.448 1.511 3.918a5.53 5.53 0 0 1-.645 2.518h0z" class="B"/><path d="M145.096 222.909l.645 7.24c-3.869-.252-23.684 3.652-24.153 5.729-.069.257-.087.527-.052.792s.121.519.254.745a1.84 1.84 0 0 0 .517.567c.208.148.442.246.688.289h39.101l-1.113-16.18-15.887.818z" class="C"/><path d="M122.937 239.027a2.23 2.23 0 0 1-.895-.359 2.42 2.42 0 0 1-.688-.711c-.183-.305-.303-.648-.354-1.006s-.03-.723.061-1.072c.117-.504.41-1.826 11.255-4.218 5.218-1.133 10.435-1.952 12.838-2.015l-.586-6.547c-.026-.088-.029-.181-.008-.27a.5.5 0 0 1 .125-.234.55.55 0 0 1 .186-.143c.071-.032.148-.048.225-.046l15.886-.881a.49.49 0 0 1 .218.028c.071.025.135.065.19.118a.59.59 0 0 1 .13.191.62.62 0 0 1 .049.23l1.113 16.179c.005.186-.058.367-.175.504a.55.55 0 0 1-.186.143c-.071.032-.148.048-.225.046h-39.101c-.058 0-.058 0-.058.063zm37.518-16.18l-14.656.818.586 6.548a.66.66 0 0 1-.03.276c-.029.089-.076.169-.138.236s-.137.117-.219.148a.55.55 0 0 1-.257.032c-4.104-.251-22.57 3.589-23.566 5.226-.09.36-.049.743.117 1.07.087.136.2.251.331.338a1.07 1.07 0 0 0 .431.166h38.397l-.996-14.858z" class="B"/><path d="M159.517 222.909l.645 7.24c-3.869-.252-23.742 3.652-24.153 5.729a2.05 2.05 0 0 0-.053.792 1.98 1.98 0 0 0 .255.745 1.84 1.84 0 0 0 .517.567c.208.148.442.246.688.289h39.101l-1.114-16.18-15.886.818z" class="C"/><path d="M137.358 239.027c-.319-.052-.623-.174-.896-.359a2.43 2.43 0 0 1-.687-.711c-.183-.305-.303-.648-.354-1.006s-.03-.723.061-1.072c.117-.504.41-1.826 11.255-4.218 5.217-1.133 10.435-1.952 12.838-2.015l-.586-6.547c-.026-.088-.029-.181-.008-.27a.5.5 0 0 1 .125-.234.55.55 0 0 1 .186-.143c.071-.032.148-.048.225-.046l15.886-.881a.49.49 0 0 1 .218.028c.071.025.135.065.19.118a.59.59 0 0 1 .13.191.62.62 0 0 1 .049.23l1.113 16.179c.005.186-.058.367-.176.504-.051.061-.115.11-.185.143s-.148.048-.225.046h-39.101c-.058 0-.058 0-.058.063zm37.518-16.18l-14.656.818.586 6.548a.66.66 0 0 1-.03.276c-.029.089-.076.169-.138.236s-.137.117-.219.148a.55.55 0 0 1-.257.032c-4.104-.251-22.57 3.589-23.567 5.226-.09.36-.048.743.118 1.07.087.136.2.251.331.338s.278.143.431.166h38.391l-.99-14.858z" class="B"/><g class="D"><path d="M134.72 103.603h25.911l7.621 121.7h-29.429l-4.103-121.7z"/><path d="M149.434 103.603h25.969l7.621 121.7h-29.487l-4.103-121.7z"/></g><path d="M150.489 160.582l-.234-5.668c0-.167.061-.327.171-.446s.259-.184.415-.184.304.066.414.184.172.279.172.446l.235 5.668c0 .167-.062.327-.172.445s-.259.185-.415.185-.304-.067-.414-.185-.172-.278-.172-.445zm2.462 64.717l-2.345-58.736c0-.167.062-.327.172-.445s.259-.185.415-.185a.56.56 0 0 1 .414.185c.11.119.172.278.172.445l2.345 58.736c0 .167-.062.327-.172.445s-.259.185-.414.185c-.079.005-.157-.007-.231-.037s-.14-.076-.195-.135a.61.61 0 0 1-.127-.211c-.028-.079-.039-.163-.034-.247h0z" class="B"/><path d="M102.29 37.265s-.879-5.1-.645-6.485 1.29-1.574 2.462-.692c3.576 2.77 1.173 10.514.704 13.851s1.817 5.981 1.817 5.981l-8.559 5.603c-1.093-2.034-2.62-3.761-4.455-5.037-2.931-1.952-5.159-3.589-6.448-5.981 0 0-1.935-7.114 4.338-10.703s10.787 3.463 10.787 3.463z" class="C"/><path d="M97.249 39.657l7.621-3.652-9.556-23.044-7.621 3.652c.322-1.141.26-2.367-.176-3.463-.294-.734-.75-1.38-1.329-1.882s-1.263-.845-1.992-.999-1.484-.115-2.196.114-1.363.641-1.894 1.2-.927 1.249-1.154 2.01-.278 1.569-.148 2.356.436 1.528.892 2.159 1.048 1.133 1.726 1.463L73.8 23.224l3.4 8.185a4.86 4.86 0 0 1 1.365-1.834c.586-.484 1.273-.807 2.002-.943s1.477-.079 2.18.164a4.53 4.53 0 0 1 1.86 1.234c.518.567.899 1.26 1.113 2.021s.251 1.565.111 2.345-.455 1.511-.916 2.131a4.62 4.62 0 0 1-1.734 1.43 4.12 4.12 0 0 1-3.224.189l3.4 8.185 7.621-3.652c-.322 1.141-.26 2.367.176 3.463.49 1.194 1.401 2.13 2.534 2.602a4.29 4.29 0 0 0 3.505-.084c1.112-.526 1.983-1.505 2.423-2.721s.412-2.57-.078-3.764c-.473-1.094-1.279-1.983-2.286-2.518h0z" class="E"/><path d="M99.476 42.742c-.161-.014-.311-.094-.42-.222s-.168-.297-.166-.47c.108-1.079.438-2.118.965-3.044a7.13 7.13 0 0 1 2.084-2.308c.07-.041.146-.068.224-.077s.159-.003.235.021.148.063.21.116a.63.63 0 0 1 .152.193c.038.075.063.156.072.241s.002.17-.019.252-.059.158-.108.225-.11.122-.179.164c-.7.486-1.29 1.135-1.726 1.897s-.708 1.62-.795 2.511c.058.264-.235.504-.528.504z" class="B"/><path d="M106.569 49.918s-2.286-2.644-1.817-5.981 2.931-11.079-.703-13.849c-1.173-.881-2.228-.756-2.463.692s.645 6.484.645 6.484" class="C"/><path d="M106.569 50.548a.5.5 0 0 1-.224-.046.54.54 0 0 1-.186-.143c-.117-.126-2.462-2.896-1.993-6.485.097-.742.234-1.478.41-2.204.704-3.589 1.759-9.003-.82-11.018-.528-.441-.938-.504-1.173-.378s-.293.441-.352.693c-.175 1.07.411 4.911.645 6.296a.68.68 0 0 1-.089.482c-.088.142-.224.24-.38.273s-.317-.001-.449-.095-.223-.241-.254-.408c-.117-.504-.88-5.226-.645-6.737a2.11 2.11 0 0 1 .327-.968 1.93 1.93 0 0 1 .728-.669c.645-.315 1.466-.063 2.286.567 3.225 2.518 2.052 8.436 1.29 12.34-.176.818-.293 1.574-.41 2.141-.411 3.022 1.641 5.414 1.641 5.414a.57.57 0 0 1 .132.207c.029.079.041.164.036.248s-.029.167-.068.24-.094.137-.158.185c-.095.034-.194.055-.294.063h0z" class="B"/><g class="C"><path d="M156.808 50.227l-.703 8.562c-2.169 1.637-6.39 1.007-6.39 1.007l-.879-4.281-.528.126c-7.386 1.259-8.793-3.148-9.497-5.981-.762-3.085.176-6.044-1.993-6.673-4.338-1.196-3.869-3.022-3.869-3.022 0-2.518 3.869-2.518 3.869-2.518l.821-2.518 20.752.252-1.583 15.046z"/><path d="M156.339 56.712s7.445.315 11.373 6.422 25.208 45.583 25.208 45.583l-15.653 11.081-5.451-15.11-37.636-1.511 2.873-17.062.293-1.637-6.449 2.518c-2.113.826-4.406.969-6.595.409s-4.175-1.796-5.715-3.557L95.554 57.279l15.066-9.885 16.59 23.232s7.21-6.107 12.604-9.066a36.26 36.26 0 0 1 9.438-3.841l7.087-1.007z"/></g><path d="M160.385 32.599s.234-7.492 6.565-5.792c1.935.504 2.932 3.085 3.166 5.477.762 6.547-.938 17.816 4.162 20.083-3.165.504-11.255-2.329-12.662-8.877-.829-3.562-1.242-7.22-1.231-10.891h0z" class="D"/><g class="B"><path d="M139.867 34.173a.55.55 0 0 1-.239-.053.59.59 0 0 1-.198-.153.65.65 0 0 1-.123-.226c-.026-.084-.035-.172-.026-.26l.234-4.155c0-.063.703-6.862 10.728-6.862.155 0 .304.066.414.184s.172.278.172.445-.062.327-.172.445-.259.184-.414.184c-8.969 0-9.556 5.666-9.556 5.729l-.234 4.155c-.001.079-.018.158-.049.23a.58.58 0 0 1-.129.19c-.055.053-.12.094-.19.119s-.145.035-.218.028h0zm6.038 22.225a8.24 8.24 0 0 1-4.28-1.07c-2.11-1.322-2.931-3.589-3.4-5.603a22.33 22.33 0 0 1-.41-3.148c-.117-1.889-.235-2.833-1.231-3.148-2.111-.567-3.459-1.385-4.045-2.455-.224-.373-.307-.823-.235-1.259a2.54 2.54 0 0 1 .179-.961c.121-.304.3-.577.525-.802 1.231-1.322 3.634-1.322 3.752-1.322.155 0 .304.066.414.184s.172.278.172.445-.062.327-.172.445-.259.184-.414.184c-.587 0-2.228.189-2.932.944-.22.233-.347.549-.351.881v.189c-.059.315.469 1.448 3.458 2.267 1.876.567 1.935 2.392 2.052 4.281.038.974.156 1.944.352 2.896.469 1.826 1.114 3.715 2.872 4.785 1.935 1.196 4.807 1.196 8.677.063a.55.55 0 0 1 .499-.003.6.6 0 0 1 .203.167.65.65 0 0 1 .117.244.69.69 0 0 1 .01.275.65.65 0 0 1-.1.253c-.05.076-.116.138-.191.183a.56.56 0 0 1-.245.078 15.71 15.71 0 0 1-5.276 1.007h0z"/><path d="M151.708 60.49a18.54 18.54 0 0 1-2.052-.126.64.64 0 0 1-.3-.181.71.71 0 0 1-.169-.322l-.879-4.281a.68.68 0 0 1 .089-.482.6.6 0 0 1 .38-.274.57.57 0 0 1 .449.095c.132.094.223.241.254.408l.821 3.84c.997.126 3.752.252 5.393-.755l.645-8.184a.65.65 0 0 1 .213-.427c.121-.106.277-.157.432-.14s.299.099.397.229a.67.67 0 0 1 .131.464c0 .252-.469 6.799-.704 8.562-.008.087-.033.171-.074.247a.63.63 0 0 1-.16.194c-1.407.881-3.4 1.133-4.866 1.133zm-8.558-19.209a.88.88 0 0 0 .879-.879.88.88 0 0 0-.879-.879.88.88 0 0 0-.88.879.88.88 0 0 0 .88.879zm3.634.442a.88.88 0 0 0 .879-.879.88.88 0 0 0-.879-.879.88.88 0 0 0-.879.879.88.88 0 0 0 .879.879z"/></g><path d="M136.936 35.621l20.107.63.469 8.311h2.755s2.638-13.474-3.224-16.811c-4.748-2.707-9.849-2.644-13.542-.819-4.748 2.267-6.565 8.689-6.565 8.689z" class="D"/><path d="M160.677 42.673c-.155 0-.304-.066-.414-.184s-.172-.278-.172-.445l-.293-12.655c0-.189-.645-5.666-9.555-5.666-.156 0-.305-.066-.415-.184s-.172-.278-.172-.445.062-.327.172-.445.259-.184.415-.184c10.024 0 10.728 6.799 10.728 6.862l.293 12.718c0 .167-.062.327-.172.445s-.259.184-.415.184z" class="B"/><path d="M163.902 45.022c0 3.337-.879 6.045-3.459 6.045s-4.631-.504-4.631-6.045 2.052-6.045 4.631-6.045 3.459 2.689 3.459 6.045z" class="C"/><g class="B"><path d="M160.502 51.675c-3.224 0-5.218-1.133-5.218-6.674s1.994-6.674 5.218-6.674c1.524 0 4.045.881 4.045 6.674s-2.58 6.674-4.045 6.674zm0-12.088c-2.345 0-4.045.378-4.045 5.414s1.641 5.414 4.045 5.414 2.872-2.959 2.872-5.414-.527-5.414-2.872-5.414z"/><path d="M159.915 51.612h-.175c-.352-.126-2.228-1.007-2.228-6.8 0-5.981 1.934-6.296 2.345-6.359.155 0 .304.066.414.184s.172.278.172.445a.66.66 0 0 1-.15.424.57.57 0 0 1-.378.205c-.058 0-1.231.567-1.231 5.1 0 4.911 1.349 5.603 1.407 5.603a.65.65 0 0 1 .332.298.73.73 0 0 1 .079.457.74.74 0 0 1-.237.306c-.103.077-.224.124-.35.134h0zM127.028 88.38c-1.647-.004-3.277-.37-4.789-1.073s-2.874-1.731-4.004-3.019L95.197 57.719a.75.75 0 0 1-.176-.504c.001-.097.029-.191.082-.27a.45.45 0 0 1 .211-.171l15.066-9.885c.119-.081.263-.114.403-.091a.58.58 0 0 1 .359.216l16.18 22.728c1.7-1.385 7.679-6.233 12.252-8.751a37.89 37.89 0 0 1 9.614-3.904.56.56 0 0 1 .448.095c.132.094.224.241.255.408a.68.68 0 0 1-.089.482c-.088.142-.224.24-.38.273-3.236.791-6.353 2.062-9.262 3.778-5.276 2.959-12.428 8.94-12.545 9.003a.56.56 0 0 1-.411.126.56.56 0 0 1-.23-.08.6.6 0 0 1-.18-.172l-16.238-22.791-14.011 9.192 22.569 26.002c1.453 1.679 3.335 2.861 5.41 3.398s4.25.407 6.256-.376l6.449-2.518a.56.56 0 0 1 .454.019c.143.07.253.2.308.358s.048.334-.018.487-.186.273-.334.331l-6.448 2.518a12.13 12.13 0 0 1-4.163.755h0z"/><path d="M134.245 103.868h-.117a.57.57 0 0 1-.218-.093.62.62 0 0 1-.167-.178c-.044-.07-.074-.149-.088-.233a.67.67 0 0 1 .004-.252l3.81-22.35c.031-.167.123-.314.255-.408a.56.56 0 0 1 .448-.095.6.6 0 0 1 .381.273c.088.142.12.315.088.482l-3.81 22.35c-.043.135-.121.255-.225.344a.67.67 0 0 1-.361.16h0zm4.391-25.877h-.118a.57.57 0 0 1-.217-.093c-.066-.046-.123-.107-.167-.177a.64.64 0 0 1-.088-.233.67.67 0 0 1 .003-.252l.938-5.475c.031-.167.123-.314.255-.408s.293-.129.449-.095a.6.6 0 0 1 .38.273.68.68 0 0 1 .089.482l-.938 5.475c-.032.142-.107.268-.213.359a.59.59 0 0 1-.373.145h0zm38.69 42.498h-.176c-.083-.027-.158-.075-.22-.141s-.106-.147-.131-.236l-13.425-37.083a.68.68 0 0 1 .018-.487c.066-.153.186-.273.334-.331s.311-.052.454.019.253.2.308.358l13.131 36.327 14.597-10.325-24.914-45.016c-3.693-5.792-10.845-6.17-10.963-6.17-.155 0-.304-.066-.414-.184s-.172-.278-.172-.445.062-.327.172-.445.259-.184.414-.184c.294 0 7.797.378 11.842 6.737 3.869 6.107 25.032 45.204 25.266 45.645a.67.67 0 0 1 .058.445c-.032.151-.116.284-.234.374l-15.646 11.08a.41.41 0 0 1-.299.063h0z"/></g><path d="M180.082 117.323s3.095 7.555 3.253 11.282c.176 3.96 2.345 3.872 2.345 3.872s1.483 0 1.653-2.027l.493-5.39s11.489 16.056 15.007 11.825c0 0 1.248-1.222-.54-3.149 0 0 2.175 1.304 3.184.309s.322-3.028-.651-3.866c0 0 2.275.095 2.415-1.435.106-1.127-1.459-2.342-1.459-2.342l-6.361-4.987s4.508 2.097 5.364-.113c.258-1.064-.158-1.933-1.759-2.519s-10.552-5.817-12.34-8.814l-10.604 7.354z" class="C"/><path d="M184.203 132.445l-.123-.107c-.78-.743-1.173-1.964-1.261-3.671-.135-3.569-3.189-11.017-3.195-11.093-.039-.123-.043-.256-.009-.381s.102-.236.197-.318l10.552-7.322c.058-.042.123-.072.191-.087s.139-.016.208-.001a.92.92 0 0 1 .357.239c1.653 2.789 10.552 8.009 12.059 8.544 2.192.743 2.345 2.159 2.104 3.179l-.035.044c-.09.254-.229.485-.408.677s-.393.341-.629.438c-.671.244-1.386.315-2.087.207l4.021 3.111c.158.138 1.759 1.467 1.659 2.87-.105 1.127-.991 1.593-1.893 1.814.347.591.549 1.266.586 1.964.032.349-.012.701-.128 1.029s-.301.622-.54.86c-.306.263-.668.443-1.053.523s-.782.058-1.158-.064a2.74 2.74 0 0 1 .165.938c-.017.541-.215 1.058-.557 1.455-.248.297-.556.53-.9.681s-.717.215-1.088.188c-3.945-.177-10.692-8.588-13.002-11.66-.117 1.051-.229 2.518-.369 4.067.014.637-.202 1.256-.603 1.725a2.23 2.23 0 0 1-1.549.793c-.555-.036-1.084-.261-1.512-.642h0zm-3.471-14.921c.651 1.712 2.967 7.737 3.084 11.068s1.706 3.343 1.759 3.33c.187 0 1.025-.119 1.108-1.479.211-2.695.492-5.396.527-5.44a.65.65 0 0 1 .121-.289c.063-.084.144-.149.237-.189a.54.54 0 0 1 .29.014c.095.031.18.086.249.162 2.415 3.381 9.491 12.151 12.991 12.302a1.28 1.28 0 0 0 .668-.105c.211-.095.396-.245.539-.436l.035-.044c.085-.094.151-.204.195-.325a1.05 1.05 0 0 0 .063-.381c-.067-.646-.366-1.24-.832-1.655-.086-.101-.138-.23-.145-.367a.62.62 0 0 1 .104-.383c.072-.106.178-.181.298-.21s.245-.01.353.053c.475.265 1.952.97 2.556.34.121-.129.215-.284.275-.456a1.33 1.33 0 0 0 .07-.539c-.021-.391-.116-.774-.279-1.124s-.391-.662-.67-.916a.56.56 0 0 1-.162-.291.59.59 0 0 1 .217-.599.53.53 0 0 1 .291-.111s1.758.032 1.876-.9c.046-.598-.821-1.492-1.226-1.845l-6.36-4.992c-.053-.035-.098-.082-.134-.136s-.062-.116-.075-.181a.55.55 0 0 1-.005-.198c.011-.065.034-.128.067-.184a.51.51 0 0 1 .115-.16.49.49 0 0 1 .163-.1c.06-.022.123-.03.186-.026a.46.46 0 0 1 .181.053c.78.384 3.049 1.196 4.151.711.202-.085.368-.246.469-.453.105-.415.246-1.227-1.401-1.788s-9.925-5.414-12.311-8.556l-9.638 6.825z" class="B"/><path d="M202.311 133.717s-6.835-4.54-8.928-8.355z" class="C"/><path d="M197.439 130.645c-1.758-1.511-3.564-3.368-4.513-5.036a.6.6 0 0 1-.058-.43c.035-.146.122-.271.242-.347s.265-.1.4-.062a.53.53 0 0 1 .324.26c2.034 3.62 8.682 8.14 8.723 8.184a.5.5 0 0 1 .154.147.55.55 0 0 1 .085.203.57.57 0 0 1-.001.222c-.015.073-.044.142-.085.202a.56.56 0 0 1-.142.16.51.51 0 0 1-.189.088c-.068.015-.138.015-.206.001s-.133-.044-.19-.085c-.123-.101-2.304-1.562-4.544-3.507z" class="B"/><path d="M204.832 130.078s-6.507-3.898-8.465-6.738z" class="C"/><path d="M198.143 126.041a13.88 13.88 0 0 1-2.198-2.335c-.051-.057-.09-.124-.115-.199a.57.57 0 0 1-.027-.232.58.58 0 0 1 .066-.223.53.53 0 0 1 .146-.173c.059-.046.128-.077.2-.092a.47.47 0 0 1 .217.006.5.5 0 0 1 .196.103.55.55 0 0 1 .138.181c1.864 2.687 8.207 6.521 8.336 6.546.067.032.127.077.176.135a.59.59 0 0 1 .112.199c.024.074.034.153.029.231s-.025.155-.059.224a.6.6 0 0 1-.137.181.53.53 0 0 1-.193.106.51.51 0 0 1-.216.016c-.073-.011-.142-.038-.205-.079a52.35 52.35 0 0 1-6.466-4.595h0zm24.187 113.6H.586a.59.59 0 0 1-.415-.172c-.11-.11-.171-.259-.171-.415s.062-.304.172-.414.259-.172.415-.172h221.827c.078-.005.156.007.23.034a.55.55 0 0 1 .322.322.56.56 0 0 1 .034.23.59.59 0 0 1-.051.245c-.035.077-.085.146-.149.202a.59.59 0 0 1-.219.121c-.081.024-.166.03-.25.019z" class="B"/><path d="M47.179 152.213c8.628 0 15.623-7.512 15.623-16.779s-6.995-16.778-15.623-16.778-15.623 7.512-15.623 16.778 6.995 16.779 15.623 16.779z" class="E"/><g class="B"><path d="M30.401 141.133c-5.616-.863-10.083-2.43-10.171-4.829-.064-1.706 2.005-3.21 6.032-4.469.077-.047.163-.075.252-.081a.54.54 0 0 1 .259.047c.082.036.155.092.214.163a.64.64 0 0 1 .127.247.67.67 0 0 1 .013.282c-.016.094-.051.183-.103.26s-.12.14-.198.185a.56.56 0 0 1-.254.074c-3.904 1.215-5.247 2.518-5.229 3.273.07 1.644 6.05 4.137 19.345 4.489.077.003.153.023.223.058s.133.083.185.144a.64.64 0 0 1 .12.21c.027.078.039.16.036.243a.67.67 0 0 1-.054.239.63.63 0 0 1-.135.199.59.59 0 0 1-.195.128c-.072.028-.149.041-.226.038-3.427-.085-6.847-.386-10.241-.9h0zm23.743.194c-.134-.017-.258-.08-.351-.178a.59.59 0 0 1 .34-.989c3.654-.312 7.286-.847 10.874-1.602a.6.6 0 0 1 .619.916c-.087.133-.224.225-.379.257a81.37 81.37 0 0 1-10.992 1.638l-.111-.042zm14.262-2.43a.58.58 0 0 1-.313-.206.66.66 0 0 1-.137-.367.67.67 0 0 1 .093-.382.59.59 0 0 1 .287-.247c3.429-1.171 4.643-2.36 4.619-3.059 0-.818-1.595-2.065-6.02-3.059a.56.56 0 0 1-.232-.086.61.61 0 0 1-.179-.181c-.047-.073-.079-.156-.094-.243a.68.68 0 0 1 .007-.264.65.65 0 0 1 .107-.237.61.61 0 0 1 .188-.17.55.55 0 0 1 .236-.072c.083-.006.165.007.243.038 4.543 1.014 6.865 2.442 6.912 4.268 0 1.573-1.759 3.059-5.428 4.311-.105-.081-.17-.025-.287-.044zm-21.772-2.857c-.767-.115-1.471-.519-1.987-1.139a3.67 3.67 0 0 1-.833-2.248 3.66 3.66 0 0 1 .197-1.354 3.47 3.47 0 0 1 .675-1.163 3.19 3.19 0 0 1 1.045-.787c.394-.184.819-.281 1.248-.285.87-.022 1.714.322 2.351.96s1.015 1.519 1.055 2.453a.72.72 0 0 1-.157.456.63.63 0 0 1-.4.23c-.159-.001-.311-.067-.426-.184a.7.7 0 0 1-.196-.446 2.38 2.38 0 0 0-.661-1.581c-.404-.414-.943-.642-1.502-.635-.565.023-1.1.277-1.495.712a2.06 2.06 0 0 0-.458.733 2.19 2.19 0 0 0-.129.872c.018.599.254 1.167.658 1.581a2.06 2.06 0 0 0 1.5.635c.155-.009.308.049.424.16a.65.65 0 0 1 .194.435.66.66 0 0 1-.149.456.58.58 0 0 1-.405.209l-.551-.07z"/><path d="M46.792 141.843c-.656-.109-1.267-.421-1.759-.9-.313-.321-.563-.705-.736-1.131a3.72 3.72 0 0 1-.272-1.348c-.004-.083.007-.165.032-.244s.065-.15.117-.211a.59.59 0 0 1 .183-.148.56.56 0 0 1 .222-.061c.077-.005.154.007.227.035s.14.07.197.125a.63.63 0 0 1 .138.196.67.67 0 0 1 .057.239c.02.607.255 1.183.657 1.611.193.215.427.383.686.491a1.8 1.8 0 0 0 .815.138c.277-.007.55-.072.804-.192s.483-.292.675-.507.342-.469.442-.746.149-.573.143-.871-.067-.591-.179-.863a2.28 2.28 0 0 0-.473-.724 2.1 2.1 0 0 0-.695-.475 1.99 1.99 0 0 0-.811-.153c-.077.005-.154-.007-.227-.035s-.14-.07-.197-.125a.63.63 0 0 1-.138-.196c-.033-.075-.053-.156-.057-.239s.007-.165.032-.243a.65.65 0 0 1 .117-.212c.051-.061.114-.111.183-.147s.145-.057.222-.061c.87-.024 1.714.32 2.35.958a3.68 3.68 0 0 1 1.05 2.452c.018.46-.049.919-.197 1.351a3.55 3.55 0 0 1-.664 1.166 3.15 3.15 0 0 1-1.049.804c-.398.188-.827.285-1.261.285a1.44 1.44 0 0 1-.633-.019h0z"/><path d="M47.314 143.893a.58.58 0 0 1-.349-.187.6.6 0 0 1-.155-.37l-.059-2.097a.61.61 0 0 1 .149-.434c.051-.058.114-.106.183-.14a.57.57 0 0 1 .222-.058c.077-.004.154.007.227.033a.57.57 0 0 1 .197.119.59.59 0 0 1 .137.187.61.61 0 0 1 .057.227l.059 2.097a.65.65 0 0 1-.162.424.63.63 0 0 1-.395.211l-.111-.012zm-.375-13.794a.58.58 0 0 1-.348-.186.61.61 0 0 1-.157-.369l-.059-2.109a.62.62 0 0 1 .032-.233.6.6 0 0 1 .117-.202c.051-.059.114-.108.183-.142a.57.57 0 0 1 .222-.058c.077-.004.154.007.227.033a.58.58 0 0 1 .197.12c.057.053.104.117.138.188a.6.6 0 0 1 .057.228l.059 2.109a.67.67 0 0 1-.174.435.63.63 0 0 1-.412.204l-.082-.018z"/></g><path d="M108.187 195.447c6.456 0 11.689-5.621 11.689-12.554s-5.233-12.555-11.689-12.555-11.689 5.621-11.689 12.555 5.233 12.554 11.689 12.554z" class="E"/><g class="B"><path d="M108.187 183.53h-.117c-.666-.189-1.243-.638-1.618-1.259a2.98 2.98 0 0 1-.363-1.568c.025-.549.199-1.079.501-1.522a2.65 2.65 0 0 1 1.199-.975 2.44 2.44 0 0 1 1.5-.104c.667.187 1.245.637 1.618 1.259a2.91 2.91 0 0 1 .342 1.024 2.94 2.94 0 0 1-.055 1.086c.001.096-.02.191-.059.278s-.097.163-.168.222a.58.58 0 0 1-.242.119c-.088.019-.178.016-.265-.008s-.168-.07-.236-.133-.121-.143-.156-.231-.05-.186-.045-.282.031-.19.075-.274c.057-.198.071-.409.041-.614s-.105-.4-.217-.57a1.38 1.38 0 0 0-.367-.438c-.149-.117-.32-.2-.5-.242a1.18 1.18 0 0 0-.568-.045c-.19.032-.371.109-.528.228-.167.092-.311.224-.422.385a1.36 1.36 0 0 0-.217.547c-.058.198-.072.409-.042.614s.105.4.217.57c.092.173.217.324.366.442s.321.201.502.244c.074.017.143.051.204.099s.112.108.15.178.062.147.071.227a.66.66 0 0 1-.02.239c-.04.137-.116.258-.219.347a.64.64 0 0 1-.362.157h0z"/><path d="M107.665 187.804c-.212.01-.425-.011-.633-.063-.671-.182-1.251-.633-1.624-1.259-.176-.315-.292-.664-.341-1.027a2.97 2.97 0 0 1 .054-1.088.67.67 0 0 1 .062-.277c.04-.086.098-.162.169-.22s.154-.098.242-.117.178-.015.265.01.166.07.234.134a.64.64 0 0 1 .155.23c.035.089.05.185.044.281a.66.66 0 0 1-.075.273 1.48 1.48 0 0 0-.036.61 1.44 1.44 0 0 0 .212.568c.087.178.21.332.36.451a1.18 1.18 0 0 0 .508.235 1.18 1.18 0 0 0 .571.044c.191-.033.373-.113.531-.233.16-.099.299-.234.408-.394a1.48 1.48 0 0 0 .225-.538c.057-.197.072-.406.042-.61s-.102-.398-.212-.567a1.39 1.39 0 0 0-.367-.441 1.29 1.29 0 0 0-.501-.245c-.115-.067-.206-.174-.259-.303s-.063-.274-.03-.41a.64.64 0 0 1 .213-.343.56.56 0 0 1 .364-.128c.667.187 1.244.637 1.618 1.259a2.92 2.92 0 0 1 .344 1.023 2.96 2.96 0 0 1-.051 1.086c-.173.719-.592 1.342-1.173 1.744-.416.196-.864.303-1.319.315h0z"/><path d="M106.856 189.1h-.117a.54.54 0 0 1-.354-.257.55.55 0 0 1-.071-.212.56.56 0 0 1 .021-.223l.345-1.506a.55.55 0 0 1 .094-.204c.045-.061.102-.112.167-.15a.56.56 0 0 1 .213-.071c.076-.009.152-.002.224.02.074.016.143.048.204.092a.54.54 0 0 1 .15.166.55.55 0 0 1 .071.211.56.56 0 0 1-.02.223l-.346 1.507c-.052.113-.133.21-.235.282s-.222.113-.346.122h0zm2.257-9.994h-.117a.55.55 0 0 1-.204-.093c-.061-.045-.112-.102-.15-.167a.54.54 0 0 1-.07-.214.54.54 0 0 1 .02-.223l.346-1.501a.58.58 0 0 1 .663-.289c.127.033.24.108.319.212a.59.59 0 0 1 .12.364l-.346 1.507c-.04.121-.118.226-.222.299a.58.58 0 0 1-.359.105zm57.526-63.738c-.077.003-.153-.013-.224-.046s-.134-.081-.186-.142c-.107-.118-.167-.276-.167-.441s.06-.323.167-.441c0 0 2.228-2.518.293-9.632-.879-3.148-3.107-6.799-5.334-10.325-3.107-5.037-6.038-9.821-5.511-13.599.41-3.085 1.583-5.036 2.697-6.925 1.172-2.015 2.403-4.029 2.872-7.618.88-6.925-1.348-13.599-1.348-13.661a.68.68 0 0 1 .018-.487c.066-.153.186-.273.334-.331a.56.56 0 0 1 .454.019c.143.07.253.2.308.358a35.79 35.79 0 0 1 1.407 14.228c-.469 3.903-1.759 6.044-3.049 8.184a15.62 15.62 0 0 0-2.52 6.421c-.469 3.337 2.52 8.121 5.334 12.717 2.228 3.588 4.514 7.365 5.452 10.703 2.169 7.87-.469 10.766-.586 10.891a1.02 1.02 0 0 1-.411.126h0z"/><path d="M170.848 120.911c-.082.009-.165-.013-.234-.063-5.804-2.833-5.686-9.694-5.686-9.82 0-.167.061-.327.171-.445s.259-.184.415-.184.304.066.414.184.172.278.172.445c0 .252-.059 6.169 5.042 8.624.138.068.246.192.301.345s.052.322-.008.473a.74.74 0 0 1-.237.306c-.103.078-.224.124-.35.135h0z"/></g></svg>