<svg width="138" height="36" viewBox="0 0 138 36" fill="none" xmlns="http://www.w3.org/2000/svg">
<path d="M68.4309 26.2342H68.4449C70.5386 26.2342 71.1147 25.63 71.1147 23.4098V15.7939C71.1147 12.7447 70.1873 11.3817 68.1218 11.3817C66.815 11.3817 65.4098 12.1124 63.9625 13.5597L63.9063 13.6159V23.3958C63.9063 25.5035 64.5527 26.178 66.6323 26.2201V26.726H57.5831V26.2201C59.6908 26.178 60.3091 25.5316 60.3091 23.3958V14.2061C60.3091 12.1124 59.8876 11.3396 58.7353 11.3396C58.3559 11.3396 57.7658 11.4801 57.288 11.6487V11.1148L62.5433 9.51288C62.7541 9.45667 62.9367 9.42857 63.1054 9.42857C63.6253 9.42857 63.8923 9.75175 63.8923 10.3841V12.4777L64.2154 12.0984C66.1405 9.82201 67.7564 8.92271 69.9766 8.92271C73.1382 8.92271 74.6838 10.9461 74.6838 15.0913V23.4239C74.6838 25.5597 75.3583 26.2482 77.452 26.2482V26.7541H68.4309V26.2342Z" fill="#173B3F"/>
<path d="M84.8572 27.2881C82.5949 27.2881 80.8244 26.5152 79.4614 24.8993C78.1125 23.3255 77.4239 21.2459 77.4239 18.7447C77.4239 16.0328 78.2249 13.7845 79.8689 11.8454C81.5129 9.86416 83.5644 8.90866 86.164 8.90866C87.808 8.90866 89.0867 9.37236 89.9438 10.2717L90.267 10.6089V5.69086C90.267 3.00702 89.8314 2.14988 88.4544 2.14988C88.1171 2.14988 87.527 2.27634 87.1054 2.41685L87.1195 1.86885L92.9509 0.0421474C93.0211 0.0280958 93.0914 0.0140442 93.1616 0.0140442C93.541 0.0140442 93.8502 0.323178 93.8502 0.702569V21.6253C93.8502 24.3794 94.2998 25.7424 95.3256 26.0234C95.5644 26.0937 96.1546 26.1499 96.9415 26.1639V26.6838L91.2647 26.6276H90.267V24.8431L89.9579 25.1101C88.2858 26.5855 86.6136 27.2881 84.8572 27.2881ZM86.1921 9.97658C83.3818 9.97658 81.4848 12.9555 81.4848 17.3817C81.4848 22.0609 83.6769 25.3349 86.7963 25.3349C87.9064 25.3349 89.0586 24.7869 90.2249 23.7049L90.2811 23.6487V15.5129C90.2951 12 88.8057 9.97658 86.1921 9.97658Z" fill="#173B3F"/>
<path d="M104.628 27.2881C102.295 27.2881 100.398 26.4731 98.8103 24.7869C97.3068 23.1007 96.534 20.9508 96.534 18.4075C96.534 15.6253 97.2928 13.3349 98.7682 11.5785C100.272 9.80796 102.281 8.92271 104.74 8.92271C108.998 8.92271 111.766 11.6066 111.85 15.7799H99.3865V15.9625C99.3865 20.8946 101.845 23.9578 105.808 23.9578C108.323 23.9578 110.192 22.7354 111.372 20.3044L111.794 20.6136C111.415 22.4965 110.586 24.0843 109.335 25.3349C108.014 26.6557 106.482 27.2881 104.628 27.2881ZM103.813 10.0468C101.48 10.0468 99.5972 12 99.4286 14.5995L99.4146 14.7963H107.831L107.817 14.5995C107.663 11.7049 106.201 10.0468 103.813 10.0468Z" fill="#173B3F"/>
<path d="M114.295 5.84543C114.295 3.28806 113.832 2.43091 112.483 2.43091C112.103 2.43091 111.499 2.52927 111.077 2.66979V2.19204L116.796 0.0421547C116.867 0.0140517 116.951 0 117.035 0H117.19C117.569 0 117.878 0.309134 117.878 0.688525V23.4239C117.878 25.4473 118.595 26.2061 120.604 26.2483V26.7541H114.295V5.84543Z" fill="#173B3F"/>
<path d="M133.18 27.2881C131.747 27.2881 131.045 26.459 131.002 24.7447L130.988 24.3513L130.693 24.6042C128.656 26.3747 126.857 27.2881 125.354 27.2881C122.628 27.2881 120.927 25.6581 120.927 23.0585C120.927 21.6534 121.644 20.4028 123.091 19.2506C124.581 18.0843 127.194 16.8618 130.862 15.6112L130.988 15.5691V15.4426C130.988 11.9719 130.468 9.97658 127.785 9.97658C125.508 9.97658 125.031 11.2131 125.031 12.2529C125.031 14.1218 124.44 15.0351 123.218 15.0351C122.234 15.0351 121.574 14.3466 121.574 13.3208C121.574 12.1405 122.164 11.1429 123.372 10.2717C124.623 9.37236 126.295 8.92271 128.361 8.92271C132.534 8.92271 134.572 10.637 134.572 14.1499V22.0749C134.572 24.3232 134.909 24.8571 135.499 25.0398C135.555 25.0539 135.611 25.0679 135.682 25.0679C136.019 25.0679 136.426 24.8009 136.904 24.2951L137.298 24.7728C135.991 26.445 134.6 27.2881 133.18 27.2881ZM130.749 16.6089C126.014 18.534 124.567 19.8548 124.567 22.2295C124.567 23.8173 125.719 25.0117 127.237 25.0117C128.248 25.0117 129.457 24.4918 130.932 23.4379L131.002 23.3817V16.5105L130.749 16.6089Z" fill="#173B3F"/>
<path d="M53.0585 27.2881C51.6253 27.2881 50.9227 26.459 50.8805 24.7447L50.8665 24.3513L50.5714 24.6042C48.5339 26.3747 46.7353 27.2881 45.2318 27.2881C42.5058 27.2881 40.8056 25.6581 40.8056 23.0585C40.8056 21.6534 41.5222 20.4028 42.9695 19.2506C44.459 18.0843 47.0726 16.8618 50.74 15.6112L50.8665 15.5691V15.4426C50.8665 11.9719 50.3466 9.97658 47.6627 9.97658C45.3864 9.97658 44.9086 11.2131 44.9086 12.2529C44.9086 14.1218 44.3185 15.0351 43.096 15.0351C42.1124 15.0351 41.452 14.3466 41.452 13.3208C41.452 12.1405 42.0421 11.1429 43.2506 10.2717C44.4871 9.37236 46.1733 8.92271 48.2389 8.92271C52.4262 8.92271 54.4496 10.637 54.4496 14.1499V22.0749C54.4496 24.3232 54.7869 24.8571 55.377 25.0398C55.4332 25.0539 55.4894 25.0679 55.5597 25.0679C55.8969 25.0679 56.3044 24.815 56.7822 24.2951L57.1756 24.7728C55.8688 26.445 54.4918 27.2881 53.0585 27.2881ZM50.6276 16.6089C45.8923 18.534 44.4449 19.8407 44.4449 22.2295C44.4449 23.8173 45.5972 25.0117 47.1147 25.0117C48.1264 25.0117 49.3349 24.4918 50.8103 23.4379L50.8805 23.3817V16.5105L50.6276 16.6089Z" fill="#173B3F"/>
<path d="M29.0726 7.68618L29.0586 7.67213L28.8759 7.55971L28.8337 7.53161L18.9696 1.84074L18.8009 1.74238C17.9579 1.26463 16.9883 0.99765 15.9485 0.99765C14.9087 0.99765 13.9391 1.26463 13.1101 1.74238L12.9696 1.82669L12.9274 1.85479L3.00703 7.57376L2.81031 7.68618H2.79625C1.12412 8.71194 0 10.5667 0 12.6745V24.3372C0 26.459 1.12412 28.2998 2.81031 29.3255L2.93677 29.3958L13.0398 35.2272C13.897 35.719 14.8806 36 15.9485 36C17.0024 36 18 35.719 18.8572 35.2272L28.9462 29.3958L28.9743 29.3817C30.7166 28.37 31.897 26.4871 31.897 24.3232V12.6604C31.8829 10.5527 30.7588 8.69789 29.0726 7.68618ZM29.5082 18.6745H29.452C22.1031 18.7026 16.1171 24.7166 16.1171 32.0656C16.1171 32.1639 16.0328 32.2342 15.9485 32.2342C15.8501 32.2342 15.7799 32.1499 15.7799 32.0656V32.0094C15.7518 24.6604 9.73771 18.6745 2.38876 18.6745C2.2904 18.6745 2.22014 18.5902 2.22014 18.5059C2.22014 18.4075 2.30445 18.3372 2.38876 18.3372H2.44497C9.79392 18.3091 15.7799 12.2951 15.7799 4.94613C15.7799 4.84777 15.8642 4.77751 15.9485 4.77751C16.0468 4.77751 16.1171 4.86182 16.1171 4.94613C16.1171 12.3232 22.1171 18.3372 29.5082 18.3372C29.6066 18.3372 29.6768 18.4215 29.6768 18.5059C29.6909 18.6042 29.6066 18.6745 29.5082 18.6745Z" fill="#173B3F"/>
</svg>
