<svg xmlns="http://www.w3.org/2000/svg" fill="none" viewBox="57 57.91 179.03 34.18">
<g filter="url(#filter0_d_1070_12500)">
<rect x="57.0684" y="57.98" width="34.0405" height="34.0405" rx="11.3241" fill="#070707" stroke="url(#paint0_linear_1070_12500)" stroke-width="0.136709"/>
<g clip-path="url(#clip0_1070_12500)">
<circle cx="74.0888" cy="74.9999" r="3.18987" fill="#3A3A3A"/>
<path d="M78.9815 73.065C78.9815 74.6029 77.7574 75.4574 76.2474 75.4574C74.7373 75.4574 73.5132 74.2332 73.5132 72.7232C73.5132 71.2131 75.0791 69.8181 76.5891 69.8181C78.0992 69.8181 78.9815 71.5549 78.9815 73.065Z" fill="#70FF00"/>
</g>
<g filter="url(#filter1_d_1070_12500)">
<path d="M89.2398 74.8859C89.2401 74.924 89.2403 74.9622 89.2403 75.0003H77.9536C77.9536 74.4927 77.8536 73.9901 77.6594 73.5211C77.4651 73.0522 77.1804 72.6261 76.8215 72.2672C76.4626 71.9083 76.0365 71.6236 75.5675 71.4293C75.0986 71.2351 74.596 71.1351 74.0884 71.1351L74.0884 59.8484C74.1265 59.8484 74.1646 59.8485 74.2027 59.8488L74.2023 59.8484H78.9871C84.6498 59.8484 89.2403 64.4389 89.2403 70.1016V74.8864L89.2398 74.8859Z" fill="#70FF00"/>
</g>
</g>
<path d="M102.114 68.0964H107.651C109.154 68.0964 110.309 68.4762 111.114 69.2357C111.934 69.98 112.344 70.9977 112.344 72.2889C112.344 73.2002 112.116 73.9294 111.661 74.4762C111.22 75.023 110.59 75.418 109.769 75.661V75.7749C110.726 76.0028 111.478 76.4205 112.025 77.0281C112.587 77.6205 112.868 78.4635 112.868 79.5572C112.868 80.2256 112.754 80.8332 112.526 81.38C112.314 81.9116 112.002 82.3749 111.592 82.7699C111.197 83.1648 110.711 83.4686 110.134 83.6813C109.572 83.8939 108.934 84.0002 108.22 84.0002H102.114V68.0964ZM107.309 81.8357C108.144 81.8357 108.767 81.6838 109.177 81.38C109.602 81.061 109.815 80.5218 109.815 79.7623V79.0104C109.815 78.2661 109.602 77.742 109.177 77.4382C108.767 77.1192 108.144 76.9597 107.309 76.9597H105.03V81.8357H107.309ZM106.921 74.8863C107.726 74.8863 108.319 74.742 108.699 74.4534C109.094 74.1648 109.291 73.6635 109.291 72.9496V72.1977C109.291 71.4838 109.094 70.9825 108.699 70.6939C108.319 70.4053 107.726 70.261 106.921 70.261H105.03V74.8863H106.921ZM115.594 81.699H119.33V69.4407H115.594V67.1395H122.247V81.699H126.006V84.0002H115.594V81.699ZM134.45 84.2737C133.554 84.2737 132.749 84.1294 132.035 83.8408C131.337 83.5521 130.737 83.142 130.235 82.6104C129.749 82.0787 129.369 81.4332 129.096 80.6737C128.838 79.9142 128.709 79.0635 128.709 78.1218C128.709 77.18 128.838 76.3294 129.096 75.5699C129.369 74.8104 129.749 74.1648 130.235 73.6332C130.737 73.1015 131.337 72.6914 132.035 72.4028C132.749 72.1142 133.554 71.9699 134.45 71.9699C135.331 71.9699 136.129 72.1142 136.843 72.4028C137.557 72.6914 138.157 73.1015 138.643 73.6332C139.144 74.1648 139.524 74.8104 139.782 75.5699C140.055 76.3294 140.192 77.18 140.192 78.1218C140.192 79.0635 140.055 79.9142 139.782 80.6737C139.524 81.4332 139.144 82.0787 138.643 82.6104C138.157 83.142 137.557 83.5521 136.843 83.8408C136.129 84.1294 135.331 84.2737 134.45 84.2737ZM134.45 82.0408C135.286 82.0408 135.947 81.7901 136.433 81.2889C136.919 80.7724 137.162 80.0205 137.162 79.0332V77.2104C137.162 76.223 136.919 75.4787 136.433 74.9775C135.947 74.461 135.286 74.2028 134.45 74.2028C133.615 74.2028 132.954 74.461 132.468 74.9775C131.982 75.4787 131.739 76.223 131.739 77.2104V79.0332C131.739 80.0205 131.982 80.7724 132.468 81.2889C132.954 81.7901 133.615 82.0408 134.45 82.0408ZM148.568 84.2737C147.672 84.2737 146.867 84.1294 146.153 83.8408C145.439 83.5521 144.831 83.142 144.33 82.6104C143.844 82.0787 143.464 81.4332 143.191 80.6737C142.933 79.9142 142.804 79.0635 142.804 78.1218C142.804 77.18 142.933 76.3294 143.191 75.5699C143.464 74.8104 143.844 74.1648 144.33 73.6332C144.831 73.1015 145.431 72.6914 146.13 72.4028C146.844 72.1142 147.649 71.9699 148.545 71.9699C149.791 71.9699 150.793 72.2281 151.553 72.7445C152.312 73.261 152.89 73.9445 153.285 74.7952L151.029 76.0256C150.816 75.5243 150.512 75.1218 150.117 74.818C149.738 74.499 149.214 74.3395 148.545 74.3395C147.68 74.3395 147.011 74.5901 146.54 75.0914C146.085 75.5926 145.857 76.2762 145.857 77.142V79.1015C145.857 79.9521 146.085 80.6357 146.54 81.1521C147.011 81.6534 147.695 81.904 148.591 81.904C149.29 81.904 149.844 81.7445 150.254 81.4256C150.68 81.1066 151.021 80.6813 151.28 80.1496L153.467 81.4483C153.072 82.2838 152.472 82.9673 151.667 83.499C150.877 84.0154 149.844 84.2737 148.568 84.2737ZM156.693 67.1395H159.61V77.0281H159.747L161.455 75.1597L164.349 72.2433H167.744L163.073 76.8686L168.245 84.0002H164.759L161 78.5319L159.61 79.8534V84.0002H156.693V67.1395ZM170.31 81.699H173.226V74.5445H170.31V72.2433H176.143V75.4559H176.325C176.431 75.0458 176.576 74.6509 176.758 74.2711C176.955 73.8762 177.198 73.5344 177.487 73.2458C177.791 72.942 178.155 72.699 178.581 72.5167C179.006 72.3344 179.515 72.2433 180.107 72.2433H181.383V74.9775H178.968C178.087 74.9775 177.396 75.2357 176.895 75.7521C176.393 76.2686 176.143 76.9294 176.143 77.7344V81.699H180.221V84.0002H170.31V81.699ZM193.427 84.0002C192.714 84.0002 192.159 83.8256 191.764 83.4762C191.384 83.1116 191.157 82.6104 191.081 81.9724H190.967C190.754 82.7015 190.336 83.2711 189.714 83.6813C189.091 84.0762 188.324 84.2737 187.412 84.2737C186.227 84.2737 185.286 83.9623 184.587 83.3395C183.888 82.7167 183.539 81.8509 183.539 80.742C183.539 78.3724 185.278 77.1876 188.757 77.1876H190.83V76.4129C190.83 75.6686 190.648 75.1066 190.283 74.7268C189.919 74.3471 189.326 74.1572 188.506 74.1572C187.762 74.1572 187.162 74.3015 186.706 74.5901C186.25 74.8787 185.863 75.2509 185.544 75.7066L183.881 74.2939C184.245 73.6408 184.83 73.0939 185.635 72.6534C186.455 72.1977 187.511 71.9699 188.802 71.9699C190.352 71.9699 191.559 72.3344 192.425 73.0635C193.306 73.7775 193.746 74.8483 193.746 76.2762V81.8129H195.136V84.0002H193.427ZM188.392 82.2686C189.091 82.2686 189.668 82.1091 190.124 81.7901C190.595 81.4559 190.83 81.0078 190.83 80.4458V78.8737H188.825C187.23 78.8737 186.433 79.3749 186.433 80.3775V80.8332C186.433 81.304 186.607 81.661 186.957 81.904C187.306 82.1471 187.784 82.2686 188.392 82.2686ZM205.107 81.9268H204.948C204.629 82.6408 204.188 83.2104 203.626 83.6357C203.079 84.061 202.35 84.2737 201.439 84.2737C200.77 84.2737 200.155 84.1521 199.593 83.9091C199.046 83.6509 198.576 83.2711 198.181 82.7699C197.786 82.2534 197.482 81.6078 197.269 80.8332C197.057 80.0585 196.95 79.1547 196.95 78.1218C196.95 76.0559 197.36 74.5142 198.181 73.4964C199.001 72.4787 200.087 71.9699 201.439 71.9699C202.35 71.9699 203.079 72.1825 203.626 72.6078C204.188 73.0332 204.629 73.6028 204.948 74.3167H205.107V67.1395H208.024V84.0002H205.107V81.9268ZM202.669 81.9496C203.003 81.9496 203.315 81.9116 203.603 81.8357C203.907 81.7445 204.165 81.623 204.378 81.4711C204.606 81.304 204.781 81.099 204.902 80.8559C205.039 80.5977 205.107 80.3015 205.107 79.9673V76.2762C205.107 75.942 205.039 75.6534 204.902 75.4104C204.781 75.1521 204.606 74.9471 204.378 74.7952C204.165 74.6281 203.907 74.5066 203.603 74.4306C203.315 74.3395 203.003 74.2939 202.669 74.2939C201.819 74.2939 201.158 74.5521 200.687 75.0686C200.231 75.5851 200.003 76.2914 200.003 77.1876V79.0559C200.003 79.9521 200.231 80.6585 200.687 81.1749C201.158 81.6914 201.819 81.9496 202.669 81.9496ZM220.751 84.0002C220.038 84.0002 219.483 83.8256 219.088 83.4762C218.708 83.1116 218.481 82.6104 218.405 81.9724H218.291C218.078 82.7015 217.66 83.2711 217.038 83.6813C216.415 84.0762 215.648 84.2737 214.736 84.2737C213.551 84.2737 212.61 83.9623 211.911 83.3395C211.212 82.7167 210.863 81.8509 210.863 80.742C210.863 78.3724 212.602 77.1876 216.081 77.1876H218.154V76.4129C218.154 75.6686 217.972 75.1066 217.607 74.7268C217.243 74.3471 216.65 74.1572 215.83 74.1572C215.086 74.1572 214.486 74.3015 214.03 74.5901C213.574 74.8787 213.187 75.2509 212.868 75.7066L211.205 74.2939C211.569 73.6408 212.154 73.0939 212.959 72.6534C213.779 72.1977 214.835 71.9699 216.126 71.9699C217.676 71.9699 218.883 72.3344 219.749 73.0635C220.63 73.7775 221.07 74.8483 221.07 76.2762V81.8129H222.46V84.0002H220.751ZM215.716 82.2686C216.415 82.2686 216.992 82.1091 217.448 81.7901C217.919 81.4559 218.154 81.0078 218.154 80.4458V78.8737H216.149C214.554 78.8737 213.757 79.3749 213.757 80.3775V80.8332C213.757 81.304 213.931 81.661 214.281 81.904C214.63 82.1471 215.108 82.2686 215.716 82.2686ZM224.958 81.699H227.874V74.5445H224.958V72.2433H230.791V75.4559H230.973C231.079 75.0458 231.224 74.6509 231.406 74.2711C231.603 73.8762 231.846 73.5344 232.135 73.2458C232.439 72.942 232.803 72.699 233.229 72.5167C233.654 72.3344 234.163 72.2433 234.755 72.2433H236.031V74.9775H233.616C232.735 74.9775 232.044 75.2357 231.543 75.7521C231.041 76.2686 230.791 76.9294 230.791 77.7344V81.699H234.869V84.0002H224.958V81.699Z" fill="#8E8E8E"/>
<defs>
<filter id="filter0_d_1070_12500" x="0.0379753" y="0.949596" width="148.101" height="148.101" filterUnits="userSpaceOnUse" color-interpolation-filters="sRGB">
<feFlood flood-opacity="0" result="BackgroundImageFix"/>
<feColorMatrix in="SourceAlpha" type="matrix" values="0 0 0 0 0 0 0 0 0 0 0 0 0 0 0 0 0 0 127 0" result="hardAlpha"/>
<feOffset/>
<feGaussianBlur stdDeviation="28.481"/>
<feComposite in2="hardAlpha" operator="out"/>
<feColorMatrix type="matrix" values="0 0 0 0 0.730518 0 0 0 0 0.730518 0 0 0 0 0.730518 0 0 0 0.3 0"/>
<feBlend mode="normal" in2="BackgroundImageFix" result="effect1_dropShadow_1070_12500"/>
<feBlend mode="normal" in="SourceGraphic" in2="effect1_dropShadow_1070_12500" result="shape"/>
</filter>
<filter id="filter1_d_1070_12500" x="72.7247" y="58.4847" width="17.8792" height="17.8792" filterUnits="userSpaceOnUse" color-interpolation-filters="sRGB">
<feFlood flood-opacity="0" result="BackgroundImageFix"/>
<feColorMatrix in="SourceAlpha" type="matrix" values="0 0 0 0 0 0 0 0 0 0 0 0 0 0 0 0 0 0 127 0" result="hardAlpha"/>
<feOffset/>
<feGaussianBlur stdDeviation="0.681836"/>
<feColorMatrix type="matrix" values="0 0 0 0 0.443137 0 0 0 0 1 0 0 0 0 0.0117647 0 0 0 1 0"/>
<feBlend mode="normal" in2="BackgroundImageFix" result="effect1_dropShadow_1070_12500"/>
<feBlend mode="normal" in="SourceGraphic" in2="effect1_dropShadow_1070_12500" result="shape"/>
</filter>
<linearGradient id="paint0_linear_1070_12500" x1="95.5697" y1="38.5461" x2="74.0886" y2="92.0888" gradientUnits="userSpaceOnUse">
<stop stop-color="#777777"/>
<stop offset="1"/>
<stop offset="1.0001" stop-opacity="0"/>
</linearGradient>
<clipPath id="clip0_1070_12500">
<rect x="70.8989" y="71.8101" width="6.37975" height="6.37975" rx="3.18987" fill="white"/>
</clipPath>
</defs>
</svg>