<svg viewBox="0 0 146 27" fill="none" xmlns="http://www.w3.org/2000/svg" style="width: 100%; height: 100%;"><path d="M12.9875 0.433105V26.5752C9.57747 26.4899 6.33573 25.0754 3.95403 22.6334C1.57233 20.1914 0.239258 16.9153 0.239258 13.5042C0.239258 10.093 1.57233 6.81693 3.95403 4.37493C6.33573 1.93293 9.57747 0.518377 12.9875 0.433105Z" fill="#6055E0"></path><path d="M27.4504 11.182H14.585V0.433105C17.649 0.433373 20.6157 1.50972 22.9671 3.47428C25.3184 5.43883 26.9052 8.16678 27.4504 11.182Z" fill="#6055E0"></path><path d="M14.585 15.0146C14.9562 18.198 16.4837 21.1341 18.8773 23.2654C21.2709 25.3966 24.3639 26.5745 27.5688 26.5753V15.0146H14.585Z" fill="#6055E0"></path><path d="M45.4048 20.4646C44.0255 20.4646 42.7952 20.159 41.7138 19.5477C40.648 18.9365 39.8174 18.0353 39.2218 16.8441C38.6262 15.653 38.3284 14.2033 38.3284 12.4949C38.3284 10.8179 38.6419 9.38383 39.2688 8.19269C39.8957 7.00155 40.7891 6.08468 41.9489 5.44209C43.1243 4.7995 44.5036 4.47821 46.0865 4.47821C47.8419 4.47821 49.2603 4.7995 50.3417 5.44209C51.4232 6.06901 52.2617 7.07208 52.8572 8.45129L49.1192 9.93238C48.9155 9.13307 48.555 8.55317 48.0378 8.19269C47.5206 7.83221 46.878 7.65198 46.11 7.65198C45.3421 7.65198 44.6838 7.84005 44.1352 8.2162C43.5867 8.57668 43.1714 9.11739 42.8892 9.83835C42.6071 10.5436 42.4661 11.4213 42.4661 12.4714C42.4661 13.5685 42.6071 14.4854 42.8892 15.222C43.187 15.9586 43.618 16.5072 44.1823 16.8677C44.7622 17.2125 45.4753 17.3849 46.3216 17.3849C46.7761 17.3849 47.1915 17.33 47.5676 17.2203C47.9438 17.1106 48.2729 16.9539 48.555 16.7501C48.8371 16.5307 49.0565 16.2642 49.2133 15.9508C49.37 15.6217 49.4484 15.2377 49.4484 14.7988V14.5637H45.8984V11.8602H52.8807V20.2295H50.1301L49.8245 16.5855L50.4828 17.1498C50.1536 18.2155 49.5581 19.0384 48.6961 19.6182C47.8497 20.1825 46.7526 20.4646 45.4048 20.4646ZM55.6938 20.2295V8.4748H59.2202L59.3848 11.0138C59.6825 10.1361 60.1214 9.45436 60.7013 8.9685C61.2968 8.48264 62.0491 8.23971 62.9582 8.23971C63.256 8.23971 63.5067 8.26322 63.7105 8.31024C63.9299 8.35726 64.1023 8.41995 64.2277 8.49831L63.828 11.7896C63.6713 11.7269 63.4675 11.6799 63.2168 11.6486C62.9817 11.6016 62.6917 11.578 62.3469 11.578C61.8767 11.578 61.4379 11.6799 61.0304 11.8837C60.6229 12.0874 60.2938 12.393 60.043 12.8005C59.8079 13.1924 59.6904 13.6939 59.6904 14.3051V20.2295H55.6938ZM71.2529 8.23971C72.4911 8.23971 73.5725 8.48264 74.4972 8.9685C75.4376 9.43869 76.1664 10.1361 76.6836 11.0608C77.2165 11.9699 77.4829 13.067 77.4829 14.3521C77.4829 15.6373 77.2165 16.7423 76.6836 17.667C76.1664 18.576 75.4376 19.2734 74.4972 19.7593C73.5725 20.2295 72.4911 20.4646 71.2529 20.4646C70.0461 20.4646 68.9725 20.2295 68.0322 19.7593C67.0918 19.2734 66.3552 18.576 65.8223 17.667C65.3051 16.7423 65.0465 15.6373 65.0465 14.3521C65.0465 13.067 65.3051 11.9699 65.8223 11.0608C66.3552 10.1361 67.0918 9.43869 68.0322 8.9685C68.9725 8.48264 70.0461 8.23971 71.2529 8.23971ZM71.2529 11.0843C70.7984 11.0843 70.4066 11.1941 70.0775 11.4135C69.7483 11.6329 69.4976 11.9855 69.3252 12.4714C69.1528 12.9573 69.0666 13.5842 69.0666 14.3521C69.0666 15.1201 69.1528 15.747 69.3252 16.2329C69.4976 16.7031 69.7483 17.0557 70.0775 17.2908C70.4066 17.5102 70.7984 17.62 71.2529 17.62C71.7231 17.62 72.1228 17.5102 72.4519 17.2908C72.7811 17.0557 73.0318 16.7031 73.2042 16.2329C73.3766 15.747 73.4628 15.1201 73.4628 14.3521C73.4628 13.5842 73.3766 12.9573 73.2042 12.4714C73.0318 11.9855 72.7811 11.6329 72.4519 11.4135C72.1228 11.1941 71.7231 11.0843 71.2529 11.0843ZM87.1651 8.4748H91.3028L87.0711 20.2295H82.2987L78.067 8.4748H82.2752L84.6966 17.4319L87.1651 8.4748ZM98.2323 20.4646C96.9315 20.4646 95.803 20.2217 94.847 19.7358C93.9066 19.2499 93.1778 18.5525 92.6606 17.6435C92.1434 16.7344 91.8848 15.6373 91.8848 14.3521C91.8848 13.067 92.1434 11.9699 92.6606 11.0608C93.1778 10.1518 93.8988 9.45436 94.8235 8.9685C95.7639 8.48264 96.8375 8.23971 98.0443 8.23971C99.2824 8.23971 100.333 8.48264 101.195 8.9685C102.072 9.43869 102.738 10.097 103.193 10.9433C103.647 11.774 103.875 12.73 103.875 13.8114C103.875 14.0935 103.867 14.3757 103.851 14.6578C103.835 14.9399 103.812 15.175 103.781 15.3631H94.4708V13.2237H102.017L100.113 13.9525C100.113 13.0121 99.9407 12.2912 99.5959 11.7896C99.2668 11.2881 98.7495 11.0373 98.0443 11.0373C97.5427 11.0373 97.1117 11.1549 96.7513 11.39C96.4064 11.6251 96.14 11.9934 95.9519 12.4949C95.7795 12.9964 95.6933 13.639 95.6933 14.4227C95.6933 15.1906 95.7952 15.8176 95.999 16.3034C96.2027 16.7736 96.4926 17.1184 96.8688 17.3378C97.2449 17.5416 97.6995 17.6435 98.2323 17.6435C98.8279 17.6435 99.2981 17.5259 99.6429 17.2908C100.003 17.0557 100.27 16.7266 100.442 16.3034L103.639 17.3613C103.42 18.0353 103.036 18.6073 102.488 19.0775C101.955 19.532 101.312 19.8769 100.56 20.1119C99.8231 20.347 99.0473 20.4646 98.2323 20.4646ZM106.11 25.1665V8.4748H109.707L109.919 12.73L109.449 12.2363C109.558 11.4527 109.801 10.763 110.177 10.1675C110.554 9.57191 111.04 9.10172 111.635 8.75692C112.231 8.41211 112.912 8.23971 113.68 8.23971C114.652 8.23971 115.498 8.48264 116.219 8.9685C116.94 9.43869 117.497 10.1283 117.889 11.0373C118.296 11.9307 118.5 13.0199 118.5 14.3051C118.5 15.5903 118.296 16.6952 117.889 17.62C117.481 18.5447 116.909 19.2499 116.172 19.7358C115.451 20.2217 114.605 20.4646 113.633 20.4646C112.568 20.4646 111.706 20.1511 111.047 19.5242C110.389 18.8816 109.95 18.0745 109.731 17.1027L110.107 16.5385V25.1665H106.11ZM112.27 17.5259C112.959 17.5259 113.5 17.2751 113.892 16.7736C114.284 16.2564 114.48 15.4493 114.48 14.3521C114.48 13.255 114.284 12.4557 113.892 11.9542C113.516 11.437 112.983 11.1784 112.293 11.1784C111.854 11.1784 111.471 11.3038 111.141 11.5545C110.812 11.7896 110.554 12.1423 110.366 12.6125C110.193 13.0826 110.107 13.6625 110.107 14.3521C110.107 15.0104 110.185 15.5825 110.342 16.0683C110.514 16.5385 110.765 16.899 111.094 17.1498C111.423 17.4005 111.815 17.5259 112.27 17.5259ZM127.294 12.777C127.294 12.2285 127.137 11.7975 126.824 11.484C126.526 11.1549 126.119 10.9903 125.601 10.9903C125.084 10.9903 124.637 11.1235 124.261 11.39C123.901 11.6407 123.65 12.0952 123.509 12.7535L120.124 11.9542C120.343 10.8257 120.923 9.92455 121.863 9.25061C122.804 8.57668 124.128 8.23971 125.836 8.23971C126.981 8.23971 127.952 8.41211 128.752 8.75692C129.567 9.08605 130.186 9.58758 130.609 10.2615C131.048 10.9198 131.267 11.7348 131.267 12.7065V17.0087C131.267 17.62 131.541 17.9256 132.09 17.9256C132.372 17.9256 132.599 17.8942 132.772 17.8315L132.537 20.1119C132.066 20.3314 131.494 20.4411 130.82 20.4411C130.209 20.4411 129.668 20.347 129.198 20.159C128.728 19.9552 128.36 19.6574 128.093 19.2656C127.827 18.8581 127.694 18.3487 127.694 17.7375V17.5964L128.14 17.4319C128.14 18.1058 127.937 18.67 127.529 19.1246C127.137 19.5791 126.62 19.916 125.977 20.1355C125.351 20.3549 124.692 20.4646 124.003 20.4646C123.203 20.4646 122.506 20.3392 121.91 20.0884C121.315 19.8377 120.852 19.4772 120.523 19.007C120.21 18.5211 120.053 17.9256 120.053 17.2203C120.053 16.374 120.304 15.6765 120.805 15.128C121.323 14.5637 122.13 14.1719 123.227 13.9525L127.67 13.0356L127.647 15.1515L125.39 15.6217C124.92 15.7157 124.567 15.8567 124.332 16.0448C124.112 16.2172 124.003 16.4837 124.003 16.8441C124.003 17.1889 124.128 17.4475 124.379 17.62C124.63 17.7924 124.927 17.8786 125.272 17.8786C125.539 17.8786 125.789 17.8394 126.024 17.761C126.275 17.6826 126.495 17.5651 126.683 17.4084C126.871 17.236 127.02 17.0244 127.129 16.7736C127.239 16.5228 127.294 16.2251 127.294 15.8803V12.777ZM145.417 8.4748L141.138 20.2295C140.699 21.4677 140.221 22.455 139.704 23.1917C139.187 23.9283 138.576 24.4612 137.87 24.7903C137.165 25.1194 136.319 25.284 135.331 25.284C134.673 25.284 134.07 25.2135 133.521 25.0724C132.972 24.9314 132.494 24.7355 132.087 24.4847L132.886 21.7811C133.168 21.9849 133.466 22.1259 133.78 22.2043C134.093 22.2983 134.493 22.3453 134.979 22.3453C135.433 22.3453 135.801 22.267 136.084 22.1102C136.381 21.9535 136.616 21.6557 136.789 21.2169L137.094 20.4881L135.731 17.2908L132.204 8.4748H136.601L138.411 15.175L138.975 17.667L139.633 15.0809L141.444 8.4748H145.417Z" fill="#6055E0"></path></svg>