<svg width="1125" height="267" fill="none" id="svg1350206117_4623"  xmlns="http://www.w3.org/2000/svg" xmlns:xlink="http://www.w3.org/1999/xlink">
<path fill-rule="evenodd" clip-rule="evenodd" d="M253.389 196.336c2.407-8.843.459-13.835-1.387-16.168-1.845-2.333-6.254-5.378-15.414-5.072-9.149.305-20.878 4.155-31.934 12.901-11.056 8.745-17.503 19.273-19.906 28.105-2.407 8.844-.459 13.836 1.386 16.169 1.846 2.333 6.255 5.377 15.415 5.072 9.148-.306 20.878-4.156 31.934-12.901 11.056-8.745 17.502-19.273 19.906-28.106Zm-1.52 51.35c31.027-24.542 41.493-63.003 23.378-85.905-18.116-22.901-57.953-21.571-88.98 2.971-31.026 24.543-41.493 63.004-23.377 85.905 18.115 22.902 57.953 21.572 88.979-2.971Zm-221.121-51.35c-2.406-8.843-.459-13.835 1.387-16.168 1.845-2.333 6.255-5.378 15.415-5.072 9.148.305 20.877 4.155 31.933 12.901 11.056 8.745 17.503 19.273 19.907 28.105 2.406 8.844.459 13.836-1.387 16.169-1.845 2.333-6.255 5.377-15.415 5.072-9.148-.306-20.877-4.156-31.933-12.901-11.056-8.745-17.503-19.273-19.907-28.106Zm1.52 51.35C1.24 223.144-9.225 184.683 8.89 161.781c18.116-22.901 57.953-21.571 88.98 2.971 31.027 24.543 41.493 63.004 23.378 85.905-18.116 22.902-57.954 21.572-88.98-2.971ZM30.743 70.664c-2.406 8.843-.459 13.835 1.387 16.168 1.845 2.333 6.255 5.378 15.414 5.072 9.149-.305 20.878-4.155 31.934-12.9 11.056-8.746 17.503-19.274 19.907-28.106 2.406-8.844.459-13.836-1.387-16.169-1.845-2.333-6.255-5.377-15.415-5.072-9.148.306-20.877 4.155-31.933 12.901-11.056 8.745-17.503 19.273-19.907 28.106Zm1.52-51.35C1.236 43.856-9.23 82.317 8.885 105.219c18.116 22.901 57.953 21.571 88.98-2.971 31.027-24.543 41.493-63.004 23.378-85.905C103.127-6.56 63.29-5.23 32.263 19.313Zm221.125 51.349c2.406 8.844.459 13.836-1.387 16.169-1.845 2.333-6.255 5.378-15.415 5.072-9.148-.306-20.878-4.155-31.934-12.9-11.055-8.746-17.502-19.274-19.906-28.107-2.406-8.843-.459-13.835 1.387-16.168 1.845-2.333 6.255-5.378 15.414-5.072 9.149.306 20.878 4.155 31.934 12.9 11.056 8.746 17.503 19.274 19.907 28.106Zm-1.52-51.35c31.026 24.543 41.493 63.004 23.378 85.905-18.116 22.902-57.954 21.572-88.98-2.97-31.027-24.543-41.493-63.004-23.378-85.906 18.116-22.901 57.953-21.571 88.98 2.971Z" fill="#000"/>
<path d="M375.97 59.091v5.152c0 5.409-1.288 9.53-3.606 14.166-1.031 2.576-2.834 5.667-.258 6.955 2.576 1.288 4.121-2.06 4.637-3.091 8.242-14.424 21.894-25.243 43.015-25.243 35.288 0 59.242 30.91 59.242 70.061 0 39.152-23.954 70.061-59.242 70.061-20.606 0-34.773-10.561-43.015-25.5-.516-.773-1.546-3.348-3.864-2.576-2.833 1.031-1.803 3.606-.515 6.182 2.318 4.636 3.606 8.758 3.606 13.909V238.5H343V59.091h32.97Zm36.061 108.182c23.181 0 34-18.545 34-40.182 0-21.636-10.819-40.182-34-40.182-21.637 0-36.061 18.546-36.061 40.182 0 21.637 14.424 40.182 36.061 40.182Zm79.436-9.53c0-30.137 22.151-41.212 49.454-42.758 24.213-1.288 45.592 1.03 45.334-11.591-.258-9.273-3.864-19.576-27.303-19.576-23.182 0-29.106 9.53-30.909 20.607h-32.455c4.636-34.258 34-47.395 64.394-47.395 31.167 0 59.243 10.303 59.243 62.849v75.213h-32.97v-9.531c0-6.182 1.545-10.56 3.864-14.939 1.03-2.318 2.06-4.894-.258-5.925-2.576-1.03-3.606 1.546-4.121 2.834-7.728 18.803-22.667 29.621-46.879 29.621-25.5 0-47.394-16.485-47.394-39.409Zm94.788-32.712c-7.727 8.5-20.091 9.788-39.667 11.848-14.167 1.546-22.151 6.955-22.151 19.061 0 11.333 10.818 18.545 26.015 16.485 17.515-2.318 35.545-13.652 35.803-47.394Zm86.232-36.834c1.545.258 2.833-1.803 3.091-2.576 8.242-18.803 15.712-28.59 48.939-28.59v33.484c-38.378-2.575-49.454 11.076-49.454 45.591v58.986h-32.97V59.091h32.97v7.47c0 5.924-1.546 11.076-3.864 15.712-1.03 2.318-1.803 5.409 1.288 5.924Zm162.162-.257h-37.091v62.076c0 14.939.257 16.227 14.166 16.227h22.925v28.849H804.77c-27.303 0-40.182-9.016-40.182-41.728V87.94h-24.727V59.09h24.727V29h32.97v30.091h37.091V87.94Zm96.537-30.91c29.364 0 48.94 19.061 48.94 57.698v80.364h-32.97v-69.031c0-30.652-7.985-39.152-25.242-39.152-19.061 0-36.576 21.379-36.576 52.804v55.379h-32.97V59.091h32.97v8.5c0 8.243-1.546 13.137-4.122 18.546-1.03 2.318-2.575 5.924.773 6.697 2.061.515 2.833-1.03 3.864-3.091 6.182-13.652 21.636-32.713 45.333-32.713Zm65.372 100.713c0-30.137 22.152-41.212 49.452-42.758 24.22-1.288 45.59 1.03 45.34-11.591-.26-9.273-3.87-19.576-27.31-19.576-23.18 0-29.1 9.53-30.91 20.607h-32.45c4.64-34.258 34-47.395 64.39-47.395 31.17 0 59.25 10.303 59.25 62.849v75.213h-32.97v-9.531c0-6.182 1.54-10.56 3.86-14.939 1.03-2.318 2.06-4.894-.26-5.925-2.57-1.03-3.6 1.546-4.12 2.834-7.73 18.803-22.67 29.621-46.88 29.621-25.5 0-47.392-16.485-47.392-39.409Zm94.792-32.712c-7.73 8.5-20.09 9.788-39.67 11.848-14.17 1.546-22.15 6.955-22.15 19.061 0 11.333 10.82 18.545 26.01 16.485 17.52-2.318 35.55-13.652 35.81-47.394Z" fill="#000"/>
</svg>
