<svg width="130" xmlns="http://www.w3.org/2000/svg" id="Layer_1" data-name="Layer 1" viewBox="0 0 1565.51 377.21"><g><path fill="#0231C5" d="m277.49,86.74v85.18l-.41,6.31v.21c-.72,5.8-2.38,11.28-4.86,16.35-1.45,3-3.21,5.9-5.28,8.49-1.55,2.07-3.42,4.04-5.28,5.9-1.66,1.55-3.42,3.11-5.28,4.45-1.66,1.24-3.42,2.38-5.28,3.42-1.76.93-3.52,1.76-5.28,2.59-1.24.52-2.48.93-3.83,1.35l-1.45.52-5.28,1.76-5.28,1.76-5.28,1.76-5.28,1.76-10.56,3.52-.52.21v19.15l-.41.1-3.62,1.14-.83.21-2.79.93-2.48.83-1.14.31-3.62,1.14-.62.21-3,.93-2.28.72-1.35.41-3.62,1.14-.41.1-.52.21h-.21v-37.26c0-1.55.31-3,.72-4.45.1-.31.21-.62.41-.93.83-1.86,2.07-3.52,3.62-4.86.41-.31.83-.72,1.35-1.04.72-.52,1.45-.83,2.28-1.24.21-.1.52-.21.72-.31l.21-.1,2.17-.72.62-.21,3.62-1.14,1.14-.41,5.28-1.76.83-.31,3.62-1.14.93-.31,5.28-1.76,5.28-1.76,5.28-1.76,5.28-1.76,3.83-1.24c.52-.1.93-.31,1.45-.52,1.97-.72,3.73-1.76,5.28-2.9,2.07-1.45,3.83-3.21,5.28-5.18,3.21-4.14,5.07-9.42,5.07-14.9v-85.08c0-5.59-1.76-10.76-5.07-15.01-1.45-1.86-3.11-3.52-5.07-4.97q-.1-.1-.21-.1c-1.66-1.24-3.42-2.17-5.28-2.9-1.76-.72-3.52-1.14-5.28-1.45-1.76-.31-3.52-.31-5.28-.21-1.76.1-3.52.41-5.28.93-.21.1-.52.1-.72.21l-4.55,1.45-5.28,1.66-5.28,1.76-5.69,1.55-5.28,1.76-5.28,1.66-5.28,1.76-5.28,1.66-5.28,1.66-5.28,1.76-5.28,1.66-5.28,1.66-5.28,1.76-5.28,1.66-5.28,1.76-5.28,1.66-5.28,1.76-5.69,1.66-5.28,1.76-3.83,1.24c-.52.21-1.04.31-1.55.52-1.86.72-3.73,1.76-5.28,2.9-2.07,1.45-3.83,3.21-5.28,5.18-3.21,4.24-5.07,9.42-5.07,15.01v33.33c0,3.93.83,7.25,2.07,10.04.1.31.21.52.41.83-.1.1-.31.1-.41.21-.83.41-1.55.72-2.28,1.24-.41.21-.83.52-1.35.72-1.24.72-2.48,1.55-3.62,2.38-.1.1-.31.21-.41.31-1.14.83-2.17,1.66-3.21,2.48-.72.62-1.45,1.24-2.07,1.97-.52.52-1.04.93-1.55,1.45-1.24,1.35-2.48,2.69-3.62,4.14-.1.1-.1.21-.21.31-.72.93-1.35,1.76-1.97,2.69-.52-.72-1.04-1.55-1.45-2.28-.72-1.14-1.35-2.28-1.86-3.52-.62-1.24-1.14-2.59-1.66-3.83-2.38-6-3.62-12.42-3.62-18.94v-33.64c0-8.07,1.86-15.94,5.28-22.77,1.45-3,3.21-5.9,5.28-8.49,1.55-2.07,3.42-4.04,5.28-5.9,1.66-1.55,3.42-3.11,5.28-4.45,1.66-1.24,3.42-2.38,5.28-3.42,1.66-.93,3.42-1.76,5.28-2.59,1.35-.52,2.59-1.04,3.93-1.45l1.35-.41,5.28-1.66,5.28-1.76,5.28-1.66,5.28-1.76,5.28-1.66,5.28-1.76,5.28-1.66,5.28-1.76,5.8-1.66,5.28-1.76,5.28-1.66,5.28-1.66,5.28-1.76,5.28-1.66,5.28-1.76,5.28-1.66,5.28-1.76,5.28-1.66,5.28-1.76,1.76-.52c1.14-.41,2.38-.72,3.62-1.04,1.76-.41,3.52-.83,5.28-1.04,1.76-.21,3.52-.41,5.28-.41,1.76-.1,3.52,0,5.28.1,1.76.1,3.52.31,5.28.62,1.76.31,3.52.72,5.28,1.24,1.76.52,3.62,1.14,5.28,1.86,1.76.72,3.62,1.66,5.28,2.59,1.86,1.04,3.62,2.17,5.28,3.42h.1c1.86,1.35,3.62,2.79,5.28,4.45,1.97,1.76,3.73,3.73,5.28,5.8,2.07,2.69,3.83,5.49,5.28,8.49,3.73,7.14,5.59,14.9,5.59,23.08Z"></path><path fill="#0231C5" d="m184.03,136.63v28.05l-.72.21-1.97.62-3.31,1.04-.21.1-3.62,1.14-1.45.52-2.17.72-.52.1h0l-2.17.72-1.86.62-1.76.52-3.52,1.14h-.1l-3.62,1.14-1.66.52-1.97.62-3.31,1.04-.21.1-3.62,1.14-1.45.52-2.17.72-.52.1-2.69.83-.41.1-3.62,1.14-1.24.41-2.38.72-2.9.93-.62.21-3.62,1.14-1.04.31-1.97.62-.62.21-2.79.93-.83.31-3,.93c-.21.1-.41.1-.62.21-.31.1-.62.21-.83.31-.93.41-1.86.83-2.79,1.35-.83.41-1.76.93-2.59,1.55-.31.21-.72.52-1.04.83-1.35,1.04-2.48,2.17-3.62,3.52-.21.21-.41.52-.62.83-1.14,1.55-2.17,3.21-3,5.07-1.35,3.11-2.07,6.42-2.07,9.94v82.39c0,2.59.72,5.07,2.07,7.14.83,1.35,2.07,2.59,3.42,3.62q.1.1.21.1c1.14.83,2.28,1.45,3.62,1.76,1.14.41,2.38.62,3.62.62,1.14,0,2.38-.1,3.62-.41.31-.1.62-.21.93-.31l2.59-.83,3.62-1.14,3.62-1.14,3.62-1.14,3.62-1.14,1.66-.52c.62-.21,1.24-.52,1.86-.83,1.35-.52,2.48-1.24,3.62-2.17,1.35-1.04,2.59-2.28,3.62-3.73,2.07-2.9,3.21-6.52,3.21-10.25v-58.48l.31-.1,3.62-1.14.21-.1,3.31-1.04,1.97-.62,1.66-.52,3.62-1.14h.1l3.52-1.14,1.76-.52,1.86-.62,3.42-1.14.21-.1,1.14-.41v67.07c0,2.48-.21,5.07-.62,7.45-.21.93-.31,1.76-.52,2.69-.83,3.52-1.97,6.83-3.62,9.94-1.04,2.07-2.28,4.04-3.62,6-1.14,1.55-2.28,3-3.62,4.45-1.14,1.24-2.38,2.38-3.62,3.42-1.14,1.04-2.38,1.86-3.62,2.79-1.14.83-2.38,1.55-3.62,2.28-1.14.62-2.38,1.24-3.62,1.76-.1,0-.21.1-.31.21-1.04.41-2.17.83-3.21,1.24-.31.1-.62.21-.93.31l-2.69.83-7.25,2.28-3.62,1.14-3.62,1.14-1.66.52c-.62.21-1.24.41-1.86.52-1.24.31-2.38.62-3.62.83-1.24.21-2.38.41-3.62.41-1.14.1-2.17.1-3.21.1h-.31c-1.24,0-2.38-.1-3.62-.21-1.24-.1-2.38-.31-3.62-.52s-2.38-.52-3.62-.93c-.72-.21-1.35-.41-2.07-.62-.52-.21-1.04-.41-1.55-.62-1.24-.52-2.38-1.04-3.62-1.66s-2.48-1.35-3.62-2.17c-.52-.31-1.04-.72-1.55-1.04-.72-.52-1.35-1.04-2.07-1.66-1.24-1.04-2.48-2.17-3.62-3.42-1.35-1.35-2.59-2.9-3.62-4.45-1.45-1.97-2.59-4.04-3.62-6.21-2.38-5.18-3.62-10.87-3.62-16.77v-82.39c0-6.62,1.24-13.04,3.62-18.94.52-1.35,1.04-2.59,1.66-3.83s1.24-2.38,1.86-3.52c.41-.83.93-1.55,1.45-2.28.62-.93,1.24-1.86,1.97-2.69,0-.1.1-.21.21-.21,1.14-1.45,2.28-2.79,3.62-4.14.52-.52.93-1.04,1.55-1.45.72-.72,1.35-1.24,2.07-1.86,1.04-.83,2.07-1.76,3.21-2.48.1-.1.31-.21.41-.31,1.14-.83,2.38-1.66,3.62-2.28.41-.21.83-.52,1.35-.72.72-.41,1.55-.83,2.28-1.24.1-.1.21-.1.41-.21.83-.41,1.76-.83,2.59-1.14.21-.1.41-.21.62-.21,1.04-.41,2.17-.83,3.21-1.14l.31-.1,1.04-.31,2.59-.83,2.79-.93.83-.31,3.62-1.14.83-.31,2.79-.83.62-.21,1.97-.62,1.04-.31,3.62-1.14.62-.21,2.9-.93,2.38-.72,1.24-.41,3.62-1.14.41-.1,2.69-.83.52-.1,2.17-.72,1.45-.41,3.62-1.14.21-.1,3.31-1.04,1.97-.62,1.66-.52,3.62-1.14h.1l3.52-1.14,1.76-.52,1.86-.62,2.17-.72h0l.52-.1,2.17-.72,1.45-.52,3.62-1.14.21-.1,3.31-1.04,1.97-.62,1.04-.41Z"></path></g><path fill="#0231C5" d="m433.57,86.41c18.92,0,34.54,6.21,46.87,18.62,12.32,12.41,18.49,28.16,18.49,47.26s-6.16,34.85-18.49,47.26c-12.33,12.41-27.95,18.62-46.87,18.62h-35.41v50.51h-42.18V86.41h77.59Zm-6.51,97.38c8.5,0,15.49-2.95,20.96-8.85,5.47-5.9,8.2-13.45,8.2-22.65s-2.73-16.75-8.2-22.65c-5.47-5.9-12.46-8.85-20.96-8.85h-28.9v63.01h28.9Z"></path><path fill="#0231C5" d="m568.18,272.05c-18.23,0-32.63-6.16-43.22-18.49-10.59-12.32-15.88-28.21-15.88-47.65s5.47-34.89,16.4-47.39c10.94-12.5,25.34-18.75,43.22-18.75,8.85,0,16.75,1.91,23.69,5.73,6.94,3.82,12.15,9.03,15.62,15.62v-17.96h39.58v125.5h-39.58v-17.7c-3.47,6.25-8.81,11.33-16.01,15.23-7.2,3.91-15.15,5.86-23.82,5.86Zm11.46-33.07c9.54,0,16.92-3.12,22.13-9.37,5.21-6.25,7.81-14.15,7.81-23.69s-2.6-17.18-7.81-23.43c-5.21-6.25-12.59-9.37-22.13-9.37-9.03,0-16.27,3.04-21.74,9.11-5.47,6.08-8.2,13.97-8.2,23.69s2.73,17.66,8.2,23.82c5.47,6.16,12.71,9.24,21.74,9.24Z"></path><path fill="#0231C5" d="m765.53,143.17h39.84v121.59c0,19.44-5.99,34.54-17.97,45.3-11.29,9.72-26.65,14.58-46.08,14.58s-35.76-4.34-46.34-13.02c-10.24-8.68-15.45-19.7-15.62-33.07h40.1c.87,11.28,8.16,16.92,21.87,16.92,16.14,0,24.21-9.37,24.21-28.12v-19.53c-7.29,13.89-20.57,20.83-39.84,20.83-15.45,0-27.04-4.69-34.76-14.06-7.73-9.37-11.59-22.22-11.59-38.53v-72.9h39.83v66.91c0,18.05,7.38,27.08,22.13,27.08,7.81,0,13.8-2.82,17.97-8.46,4.17-5.64,6.25-13.41,6.25-23.3v-62.23Z"></path><path fill="#000000" d="m839.47,268.66V86.41h111.44v35.41h-69.26v49.21h69.26v34.63h-69.26v63.01h-42.18Z"></path><path fill="#000000" d="m1090.07,253.82c-12.59,12.5-29.47,18.75-50.64,18.75s-38.1-6.25-50.77-18.75c-12.67-12.5-19.01-28.47-19.01-47.91s6.33-35.36,19.01-47.78c12.67-12.41,29.59-18.62,50.77-18.62s38.05,6.21,50.64,18.62c12.58,12.41,18.88,28.34,18.88,47.78s-6.29,35.41-18.88,47.91Zm-50.64-15.1c9.2,0,16.49-3.03,21.87-9.11,5.38-6.07,8.07-13.97,8.07-23.69s-2.69-17.61-8.07-23.69c-5.38-6.07-12.67-9.11-21.87-9.11s-16.71,3.04-22,9.11c-5.3,6.08-7.94,13.97-7.94,23.69s2.64,17.62,7.94,23.69c5.29,6.08,12.63,9.11,22,9.11Z"></path><path fill="#000000" d="m1131.86,268.66v-125.5h39.84v18.23c7.46-14.41,21-21.61,40.62-21.61,30.55,0,45.82,17.1,45.82,51.29v77.59h-40.1v-64.57c0-10.76-1.69-18.57-5.08-23.43-3.39-4.86-9.07-7.29-17.05-7.29-16.14,0-24.21,9.89-24.21,29.68v65.61h-39.84Z"></path><path fill="#000000" d="m1353.43,237.68c5.55,0,10.15-.26,13.8-.78v31.76c-7.64,1.39-16.49,2.08-26.56,2.08-4.52,0-8.51-.26-11.98-.78-3.47-.52-7.38-1.69-11.72-3.52-4.34-1.82-7.9-4.3-10.68-7.42-2.78-3.13-5.17-7.64-7.16-13.54-2-5.9-2.99-12.84-2.99-20.83v-49.99h-19.79v-31.5h19.79v-37.23h39.84v37.23h28.38v31.5h-28.38v41.66c0,8.51,1.47,14.19,4.43,17.05,2.95,2.86,7.29,4.3,13.02,4.3Z"></path><path fill="#000000" d="m1513.55,199.4c0,5.21-.35,11.02-1.04,17.44h-92.69c.35,8.16,3.12,14.49,8.33,19.01,5.21,4.52,12.24,6.77,21.09,6.77,12.15,0,19.96-3.91,23.43-11.72h39.05c-1.91,12.33-8.64,22.35-20.18,30.07-11.55,7.72-25.65,11.59-42.31,11.59-21.35,0-38.19-5.9-50.51-17.7-12.33-11.8-18.49-28.12-18.49-48.95s6.16-36.67,18.49-48.56c12.32-11.89,28.73-17.83,49.21-17.83s35.23,5.56,47.39,16.66c12.15,11.11,18.23,25.52,18.23,43.22Zm-93.73-7.29h54.42c-.18-8.33-2.52-14.75-7.03-19.27-4.52-4.51-11.02-6.77-19.53-6.77s-15.23,2.39-20.18,7.16c-4.95,4.78-7.51,11.07-7.68,18.88Z"></path></svg>
