<svg width="268" height="84" viewBox="0 0 268 84" fill="none" xmlns="http://www.w3.org/2000/svg">
<g clip-path="url(#clip0_2_744)">
<path d="M258.348 37.3816C258.476 37.3945 258.606 37.3788 258.728 37.3357C258.85 37.2927 258.961 37.2232 259.053 37.1323C259.145 37.0415 259.215 36.9314 259.258 36.81C259.302 36.6885 259.318 36.5589 259.304 36.4306V27.5096L267.854 11.5723C267.931 11.4431 267.979 11.2985 267.995 11.1487C268.01 10.999 267.992 10.8477 267.943 10.7054C267.868 10.5919 267.764 10.5001 267.642 10.439C267.52 10.378 267.384 10.3499 267.248 10.3575H262.102C261.579 10.3575 261.144 10.7054 260.883 11.3954C258.965 15.2037 257.396 18.4077 256.176 21.0074C256.004 20.5764 255.742 20.1405 255.481 19.5327C255.22 18.9248 254.699 17.7979 253.917 16.24C253.136 14.6822 252.354 12.9474 251.474 11.0465C251.368 10.837 251.206 10.6612 251.005 10.5393C250.805 10.4173 250.574 10.354 250.339 10.3565H245.001C244.65 10.3565 244.389 10.4455 244.306 10.7045C244.257 10.8467 244.24 10.998 244.255 11.1478C244.27 11.2975 244.318 11.4421 244.395 11.5714L252.761 27.5086V36.4296C252.741 36.5592 252.751 36.6919 252.792 36.8166C252.833 36.9413 252.903 37.0546 252.996 37.147C253.089 37.2399 253.204 37.3094 253.329 37.35C253.455 37.3905 253.588 37.401 253.718 37.3806L258.348 37.3816ZM229.305 26.3837C230.524 22.1411 231.313 19.2795 231.749 17.7217C231.812 18.0732 231.899 18.42 232.01 18.7596C232.182 19.3675 232.444 20.4054 232.882 21.7893C233.321 23.1732 233.755 24.734 234.278 26.2909H229.305V26.3837ZM225.379 37.3816C225.616 37.3894 225.848 37.3162 226.039 37.1741C226.229 37.032 226.365 36.8294 226.424 36.5997L227.82 32.1851H235.758L237.064 36.6046C237.124 36.8343 237.26 37.0369 237.45 37.179C237.64 37.3211 237.873 37.3943 238.11 37.3864H243.167C243.518 37.3864 243.779 37.2975 243.862 37.1265C244.034 36.9554 244.034 36.6955 243.951 36.3446L235.931 11.2244C235.871 10.9947 235.735 10.7921 235.545 10.65C235.355 10.5079 235.122 10.4347 234.885 10.4425H228.956C228.718 10.4347 228.486 10.5079 228.295 10.65C228.105 10.7921 227.969 10.9947 227.91 11.2244L219.628 36.3417C219.539 36.6896 219.539 36.9496 219.717 37.1235C219.806 37.2159 219.915 37.2872 220.035 37.3322C220.155 37.3772 220.284 37.3947 220.412 37.3835L225.379 37.3816ZM201.848 31.2332V16.5108C202.256 16.5109 202.664 16.4812 203.067 16.4218C203.762 16.4218 204.202 16.3329 204.552 16.3329C208.824 16.3329 210.914 18.6658 210.914 23.4371C211.046 24.6972 210.868 25.9705 210.397 27.1466C209.926 28.3228 209.176 29.3665 208.211 30.1875C206.92 30.9409 205.427 31.2733 203.939 31.1384H201.847L201.848 31.2332ZM202.983 37.3816C205.758 37.5767 208.539 37.0958 211.088 35.9801C213.146 34.9819 214.851 33.3794 215.975 31.3866C217.32 29.0167 217.984 26.321 217.893 23.5974C217.927 22.0175 217.721 20.4416 217.281 18.9238C216.654 16.5371 215.24 14.4316 213.268 12.9474C212.392 12.2662 211.424 11.7121 210.392 11.3016C208.323 10.5757 206.133 10.2529 203.942 10.3507C201.672 10.3507 199.409 10.3507 197.05 10.4396C196.57 10.4065 196.09 10.4959 195.654 10.6996C195.393 10.8706 195.22 11.3075 195.22 12.0854V36.499C195.22 37.189 195.481 37.45 196.178 37.45H202.975L202.983 37.3816ZM189.91 37.3816C190.039 37.3945 190.169 37.3788 190.291 37.3357C190.413 37.2927 190.524 37.2232 190.616 37.1323C190.708 37.0415 190.778 36.9314 190.821 36.81C190.865 36.6885 190.88 36.5589 190.867 36.4306V32.4451C190.88 32.3168 190.865 32.1872 190.821 32.0657C190.778 31.9443 190.708 31.8342 190.616 31.7434C190.524 31.6525 190.413 31.5831 190.291 31.54C190.169 31.4969 190.039 31.4812 189.91 31.4941H180.645V26.6319H188.232C188.361 26.6448 188.491 26.6292 188.613 26.5861C188.735 26.543 188.846 26.4736 188.938 26.3827C189.03 26.2919 189.1 26.1818 189.143 26.0603C189.187 25.9389 189.202 25.8093 189.189 25.681V21.8802C189.212 21.7493 189.202 21.6149 189.162 21.4883C189.122 21.3618 189.052 21.2468 188.957 21.1531C188.863 21.0589 188.747 20.9886 188.62 20.948C188.493 20.9073 188.358 20.8976 188.226 20.9195H180.645V16.4238H189.127C189.255 16.4371 189.385 16.4218 189.507 16.3791C189.63 16.3363 189.741 16.2672 189.833 16.1765C189.925 16.0862 189.995 15.9765 190.039 15.8554C190.083 15.7343 190.1 15.605 190.087 15.4767V11.4013C190.1 11.273 190.085 11.1434 190.041 11.022C189.998 10.9005 189.928 10.7904 189.836 10.6996C189.744 10.6087 189.633 10.5393 189.511 10.4962C189.389 10.4531 189.259 10.4375 189.13 10.4504H175.061C174.932 10.4375 174.802 10.4531 174.68 10.4962C174.558 10.5393 174.447 10.6087 174.355 10.6996C174.264 10.7904 174.194 10.9005 174.15 11.022C174.107 11.1434 174.091 11.273 174.104 11.4013V36.4306C174.084 36.5602 174.094 36.6929 174.135 36.8176C174.176 36.9423 174.245 37.0556 174.339 37.148C174.432 37.2408 174.546 37.3104 174.672 37.3509C174.797 37.3915 174.931 37.402 175.061 37.3816H189.91ZM150.144 37.3816C150.272 37.3942 150.402 37.3784 150.524 37.3353C150.645 37.2922 150.756 37.2229 150.848 37.1323C150.939 37.0415 151.009 36.9314 151.053 36.81C151.096 36.6885 151.112 36.5589 151.099 36.4306V22.0522L155.699 30.2676C155.871 30.6155 156.222 30.6986 156.745 30.6986H157.005C157.526 30.6986 157.962 30.3526 158.311 29.6607L162.494 21.9545V36.3417C162.474 36.4713 162.484 36.6039 162.525 36.7287C162.566 36.8534 162.636 36.9666 162.729 37.059C162.823 37.1519 162.937 37.2214 163.062 37.262C163.188 37.3026 163.321 37.3131 163.451 37.2926H168.248C168.377 37.3055 168.507 37.2899 168.629 37.2468C168.751 37.2037 168.862 37.1343 168.954 37.0434C169.045 36.9526 169.115 36.8425 169.159 36.721C169.202 36.5996 169.218 36.47 169.205 36.3417V11.4169C169.218 11.2886 169.202 11.159 169.159 11.0376C169.115 10.9162 169.045 10.806 168.954 10.7152C168.862 10.6243 168.751 10.5549 168.629 10.5118C168.507 10.4687 168.377 10.4531 168.248 10.466H163.72C163.485 10.4635 163.255 10.5268 163.054 10.6487C162.853 10.7707 162.691 10.9464 162.585 11.156L156.833 21.3778L150.903 11.0534C150.798 10.8444 150.636 10.6691 150.436 10.5472C150.237 10.4252 150.007 10.3616 149.773 10.3634H145.235C145.106 10.3505 144.976 10.3661 144.854 10.4092C144.732 10.4523 144.621 10.5217 144.529 10.6126C144.438 10.7034 144.368 10.8136 144.324 10.935C144.281 11.0564 144.265 11.186 144.278 11.3143V36.3427C144.278 37.0327 144.539 37.2936 145.236 37.2936H150.122L150.144 37.3816ZM126.615 26.3837C127.834 22.1411 128.622 19.2795 129.058 17.7217C129.121 18.0732 129.208 18.42 129.319 18.7596C129.491 19.3675 129.753 20.4054 130.192 21.7893C130.631 23.1732 131.065 24.734 131.587 26.2909H126.615V26.3837ZM122.652 37.3816C122.889 37.3894 123.122 37.3162 123.312 37.1741C123.502 37.032 123.638 36.8294 123.697 36.5997L125.09 32.1793H133.028L134.331 36.6036C134.39 36.8333 134.526 37.0359 134.716 37.178C134.907 37.3201 135.139 37.3933 135.377 37.3855H140.433C140.784 37.3855 141.045 37.2965 141.128 37.1255C141.3 36.9545 141.3 36.6945 141.217 36.3436L133.174 11.2264C133.114 10.9966 132.978 10.7941 132.788 10.6519C132.598 10.5098 132.365 10.4367 132.128 10.4445H126.219C125.982 10.4367 125.749 10.5098 125.559 10.6519C125.369 10.7941 125.233 10.9966 125.173 11.2264L116.895 36.3427C116.806 36.6906 116.806 36.9506 116.984 37.1245C117.073 37.2169 117.182 37.2882 117.302 37.3332C117.422 37.3782 117.551 37.3957 117.679 37.3845L122.652 37.3816ZM105.296 37.9005C107.917 38.0728 110.513 37.3049 112.618 35.7348C113.507 34.9511 114.205 33.9741 114.658 32.8789C115.111 31.7837 115.307 30.5992 115.232 29.4164C115.256 28.5375 115.137 27.6606 114.881 26.8196C114.643 26.0844 114.257 25.4059 113.746 24.8259C113.219 24.2171 112.602 23.6924 111.916 23.2699C111.084 22.7363 110.21 22.2728 109.301 21.8841L107.216 20.9234C106.484 20.5464 105.783 20.1111 105.121 19.6216C104.902 19.3927 104.734 19.1195 104.628 18.8204C104.522 18.5212 104.482 18.2029 104.51 17.8868C104.489 17.5599 104.559 17.2337 104.712 16.9441C104.866 16.6545 105.096 16.4129 105.378 16.2459C106.07 15.8611 106.859 15.6814 107.65 15.7279C109.511 15.7362 111.34 16.2128 112.968 17.1138C113.098 17.1989 113.25 17.2443 113.405 17.2443C113.56 17.2443 113.712 17.1989 113.841 17.1138C114.102 17.0248 114.192 16.7658 114.192 16.3319V12.3493C114.21 12.1224 114.162 11.895 114.054 11.6949C113.945 11.4948 113.781 11.3306 113.58 11.2224C111.384 10.3734 109.044 9.96262 106.69 10.0135C104.278 9.88926 101.899 10.626 99.9797 12.0923C99.1227 12.8415 98.4489 13.7774 98.0103 14.8279C97.5716 15.8783 97.3797 17.0154 97.4494 18.1517C97.4503 19.0906 97.5943 20.024 97.8765 20.9195C98.1232 21.7203 98.5388 22.4588 99.0952 23.0852C99.613 23.6719 100.199 24.1943 100.842 24.6411C101.53 25.1133 102.261 25.5178 103.027 25.8491L105.206 26.888C105.994 27.1535 106.71 27.5977 107.298 28.1859C107.478 28.3848 107.618 28.6176 107.707 28.8708C107.797 29.124 107.836 29.3925 107.821 29.6607C107.872 30.0285 107.817 30.4033 107.663 30.741C107.508 31.0786 107.26 31.3651 106.948 31.5665C106.105 31.9652 105.175 32.1438 104.245 32.0854C102.133 31.9921 100.085 31.3339 98.3144 30.1796C98.1979 30.075 98.0553 30.0038 97.9016 29.9737C97.7479 29.9436 97.589 29.9556 97.4416 30.0086C97.1856 30.1063 97.0956 30.3614 97.0956 30.7905V34.9441C97.0772 35.1711 97.1253 35.3985 97.2339 35.5986C97.3426 35.7987 97.5071 35.9628 97.7074 36.071C100.061 37.259 102.658 37.8877 105.294 37.9083L105.296 37.9005Z" fill="#102A43"/>
<path d="M219.915 73.7342C220.044 73.747 220.174 73.7312 220.296 73.6879C220.418 73.6447 220.529 73.575 220.621 73.484C220.712 73.3933 220.782 73.2833 220.826 73.1621C220.869 73.0408 220.885 72.9114 220.872 72.7832V58.4019L225.494 66.6271C225.666 66.975 226.017 67.0581 226.452 67.0581H226.713C227.149 67.0581 227.584 66.7121 228.019 66.0201L232.119 58.397V72.6933C232.106 72.8216 232.122 72.9512 232.165 73.0727C232.209 73.1941 232.279 73.3043 232.37 73.3951C232.462 73.4859 232.573 73.5554 232.695 73.5984C232.817 73.6415 232.947 73.6572 233.076 73.6443H237.782C237.911 73.6573 238.041 73.6417 238.163 73.5987C238.285 73.5556 238.396 73.4861 238.488 73.3951C238.58 73.3043 238.65 73.1941 238.694 73.0727C238.737 72.9512 238.753 72.8216 238.74 72.6933V47.835C238.753 47.707 238.738 47.5776 238.695 47.4562C238.653 47.3347 238.583 47.2244 238.492 47.1333C238.401 47.0419 238.29 46.9718 238.168 46.928C238.046 46.8843 237.917 46.8679 237.788 46.8802H233.255C233.027 46.8612 232.799 46.9085 232.598 47.0164C232.396 47.1243 232.23 47.2881 232.12 47.4881L226.452 57.62L220.783 47.4881C220.673 47.2881 220.507 47.1243 220.306 47.0164C220.104 46.9085 219.876 46.8612 219.649 46.8802H215.21C215.081 46.8673 214.951 46.8829 214.829 46.926C214.707 46.9691 214.596 47.0385 214.504 47.1294C214.412 47.2202 214.342 47.3304 214.299 47.4518C214.255 47.5732 214.24 47.7028 214.253 47.8311V72.7569C214.232 72.8865 214.243 73.0191 214.283 73.1438C214.324 73.2686 214.394 73.3818 214.487 73.4742C214.581 73.5671 214.695 73.6366 214.821 73.6772C214.946 73.7178 215.079 73.7282 215.21 73.7078H219.916L219.915 73.7342ZM198.199 68.1048C197.397 68.1262 196.602 67.9475 195.886 67.5847C195.17 67.222 194.556 66.6866 194.099 66.027C193.025 64.2901 192.507 62.2662 192.615 60.2266C192.506 58.1869 193.024 56.163 194.099 54.4261C194.561 53.7769 195.178 53.2541 195.895 52.9057C196.611 52.5573 197.403 52.3946 198.199 52.4324C198.967 52.4147 199.728 52.5875 200.413 52.9354C201.099 53.2833 201.687 53.7954 202.126 54.4261C203.213 56.1577 203.732 58.1856 203.611 60.2266C203.732 62.2675 203.213 64.2954 202.126 66.027C201.72 66.6956 201.141 67.2417 200.449 67.6075C199.758 67.9734 198.98 68.1452 198.199 68.1048ZM197.954 74.2531C200.234 74.2777 202.473 73.6467 204.404 72.4353C206.363 71.1896 207.934 69.4194 208.937 67.3259C210.047 65.0013 210.615 62.4554 210.598 59.8796C210.6 57.9912 210.276 56.1167 209.642 54.3382C209.087 52.7246 208.195 51.2474 207.025 50.0047C205.954 48.8436 204.645 47.9281 203.186 47.321C201.695 46.6992 200.096 46.3762 198.48 46.37C196.805 46.3754 195.147 46.6981 193.593 47.321C192.078 47.9575 190.711 48.902 189.58 50.0946C188.412 51.3869 187.495 52.8857 186.877 54.5141C186.193 56.339 185.869 58.2786 185.92 60.2266C185.891 62.1101 186.186 63.9846 186.793 65.768C187.318 67.4022 188.18 68.9079 189.324 70.1875C190.407 71.4019 191.709 72.401 193.162 73.1322C194.637 73.9064 196.285 74.2919 197.951 74.2522L197.954 74.2531ZM176.941 73.7342C177.07 73.7472 177.2 73.7317 177.322 73.6886C177.445 73.6455 177.556 73.576 177.648 73.485C177.739 73.3942 177.81 73.284 177.853 73.1626C177.897 73.0412 177.912 72.9115 177.899 72.7832V53.0491H183.044C183.173 53.0601 183.304 53.0422 183.426 52.9967C183.547 52.9513 183.658 52.8794 183.748 52.7862C183.839 52.6933 183.907 52.5813 183.948 52.4584C183.989 52.3356 184.002 52.2051 183.986 52.0766V47.835C184.007 47.705 183.997 47.5717 183.957 47.4462C183.916 47.3208 183.847 47.2068 183.753 47.1138C183.659 47.0203 183.545 46.9503 183.419 46.9096C183.293 46.8688 183.159 46.8584 183.028 46.8792H166.189C166.06 46.8663 165.93 46.882 165.808 46.925C165.686 46.9681 165.575 47.0376 165.483 47.1284C165.392 47.2192 165.321 47.3294 165.278 47.4508C165.235 47.5722 165.219 47.7019 165.232 47.8302V51.9887C165.219 52.117 165.235 52.2466 165.278 52.368C165.321 52.4894 165.392 52.5996 165.483 52.6904C165.575 52.7813 165.686 52.8507 165.808 52.8938C165.93 52.9369 166.06 52.9525 166.189 52.9396H171.333V72.6738C171.32 72.8021 171.336 72.9317 171.379 73.0531C171.423 73.1746 171.493 73.2847 171.585 73.3755C171.677 73.4664 171.788 73.5358 171.91 73.5789C172.032 73.622 172.162 73.6376 172.29 73.6247H176.912L176.941 73.7342ZM153.659 74.1652C156.254 74.354 158.828 73.5833 160.892 71.9994C161.772 71.2273 162.465 70.265 162.918 69.1853C163.371 68.1056 163.572 66.937 163.506 65.768C163.53 64.8892 163.411 64.0123 163.155 63.1712C162.898 62.4449 162.513 61.7699 162.02 61.1775C161.503 60.5909 160.916 60.0685 160.274 59.6216C159.473 59.0864 158.626 58.6227 157.744 58.2357L155.652 57.2848C154.903 56.9417 154.201 56.5056 153.561 55.9869C153.167 55.5288 152.95 54.9451 152.949 54.3411C152.931 54.0232 152.993 53.7058 153.129 53.4181C153.266 53.1305 153.473 52.8819 153.731 52.6953C154.423 52.3121 155.21 52.1322 156 52.1763C157.82 52.1936 159.61 52.636 161.229 53.4683C161.577 53.6417 161.838 53.6417 162.011 53.4683C162.272 53.3794 162.362 53.1204 162.362 52.6865V48.7899C162.38 48.5629 162.332 48.3355 162.223 48.1354C162.115 47.9353 161.95 47.7712 161.75 47.663C159.586 46.8143 157.276 46.4031 154.952 46.4531C152.564 46.326 150.211 47.0637 148.322 48.5309C147.485 49.2741 146.83 50.1992 146.406 51.2353C145.983 52.2713 145.802 53.3906 145.879 54.5072C145.88 55.4484 146.026 56.3837 146.31 57.2809C146.576 58.0731 146.99 58.8079 147.529 59.4467C148.046 60.0333 148.633 60.5557 149.275 61.0026C149.962 61.4763 150.694 61.8825 151.459 62.2154L153.64 63.2533C154.417 63.5417 155.128 63.983 155.731 64.5512C155.912 64.7501 156.051 64.983 156.141 65.2361C156.231 65.4893 156.269 65.7578 156.254 66.026C156.296 66.393 156.237 66.7644 156.083 67.1003C155.929 67.4361 155.687 67.7236 155.381 67.9318C154.539 68.3305 153.609 68.5091 152.678 68.4508C150.58 68.3518 148.541 67.7267 146.748 66.6329C146.631 66.5283 146.489 66.4571 146.335 66.427C146.181 66.3969 146.022 66.4089 145.875 66.4619C145.614 66.5508 145.524 66.8098 145.524 67.2438V71.3886C145.506 71.6155 145.554 71.8429 145.662 72.043C145.771 72.2431 145.936 72.4073 146.136 72.5155C148.484 73.6029 151.041 74.1646 153.629 74.1613L153.659 74.1652ZM130.726 74.2541C133.377 74.3429 135.973 73.4828 138.047 71.8284C140.103 70.1047 141.414 67.6539 141.707 64.9871C141.905 63.6682 141.992 62.335 141.968 61.0016V47.835C141.982 47.7049 141.967 47.5733 141.923 47.45C141.879 47.3268 141.807 47.2151 141.714 47.1235C141.62 47.0317 141.506 46.962 141.382 46.9197C141.257 46.8774 141.125 46.8636 140.994 46.8792H136.198C136.069 46.8663 135.939 46.882 135.817 46.925C135.695 46.9681 135.584 47.0376 135.492 47.1284C135.4 47.2192 135.33 47.3294 135.287 47.4508C135.243 47.5722 135.228 47.7019 135.241 47.8302V61.2635C135.268 62.246 135.239 63.2292 135.152 64.2082C135.152 64.7507 135.04 65.2874 134.821 65.7838C134.602 66.2803 134.282 66.7256 133.881 67.0913C133.478 67.4584 133.004 67.7383 132.488 67.9134C131.972 68.0885 131.425 68.155 130.882 68.1087C129.849 68.184 128.825 67.8753 128.006 67.2418C127.238 66.4701 126.747 65.466 126.61 64.3861C126.485 63.3812 126.427 62.369 126.438 61.3563V47.8497C126.454 47.7193 126.44 47.5871 126.397 47.4629C126.354 47.3388 126.284 47.2261 126.191 47.1333C126.097 47.0404 125.984 46.9696 125.86 46.9263C125.735 46.883 125.602 46.8683 125.471 46.8831H120.765C120.636 46.8703 120.506 46.8861 120.384 46.9294C120.262 46.9726 120.151 47.0423 120.059 47.1333C119.968 47.224 119.897 47.334 119.854 47.4552C119.811 47.5765 119.795 47.7059 119.808 47.8341V61.3397C119.808 62.7256 119.897 64.0244 119.98 65.2402C120.08 66.992 120.687 68.6771 121.726 70.0907C122.656 71.4428 123.958 72.4955 125.475 73.1204C127.112 73.8832 128.898 74.2699 130.704 74.2522L130.726 74.2541ZM108.31 74.2541C110.969 74.286 113.598 73.6918 115.985 72.5194C116.158 72.41 116.299 72.2556 116.391 72.0728C116.483 71.89 116.523 71.6856 116.508 71.4814V67.493C116.508 67.0603 116.421 66.7997 116.247 66.7111C116.075 66.5401 115.897 66.5401 115.553 66.7111C113.573 67.594 111.444 68.0944 109.278 68.1859C108.415 68.2309 107.552 68.0832 106.753 67.7536C105.953 67.424 105.237 66.9206 104.656 66.2801C103.373 64.5967 102.752 62.5014 102.91 60.3907C102.881 59.1294 103.058 57.8718 103.433 56.6671C103.707 55.7412 104.219 54.9036 104.919 54.2385C105.489 53.6684 106.173 53.226 106.927 52.9406C107.712 52.6642 108.537 52.5186 109.37 52.5096C111.446 52.5067 113.498 52.9507 115.387 53.8114C115.494 53.8847 115.624 53.9162 115.752 53.8998C115.88 53.8834 115.998 53.8203 116.082 53.7225C116.182 53.6034 116.257 53.465 116.302 53.316C116.347 53.1669 116.361 53.0102 116.343 52.8556V48.7899C116.343 48.182 116.171 47.8389 115.731 47.752C113.51 46.8814 111.142 46.4409 108.756 46.4541C107.423 46.4369 106.095 46.6424 104.829 47.062C103.573 47.4286 102.392 48.0174 101.343 48.8006C100.284 49.5874 99.3415 50.5191 98.5421 51.5684C97.7259 52.7615 97.1078 54.0787 96.7116 55.4689C96.249 57.0442 96.015 58.6777 96.0167 60.3194C95.8406 64.0307 97.0547 67.6744 99.4217 70.5383C100.552 71.7513 101.927 72.7098 103.456 73.3501C104.985 73.9905 106.633 74.298 108.29 74.2522L108.31 74.2541Z" fill="#007BFF"/>
<path fill-rule="evenodd" clip-rule="evenodd" d="M56.7946 2.07592C55.8166 1.67575 54.2195 1.83558 53.2035 2.39512C47.5685 5.51689 50.0111 14.6806 49.0518 20.8299C52.7135 15.788 60.9218 10.9816 59.1202 4.81642C58.7959 3.70762 57.7711 2.47538 56.7946 2.07592Z" fill="#102A43"/>
<path fill-rule="evenodd" clip-rule="evenodd" d="M73.7402 13.264C73.0614 12.4583 71.5755 11.8584 70.4138 11.8852C63.9656 12.0415 61.8499 21.2878 58.1304 26.2852C63.7253 23.5157 73.2387 23.0588 74.519 16.7679C74.7505 15.6342 74.418 14.0671 73.7402 13.264Z" fill="#102A43"/>
<path fill-rule="evenodd" clip-rule="evenodd" d="M83.5236 31.0098C83.2986 29.982 82.2591 28.7635 81.2178 28.2507C75.4383 25.4049 69.2489 32.6121 63.6235 35.3184C69.8724 35.4549 78.5083 39.4521 82.5786 34.4721C83.3119 33.5772 83.749 32.0363 83.5236 31.0098Z" fill="#102A43"/>
<path fill-rule="evenodd" clip-rule="evenodd" d="M83.9037 51.252C84.1825 50.2382 83.8327 48.6783 83.1509 47.7434C79.3611 42.547 70.5157 46.0652 64.2698 45.8587C69.7391 48.872 75.5214 56.4064 81.449 53.8791C82.5177 53.4285 83.6232 52.2647 83.9037 51.252Z" fill="#102A43"/>
<path fill-rule="evenodd" clip-rule="evenodd" d="M74.7897 69.3505C75.5107 68.5817 75.9307 67.0386 75.7634 65.8943C74.8322 59.5409 65.3586 58.5656 59.9254 55.4905C63.3613 60.6873 64.9627 70.036 71.3905 70.5412C72.5488 70.6341 74.0706 70.1177 74.7897 69.3505Z" fill="#102A43"/>
<path fill-rule="evenodd" clip-rule="evenodd" d="M58.2743 81.1584C59.2725 80.8131 60.3629 79.6394 60.7497 78.5483C62.8906 72.4924 54.9584 67.2435 51.5816 62.0096C52.1969 68.2009 49.2531 77.2188 54.7099 80.6395C55.6915 81.2597 57.2784 81.5051 58.2743 81.1584Z" fill="#007BFF"/>
<path fill-rule="evenodd" clip-rule="evenodd" d="M38.1426 83.973C39.1849 84.1286 40.6981 83.5941 41.5482 82.807C46.2701 78.436 41.6989 70.1176 41.1529 63.9189C38.8072 69.686 31.9917 76.3117 35.2236 81.8641C35.8049 82.8672 37.0968 83.8169 38.1426 83.973Z" fill="#007BFF"/>
<path fill-rule="evenodd" clip-rule="evenodd" d="M18.9974 77.1476C19.8495 77.7692 21.4392 77.9967 22.5597 77.6929C28.783 76.0063 28.6143 66.525 31.0251 60.785C26.2548 64.8063 17.1303 67.5188 17.4002 73.931C17.4464 75.0888 18.1455 76.5274 18.9974 77.1476Z" fill="#007BFF"/>
<path fill-rule="evenodd" clip-rule="evenodd" d="M5.23263 62.2484C5.69696 63.1922 6.99943 64.1276 8.13274 64.3785C14.4307 65.7635 18.7075 57.2923 23.5204 53.3236C17.4213 54.6788 8.073 52.8571 5.32013 58.6601C4.82173 59.7059 4.76806 61.3038 5.23263 62.2484Z" fill="#007BFF"/>
<path fill-rule="evenodd" clip-rule="evenodd" d="M0.000875399 42.6859C-0.0285247 43.7363 0.68641 45.1674 1.57401 45.9136C6.49946 50.0543 14.2445 44.532 20.3572 43.2438C14.3266 41.6235 6.89846 35.6837 1.75251 39.5498C0.821277 40.245 0.0281755 41.634 0.000875399 42.6859Z" fill="#007BFF"/>
<path fill-rule="evenodd" clip-rule="evenodd" d="M4.49815 22.9428C3.98085 23.8586 3.94469 25.4569 4.38289 26.53C6.81539 32.4756 16.2481 31.1671 22.2621 32.8571C17.6785 28.6291 13.8751 19.9335 7.51306 20.9753C6.36459 21.1601 5.01242 22.0258 4.49815 22.9428Z" fill="#007BFF"/>
<path fill-rule="evenodd" clip-rule="evenodd" d="M17.6949 7.54113C16.8115 8.11396 16.0334 9.51443 15.9202 10.6655C15.2949 17.0546 24.2586 20.2606 28.7974 24.5395C26.7086 18.6742 27.4018 9.21693 21.2801 7.19439C20.179 6.82642 18.5804 6.96829 17.6949 7.54113Z" fill="#007BFF"/>
<path fill-rule="evenodd" clip-rule="evenodd" d="M36.5681 0.0104223C35.5169 0.107956 34.1741 0.988091 33.5392 1.95573C30.0032 7.32567 36.443 14.3112 38.4646 20.1999C39.356 14.0408 44.3817 5.9847 39.9057 1.36189C39.1019 0.528657 37.6195 -0.0885112 36.5681 0.0104223Z" fill="#007BFF"/>
<path fill-rule="evenodd" clip-rule="evenodd" d="M55.4381 60.126L55.2043 59.8238C52.4761 58.1578 48.8858 58.4117 46.8402 61.1956C46.1229 62.1709 45.7925 63.2596 45.681 64.3806L45.6154 64.0061C43.9793 61.2684 40.6802 59.8322 37.5689 61.3503C36.4799 61.8827 35.6782 62.6912 35.0568 63.6334L35.1744 63.2722C35.0034 60.0912 32.751 57.2921 29.2874 57.199C28.0743 57.1659 26.9867 57.5098 25.9967 58.0582L26.272 57.7924C27.6046 54.8942 26.9174 51.3757 23.8944 49.6901C22.8357 49.1 21.7136 48.9017 20.5801 48.929L20.946 48.8184C23.4781 46.8693 24.512 43.4368 22.6232 40.5439C21.9617 39.5317 21.0584 38.8373 20.0427 38.337L20.4175 38.4087C23.5693 37.8561 26.0898 35.2934 25.7662 31.859C25.6523 30.6554 25.1756 29.6232 24.5106 28.7118L24.8114 28.9474C27.8608 29.9174 31.285 28.8147 32.601 25.6229C33.0623 24.505 33.1241 23.3703 32.9622 22.2554L33.1153 22.6038C35.3618 24.8706 38.9127 25.4801 41.5661 23.2632C42.4957 22.4866 43.0809 21.5108 43.4564 20.4482L43.43 20.8267C44.3592 23.8752 47.2177 26.056 50.6057 25.3212C51.7897 25.0666 52.761 24.4719 53.5922 23.7044L53.3908 24.0267C52.7942 27.1575 54.3069 30.4107 57.6468 31.3284C58.8161 31.649 59.9536 31.5724 61.047 31.278L60.7189 31.4709C58.7286 33.966 58.5477 37.5458 61.0794 39.9057C61.9661 40.7301 63.0072 41.1888 64.1139 41.4336L63.7315 41.4532C60.8071 42.7398 58.9745 45.8273 60.1155 49.0865C60.5145 50.227 61.2241 51.1153 62.0883 51.8436L61.7414 51.6849C58.5503 51.4719 55.4887 53.3563 54.9772 56.7711C54.7962 57.9665 55.0134 59.082 55.4381 60.126ZM59.0908 42.5138C59.0908 51.9097 51.4339 59.5297 41.999 59.5297C32.5626 59.5297 24.9071 51.9097 24.9071 42.5138C24.9071 33.1114 32.5626 25.4923 41.999 25.4923C51.4339 25.4923 59.0908 33.1114 59.0908 42.5138Z" fill="#007BFF"/>
<path fill-rule="evenodd" clip-rule="evenodd" d="M41.7586 42.8151C41.6655 42.8193 41.5745 42.7988 41.4793 42.8193C41.3118 42.8557 41.1704 42.9372 41.029 43.0165L36.287 40.7345C35.7834 40.4921 35.1793 40.7009 34.9357 41.2023C34.6919 41.7035 34.9019 42.3051 35.4052 42.5477L40.1505 44.833C40.1542 44.8484 40.147 44.8661 40.151 44.8839C40.3551 45.8172 41.2838 46.4106 42.2207 46.2073C43.1605 46.0034 43.7567 45.0792 43.5523 44.1461C43.5336 44.0616 43.4821 43.9972 43.451 43.9181L48.9981 35.5106C49.3037 35.0472 49.1749 34.4223 48.7092 34.1181C48.2409 33.8143 47.6137 33.9421 47.3078 34.406L41.7586 42.8151Z" fill="#102A43"/>
</g>
<defs>
<clipPath id="clip0_2_744">
<rect width="268" height="84" fill="white"/>
</clipPath>
</defs>
</svg>
