<svg width="96" height="25" viewBox="0 0 96 25" fill="none" xmlns="http://www.w3.org/2000/svg"><path fill-rule="evenodd" clip-rule="evenodd" d="M77.3866 14.2768C75.9022 12.9866 75.0078 11.2906 74.8952 9.49598L74.8835 9.19247V9.10214C74.8835 9.06853 74.8884 8.96817 74.8913 8.91331C74.8923 8.88096 74.8943 8.85144 74.8952 8.82299C75.0205 7.60192 76.1106 6.6488 77.3944 6.6488C78.7693 6.6488 79.8877 7.72673 79.8926 9.05342C79.8926 10.9973 78.9708 12.8882 77.3866 14.2768ZM83.0513 15.3345C82.6668 15.5517 82.2489 15.7224 81.8047 15.8288C81.2224 15.969 80.6402 15.9891 80.0619 15.8877C80.0639 15.8857 80.0648 15.8837 80.0668 15.8816C80.97 14.9478 81.6794 13.8769 82.1657 12.7278C82.6589 11.5667 82.9221 10.3243 82.9231 9.06054C82.9231 8.06581 82.6472 7.13296 82.1657 6.33106C81.926 5.93118 81.6364 5.56277 81.3027 5.23685C80.3016 4.25742 78.918 3.65039 77.3944 3.65039C76.0029 3.65039 74.6721 4.15696 73.6476 5.07442C72.6221 5.99198 71.9939 7.2416 71.8735 8.5905L71.8687 8.66358C71.8677 8.69203 71.8657 8.72662 71.8638 8.76404C71.8579 8.87278 71.852 8.99759 71.852 9.10214V9.13975L71.8726 9.71823C72.0233 12.0081 73.0292 14.1652 74.7035 15.8847C73.5449 16.3374 72.2826 16.5729 70.971 16.5779C69.6591 16.5729 68.3971 16.3374 67.239 15.8847L67.2442 15.8796C67.2258 15.8715 67.2075 15.8643 67.1901 15.8562C66.0098 15.3264 65.1637 14.7854 64.5561 14.2757L64.555 14.2768C64.5458 14.2687 64.5368 14.2617 64.5286 14.2535C64.2136 13.9753 63.926 13.677 63.6661 13.3623C63.6661 13.3613 63.6661 13.3613 63.6651 13.3613C62.6314 12.1096 62.0494 10.5984 62.0494 9.05342C62.0545 7.72673 63.1737 6.6488 64.5489 6.6488C65.8314 6.6488 66.9231 7.60192 67.0464 8.82299C67.0474 8.85144 67.0495 8.88096 67.0505 8.91331C67.0535 8.96817 67.0587 9.06853 67.0587 9.10214V9.19247L67.0464 9.49598C66.9414 11.1688 66.1585 12.7563 64.8497 14.0088C65.71 14.3864 66.9109 14.7741 67.9975 15.0168C69.2157 13.4638 69.9435 11.6377 70.0699 9.71823L70.0904 9.13975V9.10214C70.0904 8.99759 70.0842 8.87278 70.0781 8.76404C70.076 8.72662 70.074 8.69203 70.0729 8.66358L70.0688 8.5905C69.9496 7.2416 69.3197 5.99198 68.2952 5.07442C67.2697 4.15696 65.9393 3.65039 64.5489 3.65039C63.0239 3.65039 61.6406 4.25742 60.6395 5.23685C60.3062 5.56277 60.0167 5.93118 59.7762 6.33106C59.2951 7.13296 59.0188 8.06581 59.0188 9.06054C59.0197 10.3243 59.2829 11.5667 59.7762 12.7278C60.2624 13.8769 60.9719 14.9478 61.8751 15.8816C61.8772 15.8837 61.8781 15.8857 61.8802 15.8877C61.3022 15.9891 60.721 15.969 60.138 15.8288C59.6336 15.708 59.1605 15.503 58.7334 15.2433L56.7803 17.5675C57.5488 18.0894 58.4347 18.5054 59.4214 18.744C59.9302 18.8649 60.5173 18.9511 61.1636 18.9511C62.2268 18.9511 63.448 18.7187 64.7396 18.0335C66.5958 19.0323 68.71 19.561 70.9241 19.5753V19.5763H71.0179V19.5753C73.2317 19.561 75.3464 19.0323 77.2026 18.0335C78.4963 18.7187 79.7175 18.9511 80.7792 18.9511C81.426 18.9511 82.0131 18.8649 82.5219 18.744C83.4447 18.5206 84.2804 18.1421 85.0133 17.6671L83.0513 15.3345Z" fill="#0069FF"></path><path fill-rule="evenodd" clip-rule="evenodd" d="M9.27022 7.31941V4.28242H5.57998L5.60855 0H2.46991V4.28242H0V7.31941H2.44134V14.5556C2.49946 17.073 4.4169 19.0694 7.09083 19.0694H9.27022V16.3787H7.43938C6.48013 16.3208 5.57998 15.5392 5.57998 14.2369V7.31941H9.27022Z" fill="#0069FF"></path><path fill-rule="evenodd" clip-rule="evenodd" d="M23.1756 5.48634C22.1582 4.53127 20.8514 4.06835 19.194 4.06835H18.7872C18.7586 4.06835 18.729 4.09681 18.7005 4.09681H18.5262C17.1306 4.24189 15.9971 4.79201 15.1255 5.77563C14.835 6.06492 14.6026 6.38363 14.3987 6.7308V0H11.2314V18.8555H14.3987V12.547C14.3987 10.7818 14.7484 9.39324 15.4456 8.40865L15.5037 8.32242C15.5904 8.20657 15.6781 8.11946 15.7647 8.03313V8.00361C15.8523 7.94573 15.939 7.8596 15.9971 7.77219C16.463 7.33773 17.044 7.04854 17.7117 6.93278C17.8871 6.90423 18.0899 6.90423 18.2643 6.90423C19.8341 6.90423 21.1419 8.00361 21.461 9.45102C21.4905 9.62465 21.4905 9.82674 21.4905 10.0297V18.8555H24.6578V9.59523V9.56687V8.81359C24.5415 7.45348 24.0482 6.35421 23.1756 5.48634Z" fill="#0069FF"></path><path fill-rule="evenodd" clip-rule="evenodd" d="M29.4609 9.91398C29.5772 9.3355 29.7516 8.95891 29.7516 8.93046C30.827 6.32589 33.2969 6.52895 33.5293 6.52895C36.9004 6.61528 37.1328 9.56701 37.1625 9.91398H29.4609ZM40.5335 10.6084C40.5335 10.5363 40.5265 10.4713 40.5183 10.4093C40.4989 10.244 40.4764 10.0785 40.4459 9.91398C40.2135 8.58339 39.8362 7.7734 39.4581 7.04955L39.0218 6.4131C38.8474 6.18169 38.6447 5.97873 38.4407 5.77577C37.2492 4.64804 35.564 4.01061 33.355 4.04004C33.2674 4.04004 33.1511 4.04004 33.0349 4.06849H32.8901C31.5823 4.1557 30.4488 4.50286 29.5191 5.05308H29.4895C28.6179 5.57378 27.9788 6.32589 27.4558 7.10752C27.4263 7.1653 27.3977 7.19376 27.3682 7.22318C26.6414 8.38034 26.2642 9.68257 26.2061 11.13V11.8244C26.2642 14.8045 28.2979 18.9428 33.2389 19.0586H33.355C39.1095 19.0301 39.9525 15.4126 40.2135 14.5152L37.1911 13.8789C37.1911 13.8789 36.8719 15.4419 35.4764 15.9911L35.3316 16.049C33.6752 16.7148 32.2215 16.2225 31.7862 16.0205C31.7566 16.0205 29.9543 15.239 29.4895 13.3003C29.4315 13.0393 29.3733 12.6922 29.3152 12.2872H40.4479L40.4989 11.871C40.5019 11.8396 40.505 11.8081 40.5071 11.7767C40.5357 11.3666 40.561 11.055 40.5335 10.6084Z" fill="#0069FF"></path><path fill-rule="evenodd" clip-rule="evenodd" d="M49.6081 16.2308C47.2534 16.2308 45.3644 14.5813 45.3644 11.5717C45.3644 8.7356 46.8467 6.71069 49.6081 6.71069C52.3686 6.71069 53.8213 8.88088 53.8213 11.5717C53.8213 14.4372 51.9904 16.2308 49.6081 16.2308ZM50.7703 3.99036C50.5959 3.96094 50.3921 3.96094 50.2177 3.96094C49.9272 3.96094 49.6367 3.99036 49.3757 4.01881C47.9506 4.13457 46.6142 4.80035 45.5684 5.81339V4.19245H42.4297V24.6514H45.5684V17.0702C46.76 18.2274 48.2707 18.951 49.8405 18.9804C49.9568 18.9804 50.1016 18.9804 50.2177 19.009C53.9956 19.0668 56.9895 15.9708 56.9895 11.4854C56.9895 7.6943 54.9844 4.33753 50.7703 3.99036Z" fill="#0069FF"></path><path fill-rule="evenodd" clip-rule="evenodd" d="M94.4022 4.03906C92.2807 4.03906 90.536 5.10989 89.897 6.78774V4.24105H86.7305V18.7977H89.897V11.9097C89.9264 10.6073 90.7982 6.81726 94.7505 6.72986H96.0001V4.03906H94.4022Z" fill="#0069FF"></path></svg>