<svg width="133" height="18" viewBox="0 0 133 18" fill="none" xmlns="http://www.w3.org/2000/svg">
<path d="M34.6158 14.5342L31.9443 3.54102H34.7006L36.5025 11.9418L38.4747 3.54102H41.9303L43.9025 11.9622L45.6851 3.54102H48.4622L45.7651 14.5342H42.0999L40.2133 5.88445L38.3051 14.5342H34.6158Z" fill="#2C1DFF"/>
<path d="M54.8432 14.7001C53.2596 14.7001 51.9026 14.1399 50.7724 13.0196C49.6421 11.8993 49.0767 10.565 49.0762 9.0168C49.0762 7.45451 49.6416 6.12024 50.7724 5.01401C51.9032 3.90778 53.2601 3.3544 54.8432 3.35388C56.4402 3.35388 57.8041 3.91065 58.9349 5.02419C60.0657 6.13772 60.6311 7.46833 60.6311 9.01601C60.6311 10.5814 60.0657 11.9194 58.9349 13.0298C57.8041 14.1402 56.4402 14.6969 54.8432 14.7001ZM54.8432 12.2314C55.2711 12.2395 55.6959 12.1597 56.0903 11.9972C56.4848 11.8348 56.84 11.5932 57.1331 11.2882C57.4354 10.9898 57.6737 10.6353 57.8339 10.2455C57.9941 9.85566 58.073 9.43845 58.066 9.01836C58.0729 8.59829 57.994 8.1811 57.8338 7.7913C57.6736 7.4015 57.4353 7.04696 57.1331 6.7485C56.8371 6.44959 56.4827 6.21193 56.091 6.04963C55.6993 5.88732 55.2782 5.80368 54.8528 5.80368C54.4274 5.80368 54.0064 5.88732 53.6147 6.04963C53.2229 6.21193 52.8686 6.44959 52.5726 6.7485C52.2702 7.04685 52.0318 7.40138 51.8716 7.7912C51.7114 8.18102 51.6325 8.59827 51.6397 9.01836C51.6325 9.43847 51.7113 9.85574 51.8715 10.2456C52.0317 10.6354 52.2701 10.9899 52.5726 11.2882C52.8627 11.5919 53.2146 11.8328 53.6057 11.9952C53.9968 12.1577 54.4184 12.2381 54.8432 12.2314Z" fill="#2C1DFF"/>
<path d="M67.6274 14.7001C66.0443 14.7001 64.6873 14.1399 63.5565 13.0196C62.4258 11.8993 61.8604 10.565 61.8604 9.0168C61.8604 7.45451 62.4258 6.12024 63.5565 5.01401C64.6873 3.90778 66.0443 3.3544 67.6274 3.35388C69.2244 3.35388 70.5886 3.91065 71.7199 5.02419C72.8512 6.13772 73.4166 7.46833 73.4161 9.01601C73.4161 10.5814 72.8507 11.9194 71.7199 13.0298C70.5891 14.1402 69.2249 14.6969 67.6274 14.7001ZM67.6274 12.2314C68.0553 12.2395 68.4801 12.1597 68.8745 11.9972C69.2689 11.8348 69.6242 11.5932 69.9173 11.2882C70.2196 10.9898 70.4579 10.6353 70.6181 10.2455C70.7783 9.85566 70.8572 9.43845 70.8502 9.01836C70.8571 8.59829 70.7782 8.1811 70.618 7.7913C70.4578 7.4015 70.2195 7.04696 69.9173 6.7485C69.6213 6.4495 69.267 6.21175 68.8753 6.04938C68.4835 5.88701 68.0624 5.80334 67.637 5.80334C67.2116 5.80334 66.7905 5.88701 66.3988 6.04938C66.007 6.21175 65.6527 6.4495 65.3568 6.7485C65.0544 7.04685 64.816 7.40138 64.6558 7.7912C64.4956 8.18102 64.4167 8.59827 64.4238 9.01836C64.4166 9.43847 64.4955 9.85574 64.6557 10.2456C64.8159 10.6354 65.0543 10.9899 65.3568 11.2882C65.6466 11.5922 65.9985 11.8332 66.3897 11.9957C66.7809 12.1582 67.2025 12.2385 67.6274 12.2314Z" fill="#2C1DFF"/>
<path d="M80.2641 14.7004C78.7376 14.7004 77.4265 14.1402 76.3309 13.0199C75.2353 11.8996 74.6875 10.5723 74.6875 9.03823C74.6875 7.44776 75.2318 6.1028 76.3205 5.00335C77.4091 3.9039 78.7237 3.35418 80.2641 3.35418C81.6344 3.35418 82.758 3.81755 83.6349 4.74427V0.0151367H86.392V14.5344H83.6349V13.3517C82.7452 14.2513 81.6216 14.7009 80.2641 14.7004ZM80.5394 12.2528C81.4301 12.2528 82.2006 11.9348 82.8508 11.2987C83.501 10.6626 83.8261 9.90912 83.8261 9.03823C83.8261 8.16629 83.501 7.40967 82.8508 6.76836C82.2006 6.12706 81.4301 5.80537 80.5394 5.80328C80.1059 5.79498 79.6754 5.87566 79.2758 6.04014C78.8761 6.20462 78.5162 6.44923 78.2191 6.75819C77.9139 7.05747 77.673 7.41357 77.5109 7.80546C77.3487 8.19735 77.2685 8.61706 77.275 9.03979C77.2683 9.4608 77.3484 9.87883 77.5106 10.2688C77.6728 10.6589 77.9138 11.0129 78.2191 11.3097C78.5179 11.6156 78.8785 11.8574 79.2779 12.0198C79.6773 12.1822 80.1069 12.2615 80.5394 12.2528Z" fill="#2C1DFF"/>
<path d="M94.1091 14.7001C92.4978 14.7001 91.1301 14.1436 90.0063 13.0306C88.8824 11.9176 88.3208 10.587 88.3213 9.03878C88.3213 7.44832 88.8902 6.10336 90.0279 5.00391C91.1656 3.90446 92.5258 3.35474 94.1083 3.35474C95.2673 3.3414 96.4003 3.69049 97.3423 4.35113C98.2798 4.99451 98.9995 5.89722 99.4089 6.94347L96.8911 7.62677C96.6486 7.08976 96.2614 6.62737 95.7709 6.28912C95.2854 5.95133 94.7025 5.77342 94.1067 5.78114C93.6804 5.77529 93.2576 5.85825 92.8665 6.02451C92.4755 6.19076 92.125 6.43652 91.8385 6.74544C91.5365 7.0488 91.2987 7.40744 91.1386 7.80083C90.9786 8.19422 90.8994 8.61463 90.9056 9.038C90.8988 9.45969 90.9778 9.87849 91.1379 10.27C91.2981 10.6616 91.5362 11.0181 91.8385 11.3188C92.1265 11.6253 92.4774 11.8688 92.8683 12.0334C93.2592 12.198 93.6812 12.2799 94.1067 12.2737C94.7096 12.2836 95.3001 12.1054 95.7925 11.765C96.2808 11.4298 96.6617 10.9659 96.8911 10.4273L99.4137 11.1318C99.0062 12.1765 98.2859 13.0767 97.3471 13.7147C96.4014 14.3697 95.2678 14.7147 94.1091 14.7001Z" fill="#2C1DFF"/>
<path d="M106.449 14.7001C104.866 14.7001 103.509 14.1399 102.378 13.0196C101.247 11.8993 100.682 10.565 100.682 9.0168C100.682 7.45451 101.247 6.12024 102.378 5.01401C103.509 3.90778 104.866 3.3544 106.449 3.35388C108.046 3.35388 109.41 3.91065 110.541 5.02419C111.673 6.13772 112.238 7.46833 112.237 9.01601C112.237 10.5814 111.671 11.9194 110.541 13.0298C109.411 14.1402 108.047 14.6969 106.449 14.7001ZM106.449 12.2314C106.877 12.2395 107.301 12.1597 107.696 11.9972C108.09 11.8348 108.445 11.5932 108.739 11.2882C109.041 10.9898 109.279 10.6353 109.439 10.2455C109.6 9.85566 109.679 9.43845 109.671 9.01836C109.678 8.59829 109.599 8.1811 109.439 7.7913C109.279 7.4015 109.041 7.04696 108.739 6.7485C108.443 6.4495 108.088 6.21175 107.697 6.04938C107.305 5.88701 106.884 5.80334 106.458 5.80334C106.033 5.80334 105.612 5.88701 105.22 6.04938C104.828 6.21175 104.474 6.4495 104.178 6.7485C103.876 7.04685 103.637 7.40138 103.477 7.7912C103.317 8.18102 103.238 8.59827 103.245 9.01836C103.238 9.43847 103.317 9.85574 103.477 10.2456C103.637 10.6354 103.876 10.9899 104.178 11.2882C104.468 11.5922 104.82 11.8332 105.211 11.9957C105.602 12.1582 106.024 12.2385 106.449 12.2314Z" fill="#2C1DFF"/>
<path d="M113.827 14.5338V3.54067H116.583V5.17888C116.955 4.55175 117.519 4.0544 118.195 3.7567C118.901 3.43161 119.763 3.34525 120.782 3.49762V6.38269C119.722 6.03673 118.757 6.11266 117.888 6.61046C117.018 7.10827 116.583 7.88263 116.583 8.93355V14.5338H113.827Z" fill="#2C1DFF"/>
<path d="M127.206 14.7002C125.594 14.7002 124.227 14.1436 123.104 13.0306C121.98 11.9176 121.419 10.587 121.418 9.0388C121.418 7.44834 121.987 6.10338 123.125 5.00393C124.262 3.90448 125.622 3.35476 127.205 3.35476C128.555 3.34173 129.863 3.81001 130.885 4.67206C131.924 5.50293 132.627 6.66818 132.868 7.95945C133.037 8.64014 133.045 9.34982 132.889 10.0336H124.153C124.309 10.7527 124.662 11.3128 125.213 11.7141C125.763 12.1154 126.428 12.3158 127.206 12.3152C128.379 12.3152 129.339 11.9351 130.086 11.1748L132.503 11.8182C132.065 12.6886 131.341 13.3868 130.33 13.9127C129.372 14.4249 128.298 14.6955 127.206 14.7002ZM124.153 7.98371H130.196C130.043 7.35204 129.676 6.7894 129.156 6.38698C128.619 5.95805 127.961 5.74359 127.184 5.74359C126.407 5.74359 125.746 5.95805 125.202 6.38698C124.677 6.78716 124.307 7.35033 124.153 7.98371Z" fill="#2C1DFF"/>
<path d="M9.24586 10.1666H4.62293L10.6236 0H6.00069L4.62293 2.33404L0 2.33326L4.62293 10.1666L9.24586 18L13.8688 10.1666L18.4917 18L29.1153 0H24.4924L18.4917 10.1666H13.8688L19.8695 0H15.2465L9.24586 10.1666Z" fill="#2C1DFF"/>
</svg>
