<svg width="290" class="w-full" height="150" viewBox="0 0 290 150" fill="none"
              xmlns="http://www.w3.org/2000/svg">
              <g clip-path="url(#clip0_886_322483)">
                <g>
                  <rect x="5" y="25" width="279" height="88"
                    class="stroke-[#505967] transition duration-300 group-hover:stroke-[#4B8BFF] group-data-[active=true]:stroke-[#4B8BFF]"
                    stroke-width="0.5" stroke-linecap="round" stroke-dasharray="4 4"></rect>
                  <rect x="1" y="20" width="9" height="9" rx="2"
                    class="fill-[#26282D] stroke-[#505967] transition duration-300 group-hover:stroke-[#4B8BFF] group-data-[active=true]:stroke-[#4B8BFF]"
                    stroke-width="0.5"></rect>
                  <rect x="279" y="20" width="9" height="9" rx="2"
                    class="fill-[#26282D] stroke-[#505967] transition duration-300 group-hover:stroke-[#4B8BFF] group-data-[active=true]:stroke-[#4B8BFF]"
                    stroke-width="0.5"></rect>
                  <rect x="1" y="108" width="9" height="9" rx="2"
                    class="fill-[#26282D] stroke-[#505967] transition duration-300 group-hover:stroke-[#4B8BFF] group-data-[active=true]:stroke-[#4B8BFF]"
                    stroke-width="0.5"></rect>
                  <rect x="279" y="108" width="9" height="9" rx="2"
                    class="fill-[#26282D] stroke-[#505967] transition duration-300 group-hover:stroke-[#4B8BFF] group-data-[active=true]:stroke-[#4B8BFF]"
                    stroke-width="0.5"></rect>
                </g>
                <g
                  class="translate-y-0px transform transition duration-300 group-hover:translate-y-[41px] group-data-[active=true]:translate-y-[41px]">
                  <g>
                    <rect x="53.666" y="10" width="183" height="34" rx="6" fill="#26282D"></rect>
                    <rect x="53.916" y="10.25" width="182.5" height="33.5" rx="5.75" stroke="#505967"
                      stroke-width="0.5"></rect>
                  </g>
                  <rect x="83.666" y="24" width="44" height="6" rx="3" fill="#505967"></rect>
                  <path
                    d="M71.8314 24.3337C71.8314 25.5303 70.8613 26.5003 69.6647 26.5003C68.4681 26.5003 67.498 25.5303 67.498 24.3337C67.498 23.137 68.4681 22.167 69.6647 22.167C70.8613 22.167 71.8314 23.137 71.8314 24.3337Z"
                    fill="#6B9FFF" stroke="#6B9FFF" stroke-width="1.2" stroke-linecap="round" stroke-linejoin="round"
                    class="transition duration-300 group-hover:fill-[#6F7988] group-hover:stroke-[#6F7988] group-data-[active=true]:fill-[#6F7988] group-data-[active=true]:stroke-[#6F7988]">
                  </path>
                  <path
                    d="M66.2295 31.833H73.0995C73.8608 31.833 74.4472 31.1784 74.0917 30.5053C73.5688 29.515 72.3765 28.333 69.6645 28.333C66.9525 28.333 65.7603 29.515 65.2374 30.5053C64.8818 31.1784 65.4683 31.833 66.2295 31.833Z"
                    fill="#6B9FFF" stroke="#6B9FFF" stroke-width="1.2" stroke-linecap="round" stroke-linejoin="round"
                    class="transition duration-300 group-hover:fill-[#6F7988] group-hover:stroke-[#6F7988] group-data-[active=true]:fill-[#6F7988] group-data-[active=true]:stroke-[#6F7988]">
                  </path>
                  <rect x="176.666" y="24" width="27" height="6" rx="3"
                    class="fill-[#505967] transition duration-300 group-hover:fill-[#4B8BFF] group-data-[active=true]:fill-[#4B8BFF]">
                  </rect>
                  <path d="M162.666 24.8337L159.166 29.167L166.166 29.167L162.666 24.8337Z" fill="#6F7988"
                    stroke="#6F7988" stroke-width="1.2" stroke-linecap="round" stroke-linejoin="round"
                    class="transition duration-300 group-hover:fill-[#4B8BFF] group-hover:stroke-[#4B8BFF] group-data-[active=true]:fill-[#4B8BFF] group-data-[active=true]:stroke-[#4B8BFF]">
                  </path>
                  <path d="M145.666 14L145.666 40" stroke="#505967" stroke-width="0.5"></path>
                </g>
                <g>
                  <rect x="53.666" y="92" width="183" height="34" rx="6" fill="#26282D"></rect>
                  <rect x="53.916" y="92.25" width="182.5" height="33.5" rx="5.75" stroke="#505967" stroke-width="0.5">
                  </rect>
                </g>
                <rect x="83.666" y="106" width="39" height="6" rx="3" fill="#505967"></rect>
                <path
                  d="M72.2917 104.365C72.2917 106.321 71.2373 108.083 69.2812 108.083C71.2373 108.083 72.2917 109.846 72.2917 111.802C72.2917 109.846 73.3461 108.083 75.3021 108.083C73.3461 108.083 72.2917 106.321 72.2917 104.365Z"
                  class="fill-[#6B9FFF] transition duration-300 group-hover:fill-[#4B8BFF] group-data-[active=true]:fill-[#4B8BFF]">
                </path>
                <path
                  d="M67.3333 110.031C67.3333 111.205 66.2049 112.333 65.0312 112.333C66.2049 112.333 67.3333 113.462 67.3333 114.636C67.3333 113.462 68.4618 112.333 69.6354 112.333C68.4618 112.333 67.3333 111.205 67.3333 110.031Z"
                  class="fill-[#6B9FFF] transition duration-300 group-hover:fill-[#4B8BFF] group-data-[active=true]:fill-[#4B8BFF]">
                </path>
                <path
                  d="M72.2917 104.365C72.2917 106.321 71.2373 108.083 69.2812 108.083C71.2373 108.083 72.2917 109.846 72.2917 111.802C72.2917 109.846 73.3461 108.083 75.3021 108.083C73.3461 108.083 72.2917 106.321 72.2917 104.365Z"
                  stroke-width="1.275" stroke-linecap="round" stroke-linejoin="round"
                  class="stroke-[#6B9FFF] transition duration-300 group-hover:stroke-[#4B8BFF] group-data-[active=true]:stroke-[#4B8BFF]">
                </path>
                <path
                  d="M67.3333 110.031C67.3333 111.205 66.2049 112.333 65.0312 112.333C66.2049 112.333 67.3333 113.462 67.3333 114.636C67.3333 113.462 68.4618 112.333 69.6354 112.333C68.4618 112.333 67.3333 111.205 67.3333 110.031Z"
                  stroke-width="1.275" stroke-linecap="round" stroke-linejoin="round"
                  class="stroke-[#6B9FFF] transition duration-300 group-hover:stroke-[#4B8BFF] group-data-[active=true]:stroke-[#4B8BFF]">
                </path>
                <rect x="176.666" y="106" width="37" height="6" rx="3" fill="#505967"></rect>
                <path d="M162.666 106.834L159.166 111.167L166.166 111.167L162.666 106.834Z" stroke-width="1.2"
                  stroke-linecap="round" stroke-linejoin="round"
                  class="fill-[#6F7988] stroke-[#6F7988] transition duration-300 group-hover:fill-[#4B8BFF] group-hover:stroke-[#4B8BFF] group-data-[active=true]:fill-[#4B8BFF] group-data-[active=true]:stroke-[#4B8BFF]">
                </path>
                <path d="M145.666 96L145.666 122" stroke="#505967" stroke-width="0.5"></path>
                <g
                  class="translate-y-0px transform transition duration-300 group-hover:translate-y-[-41px] group-data-[active=true]:translate-y-[-41px]">
                  <g>
                    <rect x="53.666" y="51" width="183" height="34" rx="6" fill="#26282D"></rect>
                    <rect x="53.916" y="51.25" width="182.5" height="33.5" rx="5.75" stroke="#505967"
                      stroke-width="0.5"></rect>
                  </g>
                  <rect x="83.666" y="65" width="25" height="6" rx="3"
                    class="fill-[#505967] transition duration-300 group-hover:fill-[#4B8BFF] group-data-[active=true]:fill-[#4B8BFF]">
                  </rect>
                  <path d="M65.666 68.5374L70.4107 63.167L70.4107 67.4633H73.494L68.4107 72.8337V68.5374H65.666Z"
                    stroke-width="1.2" stroke-linecap="round" stroke-linejoin="round"
                    class="fill-[#6F7988] stroke-[#6F7988] transition duration-300 group-hover:fill-[#4B8BFF] group-hover:stroke-[#4B8BFF] group-data-[active=true]:fill-[#4B8BFF] group-data-[active=true]:stroke-[#4B8BFF]">
                  </path>
                  <rect x="176.666" y="65" width="43" height="6" rx="3" fill="#505967"></rect>
                  <path d="M162.666 70.1663L166.166 65.833H159.166L162.666 70.1663Z" stroke-width="1.2"
                    stroke-linecap="round" stroke-linejoin="round"
                    class="fill-[#6B9FFF] stroke-[#6B9FFF] transition duration-300 group-hover:fill-[#6F7988] group-hover:stroke-[#6F7988] group-data-[active=true]:fill-[#6F7988] group-data-[active=true]:stroke-[#6F7988]">
                  </path>
                  <path d="M145.666 55L145.666 81" stroke="#505967" stroke-width="0.5"></path>
                </g>
              </g>
            </svg>
