<svg width="289" class="w-full" height="150" viewBox="0 0 289 150" fill="none"
              xmlns="http://www.w3.org/2000/svg">
              <g>
                <g>
                  <rect x="5" y="25" width="279" height="88"
                    class="stroke-[#505967] transition duration-300 group-hover:stroke-[#4B8BFF] group-data-[active=true]:stroke-[#4B8BFF]"
                    stroke-width="0.5" stroke-linecap="round" stroke-dasharray="4 4"></rect>
                  <rect x="1" y="20" width="9" height="9" rx="2"
                    class="fill-[#26282D] stroke-[#505967] transition duration-300 group-hover:stroke-[#4B8BFF] group-data-[active=true]:stroke-[#4B8BFF]"
                    stroke-width="0.5"></rect>
                  <rect x="279" y="20" width="9" height="9" rx="2"
                    class="fill-[#26282D] stroke-[#505967] transition duration-300 group-hover:stroke-[#4B8BFF] group-data-[active=true]:stroke-[#4B8BFF]"
                    stroke-width="0.5"></rect>
                  <rect x="1" y="108" width="9" height="9" rx="2"
                    class="fill-[#26282D] stroke-[#505967] transition duration-300 group-hover:stroke-[#4B8BFF] group-data-[active=true]:stroke-[#4B8BFF]"
                    stroke-width="0.5"></rect>
                  <rect x="279" y="108" width="9" height="9" rx="2"
                    class="fill-[#26282D] stroke-[#505967] transition duration-300 group-hover:stroke-[#4B8BFF] group-data-[active=true]:stroke-[#4B8BFF]"
                    stroke-width="0.5"></rect>
                </g>
                <g>
                  <rect x="70" y="10" width="150" height="34" rx="6" fill="#26282D"
                    class="transition-all duration-300 group-hover:w-[183px] group-hover:translate-x-[-16.5px] group-data-[active=true]:w-[183px] group-data-[active=true]:translate-x-[-16.5px]">
                  </rect>
                  <rect x="70.25" y="10.25" width="149.5" height="33.5"
                    class="transition-all duration-300 group-hover:w-[182.5px] group-hover:translate-x-[-16.5px] group-data-[active=true]:w-[182.5px] group-data-[active=true]:translate-x-[-16.5px]"
                    rx="5.75" stroke="#505967" stroke-width="0.5"></rect>
                </g>
                <g
                  class="translate-x-[-16.5px] opacity-0 transition duration-300 group-hover:translate-x-0 group-hover:opacity-100 group-data-[active=true]:translate-x-0 group-data-[active=true]:opacity-100">
                  <path d="M158 27.5374L162.745 22.167L162.745 26.4633H165.828L160.745 31.8337V27.5374H158Z"
                    fill="#4B8BFF" stroke="#4B8BFF" stroke-width="1.2" stroke-linecap="round" stroke-linejoin="round">
                  </path>
                  <rect x="173" y="24" width="25" height="6" rx="3" fill="#4B8BFF"></rect>
                </g>
                <g>
                  <rect x="70" y="51" width="150" height="75" rx="6" fill="#26282D"
                    class="transition-all duration-300 group-hover:w-[183px] group-hover:translate-x-[-16.5px] group-data-[active=true]:w-[183px] group-data-[active=true]:translate-x-[-16.5px]">
                  </rect>
                  <rect x="70.25" y="51.25" width="149.5"
                    class="transition-all duration-300 group-hover:w-[183px] group-hover:translate-x-[-16.5px] group-data-[active=true]:w-[183px] group-data-[active=true]:translate-x-[-16.5px]"
                    height="74.5" rx="5.75" stroke="#505967" stroke-width="0.5"></rect>
                </g>
                <path d="M169 51L169 126" stroke="#505967" stroke-width="0.5"
                  class="transition duration-300 group-hover:translate-x-[-8px] group-data-[active=true]:translate-x-[-8px]">
                </path>
                <g>
                  <path
                    d="M90.1654 24.3337C90.1654 25.5303 89.1953 26.5003 87.9987 26.5003C86.8021 26.5003 85.832 25.5303 85.832 24.3337C85.832 23.137 86.8021 22.167 87.9987 22.167C89.1953 22.167 90.1654 23.137 90.1654 24.3337Z"
                    fill="#6F7988" stroke="#6F7988"
                    class="transition duration-300 group-hover:translate-x-[-16.5px] group-hover:fill-[#4B8BFF] group-hover:stroke-[#4B8BFF] group-data-[active=true]:translate-x-[-16.5px] group-data-[active=true]:fill-[#4B8BFF] group-data-[active=true]:stroke-[#4B8BFF]"
                    stroke-width="1.2" stroke-linecap="round" stroke-linejoin="round"></path>
                  <path
                    d="M84.5635 31.833H91.4335C92.1948 31.833 92.7812 31.1784 92.4257 30.5053C91.9027 29.515 90.7105 28.333 87.9985 28.333C85.2865 28.333 84.0943 29.515 83.5713 30.5053C83.2158 31.1784 83.8022 31.833 84.5635 31.833Z"
                    fill="#6F7988" stroke="#6F7988"
                    class="transition duration-300 group-hover:translate-x-[-16.5px] group-hover:fill-[#4B8BFF] group-hover:stroke-[#4B8BFF] group-data-[active=true]:translate-x-[-16.5px] group-data-[active=true]:fill-[#4B8BFF] group-data-[active=true]:stroke-[#4B8BFF]"
                    stroke-width="1.2" stroke-linecap="round" stroke-linejoin="round"></path>
                </g>
                <rect x="100" y="24" width="52" height="6" rx="3" fill="#505967"
                  class="transition duration-300 group-hover:translate-x-[-16.5px] group-data-[active=true]:translate-x-[-16.5px]">
                </rect>
                <rect x="100" y="62" width="43" height="6" rx="3" fill="#505967"
                  class="transition duration-300 group-hover:translate-x-[-16.5px] group-data-[active=true]:translate-x-[-16.5px]">
                </rect>
                <g
                  class="transition duration-300 group-hover:translate-x-[-16.5px] group-data-[active=true]:translate-x-[-16.5px]">
                  <path
                    d="M90.0174 60.1724C90.0174 62.0166 89.0233 63.6786 87.179 63.6786C89.0233 63.6786 90.0174 65.3406 90.0174 67.1849C90.0174 65.3406 91.0116 63.6786 92.8558 63.6786C91.0116 63.6786 90.0174 62.0166 90.0174 60.1724Z"
                    fill="#6B9FFF" stroke="#6B9FFF"
                    class="transition duration-300 group-hover:fill-[#6F7988] group-hover:stroke-[#6F7988] group-data-[active=true]:fill-[#6F7988] group-data-[active=true]:stroke-[#6F7988]">
                  </path>
                  <path
                    d="M85.3424 65.5152C85.3424 66.6218 84.2784 67.6858 83.1719 67.6858C84.2784 67.6858 85.3424 68.7497 85.3424 69.8563C85.3424 68.7497 86.4064 67.6858 87.5129 67.6858C86.4064 67.6858 85.3424 66.6218 85.3424 65.5152Z"
                    fill="#6B9FFF" stroke="#6B9FFF"
                    class="transition duration-300 group-hover:fill-[#6F7988] group-hover:stroke-[#6F7988] group-data-[active=true]:fill-[#6F7988] group-data-[active=true]:stroke-[#6F7988]">
                  </path>
                  <path
                    d="M90.0174 60.1724C90.0174 62.0166 89.0233 63.6786 87.179 63.6786C89.0233 63.6786 90.0174 65.3406 90.0174 67.1849C90.0174 65.3406 91.0116 63.6786 92.8558 63.6786C91.0116 63.6786 90.0174 62.0166 90.0174 60.1724Z"
                    stroke="#6B9FFF" stroke-width="1.20214" stroke-linecap="round" stroke-linejoin="round"
                    class="transition duration-300 group-hover:fill-[#6F7988] group-hover:stroke-[#6F7988] group-data-[active=true]:fill-[#6F7988] group-data-[active=true]:stroke-[#6F7988]">
                  </path>
                  <path
                    d="M85.3424 65.5152C85.3424 66.6218 84.2784 67.6858 83.1719 67.6858C84.2784 67.6858 85.3424 68.7497 85.3424 69.8563C85.3424 68.7497 86.4064 67.6858 87.5129 67.6858C86.4064 67.6858 85.3424 66.6218 85.3424 65.5152Z"
                    stroke="#6B9FFF" stroke-width="1.20214" stroke-linecap="round" stroke-linejoin="round"
                    class="transition duration-300 group-hover:fill-[#6F7988] group-hover:stroke-[#6F7988] group-data-[active=true]:fill-[#6F7988] group-data-[active=true]:stroke-[#6F7988]">
                  </path>
                </g>
                <rect x="100" y="85" width="30" height="6" rx="3" fill="#505967"
                  class="transition duration-300 group-hover:translate-x-[-16.5px] group-hover:fill-[#4B8BFF] group-data-[active=true]:translate-x-[-16.5px] group-data-[active=true]:fill-[#4B8BFF]">
                </rect>
                <path fill-rule="evenodd" clip-rule="evenodd"
                  d="M82.6657 84.4034C82.568 84.6045 82.5137 84.8277 82.5137 85.0626V90.0238C82.5137 90.9103 83.2876 91.6289 84.2422 91.6289H90.8422C91.7969 91.6289 92.5708 90.9103 92.5708 90.0238V85.0626C92.5708 84.8277 92.5164 84.6045 92.4188 84.4034L87.8588 88.0635C87.6792 88.2077 87.4053 88.2077 87.2257 88.0635L82.6657 84.4034ZM91.8326 83.7469C91.5521 83.5645 91.2106 83.4575 90.8422 83.4575H84.2422C83.8739 83.4575 83.5324 83.5645 83.2519 83.7469L87.5422 87.1906L91.8326 83.7469Z"
                  fill="#6F7988"
                  class="transition duration-300 group-hover:translate-x-[-16.5px] group-hover:fill-[#4B8BFF] group-data-[active=true]:translate-x-[-16.5px] group-data-[active=true]:fill-[#4B8BFF]">
                </path>
                <rect x="100" y="108" width="58" height="6" rx="3" fill="#505967"
                  class="transition duration-300 group-hover:translate-x-[-16.5px] group-data-[active=true]:translate-x-[-16.5px]">
                </rect>
                <path fill-rule="evenodd" clip-rule="evenodd"
                  d="M87.2773 114.49C87.2774 114.49 87.2775 114.49 87.5426 114.1L87.2773 114.49ZM87.8082 114.49L87.8091 114.489L87.8119 114.487L87.8217 114.481L87.8574 114.456C87.8881 114.434 87.9324 114.403 87.9883 114.362C88.1 114.281 88.2584 114.163 88.4479 114.014C88.8262 113.717 89.3323 113.292 89.8402 112.784C90.3465 112.277 90.8652 111.678 91.2598 111.031C91.6522 110.388 91.9426 109.663 91.9426 108.915C91.9426 106.445 89.8767 104.515 87.5426 104.515C85.2085 104.515 83.1426 106.445 83.1426 108.915C83.1426 109.663 83.4329 110.388 83.8253 111.031C84.2199 111.678 84.7386 112.277 85.2449 112.784C85.7529 113.292 86.259 113.717 86.6373 114.014C86.8268 114.163 86.9852 114.281 87.0969 114.362C87.1528 114.403 87.197 114.434 87.2278 114.456L87.2635 114.481L87.2733 114.487L87.2761 114.489L87.2773 114.49C87.4373 114.599 87.6482 114.599 87.8082 114.49ZM87.5426 114.1L87.8082 114.49C87.8081 114.49 87.8077 114.49 87.5426 114.1ZM85.8156 108.915C85.8156 107.96 86.5895 107.186 87.5441 107.186C88.4988 107.186 89.2727 107.96 89.2727 108.915C89.2727 109.869 88.4988 110.643 87.5441 110.643C86.5895 110.643 85.8156 109.869 85.8156 108.915Z"
                  fill="#6B9FFF"
                  class="transition duration-300 group-hover:translate-x-[-16.5px] group-hover:fill-[#6F7988] group-data-[active=true]:translate-x-[-16.5px] group-data-[active=true]:fill-[#6F7988]">
                </path>
                <rect x="175" y="62" width="43" height="6" rx="3" fill="#505967"
                  class="translate-x-[-16px] opacity-0 transition duration-300 group-hover:translate-x-0 group-hover:opacity-100 group-data-[active=true]:translate-x-0 group-data-[active=true]:opacity-100">
                </rect>
                <rect x="175" y="92" width="36" height="6" rx="3" fill="#505967"
                  class="translate-x-[-16px] opacity-0 transition duration-300 group-hover:translate-x-0 group-hover:opacity-100 group-data-[active=true]:translate-x-0 group-data-[active=true]:opacity-100">
                </rect>
                <rect x="175" y="107" width="20" height="6" rx="3" fill="#4B8BFF"
                  class="translate-x-[-16px] opacity-0 transition duration-300 group-hover:translate-x-0 group-hover:opacity-100 group-data-[active=true]:translate-x-0 group-data-[active=true]:opacity-100">
                </rect>
                <rect x="175" y="77" width="30" height="6" rx="3" fill="#505967"
                  class="translate-x-[-16px] opacity-0 transition duration-300 group-hover:translate-x-0 group-hover:opacity-100 group-data-[active=true]:translate-x-0 group-data-[active=true]:opacity-100">
                </rect>
              </g>
            </svg>
