<svg width="289" class="w-full" height="150" viewBox="0 0 289 150" fill="none" 
              xmlns="http://www.w3.org/2000/svg">
              <g clip-path="url(#clip0_1489_231880)">
                <g>
                  <rect x="5" y="25" width="279" height="88"
                    class="stroke-[#505967] transition duration-300 group-hover:stroke-[#4B8BFF] group-data-[active=true]:stroke-[#4B8BFF]"
                    stroke-width="0.5" stroke-linecap="round" stroke-dasharray="4 4"></rect>
                  <rect x="1" y="20" width="9" height="9" rx="2"
                    class="stroke-[#505967] transition duration-300 group-hover:stroke-[#4B8BFF] group-data-[active=true]:stroke-[#4B8BFF] fill-[#26282D]"
                    stroke-width="0.5"></rect>
                  <rect x="279" y="20" width="9" height="9" rx="2"
                    class="stroke-[#505967] transition duration-300 group-hover:stroke-[#4B8BFF] group-data-[active=true]:stroke-[#4B8BFF] fill-[#26282D]"
                    stroke-width="0.5"></rect>
                  <rect x="1" y="108" width="9" height="9" rx="2"
                    class="stroke-[#505967] transition duration-300 group-hover:stroke-[#4B8BFF] group-data-[active=true]:stroke-[#4B8BFF] fill-[#26282D]"
                    stroke-width="0.5"></rect>
                  <rect x="279" y="108" width="9" height="9" rx="2"
                    class="stroke-[#505967] transition duration-300 group-hover:stroke-[#4B8BFF] group-data-[active=true]:stroke-[#4B8BFF] fill-[#26282D]"
                    stroke-width="0.5"></rect>
                </g>
                <g>
                  <g>
                    <rect x="110" y="92" width="50" height="34" rx="6" fill="#26282D"></rect>
                    <rect x="110.25" y="92.25" width="49.5" height="33.5" rx="5.75" stroke="#383E47"
                      class="stroke-[#383E47] transition duration-300 group-hover:stroke-[#505967] group-data-[active=true]:stroke-[#505967]"
                      stroke-width="0.5"></rect>
                  </g>
                  <rect x="115" y="117" width="18" height="4" rx="2" fill="#383E47"
                    class="transition duration-300 group-hover:fill-[#505967] group-data-[active=true]:fill-[#505967]">
                  </rect>
                </g>
                <g>
                  <g>
                    <rect x="53" y="92" width="50" height="34" rx="6" fill="#26282D"></rect>
                    <rect x="53.25" y="92.25" width="49.5" height="33.5" rx="5.75" stroke="#383E47"
                      class="stroke-[#383E47] transition duration-300 group-hover:stroke-[#505967] group-data-[active=true]:stroke-[#505967]"
                      stroke-width="0.5"></rect>
                  </g>
                  <rect x="58" y="117" width="17" height="4" rx="2" fill="#383E47"
                    class="transition duration-300 group-hover:fill-[#505967] group-data-[active=true]:fill-[#505967]">
                  </rect>
                </g>
                <g>
                  <g>
                    <rect x="53" y="51" width="43" height="34" rx="6" fill="#26282D"></rect>
                    <rect x="53.25" y="51.25" width="42.5" height="33.5" rx="5.75" stroke="#383E47"
                      class="stroke-[#383E47] transition duration-300 group-hover:stroke-[#505967] group-data-[active=true]:stroke-[#505967]"
                      stroke-width="0.5"></rect>
                  </g>
                  <rect x="58" y="76" width="17" height="4" rx="2" fill="#383E47"
                    class="transition duration-300 group-hover:fill-[#505967] group-data-[active=true]:fill-[#505967]">
                  </rect>
                </g>
                <g>
                  <g>
                    <rect x="53" y="10" width="64" height="34" rx="6" fill="#26282D"></rect>
                    <rect x="53.25" y="10.25" width="63.5" height="33.5" rx="5.75" stroke="#383E47"
                      class="stroke-[#383E47] transition duration-300 group-hover:stroke-[#505967] group-data-[active=true]:stroke-[#505967]"
                      stroke-width="0.5"></rect>
                  </g>
                  <rect x="58" y="35" width="17" height="4" rx="2" fill="#383E47"
                    class="transition duration-300 group-hover:fill-[#505967] group-data-[active=true]:fill-[#505967]">
                  </rect>
                  <rect x="58" y="15" width="4" height="4" rx="2" fill="#383E47"
                    class="transition duration-300 group-hover:fill-[#505967] group-data-[active=true]:fill-[#505967]">
                  </rect>
                </g>
                <g class="origin-[201px_109px] transform duration-300 transition group-hover:scale-[95%] group-data-[active=true]:scale-[95%]"
                  width="69" height="34">
                  <g>
                    <rect x="167" y="92" width="69" height="34" rx="6" fill="#26282D"></rect>
                    <rect x="167.25" y="92.25" width="68.5" height="33.5" rx="5.75" stroke="#383E47"
                      class="stroke-[#383E47] transition duration-300 group-hover:stroke-[#505967] group-data-[active=true]:stroke-[#505967]"
                      stroke-width="0.5"></rect>
                  </g>
                  <rect x="172" y="117" width="19" height="4" rx="2" fill="#383E47"
                    class="group-hover:fill-brand-light-primary group-data-[active=true]:fill-brand-light-primary transition duration-300">
                  </rect>
                  <path
                    d="M220.986 99.0858C220.986 98.4783 221.479 97.9858 222.086 97.9858C222.694 97.9858 223.186 98.4783 223.186 99.0858V100.186H222.086C221.479 100.186 220.986 99.6934 220.986 99.0858Z"
                    stroke="#6F7988" stroke-width="1.13143" stroke-linecap="round" stroke-linejoin="round"></path>
                  <path
                    d="M227.9 99.0858C227.9 98.4783 228.393 97.9858 229 97.9858C229.608 97.9858 230.1 98.4783 230.1 99.0858C230.1 99.6934 229.608 100.186 229 100.186H227.9V99.0858Z"
                    stroke="#6F7988" stroke-width="1.13143" stroke-linecap="round" stroke-linejoin="round"></path>
                  <path
                    d="M227.9 104.9H229C229.608 104.9 230.1 105.392 230.1 106C230.1 106.607 229.608 107.1 229 107.1C228.393 107.1 227.9 106.607 227.9 106V104.9Z"
                    stroke="#6F7988" stroke-width="1.13143" stroke-linecap="round" stroke-linejoin="round"></path>
                  <path
                    d="M220.986 106C220.986 105.392 221.479 104.9 222.086 104.9H223.186V106C223.186 106.607 222.694 107.1 222.086 107.1C221.479 107.1 220.986 106.607 220.986 106Z"
                    stroke="#6F7988" stroke-width="1.13143" stroke-linecap="round" stroke-linejoin="round"></path>
                  <path d="M223.186 100.186H227.9V104.9H223.186V100.186Z" stroke="#6F7988" stroke-width="1.13143"
                    stroke-linecap="round" stroke-linejoin="round"></path>
                </g>
                <g
                  class="origin-[120px_68px] duration-300 transform transition group-hover:scale-[88%] group-data-[active=true]:scale-[88%]">
                  <g>
                    <rect x="103" y="51" width="34" height="34" rx="6" fill="#26282D"></rect>
                    <rect x="103.25" y="51.25" width="33.5" height="33.5" rx="5.75" stroke="#383E47"
                      class="stroke-[#383E47] transition duration-300 group-hover:stroke-[#6F7988] group-data-[active=true]:stroke-[#6F7988]"
                      stroke-width="0.5"></rect>
                  </g>
                  <path
                    d="M116.665 73V71.9048L121.02 65.794H116.656V64.2727H123.338V65.3679L118.979 71.4787H123.347V73H116.665Z"
                    class="fill-[#9098A0] group-hover:fill-[#4B8BFF] group-data-[active=true]:fill-[#4B8BFF] transition duration-300">
                  </path>
                </g>
                <g>
                  <g>
                    <rect x="144" y="51" width="34" height="34" rx="6" fill="#26282D"></rect>
                    <rect x="144.25" y="51.25" width="33.5" height="33.5" rx="5.75" stroke="#383E47"
                      class="stroke-[#383E47] transition duration-300 group-hover:stroke-[#505967] group-data-[active=true]:stroke-[#505967]"
                      stroke-width="0.5"></rect>
                  </g>
                  <path
                    d="M159.182 64.2727L161.104 67.4688H161.172L163.102 64.2727H164.905L162.216 68.6364L164.947 73H163.115L161.172 69.8253H161.104L159.161 73H157.337L160.094 68.6364L157.371 64.2727H159.182Z"
                    fill="#6B9FFF"
                    class="transition duration-300 group-hover:fill-[#6F7988] group-data-[active=true]:fill-[#6F7988]">
                  </path>
                </g>
                <g>
                  <g>
                    <rect x="124" y="10" width="34" height="34" rx="6" fill="#26282D"></rect>
                    <rect x="124.25" y="10.25" width="33.5" height="33.5" rx="5.75" stroke="#383E47"
                      class="stroke-[#383E47] transition duration-300 group-hover:stroke-[#505967] group-data-[active=true]:stroke-[#505967]"
                      stroke-width="0.5"></rect>
                  </g>
                  <path
                    d="M138.982 32H137.294L140.366 23.2727H142.318L145.395 32H143.707L141.376 25.0625H141.308L138.982 32ZM139.037 28.5781H143.639V29.848H139.037V28.5781Z"
                    fill="#6B9FFF"
                    class="transition duration-300 group-hover:fill-[#6F7988] group-data-[active=true]:fill-[#6F7988]">
                  </path>
                </g>
                <g>
                  <g>
                    <rect x="165" y="10" width="34" height="34" rx="6" fill="#26282D"></rect>
                    <rect x="165.25" y="10.25" width="33.5" height="33.5" rx="5.75" stroke="#383E47"
                      class="stroke-[#383E47] transition duration-300 group-hover:stroke-[#505967] group-data-[active=true]:stroke-[#505967]"
                      stroke-width="0.5"></rect>
                  </g>
                  <path
                    d="M183.604 25.6719C183.564 25.2997 183.396 25.0099 183.101 24.8026C182.808 24.5952 182.428 24.4915 181.959 24.4915C181.629 24.4915 181.347 24.5412 181.111 24.6406C180.875 24.7401 180.695 24.875 180.57 25.0455C180.445 25.2159 180.381 25.4105 180.378 25.6293C180.378 25.8111 180.419 25.9687 180.501 26.1023C180.587 26.2358 180.702 26.3494 180.847 26.4432C180.991 26.5341 181.152 26.6108 181.328 26.6733C181.504 26.7358 181.682 26.7884 181.861 26.831L182.679 27.0355C183.009 27.1122 183.325 27.2159 183.629 27.3466C183.936 27.4773 184.21 27.642 184.452 27.8409C184.696 28.0398 184.889 28.2798 185.031 28.5611C185.173 28.8423 185.244 29.1719 185.244 29.5497C185.244 30.0611 185.114 30.5114 184.852 30.9006C184.591 31.2869 184.213 31.5895 183.719 31.8082C183.227 32.0241 182.632 32.1321 181.933 32.1321C181.254 32.1321 180.665 32.027 180.165 31.8168C179.668 31.6065 179.278 31.2997 178.997 30.8963C178.719 30.4929 178.568 30.0014 178.545 29.4219H180.101C180.124 29.7259 180.217 29.9787 180.382 30.1804C180.547 30.3821 180.761 30.5327 181.026 30.6321C181.293 30.7315 181.591 30.7812 181.92 30.7812C182.264 30.7812 182.565 30.7301 182.824 30.6278C183.085 30.5227 183.29 30.3778 183.438 30.1932C183.585 30.0057 183.661 29.7869 183.663 29.5369C183.661 29.3097 183.594 29.1222 183.463 28.9744C183.332 28.8239 183.149 28.6989 182.913 28.5994C182.68 28.4972 182.408 28.4062 182.095 28.3267L181.102 28.071C180.384 27.8864 179.815 27.6065 179.398 27.2315C178.983 26.8537 178.776 26.3523 178.776 25.7273C178.776 25.2131 178.915 24.7628 179.193 24.3764C179.474 23.9901 179.857 23.6903 180.339 23.4773C180.822 23.2614 181.369 23.1534 181.98 23.1534C182.599 23.1534 183.142 23.2614 183.608 23.4773C184.077 23.6903 184.445 23.9872 184.712 24.3679C184.979 24.7457 185.116 25.1804 185.125 25.6719H183.604Z"
                    fill="#6B9FFF"
                    class="transition duration-300 group-hover:fill-[#6F7988] group-data-[active=true]:fill-[#6F7988]">
                  </path>
                </g>
              </g>
            </svg>
