<svg width="290" class="w-full" height="150" viewBox="0 0 290 150" fill="none"
              xmlns="http://www.w3.org/2000/svg">
              <g clip-path="url(#clip0_886_319755)">
                <g>
                  <rect x="5" y="25" width="279" height="88"
                    class="stroke-[#505967] transition duration-300 group-hover:stroke-[#4B8BFF] group-data-[active=true]:stroke-[#4B8BFF]"
                    stroke-width="0.5" stroke-linecap="round" stroke-dasharray="4 4"></rect>
                  <rect x="1" y="20" width="9" height="9" rx="2"
                    class="fill-[#26282D] stroke-[#505967] transition duration-300 group-hover:stroke-[#4B8BFF] group-data-[active=true]:stroke-[#4B8BFF]"
                    stroke-width="0.5"></rect>
                  <rect x="279" y="20" width="9" height="9" rx="2"
                    class="fill-[#26282D] stroke-[#505967] transition duration-300 group-hover:stroke-[#4B8BFF] group-data-[active=true]:stroke-[#4B8BFF]"
                    stroke-width="0.5"></rect>
                  <rect x="1" y="108" width="9" height="9" rx="2"
                    class="fill-[#26282D] stroke-[#505967] transition duration-300 group-hover:stroke-[#4B8BFF] group-data-[active=true]:stroke-[#4B8BFF]"
                    stroke-width="0.5"></rect>
                  <rect x="279" y="108" width="9" height="9" rx="2"
                    class="fill-[#26282D] stroke-[#505967] transition duration-300 group-hover:stroke-[#4B8BFF] group-data-[active=true]:stroke-[#4B8BFF]"
                    stroke-width="0.5"></rect>
                </g>
                <g
                  class="translate-x-0px transform transition duration-300 group-hover:translate-x-[-10px] group-data-[active=true]:translate-x-[-10px]">
                  <g>
                    <rect x="53.334" y="92" width="183" height="34" rx="6" fill="#26282D"></rect>
                    <rect x="53.584" y="92.25" width="182.5" height="33.5" rx="5.75" stroke="#505967"
                      stroke-width="0.5"></rect>
                  </g>
                  <path d="M225.796 105.981L219.314 112.463" stroke="#6B9FFF" stroke-width="0.933332"
                    stroke-linecap="round" stroke-linejoin="round"
                    class="transition duration-300 group-hover:stroke-[#6F7988] group-data-[active=true]:stroke-[#6F7988]">
                  </path>
                  <path d="M219.314 105.981L225.796 112.463" stroke="#6B9FFF" stroke-width="0.933332"
                    stroke-linecap="round" stroke-linejoin="round"
                    class="transition duration-300 group-hover:stroke-[#6F7988] group-data-[active=true]:stroke-[#6F7988]">
                  </path>
                  <rect x="83.334" y="106" width="91" height="6" rx="3"
                    class="w-[91px] fill-[#505967] transition-all duration-300 group-hover:w-[105px] group-hover:fill-[#4B8BFF] group-data-[active=true]:w-[105px] group-data-[active=true]:fill-[#4B8BFF]">
                  </rect>
                  <path fill-rule="evenodd" clip-rule="evenodd"
                    d="M69.3359 115C72.6496 115 75.3359 112.314 75.3359 109C75.3359 105.686 72.6496 103 69.3359 103C66.0222 103 63.3359 105.686 63.3359 109C63.3359 112.314 66.0222 115 69.3359 115ZM72.737 107.444C72.9825 107.222 73.0011 106.842 72.7785 106.597C72.5559 106.351 72.1765 106.333 71.931 106.556L67.9358 110.178L66.7514 109.031C66.5134 108.8 66.1336 108.806 65.903 109.044C65.6725 109.282 65.6785 109.662 65.9165 109.893L67.5048 111.431C67.7319 111.651 68.0909 111.657 68.3252 111.444L72.737 107.444Z"
                    class="fill-[#6F7988] transition duration-300 group-hover:fill-[#4B8BFF] group-data-[active=true]:fill-[#4B8BFF]">
                  </path>
                </g>
                <g
                  class="translate-x-0px transform transition duration-300 group-hover:translate-x-[-10px] group-data-[active=true]:translate-x-[-10px]">
                  <g>
                    <rect x="170.334" y="10" width="66" height="34" rx="6" fill="#26282D"></rect>
                    <rect x="170.584" y="10.25" width="65.5" height="33.5" rx="5.75" stroke="#505967"
                      stroke-width="0.5"></rect>
                  </g>
                  <path d="M224.963 26.0186L222.556 28.426L220.148 26.0186" stroke="#6B9FFF" stroke-width="1.08333"
                    stroke-linecap="round" stroke-linejoin="round"
                    class="transition duration-300 group-hover:stroke-[#6F7988] group-data-[active=true]:stroke-[#6F7988]">
                  </path>
                  <rect x="180.334" y="24" width="28" height="6" rx="3" fill="#505967"></rect>
                  <g>
                    <rect x="53.334" y="10" width="110" height="34" rx="6" fill="#26282D"></rect>
                    <rect x="53.584" y="10.25" width="109.5" height="33.5" rx="5.75" stroke="#505967"
                      stroke-width="0.5"></rect>
                  </g>
                  <path d="M146.963 26.0186L144.556 28.426L142.148 26.0186" stroke="#6B9FFF" stroke-width="1.08333"
                    stroke-linecap="round" stroke-linejoin="round"
                    class="transition duration-300 group-hover:stroke-[#6F7988] group-data-[active=true]:stroke-[#6F7988]">
                  </path>
                  <rect x="83.334" y="24" height="6" rx="3"
                    class="w-[45px] fill-[#505967] transition-all duration-300 group-hover:w-[37px] group-hover:fill-[#4B8BFF]  group-data-[active=true]:w-[37px] group-data-[active=true]:fill-[#4B8BFF]">
                  </rect>
                  <path d="M65.334 27.5374L70.0787 22.167L70.0787 26.4633H73.162L68.0787 31.8337V27.5374H65.334Z"
                    stroke-width="1.2" stroke-linecap="round" stroke-linejoin="round"
                    class="fill-[#6F7988] stroke-[#6F7988] transition duration-300 group-hover:fill-[#4B8BFF] group-hover:stroke-[#4B8BFF] group-data-[active=true]:fill-[#4B8BFF] group-data-[active=true]:stroke-[#4B8BFF]">
                  </path>
                </g>
                <g>
                  <rect x="53.334" y="51" width="66" height="34" rx="6" fill="#26282D"
                    class="w-[66px] transition-all duration-300 group-hover:w-[76px] group-data-[active=true]:w-[76px]">
                  </rect>
                  <rect x="53.584" y="51.25" width="65.5" height="33.5" rx="5.75" stroke="#505967" stroke-width="0.5"
                    class="w-[65.5px] transition-all duration-300 group-hover:w-[75.5px] group-data-[active=true]:w-[75.5px]">
                  </rect>
                </g>
                <path d="M66.8353 67.5003L64.502 65.3337L66.8353 63.167" stroke="#6B9FFF" stroke-width="1.2"
                  stroke-linecap="round" stroke-linejoin="round"
                  class="transition duration-300 group-hover:stroke-[#6F7988] group-data-[active=true]:stroke-[#6F7988]">
                </path>
                <path d="M64.502 65.333H71.502" stroke="#6B9FFF" stroke-width="1.2" stroke-linecap="round"
                  stroke-linejoin="round"
                  class="transition duration-300 group-hover:stroke-[#6F7988] group-data-[active=true]:stroke-[#6F7988]">
                </path>
                <path d="M71.834 68.5L74.1673 70.6667L71.834 72.8333" stroke="#6B9FFF" stroke-width="1.2"
                  stroke-linecap="round" stroke-linejoin="round"
                  class="transition duration-300 group-hover:stroke-[#6F7988] group-data-[active=true]:stroke-[#6F7988]">
                </path>
                <path d="M74.166 70.667H67.166" stroke="#6B9FFF" stroke-width="1.2" stroke-linecap="round"
                  stroke-linejoin="round"
                  class="transition duration-300 group-hover:stroke-[#6F7988] group-data-[active=true]:stroke-[#6F7988]">
                </path>
                <rect x="83.334" y="65" width="22" height="6" rx="3" fill="#505967"
                  class="w-[22px] transition-all duration-300 group-hover:w-[30px] group-data-[active=true]:w-[30px]">
                </rect>
                <g
                  class="translate-x-0px transform transition duration-300 group-hover:translate-x-[10px] group-data-[active=true]:translate-x-[10px]">
                  <g>
                    <rect x="126.334" y="51" width="110" height="34" rx="6" fill="#26282D"></rect>
                    <rect x="126.584" y="51.25" width="109.5" height="33.5" rx="5.75" stroke="#505967"
                      stroke-width="0.5"></rect>
                  </g>
                  <path d="M224.963 67.0186L222.556 69.426L220.148 67.0186" stroke="#6B9FFF" stroke-width="1.08333"
                    stroke-linecap="round" stroke-linejoin="round"
                    class="transition duration-300 group-hover:stroke-[#6F7988] group-data-[active=true]:stroke-[#6F7988]">
                  </path>
                  <rect x="155.334" y="65" width="43" height="6" rx="3"
                    class="w-[43px] fill-[#505967] transition-all duration-300 group-hover:w-[51px] group-hover:fill-[#4B8BFF] group-data-[active=true]:w-[51px] group-data-[active=true]:fill-[#4B8BFF]">
                  </rect>
                  <path
                    d="M143.499 65.3337C143.499 66.5303 142.529 67.5003 141.333 67.5003C140.136 67.5003 139.166 66.5303 139.166 65.3337C139.166 64.137 140.136 63.167 141.333 63.167C142.529 63.167 143.499 64.137 143.499 65.3337Z"
                    stroke-width="1.2" stroke-linecap="round" stroke-linejoin="round"
                    class="fill-[#6F7988] stroke-[#6F7988] transition duration-300 group-hover:fill-[#4B8BFF] group-hover:stroke-[#4B8BFF] group-data-[active=true]:fill-[#4B8BFF] group-data-[active=true]:stroke-[#4B8BFF]">
                  </path>
                  <path
                    d="M137.898 72.833H144.767C145.529 72.833 146.115 72.1784 145.76 71.5053C145.237 70.515 144.044 69.333 141.333 69.333C138.621 69.333 137.428 70.515 136.905 71.5053C136.55 72.1784 137.136 72.833 137.898 72.833Z"
                    class="fill-[#6F7988] stroke-[#6F7988] transition duration-300 group-hover:fill-[#4B8BFF] group-hover:stroke-[#4B8BFF] group-data-[active=true]:fill-[#4B8BFF] group-data-[active=true]:stroke-[#4B8BFF]"
                    stroke-width="1.2" stroke-linecap="round" stroke-linejoin="round"></path>
                </g>
              </g>
            </svg>
