<?xml version="1.0" encoding="iso-8859-1"?>
<!-- Uploaded to: SVG Repo, www.svgrepo.com, Generator: SVG Repo Mixer Tools -->
<!DOCTYPE svg PUBLIC "-//W3C//DTD SVG 1.1//EN" "http://www.w3.org/Graphics/SVG/1.1/DTD/svg11.dtd">
<svg fill="#000000" version="1.1" id="Capa_1" xmlns="http://www.w3.org/2000/svg" xmlns:xlink="http://www.w3.org/1999/xlink" 
	 width="800px" height="800px" viewBox="0 0 369.698 369.698"
	 xml:space="preserve">
<g>
	<path d="M361.771,147.464C361.159,147.464,361.159,147.464,361.771,147.464c0.611-2.448,0.611-4.284-0.612-6.732
		c-29.988-41.004-75.888-72.828-119.952-97.308c-2.448-1.224-5.508,0-6.731,1.836c-3.673-1.224-8.568,0.612-8.568,5.508
		c-1.225,15.912-0.612,33.048,0.612,49.572C123.703,84.428-34.805,158.48,6.811,282.104c0,0,0,0.612,0.612,0.612
		c-1.836,1.836-1.836,5.508,0,7.956c6.12,7.956,15.3,15.3,23.256,22.032c4.896,4.283,15.912,17.136,23.868,12.852c0,0,0,0,0.612,0
		c25.704,3.672,50.796-1.836,76.5-5.508c1.836,0,3.06-1.224,3.672-2.448c2.448,0.612,4.896-1.224,4.896-3.672
		c1.224-47.124,43.452-69.156,85.68-70.992c2.448,0,4.284-2.448,4.896-4.284c0.612,0.612,1.836,1.225,2.448,1.225
		c-0.612,1.836,0.612,3.672,1.836,4.896c-1.224,1.836-1.836,4.896,0.612,6.12c7.956,6.732,17.748,10.404,25.704,17.748
		c1.836,1.836,5.508,2.448,7.956,1.225c26.928-17.748,53.855-36.108,76.5-58.752C358.711,197.037,381.967,165.212,361.771,147.464z
		 M130.435,307.808c-1.224-0.611-2.448-0.611-3.672-0.611c-23.868,3.672-47.124,9.792-71.604,7.344h-0.612
		c-1.224-1.836-3.672-3.061-4.896-4.284c-4.284-3.06-8.568-6.732-12.852-10.404c-4.284-3.672-8.568-7.344-12.852-11.016
		c24.48,1.224,48.96,0.612,72.828-3.061c2.448-0.611,3.672-1.836,4.284-3.06c1.224-0.612,1.836-1.836,1.836-3.06
		c7.344-59.364,69.156-83.232,123.012-82.62c0,0.611,0,1.224-0.612,1.836c-0.612,9.18-2.448,23.256,0.612,33.048
		C183.067,225.8,124.927,260.684,130.435,307.808z M228.355,183.572c-53.244-3.06-137.7,25.704-134.641,89.965
		c-25.092,1.836-50.796,2.447-75.888,3.672C-6.041,162.764,128.599,95.444,227.131,113.192l0,0v0.612c0.612,6.12,9.181,6.12,9.792,0
		c1.836-19.584,3.061-40.392,1.836-59.976c37.332,29.376,77.725,54.468,108.324,91.8c-36.72,25.704-71.604,54.468-105.264,84.457
		c-0.612-4.284-1.225-9.181-1.836-13.464c-0.612-5.509-1.225-11.628-1.836-17.137c0-2.447-1.225-4.283-3.061-5.508
		C236.312,190.304,233.863,184.184,228.355,183.572z M315.259,220.292c-11.628,9.792-24.479,18.359-37.332,27.54
		c-4.283,3.06-9.18,6.12-13.464,9.18c-1.224,0.612-15.3-8.568-21.42-12.24c37.944-28.151,74.052-58.14,111.384-86.904
		C358.099,184.796,335.455,203.157,315.259,220.292z"/>
</g>
</svg>