<svg xmlns="http://www.w3.org/2000/svg" xmlns:xlink="http://www.w3.org/1999/xlink" version="1.1" width="1000" height="1000" viewBox="0 0 1000 1000" xml:space="preserve">
<desc>Created with Fabric.js 3.5.0</desc>
<defs>
</defs>
<rect x="0" y="0" width="100%" height="100%" fill="#ffffff"/>
<g transform="matrix(0 2.459 2.459 0 500.0009 499.9988)" id="514600">
<path style="stroke: none; stroke-width: 1; stroke-dasharray: none; stroke-linecap: butt; stroke-dashoffset: 0; stroke-linejoin: miter; stroke-miterlimit: 4; is-custom-font: none; font-file-url: none; fill: rgb(0,0,0); fill-rule: nonzero; opacity: 1;" vector-effect="non-scaling-stroke" transform=" translate(-184.8489, -184.8491)" d="M 361.771 147.464 C 361.159 147.464 361.159 147.464 361.771 147.464 c 0.611 -2.448 0.611 -4.284 -0.612 -6.732 c -29.988 -41.004 -75.888 -72.828 -119.952 -97.308 c -2.448 -1.224 -5.508 0 -6.731 1.836 c -3.673 -1.224 -8.568 0.612 -8.568 5.508 c -1.225 15.912 -0.612 33.048 0.612 49.572 C 123.703 84.428 -34.805 158.48 6.811 282.104 c 0 0 0 0.612 0.612 0.612 c -1.836 1.836 -1.836 5.508 0 7.956 c 6.12 7.956 15.3 15.3 23.256 22.032 c 4.896 4.283 15.912 17.136 23.868 12.852 c 0 0 0 0 0.612 0 c 25.704 3.672 50.796 -1.836 76.5 -5.508 c 1.836 0 3.06 -1.224 3.672 -2.448 c 2.448 0.612 4.896 -1.224 4.896 -3.672 c 1.224 -47.124 43.452 -69.156 85.68 -70.992 c 2.448 0 4.284 -2.448 4.896 -4.284 c 0.612 0.612 1.836 1.225 2.448 1.225 c -0.612 1.836 0.612 3.672 1.836 4.896 c -1.224 1.836 -1.836 4.896 0.612 6.12 c 7.956 6.732 17.748 10.404 25.704 17.748 c 1.836 1.836 5.508 2.448 7.956 1.225 c 26.928 -17.748 53.855 -36.108 76.5 -58.752 C 358.711 197.037 381.967 165.212 361.771 147.464 z M 130.435 307.808 c -1.224 -0.611 -2.448 -0.611 -3.672 -0.611 c -23.868 3.672 -47.124 9.792 -71.604 7.344 h -0.612 c -1.224 -1.836 -3.672 -3.061 -4.896 -4.284 c -4.284 -3.06 -8.568 -6.732 -12.852 -10.404 c -4.284 -3.672 -8.568 -7.344 -12.852 -11.016 c 24.48 1.224 48.96 0.612 72.828 -3.061 c 2.448 -0.611 3.672 -1.836 4.284 -3.06 c 1.224 -0.612 1.836 -1.836 1.836 -3.06 c 7.344 -59.364 69.156 -83.232 123.012 -82.62 c 0 0.611 0 1.224 -0.612 1.836 c -0.612 9.18 -2.448 23.256 0.612 33.048 C 183.067 225.8 124.927 260.684 130.435 307.808 z M 228.355 183.572 c -53.244 -3.06 -137.7 25.704 -134.641 89.965 c -25.092 1.836 -50.796 2.447 -75.888 3.672 C -6.041 162.764 128.599 95.444 227.131 113.192 l 0 0 v 0.612 c 0.612 6.12 9.181 6.12 9.792 0 c 1.836 -19.584 3.061 -40.392 1.836 -59.976 c 37.332 29.376 77.725 54.468 108.324 91.8 c -36.72 25.704 -71.604 54.468 -105.264 84.457 c -0.612 -4.284 -1.225 -9.181 -1.836 -13.464 c -0.612 -5.509 -1.225 -11.628 -1.836 -17.137 c 0 -2.447 -1.225 -4.283 -3.061 -5.508 C 236.312 190.304 233.863 184.184 228.355 183.572 z M 315.259 220.292 c -11.628 9.792 -24.479 18.359 -37.332 27.54 c -4.283 3.06 -9.18 6.12 -13.464 9.18 c -1.224 0.612 -15.3 -8.568 -21.42 -12.24 c 37.944 -28.151 74.052 -58.14 111.384 -86.904 C 358.099 184.796 335.455 203.157 315.259 220.292 z" stroke-linecap="round"/>
</g>
</svg>