<svg id="Layer_1" data-name="Layer 1" xmlns="http://www.w3.org/2000/svg" xmlns:xlink="http://www.w3.org/1999/xlink" viewBox="0 0 512 512"><defs><linearGradient id="linear-gradient" x1="256" y1="512" x2="256" gradientUnits="userSpaceOnUse"><stop offset="0" stop-color="#458d34"/><stop offset="1" stop-color="#8bc53f"/></linearGradient></defs><title>accept</title><path d="M512,412.3A99.71,99.71,0,0,1,412.3,512H99.69A99.7,99.7,0,0,1,0,412.3V99.7A99.7,99.7,0,0,1,99.69,0H412.3A99.71,99.71,0,0,1,512,99.7Z" fill="url(#linear-gradient)"/><path d="M502.43,57.26a99.7,99.7,0,0,0-74-55.85A103.47,103.47,0,0,0,415.07.13C366,60.9,265.41,185.41,248.72,206.05l-74.36-42.56c-25.44-13.84-45.34-4.85-55.63,8.11l-21.08,27a43.76,43.76,0,0,0,4.65,59.25l132.27,120a40.91,40.91,0,0,0,30.65,10.53,41.71,41.71,0,0,0,29.11-15.66l11.26-14.2L512,102.59V99.7A99.37,99.37,0,0,0,502.43,57.26Z" fill="#21632c"/><path d="M428.43,1.41l-169.51,239L164,193.77c-9.87-4.59-19.35-4.64-25.3,3.89L119.5,225.75c-5.94,8.55-4.28,20.77,3.68,27.16L262.65,364.37c8,6.39,19.34,4.62,25.3-3.93l10.35-14.86c.15-.2.37-.28.49-.47L502.43,57.26A99.7,99.7,0,0,0,428.43,1.41Z" fill="#fff"/></svg>