<svg xmlns="http://www.w3.org/2000/svg" width="50" height="50" fill="none"><path fill="#fff" stroke="#2E3238" stroke-miterlimit="10" stroke-width="1.33333" d="M16.293 20.8655v6.9292c0 .6142.4351 1.3678.967 1.675l6.7693 3.9082c.5983.3455 1.3357.3455 1.934 0l6.7693-3.9082c.5984-.3455.967-.984.967-1.675v-6.9292c0-.691-.3686-1.3295-.967-1.675l-6.7693-3.9081c-.5983-.3455-1.3357-.3455-1.934 0L17.26 19.1905c-.5984.3455-.967.984-.967 1.675Z"/><path stroke="#2E3238" stroke-linejoin="round" stroke-width="1.33333" d="m26.2177 24.5064 5.0722-2.9275c.3752-.2165.844.0542.844.4874v5.2635c0 .346-.1845.6656-.4842.8385l-5.0723 2.9283c-.3752.2165-.844-.0542-.844-.4873v-5.2644c0-.346.1847-.6655.4843-.8385Z"/><path fill="#fff" stroke="#2E3238" stroke-miterlimit="10" stroke-width="1.33333" d="M27.4976 26.8291v6.9292c0 .6141.4351 1.3678.967 1.675l6.7693 3.9081c.5983.3455 1.3357.3455 1.934 0l6.7693-3.9081c.5984-.3455.967-.984.967-1.675v-6.9292c0-.691-.3686-1.3295-.967-1.675l-6.7693-3.9082c-.5983-.3455-1.3357-.3455-1.934 0l-6.7693 3.9082c-.5984.3455-.967.984-.967 1.675ZM5.09521 27.345v6.9292c0 .6142.43517 1.3678.96701 1.675l6.76928 3.9082c.5984.3455 1.3357.3455 1.934 0l6.7694-3.9082c.5983-.3455.967-.984.967-1.675V27.345c0-.691-.3687-1.3295-.967-1.675l-6.7694-3.9081c-.5983-.3455-1.3356-.3455-1.934 0L6.06222 25.67c-.59834.3455-.96701.984-.96701 1.675Z"/><path fill="#fff" stroke="#2E3238" stroke-miterlimit="10" stroke-width="1.33333" d="M16.293 33.3086v6.9292c0 .6141.4351 1.3678.967 1.675l6.7693 3.9081c.5983.3455 1.3357.3455 1.934 0l6.7693-3.9081c.5984-.3455.967-.984.967-1.675v-6.9292c0-.691-.3686-1.3295-.967-1.675l-6.7693-3.9082c-.5983-.3455-1.3357-.3455-1.934 0L17.26 31.6336c-.5984.3455-.967.984-.967 1.675ZM16.293 9.76246v6.92914c0 .6142.4351 1.3679.967 1.675l6.7693 3.9082c.5983.3455 1.3357.3455 1.934 0l6.7693-3.9082c.5984-.3455.967-.984.967-1.675V9.76246c0-.691-.3686-1.3295-.967-1.675l-6.7693-3.90817c-.5983-.3455-1.3357-.3455-1.934 0L17.26 8.08746c-.5984.3455-.967.984-.967 1.675Z"/><path fill="#fff" stroke="#2E3238" stroke-miterlimit="10" stroke-width="1.33333" d="M27.4976 15.726v6.9291c0 .6142.4351 1.3679.967 1.675l6.7693 3.9082c.5983.3455 1.3357.3455 1.934 0l6.7693-3.9082c.5984-.3455.967-.984.967-1.675V15.726c0-.691-.3686-1.3295-.967-1.675l-6.7693-3.9082c-.5983-.34551-1.3357-.34551-1.934 0l-6.7693 3.9082c-.5984.3455-.967.984-.967 1.675ZM5.09521 16.242v6.9291c0 .6142.43517 1.3678.96701 1.675l6.76928 3.9082c.5984.3455 1.3357.3455 1.934 0l6.7694-3.9082c.5983-.3455.967-.984.967-1.675V16.242c0-.691-.3687-1.3295-.967-1.675l-6.7694-3.9082c-.5983-.3455-1.3356-.3455-1.934 0L6.06222 14.567c-.59834.3455-.96701.984-.96701 1.675Z"/><path fill="#fff" stroke="#2E3238" stroke-miterlimit="10" stroke-width="1.33333" d="M16.293 22.2055v6.9291c0 .6142.4351 1.3679.967 1.675l6.7693 3.9082c.5983.3455 1.3357.3455 1.934 0l6.7693-3.9082c.5984-.3455.967-.984.967-1.675v-6.9291c0-.691-.3686-1.3296-.967-1.6751l-6.7693-3.9081c-.5983-.3455-1.3357-.3455-1.934 0L17.26 20.5304c-.5984.3455-.967.9841-.967 1.6751Z"/><path stroke="#505967" stroke-linejoin="round" stroke-width=".833333" d="m26.2177 25.8463 5.0722-2.9275c.3752-.2165.844.0542.844.4874v5.2635c0 .346-.1845.6656-.4842.8385l-5.0723 2.9283c-.3752.2165-.844-.0542-.844-.4873v-5.2644c0-.346.1847-.6655.4843-.8385Z"/></svg>