<svg xmlns="http://www.w3.org/2000/svg" viewBox="0 0 200 226" fill="none" xmlns:v="https://vecta.io/nano"><path d="M136.185 14.98H32.004v65.066h104.181V14.98z" style="fill: rgb(255, 255, 255);"></path><path d="M32.111.862l-.04 14.507 104.181.332.04-14.507L32.111.862z" style="fill: rgb(98, 127, 208);"></path><g fill="#000"><path d="M136.134 81.394l-104.239-.312c-.077.005-.155-.008-.227-.038a.55.55 0 0 1-.193-.134c-.055-.059-.098-.13-.125-.207a.63.63 0 0 1-.035-.244l.047-16.7c0-.165.061-.324.17-.441a.56.56 0 0 1 .41-.183.56.56 0 0 1 .41.183c.109.117.17.276.17.441l-.047 16.065 103.02.334.182-63.82-103.026-.334-.083 30.059c0 .165-.061.324-.17.441a.56.56 0 0 1-.41.183.56.56 0 0 1-.411-.183.65.65 0 0 1-.17-.441l.088-30.666a.63.63 0 0 1 .035-.244c.028-.078.07-.149.125-.207s.121-.105.193-.134.15-.042.227-.038l104.181.334a.52.52 0 0 1 .228.038.55.55 0 0 1 .193.134.6.6 0 0 1 .125.207.65.65 0 0 1 .035.244l-.182 65.067c.005.077-.005.154-.029.226s-.062.139-.111.195-.108.1-.174.13a.49.49 0 0 1-.209.044z" style="fill: rgb(0, 0, 0);"></path><path d="M31.957 57.086a.51.51 0 0 1-.227-.038.54.54 0 0 1-.192-.134c-.054-.059-.096-.13-.123-.208a.63.63 0 0 1-.033-.244l.036-12.804a.63.63 0 0 1 .035-.244.59.59 0 0 1 .125-.207c.055-.058.121-.105.193-.134s.15-.042.227-.038c.078-.01.158-.001.232.027s.142.074.197.134a.58.58 0 0 1 .146.462l-.031 12.832a.63.63 0 0 1-.043.237.59.59 0 0 1-.128.198.55.55 0 0 1-.191.127c-.071.028-.147.039-.223.034zM142.4 16.231l-116.413-.363a.58.58 0 0 1-.635-.578.58.58 0 0 1 .635-.578l116.47.347a.55.55 0 0 1 .228.035.56.56 0 0 1 .193.125.55.55 0 0 1 .125.193c.028.072.04.15.035.227a.6.6 0 0 1-.051.236.58.58 0 0 1-.14.197.6.6 0 0 1-.207.125.59.59 0 0 1-.24.032h0zm-27.408-4.642a.49.49 0 0 1-.222-.046.53.53 0 0 1-.183-.143c-.055-.056-.099-.124-.129-.199a.64.64 0 0 1 0-.476c.03-.075.074-.143.129-.199l4.826-5.148a.57.57 0 0 1 .187-.134c.069-.031.144-.047.22-.047a.54.54 0 0 1 .22.047.58.58 0 0 1 .187.134c.053.057.096.125.124.2s.044.155.044.236-.015.161-.044.236-.071.143-.124.2l-4.831 5.148c-.05.062-.113.11-.182.143a.49.49 0 0 1-.222.046z" style="fill: rgb(0, 0, 0);"></path><path d="M119.801 11.606a.53.53 0 0 1-.22-.05c-.069-.032-.132-.08-.184-.139l-4.794-5.182a.61.61 0 0 1-.125-.2c-.029-.075-.044-.155-.044-.236s.015-.161.044-.236a.61.61 0 0 1 .125-.2.58.58 0 0 1 .186-.134c.07-.031.145-.047.22-.047a.55.55 0 0 1 .221.047.57.57 0 0 1 .186.134l4.795 5.187a.6.6 0 0 1 .129.198c.03.075.046.155.046.236a.63.63 0 0 1-.046.236.61.61 0 0 1-.129.198c-.051.062-.114.112-.185.144a.49.49 0 0 1-.225.045zm6.9.022a2.82 2.82 0 0 1-1.643-.542c-.485-.351-.863-.849-1.085-1.431a3.4 3.4 0 0 1-.163-1.837c.117-.616.4-1.181.816-1.624s.943-.744 1.518-.864a2.77 2.77 0 0 1 1.709.187c.54.243 1.001.652 1.325 1.176s.495 1.139.493 1.768c-.006.842-.321 1.648-.878 2.241a2.87 2.87 0 0 1-2.092.926h0zm0-5.171a1.71 1.71 0 0 0-1 .322 1.9 1.9 0 0 0-.665.865 2.07 2.07 0 0 0-.106 1.116c.069.375.239.72.49.991a1.76 1.76 0 0 0 .92.531 1.68 1.68 0 0 0 1.039-.107 1.83 1.83 0 0 0 .809-.709 2.03 2.03 0 0 0 .306-1.072c-.003-.508-.19-.995-.522-1.357s-.783-.57-1.256-.58h-.015zM50.202 63.681h-.114c-.074-.018-.143-.052-.204-.1a.58.58 0 0 1-.15-.179.62.62 0 0 1-.071-.228.63.63 0 0 1 .02-.239c.057-.189 5.183-21.531 28.113-18.369l1.156.189c21.77 3.062 28.399 3.952 34.629-5.739l4.017-6.279a.59.59 0 0 1 .371-.273.56.56 0 0 1 .443.089.63.63 0 0 1 .254.399.67.67 0 0 1-.083.475l-4.017 6.273c-6.64 10.315-13.943 9.296-35.733 6.301l-1.156-.189C55.768 42.75 50.901 62.968 50.844 63.218a.92.92 0 0 1-.272.311c-.111.08-.238.132-.371.151h0z" style="fill: rgb(0, 0, 0);"></path><path d="M119.615 38.314a.54.54 0 0 1-.378-.133c-.107-.092-.179-.223-.203-.368l-.855-4.859-4.53.918a.55.55 0 0 1-.242.017c-.081-.012-.158-.042-.227-.088a.61.61 0 0 1-.176-.178c-.046-.072-.079-.153-.094-.239a.71.71 0 0 1 .002-.26.65.65 0 0 1 .1-.237.61.61 0 0 1 .179-.174.57.57 0 0 1 .23-.082l5.105-1.046a.55.55 0 0 1 .232-.001.56.56 0 0 1 .213.095.61.61 0 0 1 .163.177.67.67 0 0 1 .087.231l.969 5.482a.67.67 0 0 1 .001.248.66.66 0 0 1-.088.23.62.62 0 0 1-.165.175.56.56 0 0 1-.215.093h-.108zM68.219 69.091c-.078.01-.158.001-.232-.027s-.142-.074-.197-.134a.58.58 0 0 1-.146-.462v-1.859a.67.67 0 0 1 .027-.256.63.63 0 0 1 .121-.222c.054-.064.121-.115.195-.151s.154-.053.235-.053a.55.55 0 0 1 .235.053.58.58 0 0 1 .195.151c.055.065.096.14.121.222a.67.67 0 0 1 .027.256v1.87a.66.66 0 0 1-.046.236.62.62 0 0 1-.126.199.57.57 0 0 1-.188.132.54.54 0 0 1-.221.045h0zm0-4.976a.52.52 0 0 1-.228-.04.55.55 0 0 1-.193-.136.6.6 0 0 1-.125-.209c-.027-.078-.039-.161-.035-.245v-1.887a.65.65 0 0 1 .17-.441.56.56 0 0 1 .41-.182.56.56 0 0 1 .41.182.65.65 0 0 1 .17.441v1.865c.004.083-.008.165-.035.243s-.067.149-.12.21a.58.58 0 0 1-.186.143c-.07.034-.146.053-.224.055h-.016zm0-5.01a.51.51 0 0 1-.227-.038.54.54 0 0 1-.192-.135.59.59 0 0 1-.124-.208.63.63 0 0 1-.033-.244v-1.87a.6.6 0 0 1 .025-.249.58.58 0 0 1 .124-.212c.055-.06.124-.105.198-.132a.48.48 0 0 1 .232-.025c.077-.005.155.008.227.038a.55.55 0 0 1 .193.134c.055.059.097.13.125.207a.63.63 0 0 1 .035.244v1.865a.66.66 0 0 1-.157.448.57.57 0 0 1-.403.203l-.026-.028zm0-4.982c-.078.01-.158.001-.232-.027s-.142-.074-.197-.134a.58.58 0 0 1-.146-.462v-1.87a.67.67 0 0 1 .027-.256.63.63 0 0 1 .121-.222c.054-.064.121-.115.195-.151s.154-.053.235-.053a.55.55 0 0 1 .235.053.58.58 0 0 1 .195.151c.055.065.096.14.121.222a.67.67 0 0 1 .027.256v1.865c.008.164-.043.324-.144.447a.57.57 0 0 1-.395.21l-.041-.028zm0-5.01c-.078.005-.155-.008-.227-.038s-.138-.075-.193-.134-.097-.13-.125-.207a.63.63 0 0 1-.035-.244v-1.87a.65.65 0 0 1 .17-.441.56.56 0 0 1 .41-.183.56.56 0 0 1 .41.183.65.65 0 0 1 .17.441v1.87c.014.165-.033.329-.131.456a.57.57 0 0 1-.393.223l-.057-.056zm0-4.982a.51.51 0 0 1-.227-.038.54.54 0 0 1-.192-.135.6.6 0 0 1-.124-.208.63.63 0 0 1-.033-.244v-1.865a.65.65 0 0 1 .17-.441.56.56 0 0 1 .41-.183.56.56 0 0 1 .41.183.65.65 0 0 1 .17.441v1.87c.013.163-.034.325-.131.451a.57.57 0 0 1-.388.223l-.067-.056zm0-4.976c-.078.004-.155-.009-.227-.04a.55.55 0 0 1-.192-.136.6.6 0 0 1-.123-.209.63.63 0 0 1-.033-.245v-1.809a.67.67 0 0 1 .027-.256.63.63 0 0 1 .121-.222.58.58 0 0 1 .195-.151.55.55 0 0 1 .47 0 .58.58 0 0 1 .195.151.63.63 0 0 1 .121.222.67.67 0 0 1 .027.256v1.87a.65.65 0 0 1-.14.412.57.57 0 0 1-.358.211l-.083-.056zm0-4.982a.52.52 0 0 1-.228-.04.55.55 0 0 1-.193-.136.6.6 0 0 1-.125-.208c-.027-.078-.039-.161-.035-.245v-1.865a.65.65 0 0 1 .17-.441.56.56 0 0 1 .41-.183.56.56 0 0 1 .41.183.65.65 0 0 1 .17.441v1.865a.66.66 0 0 1-.114.446.58.58 0 0 1-.368.239l-.098-.056zm0-5.01a.51.51 0 0 1-.227-.037c-.072-.03-.138-.076-.192-.135a.6.6 0 0 1-.124-.208.63.63 0 0 1-.033-.244v-1.787a.6.6 0 0 1 .025-.249.58.58 0 0 1 .124-.212c.055-.06.124-.105.198-.132a.48.48 0 0 1 .232-.025c.077-.005.155.008.227.038s.138.075.193.134.097.13.125.207a.63.63 0 0 1 .035.244v1.865a.66.66 0 0 1-.133.405.58.58 0 0 1-.344.219l-.109-.084zm31.597 40.035c-.078.01-.158.001-.232-.027s-.142-.074-.197-.134a.58.58 0 0 1-.146-.462v-1.87a.67.67 0 0 1 .027-.256.63.63 0 0 1 .121-.222c.054-.064.121-.115.195-.151s.154-.053.235-.053a.55.55 0 0 1 .235.053.59.59 0 0 1 .195.151.65.65 0 0 1 .121.222.67.67 0 0 1 .027.256v1.865c.001.082-.014.164-.043.24a.61.61 0 0 1-.125.204.59.59 0 0 1-.189.137.54.54 0 0 1-.223.048h0zm0-5.01c-.077.005-.155-.008-.227-.038s-.138-.075-.193-.134-.097-.13-.125-.207a.63.63 0 0 1-.035-.244v-1.87a.6.6 0 0 1 .025-.249.58.58 0 0 1 .124-.212c.055-.06.124-.105.198-.132a.48.48 0 0 1 .232-.025.52.52 0 0 1 .227.037.54.54 0 0 1 .193.134.59.59 0 0 1 .125.207.63.63 0 0 1 .035.244v1.865c.004.083-.008.165-.035.243s-.067.149-.12.21a.59.59 0 0 1-.186.143.55.55 0 0 1-.224.055l-.016-.028zm0-4.982a.51.51 0 0 1-.227-.038.54.54 0 0 1-.192-.134.59.59 0 0 1-.124-.208.63.63 0 0 1-.033-.244v-1.87a.65.65 0 0 1 .17-.441.56.56 0 0 1 .41-.183.56.56 0 0 1 .41.183.65.65 0 0 1 .17.441v1.87a.66.66 0 0 1-.156.448.57.57 0 0 1-.404.203l-.026-.028zm0-4.982c-.078.01-.158.001-.232-.027s-.142-.074-.197-.134a.58.58 0 0 1-.146-.462v-1.87a.64.64 0 0 1 .187-.402.56.56 0 0 1 .391-.162.56.56 0 0 1 .391.162.64.64 0 0 1 .187.402v1.87a.65.65 0 0 1-.146.444.57.57 0 0 1-.393.208l-.041-.028zm0-5.01c-.077.005-.155-.008-.227-.038s-.138-.075-.193-.134-.097-.13-.125-.207a.63.63 0 0 1-.035-.244v-1.865a.65.65 0 0 1 .17-.441.56.56 0 0 1 .41-.183.56.56 0 0 1 .41.183.65.65 0 0 1 .17.441v1.87c.007.081-.001.163-.023.241a.62.62 0 0 1-.108.213.58.58 0 0 1-.176.152c-.068.038-.141.061-.216.068l-.057-.056zm0-4.977a.52.52 0 0 1-.226-.041c-.072-.031-.137-.077-.191-.136a.6.6 0 0 1-.123-.208.65.65 0 0 1-.035-.243v-1.865a.65.65 0 0 1 .17-.441.56.56 0 0 1 .41-.183.56.56 0 0 1 .41.183.65.65 0 0 1 .17.441v1.87a.66.66 0 0 1-.13.453c-.097.127-.236.208-.388.226l-.067-.056zm0-4.982c-.078.01-.158.001-.232-.027s-.142-.074-.197-.134a.58.58 0 0 1-.146-.462v-1.87a.67.67 0 0 1 .027-.256.63.63 0 0 1 .121-.222c.054-.064.121-.116.195-.151a.55.55 0 0 1 .47 0 .59.59 0 0 1 .195.151.65.65 0 0 1 .121.222.67.67 0 0 1 .027.256v1.865a.67.67 0 0 1-.012.244.65.65 0 0 1-.099.221.61.61 0 0 1-.171.163.55.55 0 0 1-.216.079l-.083-.078zm0-5.01c-.077.005-.155-.008-.227-.038s-.138-.075-.193-.134-.097-.13-.125-.207a.63.63 0 0 1-.035-.244v-1.87a.65.65 0 0 1 .17-.441.56.56 0 0 1 .41-.183.56.56 0 0 1 .41.183.65.65 0 0 1 .17.441v1.865a.66.66 0 0 1-.106.46c-.09.132-.225.221-.376.247l-.099-.078zm0-4.982a.51.51 0 0 1-.227-.038.54.54 0 0 1-.192-.134.59.59 0 0 1-.124-.208.63.63 0 0 1-.033-.244v-1.87a.65.65 0 0 1 .17-.441.56.56 0 0 1 .41-.183.56.56 0 0 1 .41.183c.109.117.17.275.17.441v1.987c-.005.142-.055.278-.141.385a.57.57 0 0 1-.336.205l-.109-.084z" style="fill: rgb(0, 0, 0);"></path></g><path d="M72.181 46.191c.355-2.308-1.099-4.489-3.248-4.871s-4.18 1.18-4.535 3.488 1.099 4.489 3.248 4.871 4.18-1.18 4.535-3.488zm31.634 1.471c.007-2.34-1.754-4.242-3.932-4.249s-3.95 1.884-3.956 4.224 1.754 4.242 3.933 4.249 3.95-1.884 3.956-4.224z" style="fill: rgb(98, 127, 208);"></path><path d="M104.941 72.844s-2.431-3.797-5.504-1.497-2.897 10.577-2.897 10.577l11.822-1.742-3.421-7.337zm8.117 65.502s-1.156-1.993-.928-3.179c.291-1.303 1.975-1.303 3.307.557 1.037 1.431 4.292 3.613 4.292 3.613-.44.62-1.029 1.099-1.705 1.385a3.71 3.71 0 0 1-2.125.235c-2.608-.312-2.841-2.611-2.841-2.611z" style="fill: rgb(255, 255, 255);"></path><path d="M116.48 141.585a2.08 2.08 0 0 1-.638-.066c-2.317-.312-3.188-1.993-3.359-2.984-.29-.501-1.218-2.305-.927-3.552.078-.33.238-.631.462-.872a1.74 1.74 0 0 1 .813-.497c.984-.251 2.14.434 3.068 1.67s4.147 3.423 4.178 3.423a.92.92 0 0 1 .29.373.77.77 0 0 1-.057.501c-.449.632-1.029 1.142-1.694 1.49a4.47 4.47 0 0 1-2.136.514h0zm-2.83-3.301c0 .062.29 1.804 2.379 2.054a3.52 3.52 0 0 0 1.533-.113c.498-.15.963-.409 1.364-.761-.985-.684-3.074-2.226-3.882-3.34-.7-.996-1.451-1.308-1.913-1.18-.102.017-.197.067-.271.145s-.122.18-.138.289c-.171.685.518 2.116.814 2.678.046.039.046.1.114.228z" style="fill: rgb(0, 0, 0);"></path><g fill="#fff"><path d="M110.508 152.418c-.347.869-1.099 1.554-2.146 1.114-.391-.162-.736-.431-1-.781a2.66 2.66 0 0 1-.503-1.212l-.119.25c-.461.874-1.856 1.492-2.592.062-2.379-4.047 2.664-12.392 7.013-13.388s11.191 1.497 11.191 1.497l-5.971 12.141c-1.219-.434-2.074-2.494-2.074-2.494s-.228 3.056-.694 3.864-1.275 1.369-2.027.684-.871-2.176-.871-2.176l-.207.439zm20.245-26.714l-22.391-9.647c-1.663-.706-3.169-1.781-4.419-3.155a13.82 13.82 0 0 1-2.837-4.816l-8.988-25.528 20.002-2.989 3.307 23.285 21.857 6.29h7.479s10.958.746 18.955 16.872c7.132 14.384 15.55 29.886 15.031 43.463L125.7 159.142l3.073-20.546c1.099-2.867 1.737-7.659 2.141-12.207l-.161-.685z" style="fill: rgb(255, 255, 255);"></path><path d="M144.427 106.344l-.581 6.724c-1.94.719-4.066.585-5.914-.373l-.959-5.605v-.19c-9.163-1.43-8.873-8.528-8.697-11.327.114-2.928-1.275-3.896-1.275-3.896s-4.696-2.305-3.944-4.359 3.944-1.932 3.944-1.932l1.389-.061 17.566-.373-1.529 21.392z" style="fill: rgb(255, 255, 255);"></path><path d="M139.731 72.733s-7.712-5.979-13.336-2.989.731 12.191.731 12.191 7.826 12.954 30.611 9.525c.871-5.789 1.218-13.761-5.504-18.303-2.903-1.993-7.308-1.559-11.367-.501l-1.135.078zm25.973 133.541l5.39 3.051-1.622 8.594s-6.961 2.305-9.625 3.546c-1.856.813-1.913 2.182 2.55 2.182h13.393l11.134-28.639-15.887-2.227-5.333 13.493z" style="fill: rgb(255, 255, 255);"></path></g><path d="M175.847 224.27h-13.393c-2.721 0-4.115-.501-4.286-1.497-.063-.435 0-1.242 1.503-1.926 2.379-1.064 7.945-2.989 9.329-3.429l1.509-7.793-5.044-2.783a.61.61 0 0 1-.299-.343c-.054-.152-.051-.32.009-.47l5.334-13.509a.58.58 0 0 1 .23-.294c.105-.067.229-.095.35-.079l15.886 2.227c.089.001.176.032.248.087s.127.134.157.224c.05.081.082.174.092.271s-.002.195-.035.286l-11.123 28.655c0 .184-.233.373-.467.373zm-16.524-1.742c.177.122.871.495 3.11.495h13.046l10.667-27.458-14.704-2.037-4.924 12.563 4.929 2.738a.61.61 0 0 1 .252.29c.052.124.066.262.038.395l-1.622 8.588c-.024.114-.074.219-.146.307a.64.64 0 0 1-.264.194c-.057 0-6.956 2.305-9.563 3.485-.528.128-.762.312-.819.44z" style="fill: rgb(0, 0, 0);"></path><path d="M125.467 207.955l.518 15.693h-38.9c-2.84 0-4.81-.746-5.043-2.055s2.783-1.742 2.783-1.742l22.956-4.297.813-8.406 16.872.807z" style="fill: rgb(255, 255, 255);"></path><path d="M125.99 224.271H87.085c-3.245 0-5.277-.935-5.624-2.555-.034-.184-.031-.374.009-.556s.117-.354.224-.502c.638-.996 2.669-1.369 3.074-1.491l22.495-4.236.752-7.91c.021-.151.091-.289.197-.39a.59.59 0 0 1 .383-.167l16.929.869a.6.6 0 0 1 .399.194.69.69 0 0 1 .181.429l.518 15.691a.59.59 0 0 1-.042.239c-.031.075-.076.142-.134.196-.166.061-.285.189-.456.189zm-16.928-16.565l-.757 7.792a.68.68 0 0 1-.151.355.61.61 0 0 1-.31.202l-22.961 4.297c-.751.123-2.027.501-2.317.935-.057.062 0 .062 0 .062.171.745 1.622 1.558 4.463 1.558h38.325l-.467-14.444-15.824-.757z" style="fill: rgb(0, 0, 0);"></path><g fill="#7286c0"><path d="M136.019 173.275l42.03 12.703-13.476 28.268-44.813-23.04 2.55-19.801 13.709 1.87z" style="fill: rgb(98, 127, 208);"></path><path d="M178.688 166.675l-51.562-16.31c-1.976-.625-4.047-.822-6.094-.579s-4.029.918-5.83 1.99-3.387 2.516-4.665 4.251-2.22 3.725-2.776 5.855l-12.75 49.625h35.743l.985-34.245 21.8 9.959a16.25 16.25 0 0 0 7.4 1.472c2.538-.099 5.024-.797 7.282-2.045s4.232-3.015 5.782-5.175 2.638-4.66 3.187-7.323l1.498-7.475z" style="fill: rgb(98, 127, 208);"></path></g><path d="M160.371 189.524c-2.433-.001-4.84-.533-7.075-1.564l-28.062-13.075c-.114-.08-.199-.202-.237-.344a.66.66 0 0 1 .027-.427c.057-.134.156-.242.28-.305s.265-.076.397-.037l27.989 13.014c3.655 1.7 7.757 1.93 11.557.65s7.044-3.987 9.139-7.625c.091-.126.222-.21.368-.237a.55.55 0 0 1 .42.091.64.64 0 0 1 .252.373c.037.154.02.317-.05.458-1.569 2.761-3.774 5.042-6.402 6.624s-5.591 2.409-8.603 2.404h0z" style="fill: rgb(0, 0, 0);"></path><path d="M93.694 64.622s-2.141 1.498-1.156 2.617 3.711 0 3.711 0 2.783-.935 3.421-2.227-3.25-2.506-5.976-.39z" style="fill: rgb(255, 255, 255);"></path><path d="M93.953 68.363c-.328.025-.656-.023-.966-.141s-.593-.303-.833-.544a1.7 1.7 0 0 1-.322-.579c-.07-.214-.098-.442-.083-.668.119-1.113 1.394-2.115 1.622-2.304 2.322-1.804 5.396-1.492 6.438-.501a1.3 1.3 0 0 1 .45.742 1.37 1.37 0 0 1-.103.878c-.751 1.559-3.478 2.494-3.768 2.555a5.7 5.7 0 0 1-2.436.562h0zm3.25-4.297c-1.112.008-2.196.377-3.11 1.058h0a2.92 2.92 0 0 0-1.161 1.431c0 .061 0 .128.114.251.466.557 2.073.25 3.074-.189.985-.312 2.726-1.113 3.11-1.993 0-.061-.114-.245-.638-.434a9.11 9.11 0 0 0-1.415-.123h.026z" style="fill: rgb(0, 0, 0);"></path><path d="M108.362 80.131s-1.793-6.725.871-16.143c.29-1.932 1.104-5.483-5.1-6.413s-10.263 4.231-10.667 5.166c-.581 1.247.114 2.739 2.431 2.488" style="fill: rgb(255, 255, 255);"></path><path d="M108.363 80.749c-.124-.011-.243-.057-.345-.133a.75.75 0 0 1-.236-.301c-.057-.312-1.793-6.975.871-16.5v-.189c.176-1.058.409-2.366-.347-3.485-.695-.996-2.146-1.67-4.292-2.054-5.909-.874-9.796 4.108-10.086 4.854a1.14 1.14 0 0 0-.13.532c0 .186.045.369.13.532.29.434.985.618 1.856.495a.51.51 0 0 1 .23.012.54.54 0 0 1 .205.112c.06.053.109.118.144.193s.055.156.058.239a.66.66 0 0 1-.02.243c-.022.079-.057.152-.106.216s-.108.117-.175.155-.142.063-.218.07c-1.793.184-2.592-.557-2.897-.996-.204-.352-.322-.753-.342-1.167a2.6 2.6 0 0 1 .228-1.199c.637-1.431 5.043-6.474 11.304-5.567 2.493.373 4.173 1.186 5.044 2.555 1.036 1.492.756 3.301.518 4.42l-.057.189v.061c-2.592 9.152-.928 15.754-.871 15.815a.64.64 0 0 1 .018.239.62.62 0 0 1-.071.227.59.59 0 0 1-.149.179c-.06.048-.129.082-.202.101.041.15 0 .15-.062.15z" style="fill: rgb(0, 0, 0);"></path><path d="M111.202 70.852L80.534 58.961c-.23-.087-.442-.224-.622-.4s-.326-.39-.429-.629-.159-.496-.168-.758.033-.523.12-.768h0c.08-.248.206-.475.37-.67s.362-.352.584-.462.461-.172.705-.182a1.71 1.71 0 0 1 .715.128l30.674 11.947c.23.087.442.224.622.4s.326.39.429.629a2.09 2.09 0 0 1 .167.758c.009.262-.032.523-.12.768h0c-.177.488-.526.88-.972 1.092a1.73 1.73 0 0 1-1.407.038h0z" style="fill: rgb(255, 255, 255);"></path><path d="M111.84 71.62a1.77 1.77 0 0 1-.808-.184L80.363 59.479c-.308-.111-.592-.291-.832-.526a2.51 2.51 0 0 1-.562-.843 2.62 2.62 0 0 1-.224-.99c-.01-.343.047-.685.167-1.003.228-.657.686-1.192 1.275-1.492a2.19 2.19 0 0 1 .921-.242c.319-.012.637.048.934.175l30.669 11.957c.604.237 1.096.722 1.368 1.348a2.79 2.79 0 0 1 .083 1.992c-.171.515-.485.961-.901 1.277s-.912.486-1.421.488h0zM81.172 55.744c-.178.011-.353.053-.518.123-.295.152-.524.422-.638.752-.064.17-.092.353-.082.536a1.31 1.31 0 0 0 .139.522 1.27 1.27 0 0 0 .695.685l30.669 11.952c.312.113.654.091.951-.062s.528-.425.641-.757a1.45 1.45 0 0 0-.033-1.023 1.31 1.31 0 0 0-.688-.708L81.638 55.805c-.15-.058-.308-.086-.467-.084v.022z" style="fill: rgb(0, 0, 0);"></path><path d="M157.757 91.458s-1.218 14.012-8.811 14.385c-3.302.189-6.085 1.057-9.392-4.543 1.451-.067 3.244-.128 3.187-2.867s-2.026-3.858-4.229-2.928c-.233-.618.171-5.227.171-5.227s7.308 2.8 19.074 1.18z" style="fill: rgb(98, 127, 208);"></path><g fill="#000"><path d="M138.57 107.898c-11.403-.869-11.014-9.342-10.884-12.142.114-2.227-.814-3.173-.985-3.34-.985-.495-5.1-2.678-4.147-5.105s4.344-2.305 4.52-2.305a.56.56 0 0 1 .411.183.65.65 0 0 1 .17.441.65.65 0 0 1-.035.244.6.6 0 0 1-.125.207.55.55 0 0 1-.193.134c-.073.03-.15.042-.228.038-.751-.061-2.897.184-3.364 1.492-.404.996 1.975 2.678 3.654 3.552.057 0 .057 0 .057.061s1.685 1.247 1.509 4.481c-.114 2.739-.519 10.02 9.739 10.838.079-.002.158.015.23.051s.136.089.186.155a.58.58 0 0 1 .103.227c.018.083.017.169-.001.252a.67.67 0 0 1-.217.389c-.113.098-.254.15-.4.146h0z" style="fill: rgb(0, 0, 0);"></path><path d="M141.41 114.377c-1.285-.023-2.551-.342-3.711-.936-.171-.061-.233-.25-.29-.439l-.985-5.6c-.031-.166 0-.338.087-.478s.223-.238.377-.271.314 0 .444.094a.64.64 0 0 1 .253.404l.928 5.294a6.65 6.65 0 0 0 4.867.373c.29-2.054.518-6.229.518-6.29.027-.155.108-.293.225-.387a.56.56 0 0 1 .41-.122c.146.016.281.091.378.208a.66.66 0 0 1 .148.429c0 .183-.29 4.854-.581 6.785-.062.202-.184.376-.347.496-.883.285-1.799.433-2.721.44h0zm-1.161-12.453c-.552-.02-1.098-.125-1.622-.312-.144-.062-.26-.181-.324-.332a.7.7 0 0 1-.024-.48.63.63 0 0 1 .307-.348c.14-.069.299-.078.445-.025.871.311 1.627.373 2.146.061a2.05 2.05 0 0 0 .594-.583 2.23 2.23 0 0 0 .334-.787v-.061a3.26 3.26 0 0 0-.004-1.454c-.112-.477-.329-.918-.634-1.285-.985-1.186-2.55-.373-2.664-.312-.139.064-.296.068-.438.009a.6.6 0 0 1-.319-.321.7.7 0 0 1-.022-.45.65.65 0 0 1 .255-.357c.114-.067 2.379-1.247 4.002.557a4.39 4.39 0 0 1 .924 1.837c.162.685.163 1.402.004 2.088-.096.448-.273.871-.523 1.245a3.35 3.35 0 0 1-.929.932 3.01 3.01 0 0 1-1.508.378z" style="fill: rgb(0, 0, 0);"></path><path d="M150.279 92.644c-17.105 0-23.325-9.903-23.594-10.398-.114-.189-3.945-5.728-3.017-9.836a5.08 5.08 0 0 1 .909-1.92 4.65 4.65 0 0 1 1.584-1.32c5.857-3.117 13.508 2.739 13.922 3.006 4.349-1.247 9.273-1.804 12.523.373 7.07 4.731 6.665 13.076 5.795 18.926-.057.25-.228.501-.462.501a43.51 43.51 0 0 1-7.66.668h0zm-20.35-23.101c-1.137-.004-2.262.251-3.301.746-.47.214-.884.547-1.207.971a3.5 3.5 0 0 0-.649 1.462c-.814 3.546 2.841 8.778 2.841 8.84.114.184 7.826 12.452 29.627 9.341.808-5.483.984-13.015-5.334-17.256s-20.639 3.429-20.733 3.49a.52.52 0 0 1-.424.043.54.54 0 0 1-.191-.111c-.056-.05-.102-.112-.136-.182a.57.57 0 0 1-.075-.224.59.59 0 0 1 .019-.237c.022-.077.059-.147.109-.207a.53.53 0 0 1 .18-.139 46.1 46.1 0 0 1 7.873-3.346c-1.524-1.113-5.121-3.19-8.599-3.19h0zm48.815 100.555c-.152 0-.299-.065-.406-.181a.64.64 0 0 1-.169-.437c.461-12.391-6.494-26.341-13.279-39.79-.581-1.114-1.099-2.227-1.679-3.34-7.775-15.626-18.38-16.5-18.494-16.5a.54.54 0 0 1-.236-.055.59.59 0 0 1-.195-.153.64.64 0 0 1-.121-.224.68.68 0 0 1-.026-.258.66.66 0 0 1 .072-.247c.04-.077.094-.143.16-.195s.139-.09.219-.109a.53.53 0 0 1 .241-.005c.461 0 11.362.935 19.421 17.184.581 1.113 1.104 2.226 1.68 3.367 6.841 13.633 13.859 27.705 13.393 40.408a.62.62 0 0 1-.195.387c-.107.099-.244.152-.386.148h0zm-47.99-43.77c-.082.009-.164-.013-.233-.061l-22.376-9.653c-1.724-.736-3.286-1.85-4.585-3.272a14.48 14.48 0 0 1-2.962-4.984l-8.987-25.551a.66.66 0 0 1-.034-.286.64.64 0 0 1 .091-.271c.092-.157.237-.269.404-.312l20.023-2.995c.145-.02.293.021.411.114s.199.231.226.387l3.25 22.913 21.448 6.162c.143.047.264.149.34.287a.68.68 0 0 1 .069.459.61.61 0 0 1-.094.219c-.045.066-.102.121-.168.162a.53.53 0 0 1-.213.077c-.075.011-.152.004-.224-.018l-21.77-6.23c-.108-.024-.207-.086-.28-.175s-.119-.201-.129-.32l-3.188-22.668-18.726 2.783 8.698 24.777c.602 1.708 1.525 3.264 2.712 4.571s2.612 2.338 4.187 3.028l22.334 9.586a.63.63 0 0 1 .324.332c.064.151.073.323.023.48-.048.124-.127.232-.227.312a.67.67 0 0 1-.343.145h0z" style="fill: rgb(0, 0, 0);"></path></g><path d="M154.399 125.269l6.899 27.522a11.69 11.69 0 0 1-.261 5.442 11.06 11.06 0 0 1-2.678 4.629c-1.242 1.275-2.765 2.191-4.427 2.662a9.49 9.49 0 0 1-5.074.032l-34.266-9.592 9.568-19.361 21.624 9.402" style="fill: rgb(255, 255, 255);"></path><g fill="#000"><path d="M151.383 166.491a10.49 10.49 0 0 1-2.727-.373l-34.26-9.592c-.174-.067-.319-.2-.41-.373-.041-.086-.063-.181-.063-.278s.022-.192.063-.278l9.568-19.361c.062-.148.175-.264.316-.323a.54.54 0 0 1 .436.011l21.624 9.402c.144.06.261.178.327.328s.075.322.026.479a.58.58 0 0 1-.117.214.52.52 0 0 1-.192.138c-.073.03-.151.042-.228.035s-.153-.032-.22-.075l-21.101-9.213-8.987 18.181 33.509 9.524c1.575.441 3.23.443 4.806.005s3.023-1.301 4.202-2.508 2.052-2.716 2.535-4.386a11.01 11.01 0 0 0 .228-5.157l-6.899-27.432c-.026-.08-.037-.164-.031-.249a.67.67 0 0 1 .064-.241c.037-.075.088-.141.15-.193s.133-.091.209-.113a.54.54 0 0 1 .233-.013c.078.013.153.043.219.089s.123.105.167.176.074.149.088.232l6.898 27.522a12.19 12.19 0 0 1-.243 5.791c-.545 1.876-1.532 3.569-2.866 4.913-1.987 1.996-4.604 3.11-7.324 3.118h0z" style="fill: rgb(0, 0, 0);"></path><path d="M112.194 155.157c-.401-.021-.786-.173-1.104-.434-.928-.812-1.037-2.432-1.099-2.616-.005-.162.045-.32.14-.446s.229-.211.378-.239a.66.66 0 0 1 .406.163.74.74 0 0 1 .232.394h0a2.84 2.84 0 0 0 .637 1.742c.176.184.347.184.41.123a1.44 1.44 0 0 0 .751-.746c.29-.434.518-2.366.638-3.552a.64.64 0 0 1 .153-.368.57.57 0 0 1 .332-.188.54.54 0 0 1 .369.072c.112.067.2.173.25.301.314.734.768 1.39 1.332 1.926l5.406-10.888c-1.799-.557-6.842-1.993-10.206-1.247-2.317.501-5.1 3.49-6.432 6.913-.871 2.227-.928 4.236-.233 5.539a.78.78 0 0 0 .137.273c.062.08.139.145.226.192s.182.074.279.08a.66.66 0 0 0 .285-.044 1.02 1.02 0 0 0 .494-.32c.133-.155.222-.347.258-.554-.171-2.227 1.161-5.288 2.322-6.285.06-.051.128-.089.202-.111s.151-.027.227-.015a.54.54 0 0 1 .214.082c.065.043.122.1.166.167s.083.139.103.218a.63.63 0 0 1 .015.245c-.011.082-.037.161-.077.231a.6.6 0 0 1-.155.18c-.871.746-2.027 3.34-1.856 5.227-.006.495-.16.975-.441 1.368a2.15 2.15 0 0 1-1.114.814c-.433.144-.899.115-1.314-.08s-.751-.544-.946-.983c-.928-1.615-.928-3.98.114-6.68 1.275-3.301 4.235-6.975 7.257-7.66 4.467-.996 11.19 1.431 11.48 1.553.083.027.158.076.219.142s.105.148.129.237a.74.74 0 0 1 0 .495l-5.914 12.08a.68.68 0 0 1-.302.273.62.62 0 0 1-.393.038c-.584-.287-1.1-.713-1.508-1.246-.082.822-.297 1.623-.638 2.365-.156.32-.376.598-.645.814a2.17 2.17 0 0 1-.91.433l-.274.022zm16.58-15.938a.31.31 0 0 1-.234-.066.53.53 0 0 1-.197-.126.56.56 0 0 1-.127-.204c-.028-.077-.039-.16-.033-.243a.6.6 0 0 1 .067-.235c2.436-6.412 2.592-23.351 2.592-23.535.009-.162.074-.314.181-.429a.6.6 0 0 1 .399-.194h0a.56.56 0 0 1 .411.182.65.65 0 0 1 .17.441c0 .685-.177 17.373-2.727 23.97-.024.123-.088.234-.179.314s-.206.124-.323.125z" style="fill: rgb(0, 0, 0);"></path></g><path d="M96.477 81.935c.119-.434-2.431-5.478-1.793-7.844s1.913-8.038 2.379-9.775 2.032-1.186 2.493-.312 1.685 8.217 1.685 8.217" style="fill: rgb(255, 255, 255);"></path><path d="M96.478 82.558h-.114a.56.56 0 0 1-.343-.218c-.086-.115-.13-.259-.124-.406-.113-.362-.248-.715-.404-1.058-.695-1.87-1.913-5.043-1.332-6.914l1.508-6.123.871-3.613c.075-.407.264-.78.542-1.069a1.85 1.85 0 0 1 1.013-.546c.393-.035.787.052 1.136.249a2.15 2.15 0 0 1 .834.865c.461.935 1.508 7.159 1.736 8.406a.7.7 0 0 1 .015.258.68.68 0 0 1-.082.242.63.63 0 0 1-.165.187.57.57 0 0 1-.221.101.55.55 0 0 1-.24-.002.56.56 0 0 1-.22-.104.61.61 0 0 1-.163-.189c-.042-.074-.069-.157-.08-.243l-1.622-8.033a.97.97 0 0 0-.344-.368c-.143-.088-.305-.134-.47-.133-.233 0-.467.251-.581.685l-.871 3.552-1.508 6.162c-.404 1.498.7 4.487 1.337 6.123.404 1.113.518 1.436.461 1.67a.62.62 0 0 1-.194.374.54.54 0 0 1-.376.143h0zm12.506 71.791a2.72 2.72 0 0 1-.865-.189c-.478-.21-.901-.54-1.234-.963a3.55 3.55 0 0 1-.684-1.464c-.003-.157.05-.31.147-.428s.233-.192.379-.208.292.027.409.121.198.232.226.387c.069.331.211.639.413.899s.458.465.748.599a.99.99 0 0 0 .407.089.99.99 0 0 0 .407-.089c.201-.175.366-.392.486-.638s.19-.516.208-.793c.057-.623.638-4.236 1.856-5.043.063-.048.135-.081.211-.098a.54.54 0 0 1 .23.001c.076.017.148.051.211.099s.116.11.156.182.076.146.092.228a.65.65 0 0 1-.001.249.63.63 0 0 1-.093.227c-.045.068-.102.126-.169.17-.518.373-1.218 2.861-1.337 4.169a3.31 3.31 0 0 1-.386 1.339c-.221.409-.525.76-.889 1.026-.156-.061-.503.128-.928.128zm21.769 57.781a.56.56 0 0 1-.41-.183c-.109-.117-.17-.275-.17-.441l.985-34.244a.65.65 0 0 1 .17-.441.56.56 0 0 1 .41-.182.56.56 0 0 1 .411.182.65.65 0 0 1 .17.441l-.985 34.244c.004.084-.008.167-.035.245s-.07.148-.125.207a.54.54 0 0 1-.193.134.51.51 0 0 1-.228.038h0z" style="fill: rgb(0, 0, 0);"></path><path d="M21.078 147.614c-3.535-6.853-14.959-8.595-19.592-14.445-2.783-3.423-1.508-5.605 2.592-4.358 6.494 1.992 11.771 10.208 11.771 10.208s2.623 3.852 5.23 8.595zm-10.2 7.905c-1.451 0-2.493-1.993-.871-2.783 10.553-3.925 15.031 6.413 15.031 6.413-4.831-5.244-12.714-3.691-14.16-3.63zm15.881 22.044c.814-2.617 4.582-9.402 7.075-13.138s4.406-9.402 1.97-9.653c-8.345-.434-9.045 17.937-9.045 17.937v4.854z" style="fill: rgb(245, 236, 199);"></path><path d="M7.685 193.127h34.209l-5.334 30.76H13.018l-5.333-30.76z" style="fill: rgb(209, 255, 239);"></path><path d="M6.41 203.549a.55.55 0 0 1 .035-.228.56.56 0 0 1 .318-.318.55.55 0 0 1 .227-.035h35.541a.58.58 0 0 1 .445.149.56.56 0 0 1 .14.194.58.58 0 0 1 0 .47c-.033.074-.08.14-.14.194a.58.58 0 0 1-.207.122c-.077.025-.158.035-.238.027H7.048c-.08.006-.161-.004-.237-.03a.59.59 0 0 1-.206-.12c-.06-.054-.108-.12-.141-.193a.59.59 0 0 1-.054-.232zm-4.271 21.266a.67.67 0 0 1 .043-.276.66.66 0 0 1 .152-.234c.067-.067.146-.119.234-.152s.182-.048.276-.043h43.02a.69.69 0 0 1 .288.035c.093.032.177.082.249.148s.129.146.169.235.06.186.06.284-.02.194-.06.284-.097.169-.169.235a.7.7 0 0 1-.537.183H2.895a.71.71 0 0 1-.281-.043.73.73 0 0 1-.41-.379.73.73 0 0 1-.066-.277h0zm22.536-31.064c-.074-.017-.144-.051-.205-.098a.57.57 0 0 1-.151-.179.62.62 0 0 1-.072-.228.63.63 0 0 1 .019-.241c.062-.311 8.236-31.819-9.449-54.359-.071-.126-.097-.275-.075-.42a.63.63 0 0 1 .198-.372.55.55 0 0 1 .375-.145.56.56 0 0 1 .373.152c18.032 23.036 9.739 55.167 9.682 55.478-.051.122-.132.227-.234.303a.66.66 0 0 1-.346.131l-.114-.022zm174.547 31.633H52.684a.68.68 0 0 1-.686-.406.69.69 0 0 1-.058-.276c0-.095.02-.188.058-.275a.68.68 0 0 1 .685-.406h146.538a.68.68 0 0 1 .28.034c.09.03.172.079.242.143a.68.68 0 0 1 .164.229.69.69 0 0 1 .058.275.69.69 0 0 1-.058.276.68.68 0 0 1-.164.229c-.07.064-.152.113-.242.143a.68.68 0 0 1-.28.034h0z" style="fill: rgb(0, 0, 0);"></path></svg>