<svg xmlns="http://www.w3.org/2000/svg" viewBox="0 0 279 242" xmlns:v="https://vecta.io/nano"><style><![CDATA[.B{fill:#fff}.C{fill:#7286c0}]]></style><g class="B"><path d="M243.96 90.267c-2.232.756-5.852.205-5.852.205l-.23-3.091-.214.043c-.856.192-1.742.197-2.6.017a6.15 6.15 0 0 1-2.377-1.062 6.23 6.23 0 0 1-1.735-1.954c-.434-.768-.702-1.621-.785-2.501 0-1.783-.246-3.853-1.424-4.987-.616-.627-4.134-1.118-3.823-3.107s4.112-2.021 4.112-2.021l.83-1.691 19.764.351-3.213 19.317-2.453.481z"/><path d="M224.73 138.91l4.113-25.99-2.356-11.528 2.538-6.172c1.071-2.653 2.988-5.323 6.377-5.594l2.581-.2 19.549 1.529s3.427 1.189 4.68 4.172c.723 1.767 3.368 10.496 5.408 17.294a8.89 8.89 0 0 1-.461 6.321c-.926 1.976-2.545 3.535-4.545 4.374l.161 1.194s1.654 11.55 1.681 14.474l-39.726.124zm-17.55-54.497l9.911-2.233s-.369-7.002-6.961-6.337c-7.576.816-2.95 8.57-2.95 8.57z"/></g><path d="M224.69 139.45h-.054a.63.63 0 0 1-.33-.231.64.64 0 0 1-.125-.385c.07-.378 5.938-37.483 6.393-40.272a.55.55 0 0 1 .212-.359c.115-.087.259-.124.401-.103a.54.54 0 0 1 .356.214.55.55 0 0 1 .102.405l-6.393 40.272a.54.54 0 0 1-.193.34.53.53 0 0 1-.369.119z"/><path d="M205.34 78.036s-.691-.141-1.168.919-.969 4.665.182 5.205 1.564-1.33 1.751-1.865.755-3.481.755-3.481-1.033-.886-1.52-.778z" class="B"/><path d="M204.75 84.829c-.197-.027-.391-.074-.578-.141-1.73-.838-.841-5.014-.477-5.917.482-1.081 1.189-1.297 1.606-1.275.702-.076 1.575.67 1.939.956a.59.59 0 0 1 .154.225c.032.087.044.18.033.272l-.808 3.534-.059.157c-.188.589-.509 1.707-1.275 2.048a.8.8 0 0 1-.535.141zm.535-6.252c-.107 0-.326.146-.562.621-.487 1.167-.733 4.182-.053 4.485.16.065.214.065.267 0 .332-.146.589-1.081.712-1.373l.059-.216c.124-.319.466-1.924.686-3.102-.262-.232-.563-.415-.889-.54a.27.27 0 0 1-.106.097c-.044.022-.092.031-.14.028h.026z"/><path d="M207.24 75.101s-1.526-.616-2.297-.114-.391 2.579-.16 3.352 1.156 2.811 2.088 2.373 1.676-4.903.369-5.611z" class="B"/><path d="M206.53 81.288c-.146-.001-.291-.027-.429-.076-1.103-.487-1.804-2.632-1.858-2.703s-.974-3.129.402-3.929c1.071-.654 2.623 0 2.784.076h.054c.626.351.963 1.178.953 2.481 0 1.405-.488 3.6-1.366 4.043a1.91 1.91 0 0 1-.54.108zm-.686-5.945a1.14 1.14 0 0 0-.653.135c-.386.195-.236 1.665.091 2.702.23.713.819 1.881 1.242 2.059h.054c.278-.205.894-1.908.803-3.427 0-.757-.22-1.081-.375-1.205a3.47 3.47 0 0 0-1.162-.254v-.011z"/><path d="M210.56 74.07a3.52 3.52 0 0 0-1.649-1.378c-1.007-.319-1.869 2.129-1.907 3.965s.22 3.42 1.451 3.366 1.607-1.383 1.81-2.02.295-3.933.295-3.933z" class="B"/><path d="M208.33 80.556a1.67 1.67 0 0 1-1.071-.481c-.616-.626-.884-1.771-.803-3.445.069-1.561.647-3.537 1.536-4.25.144-.113.311-.191.489-.23s.363-.035.539.008c.81.314 1.499.882 1.965 1.62.054.08.086.173.092.27-.038.81-.108 3.456-.354 4.147l-.064.162c-.246.691-.793 2.122-2.244 2.214l-.085-.016zm.444-7.274c-.02 0-.04.004-.059.013s-.035.021-.048.036c-.503.41-1.071 2.004-1.124 3.408-.092 1.885.31 2.5.465 2.668.041.058.098.101.165.124s.138.025.205.005c.696 0 .996-.767 1.301-1.507l.059-.162c.168-1.177.261-2.364.278-3.553a1.96 1.96 0 0 0-.51-.651c-.214-.178-.464-.308-.732-.38z"/><path d="M214.05 73.91l-1.162 4.218c-.45 1.6-1.607 2.163-2.678 1.714s-.433-3.244.252-5.348 2.677-3.066 4.401-2.439c.686.249 1.489 1.476 1.318 2.769" class="B"/><path d="M210.85 80.575a2.23 2.23 0 0 1-.792-.2c-1.606-.622-.723-4.043-.043-6.01a4.47 4.47 0 0 1 2.212-2.6 3.75 3.75 0 0 1 2.854-.189c.947.319 1.841 1.821 1.713 3.383a.55.55 0 0 1-.212.359c-.115.087-.259.124-.401.103a.54.54 0 0 1-.356-.214c-.086-.116-.123-.262-.102-.405.107-1.081-.594-2.086-.964-2.216a2.72 2.72 0 0 0-2.045.119c-.799.412-1.408 1.121-1.698 1.978-.937 2.821-.963 4.497-.535 4.626.344.135.726.135 1.071 0 .229-.143.426-.335.575-.561s.25-.483.292-.752l1.162-4.221 1.071.27-1.162 4.216c-.076.419-.245.815-.493 1.159s-.57.628-.942.83c-.355.239-.779.353-1.205.324z"/><path d="M220.32 78.647l-21.729-6.449c-.308-.088-.569-.296-.726-.577s-.199-.614-.114-.926a1.21 1.21 0 0 1 .211-.424 1.2 1.2 0 0 1 .356-.31c.138-.079.289-.129.447-.149s.316-.008.469.035l21.734 6.46a1.22 1.22 0 0 1 .724.578c.157.281.199.613.117.925a1.2 1.2 0 0 1-.21.428c-.097.127-.219.233-.358.311s-.292.127-.451.144a1.17 1.17 0 0 1-.47-.045z" class="B"/><path d="M220.56 79.249c-.147.005-.293-.021-.429-.076l-21.728-6.446c-.224-.066-.432-.175-.613-.323a1.76 1.76 0 0 1-.441-.537c-.11-.207-.178-.433-.201-.667a1.79 1.79 0 0 1 .071-.694c.06-.224.167-.433.314-.612s.33-.324.538-.425c.201-.121.425-.197.658-.224s.468-.004.691.067l21.729 6.451c.222.066.43.175.611.322a1.77 1.77 0 0 1 .44.535c.11.206.178.432.201.665a1.78 1.78 0 0 1-.069.692 1.79 1.79 0 0 1-.671.941c-.32.23-.708.346-1.101.329zm-.113-1.081c.178.042.363.033.536-.027.156-.097.276-.243.342-.416.044-.179.035-.367-.026-.54-.049-.162-.257-.281-.413-.346l-21.728-6.478a.93.93 0 0 0-.536.032.79.79 0 0 0-.337.416c-.028.084-.039.172-.032.26s.032.174.074.251.097.147.165.202.147.096.232.119l21.729 6.484-.006.043z"/><path d="m235.2 132.64-21.659-1.033-7.111-31.233 21.659 1.032 7.111 31.234z" class="B"/><path d="M235.18 133.18l-21.665-1.032a.65.65 0 0 1-.324-.127c-.094-.072-.168-.168-.211-.279l-7.095-31.177c-.018-.085-.016-.173.006-.256a.54.54 0 0 1 .122-.225.65.65 0 0 1 .439-.194l21.66 1.032c.117.012.229.056.323.127s.168.168.212.278l7.1 31.177a.53.53 0 0 1-.006.257.54.54 0 0 1-.122.224.65.65 0 0 1-.439.195zm-21.204-2.092l20.534.979-6.843-30.081-20.54-.983 6.849 30.085zm20.894-56.571c.017-.361-.28-.668-.664-.687s-.709.259-.726.62.281.668.665.687.709-.259.725-.62zm2.93.468c.017-.361-.28-.668-.664-.687s-.709.259-.726.62.281.668.665.687.709-.259.725-.62zm2.08 16.145a9.72 9.72 0 0 1-1.917-.199c-.268 0-.418-.236-.46-.505l-.231-3.076a.56.56 0 0 1 .033-.214.52.52 0 0 1 .114-.183.54.54 0 0 1 .389-.167c.073-.004.146.006.215.031a.53.53 0 0 1 .184.114.54.54 0 0 1 .125.178c.029.067.043.14.043.213l.198 2.641c1.012.102 3.518.327 5.21-.236a.54.54 0 0 1 .68.354.54.54 0 0 1-.035.414c-.067.128-.181.224-.318.267-1.378.367-2.81.491-4.23.365z"/><path d="M229.03 70.084l17.135.816s-2.142 2.821-1.199 5.031 2.2 4.431 1.044 6.269c-.781 1.196-1.216 2.589-1.255 4.021s.32 2.847 1.035 4.084c1.071 2.053.139 5.036.139 5.036l19.443-5.404s-4.675-5.474-4.284-8.592 2.967-5.047 0-8.057.487-4.631-1.285-7.96c-1.237-2.28-4.048-2.902-6.848-1.519-.852-2.421-1.451-4.399-5.13-3.783-1.944.34-3.555.373-5.547-.589s-7.438-1.437-11.1 2.443c-2.924 2.972-2.148 8.203-2.148 8.203z" class="C"/><path d="M252.94 64.298h-.107a.59.59 0 0 1-.323-.26.6.6 0 0 1-.074-.41c.059-.157 1.071-3.842 4.819-4.529a.54.54 0 0 1 .216.002c.071.015.138.045.197.088a.54.54 0 0 1 .146.159c.037.062.063.132.073.205a.58.58 0 0 1-.007.216.54.54 0 0 1-.25.341c-.062.037-.132.06-.203.07-3.079.54-3.979 3.702-3.984 3.783-.016.195-.289.346-.503.335zm-17.01 23.745a6.18 6.18 0 0 1-3.271-1.081 6.81 6.81 0 0 1-2.059-2.191c-.516-.876-.832-1.857-.924-2.872-.037-1.464-.15-3.577-1.231-4.603-.292-.187-.61-.329-.943-.421-1.317-.54-3.32-1.297-3.02-3.123.434-2.356 4.193-2.448 4.621-2.426.136.017.263.079.36.177s.159.226.176.363a.58.58 0 0 1-.167.372c-.099.099-.23.159-.369.168-.856 0-3.336.33-3.555 1.561-.15.859.953 1.399 2.372 1.956a5.47 5.47 0 0 1 1.312.654c1.387 1.313 1.547 3.593 1.569 5.403a5.69 5.69 0 0 0 .775 2.371 5.66 5.66 0 0 0 1.709 1.805c1.665 1.108 3.914 1.162 6.372.141.067-.04.142-.065.219-.073a.53.53 0 0 1 .23.027c.074.026.14.067.196.122a.54.54 0 0 1 .128.194.53.53 0 0 1 .034.23.55.55 0 0 1-.064.224.53.53 0 0 1-.363.27c-1.306.521-2.702.776-4.107.751zm4.41 42.577c-.107 0-.16 0-.208-.06a.54.54 0 0 1-.161-.144.55.55 0 0 1-.091-.196l-3.663-14.511a.58.58 0 0 1-.005-.224c.013-.074.04-.145.08-.208a.69.69 0 0 1 .386-.249l18.95-2.88c.071-.013.143-.01.213.006a.54.54 0 0 1 .194.09.52.52 0 0 1 .143.16.54.54 0 0 1 .071.203c.012.071.01.145-.007.215a.57.57 0 0 1-.089.196.52.52 0 0 1-.158.145.54.54 0 0 1-.201.071l-18.356 2.751 3.39 13.413 20.941-6.517c2.058-.651 3.78-2.093 4.794-4.014a8.36 8.36 0 0 0 .625-6.255l-5.408-17.293c-1.108-2.702-4.321-3.886-4.375-3.886-.078-.009-.154-.035-.222-.076a.54.54 0 0 1-.251-.387c-.01-.079-.004-.16.02-.236s.064-.146.118-.205.12-.104.194-.134a.53.53 0 0 1 .457.029c.156.059 3.69 1.308 4.991 4.459.723 1.762 3.368 10.436 5.456 17.353.695 2.361.442 4.904-.702 7.079a9.33 9.33 0 0 1-5.418 4.551l-21.488 6.707a.4.4 0 0 1-.22.049z"/><path d="M219.78 119.79c1.834 0 3.32-1.5 3.32-3.35s-1.486-3.35-3.32-3.35-3.32 1.5-3.32 3.35 1.487 3.35 3.32 3.35z" fill="#94cfcb"/><path d="M236.7 115.57s-1.344-2.161-2.913-3.058-2.677-4.134-3.871-3.161l1.558 6.835s-5.542.384-8.337-.616-3.101.989-3.101.989-.283 1.502 1.703 2.572c-1.183.048-2.195 1.032-2.142 1.842s.605 1.978 2.324 1.951c-1.483.794-1.606 1.491-1.654 2.086-.102 2.161 4.958 1.75 4.958 1.75s-2.517 1.081-1.879 2.345c.685 1.389 2.945 1.221 5.916.665 4.059-.784 10.233-3.242 10.233-3.242L236.7 115.57z" class="B"/><path d="M225.49 130.66c-1.231-.06-2.179-.427-2.677-1.373-.087-.185-.136-.385-.144-.589a1.53 1.53 0 0 1 .096-.6c.139-.312.333-.595.573-.837-1.125-.054-2.452-.335-3.17-1.022a1.61 1.61 0 0 1-.42-.599 1.63 1.63 0 0 1-.115-.725c.002-.334.077-.665.221-.966a2.25 2.25 0 0 1 .609-.779c-.421-.19-.784-.491-1.049-.871a2.59 2.59 0 0 1-.456-1.291 1.93 1.93 0 0 1 .119-.775c.092-.247.234-.473.416-.662a3.36 3.36 0 0 1 .836-.66c-.359-.294-.635-.678-.803-1.112s-.222-.906-.156-1.368c.06-.283.177-.55.345-.785a2.07 2.07 0 0 1 .63-.577c.717-.454 1.686-.459 2.843 0 2.11.751 5.97.719 7.529.632l-1.425-6.236c-.022-.099-.016-.202.017-.297a.53.53 0 0 1 .171-.243 1.29 1.29 0 0 1 .926-.335c.75.092 1.301.821 1.96 1.718.432.657.976 1.231 1.606 1.697 1.671.946 3.068 3.178 3.116 3.242.02.022.035.048.043.076s.01.058.006.087l2.757 10.899c.026.124.011.252-.042.367a.58.58 0 0 1-.252.266c-.273.097-6.281 2.459-10.34 3.291-1.23.32-2.499.463-3.77.427zm-.273-4.502a.64.64 0 0 1 .324.128.65.65 0 0 1 .212.277c.024.124.007.253-.047.367a.59.59 0 0 1-.253.266c-.535.243-1.43.746-1.606 1.275-.033.051-.048.112-.041.172s.035.116.078.158c.536 1.081 3.015.789 5.355.362 3.352-.654 8.208-2.475 9.681-3.053l-2.656-10.36a9.93 9.93 0 0 0-2.677-2.832 7.24 7.24 0 0 1-1.939-1.977 8.41 8.41 0 0 0-1.071-1.243c.482 2.296 1.425 6.236 1.425 6.29.03.147.004.3-.075.427a.56.56 0 0 1-.172.141.55.55 0 0 1-.214.059c-.214 0-5.702.378-8.567-.681-.841-.308-1.537-.341-1.928-.092a.95.95 0 0 0-.294.264c-.078.108-.133.232-.161.363 0 .054-.161 1.129 1.408 2.015a.62.62 0 0 1 .235.262.61.61 0 0 1 .054.349c-.032.111-.096.21-.185.284a.57.57 0 0 1-.313.127c-.502.039-.972.267-1.317.638a.96.96 0 0 0-.3.637c.038.324.199 1.47 1.81 1.438.122-.004.241.034.338.107s.167.179.198.298c.016.123-.004.248-.056.36s-.135.206-.239.272c-1.317.697-1.344 1.178-1.365 1.621-.007.093.006.185.039.271a.61.61 0 0 0 .154.227c.717.686 2.966.794 4.203.686-.091.092-.032.097-.032.097h-.006z"/><path d="M227.58 120.15c-2.565-.115-5.863-.614-5.97-.619a.63.63 0 0 1-.33-.215c-.082-.103-.126-.229-.126-.358a.49.49 0 0 1 .07-.187.52.52 0 0 1 .141-.147c.056-.04.121-.068.19-.085a.57.57 0 0 1 .21-.009c.053 0 4.048.584 6.559.644a.56.56 0 0 1 .211.041c.067.027.128.066.178.115a.5.5 0 0 1 .114.172.49.49 0 0 1 .033.201c-.007.129-.067.25-.166.339s-.232.139-.37.139l-.744-.031zm-4.17 3.3l-1.552-.065a.55.55 0 0 1-.371-.165c-.096-.1-.145-.23-.138-.364a.49.49 0 0 1 .176-.348c.105-.09.244-.136.386-.13.048 0 4.643.358 7.079-.09.127-.006.251.031.352.104a.5.5 0 0 1 .196.294.47.47 0 0 1-.053.343.53.53 0 0 1-.276.23c-1.919.263-3.864.327-5.799.191zm1.76 3.65c-.135-.007-.263-.059-.361-.147a.53.53 0 0 1-.175-.331c-.004-.066.006-.133.029-.196a.49.49 0 0 1 .107-.17c.047-.05.105-.09.169-.119a.55.55 0 0 1 .204-.048c.054 0 4.032-.222 5.569-.961.065-.031.136-.049.208-.053a.62.62 0 0 1 .214.025.54.54 0 0 1 .187.101c.054.045.1.1.132.161a.5.5 0 0 1 .057.195.48.48 0 0 1-.028.202.52.52 0 0 1-.107.176c-.048.051-.106.093-.171.124-1.761.88-5.847 1.102-6.007 1.092.002-.01 0-.021-.005-.03s-.012-.016-.022-.021zm1.3-25.22c-.059.003-.117-.019-.161-.059a.53.53 0 0 1-.176-.12c-.05-.051-.089-.112-.116-.179s-.039-.139-.038-.211a.54.54 0 0 1 .046-.209l2.538-6.154c1.51-3.658 3.802-5.663 6.817-5.895l2.581-.2a.53.53 0 0 1 .208.029.54.54 0 0 1 .182.108c.053.048.095.106.126.17s.048.135.051.206a.55.55 0 0 1-.033.215c-.026.069-.064.132-.114.184a.55.55 0 0 1-.177.124c-.067.029-.139.044-.211.043l-2.586.205c-2.528.2-4.541 1.945-5.89 5.236l-2.539 6.154a.54.54 0 0 1-.199.257c-.091.063-.199.096-.309.094z"/><path d="M223.87 101.21l-3.031-14.265-13.338 2.124 3.373 11.52 12.996.621z" class="B"/><path d="M223.84 101.76l-12.996-.622a.53.53 0 0 1-.292-.127.54.54 0 0 1-.168-.273l-3.368-11.575a.42.42 0 0 1-.024-.227.41.41 0 0 1 .099-.205c.058-.157.224-.205.385-.254l13.344-2.118a.58.58 0 0 1 .382.091.59.59 0 0 1 .239.315l3.025 14.321a.56.56 0 0 1-.006.257.54.54 0 0 1-.122.224c-.062.07-.14.124-.226.158a.59.59 0 0 1-.272.037zm-12.573-1.67l11.93.54-2.763-13.116-12.262 1.956 3.095 10.619z"/><path d="M206.15 82.354c.545 1.045 1.013 2.128 1.403 3.241.273 1.037 1.189 3.241 2.378 3.084l9.102-1.459s-.572-3.7-.203-5.85 1.007-3.241-.712-4.251-3.427-3.57-4.461-3.187-.969 3.414.916 4.478c-1.285 1.021-1.917 1.912-2.056 2.663" class="B"/><path d="M209.7 89.227c-1.713-.081-2.629-3.372-2.677-3.48-.386-1.078-.839-2.13-1.355-3.15a.55.55 0 0 1-.055-.21.56.56 0 0 1 .028-.215.55.55 0 0 1 .279-.32.55.55 0 0 1 .208-.056.53.53 0 0 1 .213.029.58.58 0 0 1 .187.109.55.55 0 0 1 .131.172 31.82 31.82 0 0 1 1.435 3.388c.364 1.373 1.21 2.767 1.745 2.702l8.643-1.373a23.71 23.71 0 0 1-.172-5.468l.214-1.129c.338-1.497.359-1.983-.631-2.572a10.41 10.41 0 0 1-2.142-1.778c-.611-.621-1.607-1.535-1.864-1.389-.107.054-.283.313-.305.8a3.15 3.15 0 0 0 .319 1.522 3.12 3.12 0 0 0 1.004 1.18.48.48 0 0 1 .186.186.49.49 0 0 1 .06.257c.003.088-.012.176-.043.259a.65.65 0 0 1-.139.222c-1.392 1.124-1.751 1.864-1.826 2.345a.55.55 0 0 1-.212.359.54.54 0 0 1-.19.092.52.52 0 0 1-.211.011.54.54 0 0 1-.356-.214.55.55 0 0 1-.102-.405c.143-.807.718-1.644 1.724-2.513a4.06 4.06 0 0 1-.983-1.48 4.09 4.09 0 0 1-.259-1.762c-.009-.355.079-.705.255-1.012s.432-.559.741-.728c.926-.389 1.906.54 3.031 1.621a9.76 9.76 0 0 0 1.911 1.621c1.719 1 1.451 2.232 1.168 3.68l-.215 1.081c-.305 2.043.22 5.636.22 5.69a.54.54 0 0 1-.098.412.54.54 0 0 1-.363.214l-9.129 1.459a1.46 1.46 0 0 0-.375-.157zm54.73 50.063a.53.53 0 0 1-.369-.149c-.1-.095-.16-.226-.166-.364 0-2.87-1.794-15.451-1.789-15.613-.01-.071-.007-.144.01-.213a.54.54 0 0 1 .09-.193.55.55 0 0 1 .355-.216c.071-.011.142-.007.211.01s.134.048.191.091a.54.54 0 0 1 .143.158.57.57 0 0 1 .071.201c.08.54 1.756 12.797 1.837 15.721-.018.154-.091.296-.206.401a.63.63 0 0 1-.415.166h.037z"/><path d="M228.68 221.68c.189 3.116.223 6.24.101 9.359-8.074-.2-27.634 4.658-28.084 6.933s2.206 2.329 2.206 2.329l43.077.102-.803-19.128-16.497.405z" class="B"/><path d="M245.98 240.9l-43.03-.151c-.048 0-1.552-.054-2.302-1.017a2.26 2.26 0 0 1-.419-.915c-.07-.333-.064-.678.017-1.009.6-2.886 20.61-7.34 28.133-7.34.198-3.54-.15-8.756-.15-8.805.005-.133.058-.26.15-.356.043-.05.097-.09.157-.116a.45.45 0 0 1 .191-.036l16.449-.405a.54.54 0 0 1 .348.157c.093.094.148.219.156.351l.803 19.134c-.006.134-.061.261-.155.357a.47.47 0 0 1-.158.114.46.46 0 0 1-.19.037zm-16.749-18.783c.195 2.965.229 5.939.101 8.908a.5.5 0 0 1-.162.33c-.093.085-.215.131-.341.129-8.524-.254-27.03 4.805-27.581 6.53-.08.383-.009.782.198 1.113a2.14 2.14 0 0 0 .687.481 2.13 2.13 0 0 0 .817.179l42.526.097-.749-18.118-15.496.351z"/><path d="M243.93 226.72s.348.708.101 4.323c-8.074-.2-27.635 4.659-28.084 6.934s2.206 2.329 2.206 2.329l43.077.103-.803-14.051-16.497.362z" class="B"/><path d="M261.23 240.89l-43.029-.103c-.048 0-1.553-.048-2.303-1.01-.205-.27-.348-.583-.418-.916a2.3 2.3 0 0 1 .017-1.008c.6-2.885 20.61-7.337 28.133-7.337.15-2.837-.102-3.545-.102-3.545a.46.46 0 0 1 0-.508c.031-.08.087-.147.159-.192s.158-.065.243-.056l16.497-.357c.125-.002.246.044.339.128a.5.5 0 0 1 .164.326l.803 14.048a.54.54 0 0 1-.155.357c-.044.049-.097.088-.158.114s-.125.039-.19.037v.022zm-16.647-13.714c.132 1.277.132 2.565 0 3.842a.51.51 0 0 1-.162.33.5.5 0 0 1-.342.129c-8.524-.254-27.029 4.804-27.581 6.527a1.49 1.49 0 0 0 .204 1.114c.193.205.425.369.683.483a2.09 2.09 0 0 0 .816.176l42.526.097-.75-13.054-15.394.356z"/><g class="C"><path d="M251.6 224.8h-33.198l6.618-85.26 23.56-.303c.011 8.182 3.02 85.514 3.02 85.563z"/><path d="M267.74 227.68h-33.198l2.613-88.148 27.63-.303c0 8.436 3.009 88.451 2.955 88.451z"/></g><path d="M234.6 228.19c-.133 0-.261-.053-.356-.148a.51.51 0 0 1-.147-.36l1.504-51.34c0-.135.053-.264.148-.359a.5.5 0 0 1 .356-.149c.067-.004.134.007.197.031s.12.061.167.109a.48.48 0 0 1 .109.169c.024.064.034.131.03.199l-1.505 51.34a.52.52 0 0 1-.038.195c-.025.061-.062.117-.109.165a.5.5 0 0 1-.163.11.51.51 0 0 1-.193.038zm43.13 13.35H167.39a.6.6 0 0 1-.409-.159.53.53 0 0 1-.169-.384.53.53 0 0 1 .169-.384.6.6 0 0 1 .409-.16h110.4a.57.57 0 0 1 .229.029.55.55 0 0 1 .194.117c.055.052.098.114.125.183a.48.48 0 0 1 .03.215.54.54 0 0 1-.053.219c-.034.068-.082.13-.141.181s-.13.09-.206.114-.157.035-.237.029z"/><path d="M27.051 220.74l-.857 20.425 45.996-.108s2.838-.054 2.356-2.485-21.365-7.619-29.986-7.403a99.04 99.04 0 0 1 .107-9.997l-17.616-.432z" class="B"/><path d="M26.194 241.71a.48.48 0 0 1-.205-.039c-.065-.028-.123-.07-.17-.123-.097-.102-.154-.236-.161-.378l.857-20.426c.01-.14.07-.271.168-.37s.229-.16.367-.17l17.563.432a.48.48 0 0 1 .205.04c.065.028.123.07.17.122a.59.59 0 0 1 .161.379l-.161 9.402c8.032 0 29.396 4.755 30.039 7.835.086.353.093.721.018 1.076s-.227.69-.447.978c-.803 1.026-2.41 1.08-2.463 1.08l-45.942.162zm1.339-20.425l-.803 19.345 45.407-.108a2.23 2.23 0 0 0 .874-.187c.276-.12.525-.296.732-.516.224-.352.301-.779.214-1.189-.589-1.837-20.347-7.24-29.45-6.97-.133 0-.262-.049-.361-.139s-.161-.214-.175-.348a87.43 87.43 0 0 1 .107-9.51l-16.546-.378z"/><path d="M10.774 226.15l-.857 15.023 45.996-.108s2.838-.054 2.356-2.486-21.365-7.619-29.986-7.403c-.268-3.837.107-4.594.107-4.594l-17.616-.432z" class="B"/><path d="M9.917 241.71a.48.48 0 0 1-.205-.039c-.065-.028-.123-.07-.17-.123-.097-.102-.154-.237-.161-.378l.857-15.026c.013-.134.076-.258.175-.348a.53.53 0 0 1 .361-.138l17.616.378a.42.42 0 0 1 .259.064c.077.048.137.121.17.206.052.081.08.174.08.271s-.028.19-.08.27c0 0-.268.756-.107 3.783 8.032 0 29.396 4.757 30.039 7.837a2.44 2.44 0 0 1 .018 1.077 2.43 2.43 0 0 1-.447.977c-.803 1.027-2.41 1.081-2.463 1.081l-45.942.108zm1.339-15.025l-.803 13.944 45.407-.108a2.21 2.21 0 0 0 .874-.186 2.24 2.24 0 0 0 .732-.516c.224-.353.301-.78.214-1.189-.589-1.838-20.347-7.243-29.45-6.973a.53.53 0 0 1-.361-.139.54.54 0 0 1-.175-.347c-.144-1.366-.144-2.743 0-4.108l-16.438-.378z"/><g class="C"><path d="M23.41 133.14l25.166.324 7.068 91.064H20.197c0-.054 3.213-82.633 3.213-91.388z"/><path d="M6.114 133.14l29.504.324 2.784 94.16H2.956c-.054 0 3.159-85.459 3.159-94.484z"/></g><path d="M98.803 76.992c1.499-.108 2.677 2.379 0 3.298s-4.873-.216-6.425 1.406l-2.195.216.214-2.649 3.266-2.433 5.14.162z" class="B"/><path d="M90.181 82.398c-.07.002-.14-.012-.205-.04s-.123-.07-.17-.123a.62.62 0 0 1-.161-.433l.214-2.65a.46.46 0 0 1 .059-.217c.037-.066.091-.122.155-.162l3.266-2.433c.098-.06.207-.097.321-.108l5.14.162c.485 0 .955.165 1.334.47a2.17 2.17 0 0 1 .755 1.207c.16.865-.215 2.055-1.928 2.65a9.5 9.5 0 0 1-3.32.433c-1.232 0-2.195.054-2.891.811-.04.047-.089.086-.144.114a.46.46 0 0 1-.177.048l-2.195.216c0 .054 0 .054-.054.054zm.75-2.92l-.161 1.784 1.392-.162c1.017-.919 2.249-.973 3.534-.973 1.013.028 2.024-.1 2.999-.379.91-.324 1.339-.811 1.231-1.406a.99.99 0 0 0-.357-.6c-.187-.149-.422-.225-.66-.211h-.053l-4.98-.162-2.945 2.109z"/><path d="M89.539 82.019s2.945-.81 4.016-.216c1.232.648 1.392 1.134.91 3.079l-3.695 2.647-2.088-3.117.857-2.393z" class="B"/><path d="M90.717 88.07h-.107a.53.53 0 0 1-.21-.068c-.065-.037-.121-.088-.165-.148l-2.088-3.132c-.046-.071-.075-.152-.084-.237s.001-.17.031-.249l.857-2.376a.57.57 0 0 1 .151-.205c.065-.056.142-.097.224-.119.535-.162 3.213-.81 4.444-.162 1.606.864 1.66 1.728 1.124 3.672a1.13 1.13 0 0 1-.214.324l-3.695 2.646c-.088.023-.177.041-.268.054zm-1.446-3.727l1.606 2.43 3.106-2.214c.428-1.674.214-1.782-.696-2.268-.535-.324-2.195-.054-3.373.216l-.642 1.836z"/><path d="M62.069 108.06l23.239-9.187-5.837-14.375-25.809 11.943-8.3-14.159a15.17 15.17 0 0 0-4.209-4.62c-1.706-1.228-3.646-2.084-5.697-2.514l-3.641-.757-8.942-.162-8.353 2.324s-5.729 2.432-6.747 6.917l-4.605 20.374s-1.553 5.404 1.981 10.052c.857 1.08 2.57 2.756 2.57 2.756l-1.606 16.482h42.515l-.643-20.427 14.082-4.648z" class="B"/><path d="M62.07 108.61a.46.46 0 0 1-.297-.077.47.47 0 0 1-.185-.247c-.026-.067-.037-.139-.035-.211a.54.54 0 0 1 .049-.208.53.53 0 0 1 .125-.173c.053-.049.115-.086.182-.11l22.757-8.97-5.408-13.347-25.327 11.726a.58.58 0 0 1-.386.015c-.127-.039-.236-.121-.311-.231l-8.3-14.157a14.48 14.48 0 0 0-4.069-4.454 14.33 14.33 0 0 0-5.515-2.392l-3.641-.757a.54.54 0 0 1-.197-.082c-.06-.04-.111-.092-.151-.152s-.067-.128-.081-.199-.014-.144 0-.215a.55.55 0 0 1 .082-.198c.04-.06.091-.112.151-.152a.54.54 0 0 1 .41-.082l3.641.757a15.46 15.46 0 0 1 5.92 2.599 15.62 15.62 0 0 1 4.361 4.804l8.032 13.725 25.381-11.726c.138-.054.291-.054.428 0a.48.48 0 0 1 .201.121c.056.056.097.126.12.203l5.837 14.373a.6.6 0 0 1 0 .432.54.54 0 0 1-.133.168c-.055.046-.119.081-.188.102l-23.239 9.186c-.063-.044-.138-.068-.214-.071z"/><path d="m64.479 109.31-32.074-16.484-23.346 46.046 31.967 17.077 23.453-46.639z" class="B"/><path d="M41.026 156.49a.48.48 0 0 1-.268-.054L8.845 139.358c-.062-.03-.117-.072-.162-.124a.5.5 0 0 1-.117-.384c.008-.069.03-.135.065-.195l23.346-46.046c.029-.063.071-.118.123-.164a.49.49 0 0 1 .178-.1c.066-.02.135-.027.203-.019a.49.49 0 0 1 .193.066l32.074 16.483c.062.03.117.072.162.124a.51.51 0 0 1 .099.18c.02.066.026.136.018.205a.5.5 0 0 1-.065.194L41.455 156.22a.54.54 0 0 1-.321.27h-.107zM9.809 138.655l31.003 16.592 23.025-45.668-31.11-15.981L9.81 138.655z"/><path d="M17.305 100.39l25.488 11.243-7.871 17.406-22.864-10.054 5.247-18.595z" class="B"/><path d="M42.204 49.377s3.427-13.186-10.977-11.295c-7.336 1.081-16.064 6.377-14.243 11.727-2.302 1.405-6.425 7.89-4.873 14.267 1.499 6.269 5.676 8.268 10.977 7.62-.107-2.162-1.928-19.779-1.928-19.779l21.043-2.54z" class="C"/><path d="M31.817 72.022v3.081s-2.999 2.054-8.46.054l-.375-7.296c-.268.525-.707.941-1.244 1.177a2.52 2.52 0 0 1-1.701.12c-2.195-.432-2.731-2.324-2.892-3.945s.964-4.594 4.98-1.946l-.91-11.349 19.865-2.432s4.926-.757 5.033 1.729-1.446 3.297-4.712 4.053c-.053 1.513 1.285 17.618-7.71 16.97l-1.874-.216z" class="B"/><path d="M31.549 56.505c.444 0 .803-.338.803-.755s-.36-.755-.803-.755-.803.338-.803.755.36.755.803.755zm3.534-.212c.444 0 .803-.338.803-.755s-.36-.755-.803-.755-.803.338-.803.755.36.755.803.755zm-7.229 20.321a13.06 13.06 0 0 1-4.712-.919.59.59 0 0 1-.254-.191c-.066-.086-.108-.188-.121-.295l-.321-5.999a3.21 3.21 0 0 1-1.234.519 3.17 3.17 0 0 1-1.336-.033c-1.981-.378-3.106-1.891-3.32-4.432a3.56 3.56 0 0 1 .266-1.809 3.53 3.53 0 0 1 1.126-1.433c1.125-.648 2.57-.432 4.391.757.121.079.206.203.236.345a.55.55 0 0 1-.075.412.54.54 0 0 1-.75.162c-1.446-.919-2.57-1.189-3.266-.757s-.91 1.567-.857 2.216c.161 2.108.964 3.189 2.41 3.459 1.767.324 2.356-.973 2.356-.973a.54.54 0 0 1 .238-.267.53.53 0 0 1 .351-.058.53.53 0 0 1 .295.171.55.55 0 0 1 .134.316c0 .054.214 4.918.375 6.918 4.123 1.405 6.64.378 7.443 0V72.02a.54.54 0 0 1 .157-.382c.101-.101.237-.158.379-.158s.278.057.379.158a.54.54 0 0 1 .157.382v3.081a.67.67 0 0 1-.214.432c-.107.108-1.553 1.081-4.23 1.081z"/><path d="M34.119 72.775h-.589l-3.641-.378c-.134-.032-.254-.107-.341-.215s-.137-.241-.141-.379a.59.59 0 0 1 .205-.353.58.58 0 0 1 .384-.133l3.641.378a4.9 4.9 0 0 0 2.13-.232 4.93 4.93 0 0 0 1.833-1.119c3.427-3.296 3.213-11.509 3.159-14.21v-.864a.54.54 0 0 1 .134-.316c.078-.088.181-.148.295-.171 3.373-.756 4.337-1.567 4.284-3.512a.81.81 0 0 0-.072-.393c-.056-.123-.142-.229-.25-.31-.91-.756-3.213-.594-4.069-.486a.53.53 0 0 1-.477-.014.54.54 0 0 1-.184-.163c-.048-.068-.08-.147-.093-.229s-.007-.167.018-.247a.54.54 0 0 1 .125-.213c.057-.06.128-.106.206-.134a.53.53 0 0 1 .244-.027c.375-.054 3.48-.486 4.873.702a2.06 2.06 0 0 1 .535.675 2.08 2.08 0 0 1 .214.837c.107 3.026-2.035 3.89-4.712 4.539v.378c.053 2.81.268 11.455-3.48 15.021a6.21 6.21 0 0 1-4.23 1.567zM16.984 50.131a.59.59 0 0 1-.276-.067.55.55 0 0 1-.206-.186c-.053-.152-1.82-3.089-4.926-2.025a.57.57 0 0 1-.415-.016.54.54 0 0 1-.171-.118.51.51 0 0 1-.11-.171c-.025-.063-.036-.13-.033-.197a.49.49 0 0 1 .049-.194c.03-.061.072-.116.124-.162a.55.55 0 0 1 .18-.104c3.159-1.114 5.462 1.114 6.211 2.481a.5.5 0 0 1 .071.194.48.48 0 0 1-.016.205c-.02.066-.054.128-.101.182a.53.53 0 0 1-.169.129c-.053-.015-.107.051-.214.051zm17.938 79.449a.32.32 0 0 1-.214-.054l-23.56-10.322a13.18 13.18 0 0 1-7.119-6.024 13.38 13.38 0 0 1-1.395-9.27l4.069-18.968a12.37 12.37 0 0 1 3.139-5.992 12.19 12.19 0 0 1 5.803-3.411l7.443-1.945a.53.53 0 0 1 .349.1.54.54 0 0 1 .206.302c.032.122.02.251-.032.365a.54.54 0 0 1-.255.26l-7.443 1.945a11.08 11.08 0 0 0-5.291 3.118c-1.439 1.52-2.426 3.416-2.848 5.474l-4.069 18.968a12.25 12.25 0 0 0 1.291 8.535 12.07 12.07 0 0 0 6.58 5.516l23.078 10.16 7.389-16.429-24.952-11.024a.54.54 0 0 1-.216-.299c-.035-.122-.026-.253.025-.369a.54.54 0 0 1 .254-.266.53.53 0 0 1 .364-.039l25.488 11.241a.54.54 0 0 1 .166.134.55.55 0 0 1 .101.19.6.6 0 0 1 0 .432l-7.818 17.402a.66.66 0 0 1-.236.2.65.65 0 0 1-.3.07z"/><path d="M41.134 115.3s5.033 2.163 8.139 2.595c3.695.541 12.583-2.378 13.815-.486.696 1.081-.91 2.054-1.713 2.649a41.94 41.94 0 0 1-4.177 2.108s2.945.162 3.159 2.216c.053.811.053 2.703-2.41 2.379.964 1.081 1.714 1.838 1.071 2.919s-3.052.541-3.052.541 2.195 1.513 1.232 2.865c-.642.865-1.392 1.243-2.998.594.482.973.268 1.73-.107 2.109-1.767 2-7.604-1.244-9.317-2.541-1.392-1.081-7.068-7.136-8.514-7.136l4.873-10.812z" class="B"/><path d="M52.378 136.92c-2.892 0-7.068-2.594-7.925-3.243-.428-.324-1.231-1.135-2.302-2.107-1.66-1.567-5.14-4.918-5.944-4.918a.47.47 0 0 1-.253-.073.48.48 0 0 1-.176-.197.63.63 0 0 1-.054-.541l4.873-10.808c.058-.127.164-.227.294-.277a.53.53 0 0 1 .402.007c.054 0 4.98 2.108 7.978 2.54 1.499.216 3.962-.162 6.318-.541 3.748-.594 6.961-1.08 7.871.271s-.75 2.594-1.66 3.188l-.214.162c-.892.554-1.823 1.041-2.784 1.459.91.379 1.928 1.027 2.035 2.378.107 1.081-.107 1.892-.696 2.378-.302.274-.672.461-1.071.54.589.811.964 1.622.375 2.648-.236.317-.544.571-.898.74a2.41 2.41 0 0 1-1.136.233 2.78 2.78 0 0 1 .535 1.135c.081.493-.035.998-.321 1.405-.275.443-.683.786-1.164.981a2.43 2.43 0 0 1-1.513.1 1.96 1.96 0 0 1-.057.866c-.083.281-.229.539-.425.755-.242.32-.56.572-.926.733a2.32 2.32 0 0 1-1.162.186zM37.01 125.787c1.285.595 3.32 2.486 5.944 4.972a23.75 23.75 0 0 0 2.195 2c1.928 1.459 7.175 4.161 8.567 2.594.107-.109.428-.595 0-1.514-.039-.098-.048-.205-.027-.309a.54.54 0 0 1 .146-.274c.074-.074.168-.126.271-.147s.209-.011.307.028c1.499.594 1.928.162 2.356-.378a1.05 1.05 0 0 0 .161-.541 2.75 2.75 0 0 0-1.231-1.513c-.095-.075-.165-.177-.203-.292s-.042-.239-.011-.356c.053-.11.138-.199.243-.258a.58.58 0 0 1 .346-.067c.803.162 2.142.216 2.463-.324.375-.648.107-1.081-.857-2.108l-.161-.216a.49.49 0 0 1-.126-.288c-.01-.107.016-.215.073-.306a.47.47 0 0 1 .22-.232c.098-.049.209-.063.316-.038a1.63 1.63 0 0 0 .754.036 1.64 1.64 0 0 0 .691-.307c.163-.211.277-.457.332-.719s.052-.533-.011-.794c-.161-1.567-2.624-1.729-2.624-1.729a.53.53 0 0 1-.313-.135.54.54 0 0 1-.169-.297c-.022-.122-.002-.247.057-.355a.54.54 0 0 1 .264-.24c1.398-.597 2.757-1.283 4.069-2.053l.268-.162c1.071-.757 1.66-1.297 1.339-1.73-.535-.81-4.176-.216-6.8.162-2.463.379-4.98.757-6.64.541-2.624-.379-6.425-1.892-7.818-2.432l-4.391 9.781z"/><path d="M57.947 126.74a13.04 13.04 0 0 1-2.838-.402z" class="B"/><path d="M57.947 127.2c-1.013-.023-2.019-.158-2.998-.402-.067-.024-.128-.059-.18-.104s-.095-.1-.124-.161a.48.48 0 0 1-.017-.39c.05-.126.151-.229.282-.286s.28-.062.415-.016a13.32 13.32 0 0 0 2.677.353c.142 0 .278.053.379.147s.157.222.157.356c-.02.135-.09.26-.197.352s-.246.145-.392.151z"/><path d="M55.966 130.2l-2.195-.352z" class="B"/><path d="M55.966 130.67h-.053c-.054 0-1.606-.201-2.249-.352a.52.52 0 0 1-.255-.243c-.052-.106-.064-.226-.032-.339s.105-.213.206-.281.225-.101.349-.093c.589.151 2.088.352 2.088.352.134.03.254.1.341.2a.57.57 0 0 1 .141.354.5.5 0 0 1-.19.292.55.55 0 0 1-.345.11z"/><path d="M54.199 133.61a14.5 14.5 0 0 1-2.088-.956z" class="B"/><path d="M54.198 134.08a.34.34 0 0 1-.214-.051c-.789-.265-1.544-.615-2.249-1.041-.061-.043-.112-.099-.149-.162s-.059-.133-.064-.205.006-.144.032-.212.069-.129.123-.18a.55.55 0 0 1 .191-.115c.072-.025.149-.036.225-.031a.57.57 0 0 1 .218.06c.067.035.126.083.172.14.612.343 1.258.629 1.928.856a.54.54 0 0 1 .182.102c.053.046.095.1.125.161a.48.48 0 0 1 .014.391.98.98 0 0 1-.535.287z"/><path d="M57.197 122.14a24.69 24.69 0 0 1-2.945-.402z" class="B"/><path d="M57.198 122.61c-1.026-.066-2.046-.2-3.052-.402-.112-.051-.203-.137-.255-.243s-.064-.226-.032-.339a.5.5 0 0 1 .206-.281c.101-.069.225-.101.349-.093.964.201 2.838.352 2.838.352a.5.5 0 0 1 .213.041c.067.029.126.071.172.125a.44.44 0 0 1 .096.183c.017.067.017.137.001.204-.02.122-.084.234-.181.317s-.223.131-.354.136z"/><path d="M87.612 88.017c.643-1.945 5.033-3.35 7.389-4.539s3.213.432 3.052 1.567c-.214 1.027-1.981 1.567-3.641 3.08s-.75 4.755-2.677 6.809-7.496 1.297-7.496 1.297l-3.855-9.511s4.23-1.675 5.836-4.647 3.373-5.35 5.944-6.593c2.195-1.027 6.425-1.675 7.978-1.243 1.125.324 2.142 2.27-1.713 3.08s-5.087 1.081-6.104 2.378-1.446 4.269-1.231 5.566" class="B"/><path d="M86.487 96.877a11.41 11.41 0 0 1-2.356-.162.46.46 0 0 1-.265-.094.47.47 0 0 1-.163-.23l-3.855-9.51a.6.6 0 0 1 0-.432.54.54 0 0 1 .321-.27c.054 0 4.07-1.675 5.515-4.431 1.874-3.566 3.802-5.674 6.211-6.808 2.302-1.081 6.64-1.783 8.353-1.297.394.1.745.33.997.652s.391.72.395 1.131c0 .648-.428 1.783-3.159 2.377-3.855.811-4.926 1.081-5.783 2.161-.696.919-1.178 3.08-1.178 4.485l1.392-.594 1.82-.811c1.553-.757 2.517-.432 2.999-.054a2.42 2.42 0 0 1 .687 1.002 2.44 2.44 0 0 1 .116 1.213c-.161.865-.964 1.405-1.981 2.053a17.72 17.72 0 0 0-1.874 1.351c-.696.594-.857 1.621-1.071 2.756-.214 1.297-.482 2.81-1.606 3.945-1.124 1.297-3.641 1.567-5.515 1.567zm-1.928-1.189c1.66.162 5.408.27 6.747-1.135.857-.918 1.071-2.215 1.285-3.404s.428-2.54 1.446-3.404c.696-.594 1.392-1.027 1.981-1.459.75-.486 1.392-.918 1.499-1.297.046-.206.035-.42-.031-.62a1.16 1.16 0 0 0-.344-.515c-.375-.324-1.071-.27-1.874.162-.535.27-1.178.54-1.874.811-2.035.865-4.873 2.107-5.301 3.35a.55.55 0 0 1-.281.308.54.54 0 0 1-.72-.267.55.55 0 0 1-.016-.418c.375-1.189 1.767-2.107 3.373-2.918-.107-1.567.375-4.377 1.392-5.62 1.124-1.459 2.57-1.729 6.372-2.54 1.66-.378 2.303-.919 2.303-1.351 0-.324-.322-.594-.643-.703-1.339-.378-5.408.162-7.603 1.243s-3.962 3.026-5.729 6.376c-1.339 2.54-4.391 4.107-5.569 4.701l3.588 8.7zM6.115 133.68c-.321-.054-.589-.27-.535-.595l1.606-16.483a.55.55 0 0 1 .061-.203.54.54 0 0 1 .133-.163.53.53 0 0 1 .394-.121c.07.008.139.029.201.062a.54.54 0 0 1 .162.135.55.55 0 0 1 .119.398L6.65 133.193a.57.57 0 0 1-.181.34c-.098.089-.223.141-.354.147zm32.235 94.48a.53.53 0 0 1-.379-.158c-.1-.101-.157-.239-.157-.382l-1.606-54.799a.51.51 0 0 1 .031-.212.52.52 0 0 1 .115-.181.51.51 0 0 1 .179-.116.5.5 0 0 1 .21-.031c.142 0 .278.057.379.158a.54.54 0 0 1 .157.382l1.606 54.799a.54.54 0 0 1-.157.382.53.53 0 0 1-.379.158zm164.75 13.3H.54c-.142 0-.278-.053-.379-.147s-.157-.222-.157-.356a.49.49 0 0 1 .157-.356c.1-.094.237-.147.379-.147h202.62c.071-.004.143.006.21.029a.5.5 0 0 1 .179.109.45.45 0 0 1 .115.168c.025.063.036.13.031.197a.47.47 0 0 1-.045.205.49.49 0 0 1-.13.17c-.056.047-.121.083-.192.106s-.147.029-.222.022z"/><path d="M104.31 117.69c4.862-38.154 17.274-63.867 17.274-63.867l15.78.07 24.288.141s18.339 39.364 18.045 92.552c-.118 20.438-2.324 35.694-5.06 46.778-4.712 19.282-11.041 26.227-11.041 26.227l-38.816-.227h-2.843l-4.38-.043s-6.222-7.02-10.671-26.286c-.691-2.929-1.35-6.199-1.939-9.766l-.637-65.579z" class="B"/><g fill="#e3e6ed"><path d="M141.75 26.593l-20.16 27.232 19.994.103 20.026.146-19.86-27.48zM160.28 239.7l-39.629-.254-3.09-20.112 46.039.265-3.32 20.101z"/><path d="M106.89 193.04l-20.058 16.305-.112 15.397 30.843-5.404s-6.222-7.031-10.672-26.298zm67.74.4c-4.701 19.202-11.03 26.146-11.03 26.146l30.762 5.751.107-15.397-19.839-16.5z"/></g><path d="M163.99 220.06a.63.63 0 0 1-.411.134c-.149-.005-.291-.062-.402-.161-.062-.055-.111-.122-.145-.197s-.051-.156-.051-.239a.59.59 0 0 1 .051-.238c.034-.075.083-.142.145-.197.091-.075 6.259-7.122 10.885-25.94 3.213-13.17 4.905-28.864 5.007-46.649.31-52.42-17.804-91.871-17.986-92.293a.6.6 0 0 1 .011-.432c.057-.137.162-.249.296-.313a.59.59 0 0 1 .427-.03.6.6 0 0 1 .337.268c.177.405 18.403 40.104 18.109 92.823-.113 17.872-1.805 33.652-5.082 46.946-4.701 19.196-10.907 26.194-11.148 26.481l-.043.038zm-46.05-.27c-.061.052-.131.092-.207.116a.6.6 0 0 1-.461-.041c-.07-.037-.133-.089-.183-.15-.231-.281-6.362-7.383-10.822-26.58-.712-3.145-1.371-6.42-1.89-9.809-.017-.158.026-.316.119-.443s.231-.215.386-.245a.62.62 0 0 1 .447.083c.134.083.232.214.274.367.568 3.351 1.178 6.664 1.896 9.728 4.358 18.884 10.489 25.985 10.564 26.082a.71.71 0 0 1-.123.898v-.006zM104.7 118.16a.53.53 0 0 1-.205.117c-.076.024-.156.03-.234.018-.083-.002-.164-.024-.236-.062a.54.54 0 0 1-.184-.162.53.53 0 0 1-.094-.227.54.54 0 0 1 .016-.246c4.819-37.832 17.182-63.774 17.338-64.082a.6.6 0 0 1 .346-.303.59.59 0 0 1 .457.033.6.6 0 0 1 .3.349.61.61 0 0 1-.032.461c-.107.254-12.407 26.11-17.178 63.708-.077.146-.177.279-.294.395zm56.19 8.6c-.1.075-.221.116-.345.116a.57.57 0 0 1-.345-.116c-.139-.083-.24-.218-.282-.375a.63.63 0 0 1 .057-.468c1.876-3.309 2.861-7.056 2.857-10.869a21.99 21.99 0 0 0-2.884-10.861c-1.885-3.304-4.595-6.052-7.86-7.971a21.47 21.47 0 0 0-10.747-2.963 20.14 20.14 0 0 0-5.655.708.59.59 0 0 1-.453-.053.6.6 0 0 1-.283-.361.61.61 0 0 1 .052-.457.6.6 0 0 1 .358-.286c1.958-.523 3.977-.781 6.002-.767a22.36 22.36 0 0 1 8.712 1.783c2.758 1.172 5.257 2.886 7.352 5.043a23.11 23.11 0 0 1 4.927 7.511c1.138 2.806 1.715 5.811 1.702 8.843.005 3.986-1.037 7.902-3.02 11.349-.031.076-.081.142-.145.194zm-5.06 6.1a22.7 22.7 0 0 1-8.174 4.421c-2.997.892-6.143 1.153-9.244.765a22.64 22.64 0 0 1-8.778-3.018 22.84 22.84 0 0 1-6.858-6.301c-.052-.066-.09-.142-.111-.224s-.026-.167-.013-.251a.62.62 0 0 1 .26-.415.6.6 0 0 1 .23-.096.61.61 0 0 1 .248.004c.082.019.159.054.226.104a.61.61 0 0 1 .167.187c1.997 2.75 4.602 4.992 7.608 6.55s6.33 2.387 9.708 2.424c2.883.027 5.741-.534 8.404-1.648s5.075-2.758 7.092-4.836c.057-.056.123-.101.197-.132s.152-.047.232-.047a.6.6 0 0 1 .232.047.62.62 0 0 1 .196.132c.105.121.163.275.163.435a.66.66 0 0 1-.163.435c-.546.476-1.065.994-1.622 1.464zM142.14 27.064a.6.6 0 0 1-.359.14c-.079.001-.158-.015-.231-.046s-.14-.077-.195-.134a.59.59 0 0 1-.163-.436l.139-26.035c.014-.151.084-.292.195-.394s.257-.159.408-.159.295.057.407.159a.61.61 0 0 1 .195.394l-.145 26.035a.68.68 0 0 1-.076.265.67.67 0 0 1-.175.211z"/><path d="M140.1 135.56c11.385 0 20.615-9.315 20.615-20.806s-9.23-20.807-20.615-20.807-20.615 9.315-20.615 20.807 9.229 20.806 20.615 20.806z" class="C"/></svg>