<svg width="1126" height="193" viewBox="0 0 1126 193" fill="none" xmlns="http://www.w3.org/2000/svg">
<path d="M1125.83 108.08C1119.6 108.309 1115.02 109.624 1112.09 112.026C1109.16 114.313 1107.7 117.401 1107.7 121.29C1107.7 124.378 1108.33 130.497 1109.61 139.646C1109.73 140.561 1110.12 143.535 1110.75 148.567C1111.39 153.485 1111.71 157.945 1111.71 161.948C1111.71 171.784 1108.4 179.39 1101.78 184.765C1095.16 190.255 1086.32 193 1075.24 193H1061.5V168.982H1068.95C1073.02 168.982 1075.94 168.124 1077.73 166.409C1079.51 164.808 1080.4 162.349 1080.4 159.032C1080.4 156.401 1079.89 150.74 1078.87 142.048C1077.73 130.954 1077.15 123.692 1077.15 120.26C1077.15 113.856 1078.81 108.652 1082.12 104.649C1085.55 100.532 1090.71 97.8439 1097.58 96.5858V96.2427C1090.71 95.099 1085.55 92.4684 1082.12 88.3511C1078.81 84.2338 1077.15 79.0299 1077.15 72.7396C1077.15 69.3084 1077.73 62.0459 1078.87 50.952C1079.89 42.0311 1080.4 36.3126 1080.4 33.7964C1080.4 30.4797 1079.51 28.0207 1077.73 26.4196C1075.94 24.8184 1073.02 24.0178 1068.95 24.0178H1061.5V0H1075.24C1086.32 0 1095.16 2.74489 1101.78 8.23466C1108.4 13.6101 1111.71 21.1585 1111.71 30.88C1111.71 34.883 1111.39 39.4006 1110.75 44.4329C1110.12 49.3508 1109.73 52.2673 1109.61 53.1822C1108.33 62.3319 1107.7 68.4507 1107.7 71.5387C1107.7 75.656 1109.16 78.8584 1112.09 81.1458C1115.02 83.3188 1119.6 84.5197 1125.83 84.7484V108.08Z" fill="#4F68B0"/>
<path d="M-0.000325644 84.92C6.23574 84.6913 10.8174 83.376 13.7445 80.9742C16.6716 78.6868 18.1352 75.5988 18.1352 71.7102C18.1352 68.6222 17.4991 62.5034 16.2264 53.3538C16.0991 52.4388 15.7171 49.4652 15.0807 44.4329C14.4444 39.515 14.1263 35.0545 14.1263 31.0516C14.1263 21.2157 17.4352 13.6101 24.0531 8.23466C30.6709 2.74488 39.5161 -1.90735e-06 50.5883 -1.90735e-06H64.333L64.333 24.0178H56.888C52.8155 24.0178 49.8883 24.8755 48.1066 26.5911C46.3248 28.1923 45.4339 30.6513 45.4339 33.968C45.4339 36.5985 45.943 42.2598 46.9612 50.952C48.1066 62.0459 48.6791 69.3084 48.6791 72.7395C48.6791 79.1443 47.0248 84.3482 43.7159 88.3511C40.2797 92.4684 35.1254 95.1561 28.253 96.4142V96.7573C35.1254 97.901 40.2797 100.532 43.7159 104.649C47.0248 108.766 48.6791 113.97 48.6791 120.26C48.6791 123.692 48.1066 130.954 46.9612 142.048C45.943 150.969 45.4339 156.687 45.4339 159.204C45.4339 162.52 46.3248 164.979 48.1066 166.58C49.8883 168.182 52.8155 168.982 56.888 168.982H64.333V193H50.5883C39.5161 193 30.6709 190.255 24.0531 184.765C17.4352 179.39 14.1263 171.841 14.1263 162.12C14.1263 158.117 14.4444 153.599 15.0807 148.567C15.7171 143.649 16.0991 140.733 16.2264 139.818C17.4991 130.668 18.1352 124.549 18.1352 121.461C18.1352 117.344 16.6716 114.142 13.7445 111.854C10.8174 109.681 6.23574 108.48 -0.000325644 108.252V84.92Z" fill="#4F68B0"/>
<path d="M388.732 97.2655H372.713V74.2985H389.504V47.0855H420.384V74.2985H446.632V97.4585H420.577V133.356C420.577 138.246 421.735 141.591 424.051 143.392C426.496 145.194 429.391 146.094 432.736 146.094C434.795 146.094 437.046 145.901 439.491 145.515C442.064 145.001 444.059 144.293 445.474 143.392L450.685 166.166C447.468 167.968 443.737 169.254 439.491 170.026C435.374 170.798 431.256 171.184 427.139 171.184C421.478 171.184 416.267 170.541 411.506 169.254C406.874 167.839 402.821 165.652 399.347 162.692C396.002 159.733 393.364 155.937 391.434 151.305C389.633 146.673 388.732 141.012 388.732 134.321V97.2655Z" fill="black"/>
<path d="M498.954 171.57C490.977 171.57 483.772 170.348 477.339 167.903C470.905 165.459 465.437 161.985 460.933 157.481C456.43 152.849 452.956 147.317 450.511 140.883C448.067 134.45 446.844 127.245 446.844 119.267C446.844 111.29 448.067 104.213 450.511 98.0375C452.956 91.7328 456.366 86.4575 460.74 82.2115C465.244 77.9655 470.712 74.7488 477.145 72.5615C483.579 70.2455 490.72 69.0875 498.568 69.0875C506.546 69.0875 513.687 70.2455 519.992 72.5615C526.425 74.7488 531.893 77.9655 536.397 82.2115C540.9 86.4575 544.374 91.7328 546.819 98.0375C549.263 104.342 550.486 111.547 550.486 119.653C550.486 127.502 549.263 134.643 546.819 141.076C544.503 147.51 541.093 152.978 536.59 157.481C532.215 161.985 526.811 165.459 520.378 167.903C514.073 170.348 506.932 171.57 498.954 171.57ZM498.954 145.708C505.388 145.708 510.277 143.392 513.623 138.76C517.097 134 518.834 127.631 518.834 119.653C518.834 111.29 516.968 105.05 513.236 100.932C509.634 96.6865 504.744 94.5635 498.568 94.5635C492.392 94.5635 487.439 96.6865 483.707 100.932C480.105 105.05 478.303 111.226 478.303 119.46C478.303 127.566 480.105 134 483.707 138.76C487.439 143.392 492.521 145.708 498.954 145.708Z" fill="black"/>
<path d="M602.632 171.57C594.654 171.57 587.449 170.348 581.016 167.903C574.582 165.459 569.114 161.985 564.611 157.481C560.107 152.849 556.633 147.317 554.189 140.883C551.744 134.45 550.522 127.245 550.522 119.267C550.522 111.29 551.744 104.213 554.189 98.0375C556.633 91.7328 560.043 86.4575 564.418 82.2115C568.921 77.9655 574.389 74.7488 580.823 72.5615C587.256 70.2455 594.397 69.0875 602.246 69.0875C610.223 69.0875 617.364 70.2455 623.669 72.5615C630.102 74.7488 635.57 77.9655 640.074 82.2115C644.577 86.4575 648.051 91.7328 650.496 98.0375C652.94 104.342 654.163 111.547 654.163 119.653C654.163 127.502 652.94 134.643 650.496 141.076C648.18 147.51 644.77 152.978 640.267 157.481C635.892 161.985 630.488 165.459 624.055 167.903C617.75 170.348 610.609 171.57 602.632 171.57ZM602.632 145.708C609.065 145.708 613.954 143.392 617.3 138.76C620.774 134 622.511 127.631 622.511 119.653C622.511 111.29 620.645 105.05 616.914 100.932C613.311 96.6865 608.422 94.5635 602.246 94.5635C596.07 94.5635 591.116 96.6865 587.385 100.932C583.782 105.05 581.981 111.226 581.981 119.46C581.981 127.566 583.782 134 587.385 138.76C591.116 143.392 596.198 145.708 602.632 145.708Z" fill="black"/>
<path d="M656.129 44.3835H687.009V169.833H656.129V44.3835Z" fill="black"/>
<path d="M692.754 44.3835H723.634V106.722L757.216 66.5785L778.253 84.5275L747.566 119.653L780.955 153.428L760.304 172.921L723.634 132.391V169.833H692.754V44.3835Z" fill="black"/>
<path d="M800.469 65.2275C795.579 65.2275 791.398 63.6191 787.924 60.4025C784.578 57.1858 782.906 53.0685 782.906 48.0505C782.906 43.0325 784.578 38.9795 787.924 35.8915C791.398 32.6748 795.579 31.0665 800.469 31.0665C805.358 31.0665 809.475 32.6748 812.821 35.8915C816.295 38.9795 818.032 43.0325 818.032 48.0505C818.032 53.0685 816.295 57.1858 812.821 60.4025C809.475 63.6191 805.358 65.2275 800.469 65.2275ZM785.029 76.8075L800.469 72.5615L815.909 76.8075V169.833H785.029V76.8075Z" fill="black"/>
<path d="M834.094 97.2655H818.075V74.2985H834.866V47.0855H865.746V74.2985H891.994V97.4585H865.939V133.356C865.939 138.246 867.097 141.591 869.413 143.392C871.858 145.194 874.753 146.094 878.098 146.094C880.157 146.094 882.409 145.901 884.853 145.515C887.427 145.001 889.421 144.293 890.836 143.392L896.047 166.166C892.831 167.968 889.099 169.254 884.853 170.026C880.736 170.798 876.619 171.184 872.501 171.184C866.84 171.184 861.629 170.541 856.868 169.254C852.236 167.839 848.183 165.652 844.709 162.692C841.364 159.733 838.726 155.937 836.796 151.305C834.995 146.673 834.094 141.012 834.094 134.321V97.2655Z" fill="black"/>
<path d="M916.52 169.061C910.987 169.061 906.548 167.389 903.203 164.043C899.858 160.569 898.185 156.323 898.185 151.305C898.185 146.159 899.858 141.848 903.203 138.374C906.548 134.9 910.987 133.163 916.52 133.163C922.053 133.163 926.492 134.9 929.837 138.374C933.311 141.848 935.048 146.159 935.048 151.305C935.048 156.323 933.311 160.569 929.837 164.043C926.492 167.389 922.053 169.061 916.52 169.061Z" fill="black"/>
<path d="M953.335 91.379C949.668 91.379 946.532 90.1727 943.927 87.7602C941.418 85.3477 940.163 82.2597 940.163 78.4962C940.163 74.7327 941.418 71.693 943.927 69.377C946.532 66.9645 949.668 65.7582 953.335 65.7582C957.002 65.7582 960.09 66.9645 962.599 69.377C965.205 71.693 966.508 74.7327 966.508 78.4962C966.508 82.2597 965.205 85.3477 962.599 87.7602C960.09 90.1727 957.002 91.379 953.335 91.379ZM941.755 100.064L953.335 97.2655L964.915 100.064V169.833H941.755V100.064Z" fill="black"/>
<path d="M1008.4 169.833C1002.42 169.833 997.738 169.689 992.913 167.855C988.088 166.022 983.986 163.416 980.609 160.039C977.231 156.565 974.626 152.415 972.792 147.59C970.959 142.765 970.042 137.361 970.042 131.378C970.042 125.395 970.959 120.088 972.792 115.456C974.626 110.727 977.183 106.771 980.464 103.586C983.842 100.402 987.943 97.9891 992.768 96.3486C997.593 94.6116 1002.95 93.7431 1008.84 93.7431C1014.82 93.7431 1020.17 94.6116 1024.9 96.3486C1029.73 97.9891 1033.83 100.402 1037.21 103.586C1040.58 106.771 1043.19 110.727 1045.02 115.456C1046.86 120.184 1047.77 125.588 1047.77 131.668C1047.77 137.554 1046.86 142.91 1045.02 147.735C1043.29 152.56 1040.73 156.661 1037.35 160.039C1034.07 163.416 1030.02 166.022 1025.19 167.855C1020.46 169.689 1014.39 169.833 1008.4 169.833ZM1009.12 151.209C1013.95 151.209 1017.62 149.472 1020.13 145.998C1022.73 142.427 1024.03 137.651 1024.03 131.668C1024.03 125.395 1022.63 120.715 1019.84 117.627C1017.13 114.442 1013.47 112.85 1008.84 112.85C1004.2 112.85 1000.49 114.442 997.689 117.627C994.987 120.715 993.636 125.347 993.636 131.523C993.636 137.602 994.987 142.427 997.689 145.998C1000.49 149.472 1004.3 151.209 1009.12 151.209Z" fill="black"/>
<path d="M123.461 25.7618H165.947L208.433 169.833H170.133L162.18 141.336H124.507L116.554 169.833H77.417L123.461 25.7618ZM156.32 109.672L145.227 68.2821H144.39L132.461 109.672H156.32Z" fill="black"/>
<path d="M214.723 42.0462C217.235 39.9353 220.374 37.8997 224.141 35.9396C228.048 33.8286 232.304 32.0193 236.908 30.5114C241.652 28.8528 246.745 27.5712 252.186 26.6665C257.628 25.611 263.209 25.0833 268.93 25.0833C286.231 25.0833 299.905 29.7575 309.951 39.106C319.997 48.3036 325.02 61.5724 325.02 78.9122C325.02 87.9591 323.624 95.8751 320.834 102.66C318.183 109.445 314.485 115.1 309.741 119.623C304.997 124.147 299.486 127.539 293.207 129.801C286.929 131.912 280.231 132.967 273.115 132.967C268.092 132.967 263.697 132.44 259.93 131.384C256.302 130.329 253.093 128.972 250.303 127.313V169.833H214.723V42.0462ZM250.303 81.6263C250.303 88.713 252.326 93.915 256.372 97.2321C260.418 100.399 265.023 101.982 270.185 101.982C275.906 101.982 280.51 100.097 283.999 96.3275C287.626 92.4072 289.44 86.4513 289.44 78.4599C289.44 71.0716 287.626 65.3419 283.999 61.2708C280.51 57.0489 274.79 54.938 266.837 54.938C260.418 54.938 254.907 56.295 250.303 59.0091V81.6263Z" fill="black"/>
<path d="M331.338 25.988H366.917V169.833H331.338V25.988Z" fill="black"/>
</svg>
