<svg width="478" height="379" viewBox="0 0 478 379" fill="none" xmlns="http://www.w3.org/2000/svg">
<path d="M444.64 66.8841C419.091 28.7769 375.738 1.68106 329.875 0.977972C284.012 0.274887 237.63 28.6795 222.184 71.8814C214.612 92.9307 214.407 115.819 209.983 137.733C205.559 159.648 195.304 182.461 175.25 192.358C148.079 205.749 115.867 190.443 85.6231 191.893C51.3882 193.526 20.301 218.556 8.27287 250.627C-3.7553 282.699 2.0749 320.125 20.4417 349.059C38.8084 377.994 68.6625 398.665 101.232 409.341C133.801 420.017 210.556 426.226 244.52 421.661C260.54 421.002 276.419 418.379 291.8 413.851C338.507 399.974 376.527 376.653 408.134 343.867C445.808 304.765 469.302 252.499 474.57 198.458C478.929 152.79 470.178 104.991 444.64 66.8841Z" fill="#EBEBEB"/>
<path d="M68.5862 429.546C69.6678 425.566 66.9961 421.574 64.0756 418.73C61.1551 415.885 57.6613 413.267 56.1361 409.449C53.6699 403.262 56.9798 395.257 52.783 390.098C50.3059 387.069 45.8711 386.052 43.6753 382.807C42.6601 381.019 41.9887 379.056 41.6958 377.02C39.3619 366.744 34.307 357.284 27.0609 349.633C26.5724 358.786 28.5563 367.903 32.8045 376.025C34.5027 379.27 36.6012 382.429 37.1312 386.052C38.0506 391.926 34.7623 397.951 36.2118 403.748C37.8667 410.347 45.2762 414.771 45.6223 421.564C45.9252 427.307 40.9171 432.38 41.2956 438.092C41.599 440.537 42.4856 442.874 43.8808 444.906C48.3157 452.294 54.849 457.378 64.7354 457.215L76.8501 457.637L68.5862 429.546Z" fill="#fbbf24"/>
<g opacity="0.3">
<path opacity="0.3" d="M68.5862 429.546C69.6678 425.566 66.9961 421.574 64.0756 418.73C61.1551 415.885 57.6613 413.267 56.1361 409.449C53.6699 403.262 56.9798 395.257 52.783 390.098C50.3059 387.069 45.8711 386.052 43.6753 382.807C42.6601 381.019 41.9887 379.056 41.6958 377.02C39.3619 366.744 34.307 357.284 27.0609 349.633C26.5724 358.786 28.5563 367.903 32.8045 376.025C34.5027 379.27 36.6012 382.429 37.1312 386.052C38.0506 391.926 34.7623 397.951 36.2118 403.748C37.8667 410.347 45.2762 414.771 45.6223 421.564C45.9252 427.307 40.9171 432.38 41.2956 438.092C41.599 440.537 42.4856 442.874 43.8808 444.906C48.3157 452.294 54.849 457.378 64.7354 457.215L76.8501 457.637L68.5862 429.546Z" fill="black"/>
</g>
<path d="M79.2954 457.886C80.405 458.057 81.5357 458.035 82.6378 457.821C83.9758 457.618 85.2908 457.284 86.5643 456.826C88.3228 456.215 89.9677 455.315 91.4318 454.165C92.3126 453.457 93.0009 452.538 93.4329 451.493C93.7947 450.323 93.9842 449.106 93.9953 447.881C94.0197 446.571 94.1172 445.264 94.2874 443.965C94.5153 442.582 95.0153 441.259 95.7584 440.071C97.1863 437.561 99.5659 435.182 100.323 431.775C101.08 428.367 100.561 424.798 99.9986 421.163C99.4361 417.529 98.9169 413.592 100.28 409.784C101.643 405.977 104.239 402.569 105.569 398.308C106.9 394.046 106.272 389.351 106.554 384.776C106.637 382.452 107.173 380.166 108.133 378.048C109.106 375.885 110.469 373.884 111.529 371.634C113.693 367.069 114.06 361.899 114.644 356.826C114.936 354.273 115.218 351.688 115.51 349.092C115.694 346.467 116.147 343.868 116.862 341.336C117.682 338.784 118.65 336.281 119.761 333.84C120.332 332.578 120.803 331.272 121.167 329.935C121.371 328.551 121.501 327.158 121.556 325.76C121.685 322.962 121.577 320.157 121.232 317.377C120.907 314.586 120.399 311.817 120.096 309.016C120.096 308.843 120.096 308.681 120.096 308.529L120.031 307.977L119.544 308.215C116.987 309.528 114.766 311.412 113.054 313.721C111.375 315.982 110.024 318.47 109.041 321.109C107.019 326.312 106.294 331.763 105.277 336.966C104.26 342.169 102.962 347.285 100.301 351.612C98.971 353.775 97.3593 355.744 95.9748 357.842C94.4713 359.89 93.444 362.248 92.9677 364.743C92.243 369.871 95.0662 374.37 94.4821 378.913C94.2185 381.139 93.4808 383.282 92.3187 385.198C91.2371 387.134 89.9282 388.93 88.6951 390.725C87.4453 392.486 86.3591 394.358 85.4501 396.317C84.5946 398.235 84.089 400.29 83.9574 402.386C83.6654 406.474 84.2387 410.347 83.9574 414.003C83.6197 417.487 82.6017 420.872 80.9612 423.965C79.501 426.94 77.8676 429.633 76.5047 432.25C75.8233 433.548 75.1851 434.825 74.6659 436.112C74.1746 437.348 73.8121 438.631 73.5842 439.941C73.2222 442.229 73.193 444.557 73.4977 446.853C73.8155 450.055 75.0135 453.106 76.959 455.669C77.2565 456.056 77.5857 456.418 77.9433 456.75C78.1822 457.001 78.4469 457.226 78.733 457.421C79.1873 457.756 79.4252 457.908 79.4252 457.908C78.5605 457.224 77.7734 456.448 77.078 455.593C75.2209 453.021 74.0991 449.992 73.833 446.831C73.5576 444.564 73.6086 442.269 73.9844 440.017C74.2122 438.738 74.5748 437.487 75.0661 436.285C75.6142 434.984 76.2316 433.713 76.9158 432.478C78.2895 429.882 79.9336 427.199 81.4263 424.203C83.1159 421.062 84.1672 417.617 84.5199 414.068C84.8444 410.336 84.2819 406.442 84.5848 402.461C84.7241 400.433 85.2184 398.445 86.045 396.588C86.9597 394.669 88.0458 392.838 89.2901 391.115C90.5232 389.319 91.832 387.523 92.9569 385.544C94.1916 383.555 94.9812 381.323 95.2717 379C95.8558 374.165 93.0543 369.643 93.779 364.873C94.2531 362.487 95.2465 360.234 96.6887 358.275C98.0624 356.209 99.6849 354.24 101.015 352.023C103.774 347.577 105.104 342.364 106.11 337.139C107.116 331.915 107.862 326.506 109.853 321.401C110.81 318.835 112.124 316.417 113.757 314.219C115.404 312.002 117.54 310.196 119.999 308.94L119.447 308.626C119.447 308.789 119.447 308.951 119.501 309.124C119.804 311.958 120.312 314.727 120.583 317.496C120.924 320.233 121.029 322.994 120.896 325.749C120.842 327.103 120.719 328.453 120.529 329.795C120.179 331.088 119.723 332.351 119.166 333.57C118.05 336.036 117.075 338.564 116.245 341.141C115.524 343.713 115.068 346.352 114.882 349.016C114.601 351.623 114.309 354.208 114.028 356.761C113.444 361.855 113.065 366.939 110.999 371.342C109.918 373.505 108.619 375.571 107.614 377.778C106.624 379.975 106.072 382.345 105.991 384.754C105.721 389.427 106.326 394.003 105.061 398.135C103.795 402.267 101.167 405.706 99.8363 409.611C98.5059 413.516 98.9926 417.648 99.5767 421.272C100.161 424.895 100.745 428.465 99.9661 431.677C99.1873 434.89 96.9591 437.291 95.5097 439.865C94.7455 441.105 94.2345 442.484 94.0061 443.922C93.8427 445.235 93.7561 446.557 93.7465 447.881C93.7483 449.075 93.5733 450.263 93.2273 451.407C92.8267 452.398 92.1832 453.272 91.3561 453.949C89.9312 455.098 88.3269 456.004 86.6075 456.631C85.3509 457.116 84.0504 457.478 82.7243 457.713C81.9139 457.86 81.0926 457.94 80.2689 457.951C79.5875 457.886 79.2954 457.886 79.2954 457.886Z" fill="#263238"/>
<path d="M117.564 315.214C117.506 315.33 117.466 315.454 117.445 315.582L117.186 316.663C116.948 317.626 116.656 319.065 116.201 320.86C115.747 322.656 114.633 324.689 113.692 327.188C112.59 330.001 111.629 332.867 110.815 335.776C109.884 339.021 109.073 342.591 108.208 346.442C107.472 350.543 106.169 354.522 104.335 358.264C103.34 360.233 102.172 362.223 101.339 364.408C100.466 366.639 99.8805 368.973 99.5977 371.352C98.9824 376.28 98.1087 381.173 96.98 386.009C94.5571 395.928 92.2423 405.382 90.1331 413.992C88.0238 422.602 86.0335 430.303 84.3894 436.815C82.7453 443.327 81.5013 448.519 80.5927 452.229C80.1709 454.003 79.8356 455.398 79.5976 456.426C79.5003 456.869 79.4137 457.226 79.3488 457.507C79.3369 457.633 79.3369 457.76 79.3488 457.886C79.4117 457.774 79.459 457.654 79.4894 457.529C79.5652 457.237 79.6733 456.891 79.8031 456.447C80.0735 455.441 80.4521 454.046 80.9389 452.283C81.9124 448.605 83.2861 443.381 84.9843 436.945C86.6825 430.509 88.662 422.721 90.8794 414.165C93.0968 405.609 95.3467 396.09 97.7913 386.161C98.9127 381.311 99.7649 376.404 100.344 371.461C100.62 369.138 101.187 366.86 102.031 364.679C102.886 362.515 103.978 360.579 104.974 358.589C107.137 354.641 107.991 350.401 108.846 346.582C109.7 342.764 110.458 339.151 111.345 335.928C112.232 332.704 113.162 329.827 114.092 327.339C115.022 324.851 116.05 322.796 116.493 320.936C116.937 319.075 117.142 317.691 117.337 316.696C117.409 316.249 117.474 315.888 117.532 315.614C117.564 315.344 117.586 315.214 117.564 315.214Z" fill="#263238"/>
<path d="M81.4371 457.94C89.3442 453.235 91.6157 438.957 88.3166 430.368C85.0175 421.78 79.2414 413.927 78.3544 404.765C77.6621 397.724 79.9769 390.498 78.3544 383.619C76.137 374.327 67.0726 367.134 67.1807 357.583C67.2348 352.229 70.2851 347.188 70.0364 341.834C69.7443 335.279 64.7037 330.065 61.5885 324.289C56.8075 315.43 56.4939 304.97 54.8605 295.084C53.2272 285.197 49.4522 274.532 40.6474 269.654C39.3494 278.08 37.132 283.856 37.8242 295.268C38.0838 299.367 42.8432 307.166 43.4922 316.198C43.8816 321.606 44.1412 326.95 44.4765 332.315C44.8118 337.68 45.1363 342.872 47.0076 347.761C48.4462 351.515 50.7502 354.922 51.821 358.794C53.8221 366.074 51.1829 373.938 52.8054 381.336C54.1791 387.588 58.5058 392.964 59.3927 399.303C60.6258 408.205 54.8713 417.464 57.8135 425.955C59.2846 430.174 62.7459 433.527 63.7302 437.908C64.4982 441.282 63.6653 444.863 64.3576 448.248C65.4393 453.722 75.8882 457.983 81.4588 457.626" fill="#fbbf24"/>
<path d="M42.8099 277.972C42.7951 278.13 42.7951 278.29 42.8099 278.448C42.8099 278.805 42.9181 279.259 42.983 279.832C43.1669 281.055 43.3724 282.839 43.7834 285.154C44.1944 287.469 45.4275 290.087 46.3794 293.245C47.3313 296.404 48.3913 300.016 49.2783 304.062C50.1653 308.107 50.9441 312.618 51.7337 317.453C52.5233 322.288 53.3886 327.556 55.7899 332.596C56.8716 335.117 58.148 337.648 59.0349 340.352C59.9438 343.12 60.5033 345.99 60.7007 348.897C61.1429 355.064 61.9193 361.202 63.0263 367.285C65.4492 379.768 67.7532 391.655 69.8516 402.483C71.9501 413.31 74.0593 422.97 75.7467 431.147C77.4341 439.325 78.8187 445.858 79.7814 450.466L80.863 455.712C80.9928 456.274 81.0902 456.718 81.1767 457.064C81.206 457.223 81.2494 457.378 81.3065 457.529C81.3257 457.371 81.3257 457.211 81.3065 457.053C81.2416 456.696 81.1659 456.253 81.0686 455.679C80.8306 454.425 80.4953 452.651 80.0734 450.401C79.1648 445.782 77.9101 439.184 76.2768 431.039C74.6434 422.894 72.7072 413.127 70.5547 402.342C68.4022 391.558 66.228 379.627 63.7943 367.156C62.6866 361.072 61.9066 354.934 61.4579 348.767C61.252 345.801 60.6742 342.872 59.738 340.049C58.7753 337.302 57.5098 334.76 56.3957 332.25C54.016 327.285 53.1507 322.104 52.3286 317.291C51.5065 312.477 50.7169 307.956 49.7759 303.889C48.8348 299.822 47.8072 296.187 46.7472 293.072C45.6871 289.957 44.5081 287.318 44.0322 285.057C43.5563 282.796 43.3291 280.979 43.102 279.778C42.9938 279.216 42.9072 278.762 42.8423 278.405C42.8401 278.26 42.8292 278.115 42.8099 277.972Z" fill="#263238"/>
<path d="M383.034 52.0112H378.708C378.711 52.5019 378.615 52.9882 378.427 53.4414C378.238 53.8945 377.961 54.3052 377.611 54.6492C377.261 54.9932 376.845 55.2634 376.389 55.4438C375.933 55.6243 375.445 55.7113 374.954 55.6997C374.23 55.7257 373.515 55.5249 372.91 55.1255C372.305 54.7261 371.84 54.1479 371.579 53.4714C371.351 52.9082 371.26 52.2989 371.313 51.6936C371.365 51.0882 371.56 50.5039 371.882 49.9885C372.618 48.777 374.219 47.6845 377.117 48.1929V38.4579H372.867V44.1474C371.122 44.661 369.594 45.7327 368.518 47.1981C367.441 48.6636 366.875 50.4418 366.907 52.26C366.907 58.5553 372.553 60.0155 374.976 60.0155C376.825 60.0588 383.121 59.6153 383.034 52.0112Z" fill="#fbbf24"/>
<path d="M372.835 36.4892H377.15V32.4546H372.835V36.4892Z" fill="#fbbf24"/>
<path d="M406.627 46.2567C406.642 46.0731 406.642 45.8887 406.627 45.7051C406.627 45.3157 406.627 44.7857 406.627 44.1042C406.627 43.7581 406.627 43.3579 406.573 42.9252C406.519 42.4925 406.454 42.0166 406.378 41.519C406.303 41.0215 406.227 40.4374 406.14 39.8641L405.686 38.0252C404.883 34.8585 403.567 31.8442 401.792 29.1014C399.214 25.0396 395.74 21.6228 391.635 19.1138C387.53 16.6049 382.905 15.0705 378.114 14.6287C376.676 14.5017 375.23 14.4727 373.788 14.5422C373.063 14.5422 372.317 14.5422 371.624 14.6828L369.396 15.0181C366.339 15.5863 363.38 16.5956 360.613 18.0143C357.724 19.543 355.069 21.4772 352.728 23.758C350.331 26.1872 348.327 28.9754 346.789 32.022C345.134 35.1628 344.05 38.5725 343.587 42.0923C343.452 42.9841 343.376 43.8838 343.36 44.7857C343.288 45.6888 343.27 46.5954 343.306 47.5007C343.541 53.3032 345.355 58.9317 348.552 63.7798V63.4445C347.049 67.1979 345.567 70.8864 344.117 74.4775L343.858 75.1373L344.539 74.9426L356.329 71.6976L356.048 71.6327C360.019 74.6388 364.645 76.6626 369.547 77.5386C371.822 77.9626 374.14 78.1042 376.449 77.9605C377.562 77.9439 378.672 77.839 379.769 77.6468L381.381 77.398C381.911 77.3007 382.463 77.1384 382.939 77.0194C390.204 75.1783 396.577 70.8108 400.916 64.6992C402.534 62.4477 403.834 59.9835 404.777 57.3763C404.983 56.803 405.178 56.2946 405.362 55.7322C405.545 55.1697 405.643 54.6505 405.762 54.1637C405.881 53.677 406.011 53.1794 406.119 52.7251C406.227 52.2708 406.259 51.8273 406.324 51.4055C406.422 50.5726 406.573 49.8371 406.605 49.2421C406.638 48.6472 406.605 48.0739 406.605 47.6196C406.605 47.1653 406.605 46.8841 406.605 46.6353C406.605 46.3865 406.605 46.3 406.605 46.3C406.589 46.4112 406.589 46.5242 406.605 46.6353C406.605 46.8841 406.605 47.2086 406.53 47.6196C406.454 48.0307 406.465 48.604 406.422 49.2313C406.378 49.8587 406.216 50.5942 406.086 51.3947C405.055 57.3813 402.307 62.9395 398.176 67.3943C394.046 71.849 388.711 75.0087 382.82 76.4894C382.311 76.6084 381.803 76.7598 381.284 76.8572L379.694 77.0951C378.621 77.2742 377.536 77.3718 376.449 77.3872C374.182 77.5067 371.909 77.3578 369.677 76.9437C364.889 76.0626 360.374 74.0734 356.492 71.1351L356.362 71.027H356.2L344.399 74.272L344.81 74.7371L349.255 63.7149L349.32 63.5418L349.223 63.3796C347.093 60.157 345.582 56.5659 344.766 52.79C344.393 51.0382 344.169 49.2579 344.096 47.4682C344.06 46.5846 344.078 45.6995 344.15 44.8181C344.157 43.9378 344.229 43.0592 344.366 42.1897C344.781 38.7524 345.803 35.416 347.384 32.3356C348.887 29.3583 350.839 26.6295 353.171 24.2448C355.462 22.0056 358.063 20.1077 360.894 18.6093C363.599 17.202 366.497 16.1998 369.493 15.6347L371.657 15.2993C372.381 15.1912 373.106 15.202 373.82 15.1479C375.23 15.0808 376.643 15.1061 378.049 15.2236C382.761 15.6361 387.317 17.1168 391.371 19.5533C395.425 21.9898 398.871 25.3181 401.446 29.2853C403.231 31.9802 404.568 34.9463 405.405 38.0685L405.892 39.8857C405.989 40.459 406.075 40.9674 406.162 41.5082C406.249 42.049 406.313 42.4817 406.389 42.9144C406.465 43.347 406.443 43.7364 406.476 44.0826C406.476 44.7532 406.562 45.2832 406.595 45.6726C406.574 45.8678 406.585 46.065 406.627 46.2567Z" fill="#263238"/>
<path d="M125.299 173.818H187.765C187.765 173.818 187.765 121.368 242.271 120.438C270.578 119.94 285.256 138.491 291.227 152.693C298.15 169.188 296.051 187.988 286.771 203.294C276.181 220.762 253.358 238.318 211.259 230.898L210.859 370.076H272.633V287.566C272.633 287.566 359.264 265.176 359.264 169.664C359.264 78.3174 285.397 58.5877 245.689 57.3114C223.601 56.6083 215.597 55.6564 188.274 59.5396C153.455 64.5153 124.563 104.948 125.299 173.818Z" fill="#fbbf24"/>
<path opacity="0.1" d="M125.299 173.818H187.765C187.765 173.818 187.765 121.368 242.271 120.438C270.578 119.94 285.256 138.491 291.227 152.693C298.15 169.188 296.051 187.988 286.771 203.294C276.181 220.762 253.358 238.318 211.259 230.898L210.859 370.076H272.633V287.566C272.633 287.566 359.264 265.176 359.264 169.664C359.264 78.3174 285.397 58.5877 245.689 57.3114C223.601 56.6083 215.597 55.6564 188.274 59.5396C153.455 64.5153 124.563 104.948 125.299 173.818Z" fill="black"/>
<path d="M99.4156 173.818H161.893C161.893 173.818 161.893 121.368 216.398 120.438C244.706 119.94 259.384 138.491 265.344 152.693C272.277 169.188 270.179 187.988 260.898 203.294C250.309 220.762 227.085 236.641 184.987 229.254V370.076H246.761V287.566C246.761 287.566 333.392 265.176 333.392 169.664C333.392 78.3174 251.466 57.1059 216.409 57.1059C189.594 57.1383 98.2366 63.6175 99.4156 173.818Z" fill="#fbbf24"/>
<path opacity="0.3" d="M99.4156 173.818H161.893C161.893 173.818 161.893 121.368 216.398 120.438C244.706 119.94 259.384 138.491 265.344 152.693C272.277 169.188 270.179 187.988 260.898 203.294C250.309 220.762 227.085 236.641 184.987 229.254V370.076H246.761V287.566C246.761 287.566 333.392 265.176 333.392 169.664C333.392 78.3174 251.466 57.1059 216.409 57.1059C189.594 57.1383 98.2366 63.6175 99.4156 173.818Z" fill="black"/>
<path d="M223.45 120.719C223.141 120.746 222.83 120.746 222.52 120.719C221.904 120.719 221.017 120.513 219.859 120.503C216.587 120.342 213.307 120.479 210.059 120.914C205.244 121.523 200.505 122.636 195.922 124.234C193.22 125.179 190.588 126.314 188.047 127.631C185.3 129.003 182.714 130.676 180.335 132.617C177.972 134.576 175.855 136.814 174.029 139.28C172.298 141.561 170.719 143.953 169.302 146.441C166.936 150.678 165.06 155.171 163.71 159.832C162.794 162.978 162.164 166.2 161.828 169.459C161.698 170.605 161.665 171.514 161.633 172.12C161.634 172.432 161.605 172.743 161.546 173.05C161.518 172.741 161.518 172.429 161.546 172.12C161.546 171.503 161.546 170.595 161.644 169.437C161.892 166.143 162.469 162.882 163.364 159.702C164.664 154.987 166.516 150.442 168.88 146.16C170.3 143.644 171.886 141.227 173.629 138.923C175.47 136.416 177.614 134.146 180.01 132.163C182.418 130.195 185.038 128.5 187.82 127.112C190.377 125.77 193.027 124.614 195.749 123.65C200.374 122.058 205.157 120.97 210.016 120.405C213.285 120.004 216.586 119.927 219.87 120.178C220.762 120.235 221.651 120.343 222.531 120.503C222.842 120.553 223.149 120.625 223.45 120.719Z" fill="#263238"/>
<path d="M317.577 109.588C317.577 109.588 317.502 109.513 317.372 109.35C317.242 109.188 317.047 108.907 316.831 108.593L314.765 105.673C314.322 105.045 313.846 104.321 313.283 103.574L311.336 101.206L309.108 98.4689C308.297 97.517 307.345 96.5976 306.393 95.5916C305.441 94.5857 304.468 93.5148 303.364 92.4873C302.261 91.4597 301.082 90.4104 299.87 89.3288C299.265 88.7879 298.67 88.2471 298.021 87.6738L296.009 86.0838C294.635 85.0021 293.272 83.9204 291.79 82.8388C285.331 78.2175 278.48 74.171 271.314 70.7457L265.614 68.1713L259.957 66.008C258.107 65.24 256.225 64.6992 254.408 64.0934C252.591 63.4877 250.817 62.8711 249 62.4493L243.829 61.0972C242.153 60.6537 240.487 60.3833 238.897 60.0155C237.307 59.6477 235.771 59.3232 234.267 59.1394L229.941 58.512C227.204 58.0469 224.694 57.9495 222.509 57.7332C221.428 57.6467 220.346 57.5277 219.448 57.4844L216.874 57.4195L213.304 57.3005H212.374H212.061C212.164 57.2843 212.27 57.2843 212.374 57.3005H213.304H216.874H219.459C220.4 57.3005 221.428 57.4303 222.531 57.506C224.694 57.6899 227.247 57.7656 229.984 58.2091L234.311 58.7932C235.814 58.9663 237.35 59.3557 238.951 59.6478C240.552 59.9398 242.196 60.2427 243.916 60.7294L249.108 62.0707C250.903 62.4817 252.677 63.1524 254.516 63.704C256.355 64.2557 258.226 64.7857 260.076 65.6077L265.765 67.7711L271.498 70.3563C278.701 73.7894 285.58 77.8658 292.05 82.5359C293.543 83.6176 294.906 84.7749 296.279 85.8458L298.291 87.3061C298.94 87.8469 299.535 88.3877 300.141 88.9718L303.624 92.2168C304.706 93.2985 305.679 94.3802 306.642 95.3645C307.604 96.3488 308.524 97.3115 309.335 98.2742L311.498 101.032L313.424 103.434C313.975 104.191 314.441 104.926 314.873 105.597C315.717 106.863 316.377 107.858 316.842 108.572L317.35 109.361C317.435 109.427 317.512 109.503 317.577 109.588Z" fill="#263238"/>
<path d="M311.066 243.716C310.938 243.95 310.782 244.168 310.601 244.365L309.109 246.128C308.492 246.917 307.713 247.858 306.751 248.908C305.788 249.957 304.76 251.19 303.506 252.466C302.251 253.743 300.91 255.17 299.384 256.609C297.859 258.048 296.204 259.562 294.441 261.141C286.708 267.891 278.231 273.737 269.173 278.567C267.075 279.649 265.095 280.73 263.181 281.563C261.266 282.396 259.482 283.251 257.837 283.943C256.193 284.635 254.679 285.208 253.359 285.717C252.04 286.225 250.882 286.636 249.93 286.939L247.767 287.642C247.516 287.742 247.255 287.814 246.988 287.858C247.222 287.725 247.468 287.616 247.724 287.534L249.887 286.734C250.828 286.398 251.964 285.966 253.273 285.425C254.582 284.884 256.096 284.343 257.718 283.575C259.341 282.807 261.137 282.082 263.008 281.141C264.879 280.2 266.88 279.205 268.968 278.113C273.089 275.841 277.535 273.18 282.024 270.108C286.512 267.036 290.547 263.802 294.138 260.752C295.901 259.194 297.589 257.734 299.092 256.263C300.596 254.792 302.002 253.461 303.246 252.185C304.49 250.909 305.582 249.73 306.556 248.691C307.529 247.653 308.33 246.744 308.979 245.987L310.493 244.267C310.669 244.068 310.861 243.884 311.066 243.716Z" fill="#263238"/>
<path d="M245.67 365.165C245.508 365.165 245.378 347.794 245.378 326.366C245.378 304.938 245.508 287.556 245.67 287.556C245.832 287.556 245.951 304.927 245.951 326.366C245.951 347.805 245.821 365.165 245.67 365.165Z" fill="#263238"/>
</svg>
