<svg width="64" height="64" viewBox="0 0 64 64" fill="none" xmlns="http://www.w3.org/2000/svg">
<g clip-path="url(#clip0_10_46)">
<path d="M32 64C49.6731 64 64 49.6731 64 32C64 14.3269 49.6731 0 32 0C14.3269 0 0 14.3269 0 32C0 49.6731 14.3269 64 32 64Z" fill="#5C2D91"/>
<path opacity="0.1" d="M9.82011 9C6.56707 11.8988 3.94031 15.4314 2.10082 19.3813C0.261341 23.3312 -0.752104 27.6152 -0.877392 31.9706C-1.00268 36.326 -0.237173 40.6611 1.37221 44.7102C2.98159 48.7593 5.40094 52.4371 8.48196 55.5181C11.563 58.5992 15.2408 61.0185 19.2899 62.6279C23.339 64.2373 27.6741 65.0028 32.0295 64.8775C36.3849 64.7522 40.6689 63.7388 44.6188 61.8993C48.5687 60.0598 52.1013 57.433 55.0001 54.18L9.82011 9Z" fill="white"/>
<path d="M7.40011 41.25C7.21345 41.253 7.0282 41.2172 6.85608 41.1449C6.68395 41.0726 6.5287 40.9654 6.40011 40.83C6.268 40.6995 6.16359 40.5437 6.09314 40.3718C6.02269 40.2 5.98765 40.0157 5.99011 39.83C5.98878 39.6445 6.02434 39.4605 6.09472 39.2889C6.16511 39.1172 6.26892 38.9612 6.40011 38.83C6.52743 38.6924 6.68223 38.583 6.85448 38.5089C7.02674 38.4348 7.21262 38.3977 7.40011 38.4C7.58733 38.3996 7.77266 38.4375 7.94465 38.5114C8.11664 38.5854 8.27165 38.6938 8.40011 38.83C8.53357 38.96 8.63952 39.1156 8.71167 39.2874C8.78383 39.4592 8.8207 39.6437 8.82011 39.83C8.82186 40.0165 8.78551 40.2014 8.71329 40.3734C8.64107 40.5453 8.5345 40.7007 8.40011 40.83C8.27044 40.9639 8.11497 41.0702 7.9431 41.1424C7.77123 41.2146 7.58652 41.2512 7.40011 41.25ZM27.2701 41H24.6501L15.2801 26.46C15.0471 26.1015 14.8527 25.7194 14.7001 25.32H14.6201C14.7092 26.1502 14.7426 26.9854 14.7201 27.82V41H12.5901V22.77H15.3601L24.4801 37.05C24.8601 37.6434 25.1068 38.05 25.2201 38.27H25.2701C25.1646 37.3808 25.1212 36.4853 25.1401 35.59V22.77H27.2701V41ZM41.6901 41H32.0001V22.77H41.2401V24.7H34.1801V30.76H40.7601V32.68H34.1801V39H41.7001L41.6901 41ZM56.0001 24.7H50.7001V41H48.5701V24.7H43.3301V22.77H56.0001V24.7Z" fill="white"/>
</g>
<defs>
<clipPath id="clip0_10_46">
<rect width="64" height="64" fill="white"/>
</clipPath>
</defs>
</svg>
