<svg width="64" height="64" viewBox="0 0 64 64" fill="none" xmlns="http://www.w3.org/2000/svg">
<path fill-rule="evenodd" clip-rule="evenodd" d="M32.2001 0.25C18.3501 6.95 0.95006 41.7 15.4501 56.95C28.8501 73.7 58.1501 57.6 49.6501 36.7C38.9001 18.7 32.1501 17.75 32.2001 0.25Z" fill="url(#paint0_linear_10_32)"/>
<path fill-rule="evenodd" clip-rule="evenodd" d="M32.2001 0.100098C18.4001 6.8001 0.950116 41.4501 15.5001 56.7501C20.8501 62.9501 29.5001 65.0001 34.3501 61.3001C47.5501 51.9001 38.0501 34.7501 39.5501 22.0501C34.0501 16.9501 32.1001 5.6501 32.2001 0.100098Z" fill="url(#paint1_linear_10_32)"/>
<path fill-rule="evenodd" clip-rule="evenodd" d="M28.35 2.1499C17.2 10.0999 14.25 39.6499 16.3 49.2499C20.4 73.2999 53.9 63.3999 51.1 40.9999C48.1 26.3999 26.7 21.3999 28.35 2.1499Z" fill="url(#paint2_linear_10_32)"/>
<path fill-rule="evenodd" clip-rule="evenodd" d="M39.3999 24.9C44.5999 31.5999 45.7499 36.1999 42.7999 38.8499C28.9499 48.5499 12.1499 42.55 15.7999 20.2C11.0499 31.5 2.24991 48.3999 21.6499 50.7999C32.0499 52.5999 48.6499 51.8 51.0999 42.75C50.9999 34.8 45.6999 31.3 39.3999 24.9Z" fill="url(#paint3_linear_10_32)"/>
<path fill-rule="evenodd" clip-rule="evenodd" d="M19.0499 18.2C17.5999 28.8 36.6 57.15 48.2 53.7C39.35 71.5 19.75 43.0999 16.2 32.8499C16.95 27.3499 17.2999 24.65 19.0499 18.2Z" fill="url(#paint4_linear_10_32)"/>
<path fill-rule="evenodd" clip-rule="evenodd" d="M30.2 24.85C30.6 28.8 32.15 35.1 30.2 39.25C28.25 43.4 19.35 51 21.8 57.65C27.5 70.05 40.35 55.45 40.25 48.15C40.8 42.25 36.95 28.8 39.35 21.9L38.25 20.5L31.45 18.5C30.35 20.1 29.95 22.25 30.2 24.85Z" fill="url(#paint5_linear_10_32)"/>
<path fill-rule="evenodd" clip-rule="evenodd" d="M32.65 5.3999C18 13.6999 24 26.6999 24.65 40.7999L34.2 13.0999C33.5 10.2499 33.05 8.3499 32.65 5.3999Z" fill="url(#paint6_linear_10_32)"/>
<path fill-rule="evenodd" clip-rule="evenodd" d="M34.1501 13.05C26.7501 18.9 27.1001 28.7 24.8501 40.05C28.9001 29.4 26.9001 20.95 34.1501 13.05Z" fill="#330A4C" fill-opacity="0.316"/>
<path fill-rule="evenodd" clip-rule="evenodd" d="M22.8999 59.8501C26.8999 60.4001 28.9499 60.9501 29.1499 61.3501C29.2999 63.4501 23.5999 61.9501 22.8999 59.8501Z" fill="white"/>
<path fill-rule="evenodd" clip-rule="evenodd" d="M24.9001 5.3999C21.4501 9.2499 17.7001 16.2999 15.8001 20.2499C15.3001 23.4999 15.5501 28.0999 16.1001 31.9999C16.5501 22.8999 19.8501 12.3999 24.9001 5.3999Z" fill="#EDEDED" fill-opacity="0.603"/>
<defs>
<linearGradient id="paint0_linear_10_32" x1="31.1732" y1="4.9444" x2="28.9574" y2="63.8922" gradientUnits="userSpaceOnUse">
<stop stop-color="#D9D8DC"/>
<stop offset="1" stop-color="white" stop-opacity="0.385"/>
</linearGradient>
<linearGradient id="paint1_linear_10_32" x1="30.2822" y1="4.00526" x2="7.13307" y2="54.7411" gradientUnits="userSpaceOnUse">
<stop stop-color="#8D67AF" stop-opacity="0.672"/>
<stop offset="1" stop-color="#9F8DAF"/>
</linearGradient>
<linearGradient id="paint2_linear_10_32" x1="33.4806" y1="21.3472" x2="33.4806" y2="62.0966" gradientUnits="userSpaceOnUse">
<stop stop-color="#26053D" stop-opacity="0.762"/>
<stop offset="1" stop-color="#B7B4B4" stop-opacity="0.278"/>
</linearGradient>
<linearGradient id="paint3_linear_10_32" x1="18.3532" y1="22.5" x2="28.7893" y2="50.1431" gradientUnits="userSpaceOnUse">
<stop stop-color="#91739F" stop-opacity="0.46"/>
<stop offset="1" stop-color="#32054F" stop-opacity="0.54"/>
</linearGradient>
<linearGradient id="paint4_linear_10_32" x1="41.7547" y1="58.0311" x2="13.1512" y2="34.3401" gradientUnits="userSpaceOnUse">
<stop stop-color="#463D49" stop-opacity="0.331"/>
<stop offset="1" stop-color="#340A50" stop-opacity="0.821"/>
</linearGradient>
<linearGradient id="paint5_linear_10_32" x1="34.6243" y1="20.9273" x2="14.5169" y2="51.522" gradientUnits="userSpaceOnUse">
<stop stop-color="#715383" stop-opacity="0.145"/>
<stop offset="1" stop-color="#F4F4F4" stop-opacity="0.234"/>
</linearGradient>
<linearGradient id="paint6_linear_10_32" x1="37.8636" y1="28.4444" x2="23.8859" y2="27.5912" gradientUnits="userSpaceOnUse">
<stop stop-color="#A5A1A8" stop-opacity="0.356"/>
<stop offset="1" stop-color="#370C50" stop-opacity="0.582"/>
</linearGradient>
</defs>
</svg>
