<svg width="64" height="64" viewBox="0 0 64 64" fill="none" xmlns="http://www.w3.org/2000/svg">
<path d="M31.5333 33.1974C30.2026 31.052 29.2372 29.2734 27.8999 25.924C25.6386 20.2667 41.6533 15.1547 35.1599 5.33203C37.9746 12.1174 25.0573 16.312 23.8573 21.9627C22.7599 27.16 31.5266 33.1974 31.5333 33.1974Z" fill="#F44336"/>
<path d="M31.8375 23.0266C31.5815 26.3813 34.8095 28.1693 34.9028 30.6199C34.9775 32.6146 32.9735 34.2773 32.9735 34.2773C32.9735 34.2773 36.6108 33.5626 37.7455 30.5199C39.0055 27.1413 35.3001 24.8279 35.6815 22.1226C36.0375 19.5386 43.7228 14.7319 43.7228 14.7319C43.7228 14.7319 32.4148 15.4813 31.8375 23.0266Z" fill="#F44336"/>
<path d="M42.7787 33.4067C45.1174 32.8814 47.0894 34.3707 47.0894 36.0867C47.0894 39.9547 41.7281 43.6107 41.7281 43.6107C41.7281 43.6107 50.0281 42.6214 50.0281 36.2707C50.0281 32.0707 45.9521 31.0214 42.7787 33.4067ZM38.8387 36.5267C38.8387 36.5267 41.4267 34.6827 42.1161 33.9907C35.7654 35.3387 21.2654 35.52 21.2654 34.3494C21.2654 33.2707 25.9414 32.1654 25.9414 32.1654C25.9414 32.1654 15.5774 32.016 15.5774 35.0734C15.5774 38.26 29.1441 38.488 38.8387 36.5267Z" fill="#1565C0"/>
<path d="M37.2467 39.428C31.2347 41.4267 20.1614 40.788 23.4414 38.104C21.8441 38.104 19.4761 39.388 19.4761 40.6227C19.4761 43.0987 31.4521 45.0107 40.3161 41.3853L37.2467 39.428Z" fill="#1565C0"/>
<path d="M24.9146 43.6521C22.7333 43.6521 21.3213 45.0574 21.3213 46.0814C21.3213 49.2694 34.3346 49.5908 39.4906 46.3548L36.2133 44.1788C32.3613 45.8721 22.6853 46.1054 24.9146 43.6521Z" fill="#1565C0"/>
<path d="M48.3747 48.8428C48.3747 47.5948 46.968 47.0068 46.464 46.7255C49.4347 53.8895 16.708 53.3335 16.708 49.1041C16.708 48.1428 19.1173 47.2015 21.344 47.6468L19.4507 46.5281C15.0133 45.8321 12 47.7828 12 49.3561C12 56.6934 48.3747 56.3401 48.3747 48.8428Z" fill="#1565C0"/>
<path d="M52 51.4719C46.472 56.9319 32.4546 58.9213 18.3586 55.5479C32.4546 61.5519 51.9333 58.1706 52 51.4719Z" fill="#1565C0"/>
</svg>
