<svg width="64" height="64" viewBox="0 0 64 64" fill="none" xmlns="http://www.w3.org/2000/svg">
<path d="M32.0094 60.5587C31.2441 60.5587 30.4854 60.3587 29.8147 59.972L22.8281 55.8347C21.7841 55.2507 22.2934 55.044 22.6374 54.9253C24.0294 54.4387 24.3107 54.328 25.7961 53.484C25.9521 53.3947 26.1561 53.4267 26.3161 53.5213L31.6841 56.7067C31.8774 56.812 32.1534 56.812 32.3321 56.7067L53.2614 44.6253C53.4547 44.5147 53.5814 44.2907 53.5814 44.06V19.9093C53.5814 19.668 53.4561 19.4533 53.2574 19.3333L32.3374 7.26134C32.1441 7.14667 31.8867 7.14667 31.6934 7.26134L10.7761 19.332C10.5734 19.4467 10.4441 19.672 10.4441 19.9027V44.0547C10.4441 44.2853 10.5694 44.5053 10.7694 44.6147L16.5014 47.9253C19.6134 49.4813 21.5147 47.648 21.5147 45.804V21.968C21.5147 21.628 21.7814 21.3653 22.1227 21.3653H24.7734C25.1041 21.3653 25.3761 21.6267 25.3761 21.968V45.816C25.3761 49.9653 23.1134 52.3493 19.1787 52.3493C17.9681 52.3493 17.0147 52.3493 14.3534 51.04L8.86275 47.876C7.50541 47.0893 6.66675 45.6213 6.66675 44.056V19.904C6.66675 18.332 7.50541 16.8653 8.86141 16.0893L29.8134 4.00267C31.1387 3.25334 32.8987 3.25334 34.2147 4.00267L55.1401 16.0947C56.4894 16.8747 57.3334 18.3373 57.3334 19.9093V44.0613C57.3334 45.628 56.4894 47.0893 55.1387 47.876L34.2134 59.9613C33.5427 60.3493 32.7827 60.548 32.0081 60.548" fill="#21A366"/>
<path d="M38.4747 43.916C29.3173 43.916 27.3973 39.712 27.3973 36.1866C27.3973 35.852 27.668 35.584 28.004 35.584H30.708C31.0067 35.584 31.2587 35.8013 31.3053 36.096C31.7133 38.8506 32.9293 40.24 38.4667 40.24C42.8773 40.24 44.7533 39.244 44.7533 36.904C44.7533 35.5573 44.2187 34.5573 37.3667 33.8866C31.6347 33.3213 28.0933 32.0586 28.0933 27.4746C28.0933 23.252 31.656 20.7373 37.6227 20.7373C44.324 20.7373 47.6453 23.064 48.064 28.0613C48.08 28.2346 48.0173 28.4013 47.9013 28.528C47.7867 28.648 47.624 28.7213 47.456 28.7213H44.7373C44.4547 28.7213 44.208 28.5226 44.1507 28.2493C43.496 25.352 41.9133 24.4253 37.612 24.4253C32.7973 24.4253 32.2373 26.1013 32.2373 27.3586C32.2373 28.8826 32.8973 29.328 39.3933 30.188C45.8267 31.0413 48.8813 32.2466 48.8813 36.768C48.8813 41.3253 45.0773 43.94 38.4453 43.94" fill="#21A366"/>
</svg>
