<svg width="64" height="35" viewBox="0 0 64 35" fill="none" xmlns="http://www.w3.org/2000/svg">
<g clip-path="url(#clip0_10_51)">
<mask id="mask0_10_51" style="mask-type:luminance" maskUnits="userSpaceOnUse" x="0" y="0" width="64" height="34">
<path d="M0.89978 17.2598C0.89978 26.295 14.8241 33.6196 31.9998 33.6196C49.1756 33.6196 63.1 26.295 63.1 17.2598C63.1 8.22474 49.1756 0.900002 31.9998 0.900002C14.8241 0.900002 0.89978 8.22474 0.89978 17.2598Z" fill="white"/>
</mask>
<g mask="url(#mask0_10_51)">
<path d="M0.89978 17.2598C0.89978 26.295 14.8241 33.6196 31.9998 33.6196C49.1756 33.6196 63.1 26.295 63.1 17.2598C63.1 8.22474 49.1756 0.900002 31.9998 0.900002C14.8241 0.900002 0.89978 8.22474 0.89978 17.2598Z" fill="url(#paint0_radial_10_51)"/>
</g>
<mask id="mask1_10_51" style="mask-type:luminance" maskUnits="userSpaceOnUse" x="-1" y="-1" width="66" height="37">
<path d="M-0.395996 -0.962959H64.3958V35.4824H-0.395996V-0.962959Z" fill="white"/>
</mask>
<g mask="url(#mask1_10_51)">
<path d="M32 32.4048C48.5049 32.4048 61.8852 25.624 61.8852 17.2596C61.8852 8.89526 48.5049 2.1144 32 2.1144C15.495 2.1144 2.11475 8.89526 2.11475 17.2596C2.11475 25.624 15.495 32.4048 32 32.4048Z" fill="#777BB3"/>
</g>
<mask id="mask2_10_51" style="mask-type:luminance" maskUnits="userSpaceOnUse" x="-1" y="-1" width="66" height="37">
<path d="M-0.395996 -0.962959H64.3958V35.4824H-0.395996V-0.962959Z" fill="white"/>
</mask>
<g mask="url(#mask2_10_51)">
<path d="M17.7968 19.1374C19.1539 19.1374 20.1671 18.8871 20.8081 18.3937C21.4423 17.9054 21.8803 17.0594 22.1099 15.8794C22.324 14.7763 22.2424 14.0061 21.8676 13.5905C21.4844 13.166 20.6558 12.9507 19.405 12.9507H17.2361L16.0338 19.1374H17.7968ZM10.7031 26.7583C10.6024 26.7583 10.5068 26.7133 10.4428 26.6355C10.3787 26.5577 10.3527 26.4554 10.3719 26.3565L13.5584 9.96159C13.5892 9.8031 13.7282 9.68859 13.8897 9.68859H20.7574C22.9158 9.68859 24.5223 10.2746 25.5321 11.4307C26.5473 12.5927 26.8608 14.2172 26.4638 16.2587C26.3023 17.0904 26.0244 17.8628 25.638 18.5544C25.2512 19.2467 24.74 19.8873 24.1182 20.4588C23.374 21.1553 22.5317 21.6603 21.617 21.9575C20.7168 22.2508 19.5607 22.3995 18.1808 22.3995H15.3999L14.6058 26.4852C14.575 26.6438 14.4362 26.7583 14.2746 26.7583H10.7031Z" fill="black"/>
<path d="M17.5144 13.2881H19.4051C20.9147 13.2881 21.4391 13.6193 21.6173 13.8168C21.9129 14.1445 21.9687 14.8357 21.7787 15.8153C21.5652 16.912 21.1695 17.6896 20.6024 18.1263C20.0217 18.5733 19.0777 18.7999 17.7969 18.7999H16.4432L17.5144 13.2881ZM20.7575 9.35108H13.8897C13.5666 9.35108 13.2889 9.5801 13.2272 9.89719L10.0407 26.2921C10.0023 26.49 10.0542 26.6946 10.1824 26.8501C10.3106 27.0057 10.5016 27.0957 10.7032 27.0957H14.2746C14.5978 27.0957 14.8755 26.8667 14.9371 26.5496L15.6782 22.7369H18.1809C19.5962 22.7369 20.7876 22.5825 21.7218 22.2783C22.6826 21.9661 23.5665 21.4369 24.3488 20.7053C24.9958 20.11 25.5288 19.4418 25.9326 18.7191C26.3365 17.9962 26.6268 17.19 26.7951 16.3229C27.213 14.174 26.8736 12.4532 25.7863 11.2087C24.7096 9.97605 23.0175 9.35108 20.7575 9.35108ZM15.6244 19.4748H17.7969C19.2368 19.4748 20.3093 19.2036 21.0141 18.6611C21.7189 18.1184 22.1943 17.2128 22.4413 15.9438C22.6776 14.7253 22.57 13.8655 22.1183 13.3646C21.6661 12.8637 20.7619 12.6132 19.4051 12.6132H16.958L15.6244 19.4748ZM20.7575 10.026C22.8235 10.026 24.3307 10.5682 25.2781 11.6526C26.2253 12.7371 26.5106 14.2508 26.1326 16.1943C25.977 16.9948 25.7139 17.7268 25.3435 18.3899C24.9727 19.0534 24.4884 19.6602 23.89 20.2103C23.1768 20.8777 22.3846 21.3533 21.5128 21.6365C20.6411 21.9206 19.5307 22.062 18.1809 22.062H15.1217L14.2746 26.4208H10.7032L13.8897 10.026H20.7575Z" fill="white"/>
<path d="M34.6527 22.3994C34.5519 22.3994 34.4564 22.3544 34.3924 22.2766C34.3282 22.1989 34.3022 22.0966 34.3214 21.9976L35.731 14.7435C35.8651 14.0536 35.832 13.5585 35.638 13.3493C35.5192 13.2214 35.1624 13.0069 34.1074 13.0069H31.5537L29.7815 22.1263C29.7507 22.2849 29.6118 22.3994 29.4502 22.3994H25.9069C25.8061 22.3994 25.7106 22.3544 25.6465 22.2766C25.5824 22.1989 25.5564 22.0965 25.5757 21.9976L28.7622 5.60271C28.793 5.44421 28.9319 5.3297 29.0934 5.3297H32.6367C32.7375 5.3297 32.833 5.3747 32.8971 5.45242C32.9613 5.53026 32.9872 5.63251 32.968 5.7315L32.1991 9.68852H34.9462C37.039 9.68852 38.4581 10.0575 39.2846 10.8165C40.1272 11.5909 40.39 12.829 40.0661 14.497L38.5835 22.1263C38.5527 22.2849 38.4139 22.3994 38.2522 22.3994H34.6527Z" fill="black"/>
<path d="M32.6367 4.99219H29.0934C28.7702 4.99219 28.4925 5.22121 28.4308 5.53831L25.2443 21.9332C25.2059 22.1311 25.2578 22.3357 25.3861 22.4913C25.5143 22.6468 25.7053 22.7368 25.9069 22.7368H29.4502C29.7732 22.7368 30.0511 22.5078 30.1127 22.1907L31.8318 13.3443H34.1073C35.1605 13.3443 35.3816 13.5692 35.3904 13.5789C35.4543 13.6476 35.5384 13.966 35.3997 14.6791L33.9901 21.9332C33.9516 22.1311 34.0036 22.3357 34.1318 22.4913C34.2601 22.6468 34.4511 22.7368 34.6527 22.7368H38.2522C38.5753 22.7368 38.8531 22.5078 38.9147 22.1907L40.3972 14.5614C40.7451 12.7705 40.4475 11.427 39.5129 10.5681C38.6212 9.7491 37.1273 9.35101 34.9461 9.35101H32.6082L33.2992 5.7959C33.3376 5.59804 33.2857 5.39331 33.1575 5.23786C33.0293 5.08229 32.8383 4.99219 32.6367 4.99219ZM32.6367 5.6671L31.7896 10.0259H34.9461C36.9323 10.0259 38.3023 10.3726 39.0562 11.0651C39.8102 11.758 40.0361 12.8807 39.7348 14.4327L38.2522 22.0619H34.6527L36.0622 14.8079C36.2226 13.9827 36.1637 13.4198 35.8852 13.1197C35.6065 12.8196 35.0138 12.6693 34.1073 12.6693H31.2754L29.4502 22.0619H25.9069L29.0934 5.6671H32.6367Z" fill="white"/>
<path d="M45.6725 19.1374C47.0296 19.1374 48.0428 18.8871 48.6839 18.3937C49.318 17.9056 49.7561 17.0596 49.9858 15.8794C50.1998 14.7763 50.1183 14.0061 49.7434 13.5905C49.3601 13.166 48.5315 12.9507 47.2807 12.9507H45.1119L43.9095 19.1374H45.6725ZM38.5789 26.7583C38.4782 26.7583 38.3826 26.7133 38.3186 26.6355C38.2545 26.5577 38.2284 26.4554 38.2476 26.3565L41.4341 9.96159C41.4651 9.8031 41.6039 9.68859 41.7655 9.68859H48.6331C50.7916 9.68859 52.398 10.2746 53.4079 11.4307C54.4231 12.5926 54.7365 14.217 54.3396 16.2587C54.1779 17.0904 53.9002 17.8628 53.5138 18.5544C53.1269 19.2467 52.6157 19.8873 51.994 20.4588C51.2498 21.1553 50.4075 21.6603 49.4927 21.9575C48.5925 22.2508 47.4364 22.3995 46.0565 22.3995H43.2755L42.4817 26.4852C42.4508 26.6438 42.312 26.7583 42.1503 26.7583H38.5789Z" fill="black"/>
<path d="M45.3901 13.2881H47.2808C48.7905 13.2881 49.3149 13.6193 49.4931 13.8168C49.7888 14.1445 49.8446 14.8357 49.6545 15.8152C49.441 16.912 49.0451 17.6896 48.4781 18.1263C47.8974 18.5733 46.9535 18.7999 45.6726 18.7999H44.3191L45.3901 13.2881ZM48.6332 9.35108H41.7655C41.4425 9.35108 41.1647 9.5801 41.1031 9.89719L37.9166 26.2921C37.8781 26.49 37.9301 26.6946 38.0582 26.8501C38.1864 27.0057 38.3774 27.0957 38.579 27.0957H42.1504C42.4735 27.0957 42.7513 26.8667 42.813 26.5496L43.5539 22.7369H46.0566C47.4719 22.7369 48.6634 22.5825 49.5976 22.2783C50.5583 21.9661 51.4424 21.4368 52.2248 20.705C52.8718 20.1099 53.4045 19.4418 53.8083 18.7191C54.2123 17.9962 54.5025 17.19 54.6709 16.3229C55.0888 14.1739 54.7493 12.4531 53.662 11.2086C52.5853 9.97605 50.8934 9.35108 48.6332 9.35108ZM43.5003 19.4748H45.6726C47.1125 19.4748 48.1851 19.2036 48.8898 18.6611C49.5947 18.1184 50.07 17.2128 50.317 15.9438C50.5535 14.7253 50.4458 13.8655 49.9941 13.3646C49.5419 12.8637 48.6376 12.6132 47.2808 12.6132H44.8338L43.5003 19.4748ZM48.6332 10.026C50.6992 10.026 52.2064 10.5682 53.1538 11.6526C54.1011 12.7371 54.3863 14.2508 54.0083 16.1943C53.8528 16.9948 53.5897 17.7268 53.2193 18.3899C52.8484 19.0534 52.3641 19.6602 51.7657 20.2103C51.0526 20.8777 50.2603 21.3533 49.3886 21.6365C48.5168 21.9206 47.4064 22.062 46.0566 22.062H42.9975L42.1504 26.4208H38.579L41.7655 10.026H48.6332Z" fill="white"/>
</g>
</g>
<defs>
<radialGradient id="paint0_radial_10_51" cx="0" cy="0" r="1" gradientUnits="userSpaceOnUse" gradientTransform="translate(19.5724 6.65161) scale(40.8388 40.8388)">
<stop stop-color="#AEB2D5"/>
<stop offset="0.3" stop-color="#AEB2D5"/>
<stop offset="0.75" stop-color="#484C89"/>
<stop offset="1" stop-color="#484C89"/>
</radialGradient>
<clipPath id="clip0_10_51">
<rect width="64" height="34.5194" fill="white"/>
</clipPath>
</defs>
</svg>
