<svg width="64" height="64" viewBox="0 0 64 64" fill="none" xmlns="http://www.w3.org/2000/svg">
<path d="M32.0626 6.6666C29.9893 6.67327 28.552 6.85593 26.8146 7.15593C21.684 8.04927 20.7493 9.92527 20.7493 13.3826V18.6666H32.7493V21.3333H20.2933H14.4933C10.9786 21.3333 7.90264 22.9893 6.92798 26.9586C5.82664 31.5146 5.77731 34.3679 6.92798 39.1253C7.80131 42.6733 9.72531 45.3333 13.2413 45.3333H18.084V38.5279C18.084 34.5733 21.6653 30.6666 25.7693 30.6666H35.4173C38.7813 30.6666 42.084 28.1839 42.084 24.8306V13.3826C42.084 10.1306 39.7386 7.6986 36.46 7.15327C36.5413 7.14527 34.1186 6.6586 32.0626 6.6666ZM25.4173 11.9999C26.512 11.9999 27.4173 12.9026 27.4173 14.0026C27.4173 15.1133 26.512 15.9999 25.4173 15.9999C24.3013 15.9999 23.4173 15.1146 23.4173 14.0026C23.4173 12.9066 24.3013 11.9999 25.4173 11.9999Z" fill="#0277BD"/>
<path d="M30.7707 57.3334C32.8441 57.3267 34.2814 57.1441 36.0187 56.8441C41.1494 55.9507 42.0841 54.0748 42.0841 50.6174V45.3334H30.0841V42.6667H42.5414H48.3414C51.8561 42.6667 54.9321 41.0107 55.9067 37.0414C57.0081 32.4854 57.0574 29.6321 55.9067 24.8747C55.0321 21.3267 53.1081 18.6667 49.5921 18.6667H44.7494V25.4721C44.7494 29.4267 41.1681 33.3334 37.0641 33.3334H27.4161C24.0521 33.3334 20.7494 35.8161 20.7494 39.1694V50.6174C20.7494 53.8694 23.0947 56.3014 26.3734 56.8467C26.2921 56.8547 28.7147 57.3414 30.7707 57.3334ZM37.4174 52.0001C36.3227 52.0001 35.4174 51.0974 35.4174 49.9974C35.4174 48.8868 36.3227 48.0001 37.4174 48.0001C38.5334 48.0001 39.4174 48.8854 39.4174 49.9974C39.4174 51.0934 38.5321 52.0001 37.4174 52.0001Z" fill="#FFC107"/>
</svg>
