<svg xmlns="http://www.w3.org/2000/svg" width="1600" height="843" fill="none" class="w-[100%] max-w-[1600px] h-[auto]"><g clip-path="url(#a)"><path d="M0 0h1600" stroke="#DEE2E7" class="grid-line-horizontal animation-delay-[50ms]"/><path d="M0 37h1600" stroke="#DEE2E7" class="grid-line-horizontal animation-delay-[100ms]"/><path d="M0 74.5h1600" stroke="#DEE2E7" class="grid-line-horizontal animation-delay-[150ms]"/><path d="M0 118.5h1600" stroke="#DEE2E7" class="grid-line-horizontal animation-delay-[200ms]"/><path d="M0 178.3h1600" stroke="#DEE2E7" class="grid-line-horizontal animation-delay-[250ms]"/><path d="M0 219.2h1600" stroke="#DEE2E7" class="grid-line-horizontal animation-delay-[300ms]"/><path d="M0 260.1h1600" stroke="#DEE2E7" class="grid-line-horizontal animation-delay-[350ms]"/><path d="M0 300.8h1600" stroke="#DEE2E7" class="grid-line-horizontal animation-delay-[400ms]"/><path d="M0 341.7h1600" stroke="#DEE2E7" class="grid-line-horizontal animation-delay-[450ms]"/><path d="M0 382.6h1600" stroke="#DEE2E7" class="grid-line-horizontal animation-delay-[500ms]"/><path d="M0 423.5h1600" stroke="#DEE2E7" class="grid-line-horizontal animation-delay-[550ms]"/><path d="M0 464.3h1600" stroke="#DEE2E7" class="grid-line-horizontal animation-delay-[600ms]"/><path d="M0 505.2h1600" stroke="#DEE2E7" class="grid-line-horizontal animation-delay-[650ms]"/><path d="M0 545.9h1600" stroke="#DEE2E7" class="grid-line-horizontal animation-delay-[700ms]"/><path d="M0 586.8h1600" stroke="#DEE2E7" class="grid-line-horizontal animation-delay-[750ms]"/><path d="M0 627.7h1600" stroke="#DEE2E7" class="grid-line-horizontal animation-delay-[800ms]"/><path d="M0 668.5h1600" stroke="#DEE2E7" class="grid-line-horizontal animation-delay-[850ms]"/><path d="M0 709.3h1600" stroke="#DEE2E7" class="grid-line-horizontal animation-delay-[900ms]"/><path d="M0 750.5h1600" stroke="#DEE2E7" class="grid-line-horizontal animation-delay-[1050ms]"/><path d="M0 791.7h1600" stroke="#DEE2E7" class="grid-line-horizontal animation-delay-[950ms]"/><path d="M0 832.9h1600" stroke="#DEE2E7" class="grid-line-horizontal animation-delay-[1000ms]"/><path d="M82.5 920V0" stroke="#DEE2E7" class="grid-line-vertical animation-delay-[50ms]"/><path d="M199.5 920V0" stroke="#DEE2E7" class="grid-line-vertical animation-delay-[100ms]"/><path d="M434.8 920V0" stroke="#DEE2E7" class="grid-line-vertical animation-delay-[200ms]"/><path d="M552.5 920V0" stroke="#DEE2E7" class="grid-line-vertical animation-delay-[250ms]"/><path d="M670 920V0" stroke="#DEE2E7" class="grid-line-vertical animation-delay-[300ms]"/><path d="M787.5 920V0" stroke="#DEE2E7" class="grid-line-vertical animation-delay-[350ms]"/><path d="M905 920V0" stroke="#DEE2E7" class="grid-line-vertical animation-delay-[400ms]"/><path d="M1022.5 920V0" stroke="#DEE2E7" class="grid-line-vertical animation-delay-[450ms]"/><path d="M1140.3 920V0" stroke="#DEE2E7" class="grid-line-vertical animation-delay-[550ms]"/><path d="M1270.5 920V0" stroke="#DEE2E7" class="grid-line-vertical animation-delay-[500ms]"/><path d="M1400.5 920V0" stroke="#DEE2E7" class="grid-line-vertical animation-delay-[600ms]"/><path d="M1517.5 920V0" stroke="#DEE2E7" class="grid-line-vertical animation-delay-[650ms]"/><ellipse cx="800" cy="-103.5" rx="605" ry="262.5" fill="url(#b)"/></g><path d="M0 74.5h1600" stroke="#C6CDD8" class="grid-line-horizontal animation-delay-[100ms]"/><path d="M0 750.5h1600" stroke="#C6CDD8" class="grid-line-horizontal animation-delay-[1050ms]"/><path d="M199.5 920V0" stroke="#C6CDD8" class="grid-line-vertical animation-delay-[100ms]"/><path d="M1400.5 920V0" stroke="#C6CDD8" class="grid-line-vertical animation-delay-[600ms]"/><defs><radialGradient id="b" cx="0" cy="0" r="1" gradientUnits="userSpaceOnUse" gradientTransform="matrix(735.992 0 0 319.335 800 -103.5)"><stop offset=".47" stop-color="#FBFBFB"/><stop offset="1" stop-color="#FBFBFB" stop-opacity="0"/></radialGradient><clipPath id="a"><path fill="#fff" d="M0 0h1600v920H0z"/></clipPath></defs></svg>
