<svg xmlns="http://www.w3.org/2000/svg" xmlns:xlink="http://www.w3.org/1999/xlink" version="1.1" width="1000" height="1000" viewBox="0 0 1000 1000" xml:space="preserve">
<desc>Created with Fabric.js 3.5.0</desc>
<defs>
</defs>
<rect x="0" y="0" width="100%" height="100%" fill="#ffffff"/>
<g transform="matrix(-2.2504 0 0 -2.2504 500.0048 500.0023)" id="78353">
<path style="stroke: none; stroke-width: 1; stroke-dasharray: none; stroke-linecap: butt; stroke-dashoffset: 0; stroke-linejoin: miter; stroke-miterlimit: 4; is-custom-font: none; font-file-url: none; fill: rgb(0,0,0); fill-rule: nonzero; opacity: 1;" vector-effect="non-scaling-stroke" transform=" translate(-201.9812, -201.9812)" d="M 399.908 160.269 c -31.824 -15.3 -64.26 -28.152 -89.964 -52.632 c -5.508 -4.896 -12.24 -1.224 -12.853 5.508 c -1.836 15.3 -2.448 29.988 -2.448 44.676 c -29.375 -9.18 -69.155 -3.06 -97.308 -5.508 c -59.976 -4.284 -119.952 -17.748 -179.928 -15.912 c -5.508 0 -9.792 6.732 -6.732 11.628 c 15.912 23.868 36.108 43.452 55.08 64.26 c -20.196 25.093 -44.064 45.9 -63.648 71.604 c -4.284 5.508 -1.836 13.464 5.508 14.076 c 103.428 7.956 194.616 -64.872 293.76 -82.009 c -1.836 18.36 -1.224 36.721 -0.612 55.08 c 0 6.12 7.956 9.792 12.853 5.509 c 33.048 -33.049 63.647 -67.32 89.964 -105.876 C 404.804 167.001 402.968 162.105 399.908 160.269 z M 23.528 282.668 c 17.136 -20.195 35.496 -40.392 48.96 -63.035 c 3.672 0.611 7.956 -3.673 5.508 -7.956 c -14.076 -20.809 -31.212 -39.168 -46.512 -59.364 c 47.736 0.612 94.86 9.18 142.596 14.076 c 43.452 4.896 89.352 7.344 133.416 8.568 c 5.508 0 7.344 -7.344 3.06 -10.404 c -0.611 -0.612 -1.224 -0.612 -1.836 -1.224 c 0 -12.24 0.612 -24.48 1.836 -36.108 c 22.645 17.748 48.349 29.376 74.664 41.616 c -21.42 29.988 -45.288 57.528 -70.38 83.844 c -0.612 -15.301 -1.836 -30.601 -1.224 -45.9 c 0 -3.672 -3.061 -5.508 -6.12 -5.508 c -1.224 -1.836 -3.06 -3.06 -6.12 -2.448 C 204.68 209.841 120.836 281.445 23.528 282.668 z" stroke-linecap="round"/>
</g>
</svg>