<svg width="108" height="40" viewBox="0 0 108 40" fill="none" xmlns="http://www.w3.org/2000/svg">
<g id="go.svg" clip-path="url(#clip0_560_1638)">
<g id="Group">
<g id="Group_2">
<g id="Group_3">
<g id="Group_4">
<path id="Vector" d="M8.26328 12.0999C8.05469 12.0999 8.00254 11.9956 8.10683 11.8391L9.20192 10.4311C9.30622 10.2747 9.56695 10.1704 9.77554 10.1704H28.392C28.6006 10.1704 28.6528 10.3269 28.5485 10.4833L27.662 11.8391C27.5577 11.9956 27.2969 12.152 27.1405 12.152L8.26328 12.0999Z" fill="#00ACD7"/>
</g>
</g>
</g>
<g id="Group_5">
<g id="Group_6">
<g id="Group_7">
<path id="Vector_2" d="M0.388276 16.8975C0.179688 16.8975 0.12754 16.7932 0.231835 16.6367L1.32692 15.2288C1.43122 15.0723 1.69195 14.968 1.90054 14.968H25.6796C25.8882 14.968 25.9925 15.1245 25.9403 15.2809L25.5231 16.5324C25.471 16.741 25.2624 16.8453 25.0538 16.8453L0.388276 16.8975Z" fill="#00ACD7"/>
</g>
</g>
</g>
<g id="Group_8">
<g id="Group_9">
<g id="Group_10">
<path id="Vector_3" d="M13.0074 21.6951C12.7988 21.6951 12.7467 21.5386 12.851 21.3822L13.581 20.0785C13.6853 19.9221 13.8939 19.7656 14.1025 19.7656H24.5319C24.7405 19.7656 24.8448 19.9221 24.8448 20.1307L24.7405 21.3822C24.7405 21.5908 24.5319 21.7472 24.3755 21.7472L13.0074 21.6951Z" fill="#00ACD7"/>
</g>
</g>
</g>
<g id="Group_11">
<g id="CXHf1q_3_">
<g id="Group_12">
<g id="Group_13">
<path id="Vector_4" d="M67.1363 11.1613C63.851 11.9956 61.6087 12.6214 58.3756 13.4557C57.5934 13.6643 57.5412 13.7165 56.8633 12.9342C56.0811 12.0478 55.5075 11.4741 54.4124 10.9527C51.1272 9.33611 47.9462 9.80543 44.9738 11.7349C41.4278 14.0293 39.6027 17.4189 39.6548 21.6428C39.707 25.8146 42.575 29.2563 46.6947 29.8299C50.2407 30.2992 53.213 29.0477 55.5597 26.3882C56.029 25.8146 56.4462 25.1888 56.9676 24.4587C55.0903 24.4587 52.7437 24.4587 46.9032 24.4587C45.8082 24.4587 45.5474 23.7808 45.9125 22.8943C46.5904 21.2778 47.8419 18.5661 48.572 17.2103C48.7284 16.8974 49.0934 16.376 49.8756 16.376C52.5351 16.376 62.3388 16.376 68.8571 16.376C68.7529 17.7839 68.7529 19.1919 68.5443 20.5999C67.9706 24.3545 66.5627 27.7962 64.2682 30.8207C60.5136 35.7747 55.6118 38.8513 49.4063 39.6857C44.2959 40.3636 39.5505 39.3728 35.3788 36.244C31.5199 33.3237 29.3297 29.4649 28.7561 24.6673C28.0782 18.9833 29.7469 13.8729 33.1886 9.38825C36.891 4.53858 41.7928 1.4619 47.7897 0.366816C52.6916 -0.519683 57.3848 0.053934 61.6087 2.92202C64.3725 4.74717 66.3541 7.25022 67.6578 10.2748C67.9706 10.7441 67.7621 11.0048 67.1363 11.1613Z" fill="#00ACD7"/>
</g>
<g id="Group_14">
<path id="Vector_5" d="M84.3977 39.9986C79.6523 39.8943 75.3241 38.5385 71.6738 35.4097C68.5971 32.7502 66.6677 29.3606 66.0419 25.3453C65.1033 19.4527 66.7198 14.238 70.2658 9.59688C74.0726 4.59076 78.6615 1.98341 84.867 0.888324C90.186 -0.0503227 95.1921 0.471148 99.7289 3.54782C103.849 6.36376 106.404 10.1705 107.082 15.1766C107.968 22.2165 105.934 27.9526 101.085 32.8545C97.643 36.3483 93.4191 38.5385 88.5694 39.5293C87.1615 39.79 85.7535 39.8422 84.3977 39.9986ZM96.8087 18.9312C96.7565 18.2533 96.7565 17.7318 96.6522 17.2103C95.7136 12.0478 90.9682 9.12755 86.0142 10.2748C81.1646 11.3699 78.0357 14.4466 76.8885 19.3484C75.9499 23.4158 77.9314 27.5355 81.686 29.2042C84.5541 30.4557 87.4222 30.2992 90.186 28.8913C94.3056 26.7533 96.5479 23.4158 96.8087 18.9312Z" fill="#00ACD7"/>
</g>
</g>
</g>
</g>
</g>
</g>
<defs>
<clipPath id="clip0_560_1638">
<rect width="107.11" height="39.9968" fill="white" transform="translate(0.179688 0.00170898)"/>
</clipPath>
</defs>
</svg>
