<svg width="75" height="40" viewBox="0 0 75 40" fill="none" xmlns="http://www.w3.org/2000/svg">
<g id="php.svg" clip-path="url(#clip0_560_1661)">
<g id="g3438">
<g id="g3440">
<g id="Clip path group">
<mask id="mask0_560_1661" style="mask-type:luminance" maskUnits="userSpaceOnUse" x="1" y="1" width="73" height="38">
<g id="clipPath3444">
<path id="path3446" d="M1.33203 19.9999C1.33203 30.4694 17.4668 38.9568 37.3692 38.9568C57.2717 38.9568 73.4065 30.4694 73.4065 19.9999C73.4065 9.53045 57.2717 1.04292 37.3692 1.04292C17.4668 1.04292 1.33203 9.53045 1.33203 19.9999Z" fill="white"/>
</g>
</mask>
<g mask="url(#mask0_560_1661)">
<g id="g3442">
<g id="g3448">
<g id="g3450">
<path id="path3462" d="M1.33203 19.9999C1.33203 30.4694 17.4668 38.9568 37.3692 38.9568C57.2717 38.9568 73.4065 30.4694 73.4065 19.9999C73.4065 9.53045 57.2717 1.04292 37.3692 1.04292C17.4668 1.04292 1.33203 9.53045 1.33203 19.9999Z" fill="url(#paint0_radial_560_1661)"/>
</g>
</g>
</g>
</g>
</g>
</g>
<g id="g3464">
<g id="Clip path group_2">
<mask id="mask1_560_1661" style="mask-type:luminance" maskUnits="userSpaceOnUse" x="-1" y="-2" width="76" height="44">
<g id="clipPath3468">
<path id="path3470" d="M-0.169922 -1.11561H74.9076V41.1155H-0.169922V-1.11561Z" fill="white"/>
</g>
</mask>
<g mask="url(#mask1_560_1661)">
<g id="g3466">
<g id="g3472">
<path id="path3474" d="M37.3697 37.5493C56.4948 37.5493 71.9992 29.6921 71.9992 19.9998C71.9992 10.3077 56.4948 2.45033 37.3697 2.45033C18.2446 2.45033 2.74023 10.3077 2.74023 19.9998C2.74023 29.6921 18.2446 37.5493 37.3697 37.5493Z" fill="#777BB3"/>
</g>
</g>
</g>
</g>
</g>
<g id="g3476">
<g id="Clip path group_3">
<mask id="mask2_560_1661" style="mask-type:luminance" maskUnits="userSpaceOnUse" x="-1" y="-2" width="76" height="44">
<g id="clipPath3480">
<path id="path3482" d="M-0.169922 -1.11561H74.9076V41.1155H-0.169922V-1.11561Z" fill="white"/>
</g>
</mask>
<g mask="url(#mask2_560_1661)">
<g id="g3478">
<g id="g3484">
<path id="path3486" d="M20.9115 22.1759C22.4841 22.1759 23.6581 21.8859 24.4009 21.3142C25.1358 20.7483 25.6434 19.768 25.9094 18.4006C26.1574 17.1225 26.0629 16.23 25.6286 15.7484C25.1845 15.2565 24.2244 15.007 22.775 15.007H20.2619L18.8687 22.1759H20.9115ZM12.6917 31.0066C12.575 31.0066 12.4643 30.9545 12.3901 30.8643C12.3158 30.7742 12.2857 30.6556 12.308 30.541L16.0003 11.5434C16.036 11.3598 16.197 11.2271 16.3842 11.2271H24.3421C26.8432 11.2271 28.7047 11.9061 29.8748 13.2457C31.0511 14.5923 31.4144 16.4745 30.9544 18.8401C30.7673 19.8039 30.4453 20.6989 29.9976 21.5003C29.5493 22.3026 28.9569 23.0449 28.2365 23.707C27.3742 24.5141 26.3982 25.0993 25.3382 25.4437C24.2951 25.7835 22.9554 25.9558 21.3565 25.9558H18.1342L17.2139 30.6901C17.1782 30.8739 17.0174 31.0066 16.8302 31.0066H12.6917Z" fill="black"/>
</g>
<g id="g3488">
<path id="path3490" d="M20.5847 15.3979H22.7755C24.5248 15.3979 25.1324 15.7817 25.3389 16.0105C25.6814 16.3903 25.7461 17.1911 25.5259 18.3263C25.2786 19.5971 24.82 20.4982 24.1628 21.0042C23.49 21.5222 22.3962 21.7847 20.9119 21.7847H19.3434L20.5847 15.3979ZM24.3426 10.8359H16.3845C16.0101 10.8359 15.6883 11.1013 15.6169 11.4687L11.9245 30.4663C11.88 30.6956 11.9402 30.9327 12.0886 31.1129C12.2372 31.2932 12.4586 31.3975 12.6921 31.3975H16.8305C17.205 31.3975 17.5268 31.1321 17.5982 30.7646L18.4569 26.3467H21.3569C22.9969 26.3467 24.3775 26.1678 25.46 25.8153C26.5733 25.4536 27.5975 24.8403 28.504 23.9926C29.2538 23.3028 29.8713 22.5285 30.3392 21.6911C30.8073 20.8534 31.1436 19.9192 31.3387 18.9145C31.8229 16.4245 31.4296 14.4305 30.1697 12.9884C28.922 11.5601 26.9614 10.8359 24.3426 10.8359ZM18.3946 22.5667H20.9119C22.5805 22.5667 23.8233 22.2525 24.6399 21.6238C25.4566 20.9951 26.0074 19.9457 26.2937 18.4751C26.5675 17.0633 26.4428 16.0669 25.9195 15.4865C25.3955 14.9061 24.3476 14.6158 22.7755 14.6158H19.94L18.3946 22.5667ZM24.3426 11.6179C26.7366 11.6179 28.483 12.2462 29.5808 13.5028C30.6784 14.7595 31.009 16.5135 30.571 18.7654C30.3907 19.6931 30.0859 20.5412 29.6566 21.3096C29.2269 22.0785 28.6658 22.7815 27.9724 23.419C27.146 24.1924 26.228 24.7435 25.2178 25.0717C24.2077 25.4008 22.921 25.5646 21.3569 25.5646H17.8121L16.8305 30.6154H12.6921L16.3845 11.6179H24.3426Z" fill="white"/>
</g>
<g id="g3492">
<path id="path3494" d="M40.4432 25.9558C40.3264 25.9558 40.2157 25.9037 40.1416 25.8135C40.0671 25.7234 40.037 25.6049 40.0593 25.4902L41.6926 17.0845C41.848 16.2852 41.8097 15.7114 41.5849 15.4689C41.4472 15.3207 41.0338 15.0722 39.8113 15.0722H36.8522L34.7987 25.6393C34.763 25.8231 34.602 25.9558 34.4148 25.9558H30.309C30.1922 25.9558 30.0816 25.9037 30.0073 25.8135C29.933 25.7234 29.9029 25.6048 29.9252 25.4902L33.6175 6.49262C33.6532 6.30897 33.8142 6.17628 34.0014 6.17628H38.1072C38.224 6.17628 38.3346 6.22842 38.4089 6.31849C38.4832 6.40868 38.5133 6.52717 38.491 6.64187L37.6 11.2271H40.7832C43.2083 11.2271 44.8527 11.6546 45.8104 12.5341C46.7867 13.4314 47.0913 14.8661 46.7159 16.7988L44.998 25.6393C44.9623 25.8231 44.8015 25.9558 44.6141 25.9558H40.4432Z" fill="black"/>
</g>
<g id="g3496">
<path id="path3498" d="M38.1076 5.78509H34.0018C33.6273 5.78509 33.3055 6.05047 33.2341 6.41791L29.5417 25.4155C29.4972 25.6448 29.5574 25.8819 29.706 26.0621C29.8546 26.2424 30.0759 26.3467 30.3094 26.3467H34.4152C34.7896 26.3467 35.1115 26.0813 35.183 25.7139L37.175 15.4631H39.8117C41.0321 15.4631 41.2882 15.7237 41.2985 15.7349C41.3726 15.8146 41.4699 16.1835 41.3092 17.0098L39.6759 25.4155C39.6313 25.6448 39.6915 25.8819 39.8401 26.0621C39.9887 26.2424 40.21 26.3467 40.4436 26.3467H44.6146C44.9889 26.3467 45.3109 26.0813 45.3823 25.7139L47.1001 16.8734C47.5032 14.7982 47.1583 13.2415 46.0755 12.2462C45.0421 11.2972 43.3111 10.8359 40.7837 10.8359H38.0746L38.8753 6.71639C38.9198 6.48712 38.8597 6.2499 38.7111 6.06976C38.5625 5.8895 38.3412 5.78509 38.1076 5.78509ZM38.1076 6.56715L37.126 11.6179H40.7837C43.0851 11.6179 44.6726 12.0197 45.5463 12.822C46.42 13.625 46.6817 14.9259 46.3325 16.7242L44.6146 25.5646H40.4436L42.0769 17.1591C42.2628 16.2029 42.1945 15.5506 41.8718 15.2029C41.5489 14.8551 40.8621 14.681 39.8117 14.681H36.5302L34.4152 25.5646H30.3094L34.0018 6.56715H38.1076Z" fill="white"/>
</g>
<g id="g3500">
<path id="path3502" d="M53.2123 22.1759C54.7849 22.1759 55.9589 21.8859 56.7017 21.3142C57.4366 20.7485 57.9441 19.7682 58.2103 18.4006C58.4583 17.1225 58.3638 16.23 57.9294 15.7484C57.4853 15.2565 56.5252 15.007 55.0758 15.007H52.5627L51.1694 22.1759H53.2123ZM44.9926 31.0066C44.8759 31.0066 44.7652 30.9545 44.691 30.8643C44.6167 30.7742 44.5864 30.6556 44.6087 30.541L48.3011 11.5434C48.3369 11.3598 48.4978 11.2271 48.6851 11.2271H56.6429C59.1441 11.2271 61.0055 11.9061 62.1757 13.2457C63.352 14.5921 63.7152 16.4744 63.2553 18.8401C63.0679 19.8039 62.7461 20.6989 62.2983 21.5003C61.8501 22.3026 61.2577 23.0449 60.5373 23.707C59.6749 24.5141 58.6989 25.0993 57.639 25.4437C56.5958 25.7835 55.2562 25.9558 53.6573 25.9558H50.4348L49.515 30.6901C49.4791 30.8739 49.3183 31.0066 49.131 31.0066H44.9926Z" fill="black"/>
</g>
<g id="g3504">
<path id="path3506" d="M52.8853 15.3979H55.0761C56.8254 15.3979 57.4331 15.7817 57.6396 16.0105C57.9822 16.3903 58.0469 17.1911 57.8266 18.3262C57.5792 19.5971 57.1205 20.4982 56.4635 21.0042C55.7906 21.5222 54.6968 21.7847 53.2126 21.7847H51.6442L52.8853 15.3979ZM56.6432 10.8359H48.6853C48.3109 10.8359 47.9891 11.1013 47.9177 11.4687L44.2253 30.4663C44.1807 30.6956 44.241 30.9327 44.3894 31.1129C44.538 31.2932 44.7593 31.3975 44.9929 31.3975H49.1313C49.5056 31.3975 49.8276 31.1321 49.899 30.7646L50.7576 26.3467H53.6576C55.2976 26.3467 56.6781 26.1678 57.7606 25.8153C58.8739 25.4536 59.8984 24.8402 60.8049 23.9923C61.5547 23.3026 62.172 22.5285 62.6399 21.6911C63.108 20.8534 63.4442 19.9192 63.6394 18.9145C64.1236 16.4243 63.7302 14.4303 62.4703 12.9882C61.2227 11.5601 59.2622 10.8359 56.6432 10.8359ZM50.6954 22.5667H53.2126C54.8811 22.5667 56.1239 22.2525 56.9405 21.6238C57.7574 20.9951 58.3081 19.9457 58.5943 18.4751C58.8683 17.0633 58.7436 16.0669 58.2201 15.4865C57.6961 14.9061 56.6483 14.6158 55.0761 14.6158H52.2406L50.6954 22.5667ZM56.6432 11.6179C59.0372 11.6179 60.7837 12.2462 61.8814 13.5028C62.9792 14.7595 63.3096 16.5135 62.8717 18.7654C62.6914 19.6931 62.3865 20.5412 61.9573 21.3096C61.5276 22.0785 60.9664 22.7815 60.273 23.419C59.4466 24.1924 58.5286 24.7435 57.5185 25.0717C56.5083 25.4008 55.2217 25.5646 53.6576 25.5646H50.1128L49.1313 30.6154H44.9929L48.6853 11.6179H56.6432Z" fill="white"/>
</g>
</g>
</g>
</g>
</g>
</g>
</g>
<defs>
<radialGradient id="paint0_radial_560_1661" cx="0" cy="0" r="1" gradientUnits="userSpaceOnUse" gradientTransform="translate(22.9689 7.70759) scale(47.322 47.322)">
<stop stop-color="#AEB2D5"/>
<stop offset="0.3" stop-color="#AEB2D5"/>
<stop offset="0.75" stop-color="#484C89"/>
<stop offset="1" stop-color="#484C89"/>
</radialGradient>
<clipPath id="clip0_560_1661">
<rect width="74.16" height="39.9994" fill="white" transform="translate(0.289062 0.000244141)"/>
</clipPath>
</defs>
</svg>
