<?xml version="1.0" standalone="no"?>
<!DOCTYPE svg PUBLIC "-//W3C//DTD SVG 20010904//EN"
 "http://www.w3.org/TR/2001/REC-SVG-20010904/DTD/svg10.dtd">
<svg version="1.0" xmlns="http://www.w3.org/2000/svg"
 width="1216.000000pt" height="1216.000000pt" viewBox="0 0 1216.000000 1216.000000"
 preserveAspectRatio="xMidYMid meet">
<metadata>
Created by potrace 1.14, written by Peter Selinger 2001-2017
</metadata>
<g transform="translate(0.000000,1216.000000) scale(0.100000,-0.100000)"
fill="#000000" stroke="none">
<path d="M1185 8949 c-67 -10 -117 -19 -137 -25 -9 -3 -25 -7 -36 -9 -33 -6
-155 -56 -202 -83 -120 -69 -229 -171 -298 -281 -26 -40 -47 -76 -47 -80 -1
-3 -11 -32 -23 -64 -23 -61 -40 -123 -51 -192 -13 -84 -4 -482 14 -573 2 -11
7 -49 10 -84 4 -35 8 -74 10 -88 1 -14 6 -52 10 -85 4 -33 9 -73 10 -90 6 -53
15 -129 21 -175 18 -137 23 -351 10 -403 -26 -97 -86 -176 -163 -215 -56 -29
-131 -52 -183 -58 -25 -3 -54 -7 -65 -9 -11 -2 -30 -4 -42 -4 l-23 -1 0 -350
c0 -275 3 -350 13 -349 27 6 153 -14 205 -32 82 -28 135 -63 186 -121 63 -72
80 -128 79 -258 0 -110 -7 -193 -30 -385 -3 -27 -7 -61 -8 -75 -6 -51 -16
-136 -20 -160 -2 -14 -7 -54 -11 -90 -3 -36 -8 -78 -10 -95 -32 -287 -23 -621
17 -697 5 -9 9 -24 9 -32 0 -16 58 -142 82 -181 71 -110 174 -205 308 -282 43
-25 164 -73 198 -79 14 -3 29 -7 33 -9 4 -3 24 -7 44 -11 21 -3 47 -8 59 -11
11 -3 146 -8 299 -10 l277 -5 0 359 0 360 -117 0 c-139 0 -195 6 -245 27 -64
27 -120 96 -136 165 -11 53 -5 261 12 426 2 17 6 62 10 100 8 92 15 157 22
230 3 33 7 78 9 100 2 22 6 83 10 135 10 130 12 364 3 426 -12 81 -46 179 -85
247 -85 145 -251 264 -413 294 -48 8 -40 20 24 36 178 44 328 160 399 308 30
63 48 107 48 116 0 2 5 17 10 35 20 70 23 97 23 233 0 119 -6 252 -20 405 -1
19 -5 67 -8 105 -3 39 -8 88 -10 110 -3 22 -8 72 -11 110 -4 39 -9 86 -11 105
-24 219 -24 411 2 466 19 41 84 118 92 109 3 -3 11 0 18 5 14 12 45 20 90 24
17 2 35 5 40 8 5 2 62 4 127 3 l117 -1 0 358 0 359 -247 -2 c-137 -1 -270 -5
-298 -10z"/>
<path d="M10243 8948 c3 -8 2 -21 -3 -28 -4 -7 -4 -26 0 -41 5 -16 5 -31 0
-34 -4 -3 -4 -21 0 -40 4 -19 4 -37 0 -40 -4 -3 -4 -21 0 -40 4 -19 4 -37 0
-40 -4 -3 -4 -20 0 -39 4 -19 4 -40 0 -46 -4 -7 -4 -26 0 -41 5 -16 5 -31 0
-34 -4 -3 -4 -21 0 -40 4 -19 4 -37 0 -40 -4 -3 -4 -20 0 -39 4 -19 5 -37 3
-40 -8 -8 -7 -106 1 -114 4 -4 58 -8 119 -8 151 -2 202 -9 256 -36 99 -50 133
-138 126 -323 -3 -60 -7 -132 -10 -160 -3 -27 -8 -77 -11 -110 -3 -33 -7 -73
-9 -90 -1 -16 -5 -61 -9 -100 -3 -38 -8 -90 -10 -115 -3 -25 -8 -81 -11 -125
-4 -44 -9 -98 -11 -120 -9 -103 -12 -328 -5 -395 20 -173 90 -329 190 -418 72
-64 193 -130 273 -146 88 -19 88 -20 -17 -55 -253 -84 -401 -257 -442 -516
-10 -62 -9 -285 1 -425 5 -58 10 -125 11 -150 2 -25 6 -72 10 -105 3 -33 8
-87 11 -120 9 -94 12 -120 13 -120 1 0 3 -22 5 -50 2 -27 7 -95 12 -150 9
-110 11 -256 3 -295 -9 -47 -51 -121 -83 -144 -39 -30 -117 -57 -165 -57 -20
1 -83 0 -140 -2 -102 -2 -104 -3 -108 -26 -2 -14 -5 -27 -8 -29 -2 -2 0 -14 5
-26 4 -13 5 -29 0 -36 -4 -7 -4 -26 0 -41 5 -16 5 -31 0 -34 -4 -3 -4 -21 0
-40 4 -19 4 -37 0 -40 -4 -3 -4 -21 0 -40 4 -19 4 -37 0 -40 -4 -3 -4 -20 0
-39 4 -19 4 -40 0 -46 -4 -7 -4 -26 0 -41 5 -16 5 -31 0 -34 -4 -3 -4 -21 0
-40 4 -19 4 -37 0 -40 -4 -3 -4 -21 0 -40 4 -19 4 -37 0 -40 -5 -3 -6 -15 -3
-26 6 -21 8 -21 287 -16 302 5 370 15 519 71 136 51 272 148 367 263 48 57
141 248 149 306 1 4 1 8 2 10 30 100 33 438 4 667 -9 76 -16 130 -20 175 -3
28 -8 68 -11 90 -3 22 -7 56 -9 75 -3 33 -11 108 -20 175 -11 82 -19 220 -19
301 1 112 22 175 82 244 72 83 180 133 314 145 35 4 69 8 76 10 9 3 12 82 12
350 0 269 -3 345 -12 346 -286 20 -432 114 -467 302 -11 62 -4 259 14 392 2
17 7 55 10 85 3 30 7 71 10 90 3 19 7 58 10 85 3 28 8 61 10 75 3 22 15 131
20 185 1 11 6 54 11 95 10 97 11 420 1 485 -44 274 -177 466 -427 613 -41 24
-135 62 -169 68 -13 3 -31 9 -40 13 -9 5 -38 12 -66 16 -27 5 -57 10 -65 13
-8 2 -141 6 -294 9 -241 4 -278 3 -273 -9z"/>
<path d="M3265 7845 c-8 -16 -27 -68 -43 -115 -53 -150 -123 -344 -132 -365
-4 -11 -20 -56 -36 -100 -15 -44 -32 -91 -37 -105 -6 -14 -11 -29 -13 -35 -3
-11 -61 -172 -71 -195 -3 -8 -7 -19 -9 -25 -2 -5 -15 -41 -29 -80 -15 -38 -28
-77 -30 -85 -5 -17 -73 -204 -86 -235 -5 -11 -18 -47 -30 -80 -20 -59 -49
-140 -65 -180 -4 -11 -8 -22 -9 -25 -1 -3 -4 -12 -7 -20 -18 -46 -21 -56 -24
-70 -2 -8 -7 -23 -13 -35 -5 -11 -14 -33 -20 -50 -5 -16 -24 -68 -41 -115 -18
-47 -33 -89 -34 -95 -1 -5 -10 -27 -19 -49 -9 -21 -17 -42 -17 -46 0 -4 -20
-61 -44 -126 -25 -66 -63 -171 -86 -234 -22 -63 -44 -122 -47 -130 -3 -8 -7
-19 -9 -25 -1 -5 -8 -23 -15 -40 -6 -16 -13 -37 -15 -45 -2 -8 -10 -30 -18
-50 -15 -35 -106 -286 -110 -305 -2 -5 -8 -21 -13 -35 -6 -14 -33 -89 -61
-165 -28 -77 -60 -164 -71 -192 -11 -29 -18 -53 -14 -53 4 0 2 -5 -5 -12 -25
-25 -12 -55 22 -49 9 2 38 2 331 2 405 0 550 4 551 14 0 6 4 17 7 25 6 13 162
466 171 495 1 6 8 29 15 53 6 23 15 43 19 43 26 5 1345 3 1347 -2 2 -3 6 -16
9 -30 3 -13 17 -55 31 -94 14 -38 26 -70 26 -70 -2 0 24 -80 78 -235 l67 -195
100 -2 c54 -1 115 -2 134 -2 64 -2 135 -3 145 -3 9 1 211 1 260 1 242 0 285 1
285 11 0 9 -32 98 -73 205 -7 17 -12 32 -12 35 -1 7 -72 203 -98 270 -12 30
-22 57 -22 60 -2 11 -17 56 -26 75 -5 11 -24 63 -42 115 -38 106 -160 444
-214 590 -37 101 -48 131 -111 305 -22 61 -77 211 -122 335 -45 124 -83 230
-84 235 -5 19 -17 50 -28 69 -5 10 -11 27 -14 39 -2 11 -15 50 -28 86 -14 36
-26 73 -28 81 -2 8 -5 17 -8 20 -5 4 -48 120 -54 145 -4 13 -15 44 -26 70 -5
11 -32 85 -60 165 -62 173 -97 273 -116 320 -7 19 -39 107 -70 195 -32 88 -59
162 -61 165 -2 2 -232 5 -510 5 l-506 0 -12 -30z m544 -1030 c13 -38 26 -79
31 -90 5 -11 14 -38 21 -60 6 -22 16 -46 22 -52 5 -7 7 -13 4 -13 -3 0 7 -35
22 -77 15 -43 29 -82 31 -88 4 -16 12 -39 17 -55 4 -8 7 -19 9 -25 1 -5 37
-110 79 -233 42 -123 78 -231 81 -240 7 -27 69 -207 76 -217 3 -6 9 -25 13
-42 l7 -33 -441 0 c-243 0 -441 2 -441 4 0 4 148 454 157 476 4 8 7 17 8 20 1
3 4 12 8 20 3 8 13 38 21 65 8 28 29 91 46 140 17 50 33 98 35 107 2 9 8 25
14 36 5 10 12 30 15 43 2 13 30 96 61 184 31 88 57 169 59 180 2 11 4 24 5 30
3 20 19 -13 40 -80z"/>
<path d="M5789 7825 c0 -71 -1 -3506 0 -3528 1 -16 9 -18 64 -17 34 1 67 1 72
0 6 -1 14 -2 19 -1 5 1 168 2 363 2 194 0 354 3 354 7 1 4 2 291 3 639 1 347
4 634 6 636 3 3 174 7 380 10 347 5 411 8 480 22 14 2 39 7 55 10 76 13 173
41 255 74 76 31 231 117 277 154 59 48 223 218 223 232 0 8 4 15 8 15 5 0 32
46 60 103 104 207 141 418 120 667 -12 126 -59 308 -99 381 -7 13 -13 26 -14
29 -1 11 -61 108 -97 158 -33 44 -84 98 -168 176 -27 25 -185 123 -210 131
-14 4 -29 11 -35 15 -16 13 -142 59 -209 76 -89 23 -106 27 -201 40 -22 3 -56
7 -75 10 -19 3 -394 6 -832 7 l-798 2 -1 -50z m1506 -669 c101 -22 177 -61
232 -118 40 -41 89 -130 99 -180 42 -214 -14 -412 -143 -501 -110 -76 -185
-89 -535 -91 -272 -1 -278 -1 -279 19 -7 116 -2 871 5 877 12 8 580 3 621 -6z"/>
<path d="M8797 7870 c-10 -4 -12 -394 -12 -1798 l0 -1792 30 0 c17 1 122 1
235 1 113 0 297 1 410 2 l204 2 1 1788 c0 984 -2 1792 -5 1795 -6 8 -845 10
-863 2z"/>
</g>
</svg>
