<svg width="150" height="57" viewBox="0 0 150 57" fill="none" xmlns="http://www.w3.org/2000/svg">
<path d="M11.3201 16.9686C11.028 16.9686 10.9549 16.8225 11.101 16.6034L12.6347 14.6315C12.7807 14.4124 13.1459 14.2664 13.438 14.2664H39.5106C39.8028 14.2664 39.8758 14.4855 39.7297 14.7046L38.4882 16.6034C38.3421 16.8225 37.977 17.0416 37.7579 17.0416L11.3201 16.9686Z" fill="#00ACD7"/>
<path d="M0.292131 23.688C6.09431e-07 23.688 -0.0730327 23.542 0.0730323 23.3229L1.60672 21.351C1.75278 21.1319 2.11794 20.9858 2.41007 20.9858H35.7129C36.005 20.9858 36.1511 21.2049 36.0781 21.424L35.4938 23.1768C35.4208 23.4689 35.1286 23.615 34.8365 23.615L0.292131 23.688Z" fill="#00ACD7"/>
<path d="M17.9658 30.4065C17.6737 30.4065 17.6007 30.1874 17.7467 29.9684L18.7692 28.1425C18.9153 27.9234 19.2074 27.7043 19.4995 27.7043H34.106C34.3982 27.7043 34.5442 27.9234 34.5442 28.2156L34.3982 29.9684C34.3982 30.2605 34.106 30.4796 33.8869 30.4796L17.9658 30.4065Z" fill="#00ACD7"/>
<path d="M93.7737 15.654C89.1727 16.8225 86.0323 17.6989 81.5043 18.8675C80.4088 19.1596 80.3357 19.2326 79.3863 18.1371C78.2908 16.8956 77.4875 16.0922 75.9538 15.3619C71.3527 13.0979 66.8978 13.7552 62.7349 16.4574C57.7687 19.6708 55.2126 24.4179 55.2856 30.3336C55.3586 36.1762 59.3754 40.9963 65.145 41.7997C70.1112 42.457 74.274 40.7042 77.5605 36.9795C78.2178 36.1762 78.8021 35.2998 79.5324 34.2773C76.9032 34.2773 73.6168 34.2773 65.4371 34.2773C63.9034 34.2773 63.5383 33.3279 64.0495 32.0863C64.9989 29.8223 66.7517 26.0246 67.7742 24.1258C67.9933 23.6876 68.5045 22.9573 69.6 22.9573C73.3246 22.9573 87.0547 22.9573 96.1838 22.9573C96.0377 24.9292 96.0378 26.901 95.7456 28.8729C94.9423 34.1312 92.9704 38.9514 89.757 43.1873C84.4986 50.1254 77.6335 54.4343 68.9427 55.6028C61.7855 56.5522 55.1395 55.1646 49.2969 50.7827C43.8925 46.6928 40.8252 41.2884 40.0218 34.5694C39.0724 26.6089 41.4094 19.4517 46.2296 13.1709C51.4149 6.3789 58.2799 2.06998 66.6787 0.536297C73.5437 -0.705255 80.1167 0.098103 86.0323 4.11489C89.903 6.67103 92.6783 10.1766 94.5041 14.4125C94.9423 15.0698 94.6501 15.4349 93.7737 15.654Z" fill="#00ACD7"/>
<path d="M117.948 56.041C111.302 55.895 105.24 53.9961 100.128 49.6142C95.8188 45.8895 93.1166 41.1424 92.2402 35.5189C90.9257 27.2662 93.1897 19.963 98.1559 13.4631C103.487 6.45194 109.914 2.80031 118.605 1.26662C126.054 -0.0479624 133.065 0.682362 139.419 4.99128C145.189 8.93504 148.767 14.2664 149.717 21.2775C150.958 31.1369 148.11 39.1705 141.318 46.0356C136.498 50.9288 130.582 53.9961 123.79 55.3837C121.818 55.7489 119.847 55.8219 117.948 56.041ZM135.329 26.5359C135.256 25.5865 135.256 24.8561 135.11 24.1258C133.796 16.8956 127.15 12.8058 120.212 14.4125C113.42 15.9462 109.038 20.2551 107.431 27.1201C106.116 32.8167 108.892 38.5862 114.15 40.9233C118.167 42.6761 122.184 42.457 126.054 40.4851C131.824 37.4908 134.964 32.8167 135.329 26.5359Z" fill="#00ACD7"/>
</svg>
