<svg width="120" height="22" viewBox="0 0 120 22" fill="none" xmlns="http://www.w3.org/2000/svg">
<path d="M43.2871 15.4305H37.0394L36.2695 17.7195C36.1443 18.0921 35.7202 18.3968 35.3272 18.3968H31.9526C31.5596 18.3968 31.3563 18.0978 31.5007 17.7323L37.6166 2.26097C37.7612 1.89548 38.2009 1.59644 38.5939 1.59644H41.7586C42.1516 1.59644 42.5911 1.89564 42.7351 2.26133L48.8266 17.7319C48.9706 18.0976 48.7668 18.3968 48.3737 18.3968H44.9992C44.6061 18.3968 44.1822 18.0921 44.0569 17.7195L43.2871 15.4305ZM42.1845 12.1229L40.1632 6.03275L38.1418 12.1229H42.1845Z" fill="#09101F"/>
<path d="M63.2122 18.3968C62.8192 18.3968 62.3313 18.1217 62.1279 17.7854L59.2426 13.0155L56.3575 17.7854C56.154 18.1217 55.666 18.3968 55.2729 18.3968H51.1632C50.7702 18.3968 50.6313 18.1322 50.8546 17.8087L56.4074 9.76042L51.3448 2.19043C51.1262 1.86373 51.2691 1.59644 51.6621 1.59644H55.4567C55.8497 1.59644 56.3405 1.86985 56.5473 2.20402L59.2426 6.55788L61.9138 2.20546C62.1194 1.87049 62.6093 1.59644 63.0021 1.59644H66.8232C67.2163 1.59644 67.3581 1.86306 67.1384 2.18893L62.0514 9.73408L67.6304 17.8089C67.8538 18.1323 67.715 18.3968 67.3221 18.3968H63.2122Z" fill="#09101F"/>
<path d="M74.9231 17.6823C74.9231 18.0753 74.6016 18.3968 74.2086 18.3968H71.1749C70.7821 18.3968 70.4604 18.0753 70.4604 17.6823V2.31102C70.4604 1.918 70.7821 1.59644 71.1749 1.59644H74.2086C74.6016 1.59644 74.9231 1.918 74.9231 2.31102V17.6823Z" fill="#09101F"/>
<path d="M77.6127 9.94404C77.6127 5.06146 81.2876 1.1239 86.9316 1.1239C92.5757 1.1239 96.2506 5.06146 96.2506 9.94404C96.2506 14.853 92.5757 18.7905 86.9316 18.7905C81.2876 18.7905 77.6127 14.853 77.6127 9.94404ZM91.683 9.94404C91.683 7.3978 89.8979 5.08762 86.9316 5.08762C83.9918 5.08762 82.1801 7.3978 82.1801 9.94404C82.1801 12.4904 83.9918 14.853 86.9316 14.853C89.8718 14.853 91.683 12.4904 91.683 9.94404Z" fill="#09101F"/>
<path d="M115.299 18.3968C114.906 18.3968 114.543 18.078 114.492 17.6882L113.324 8.68418L109.951 17.7273C109.814 18.0956 109.38 18.3968 108.987 18.3968H107.502C107.109 18.3968 106.676 18.0953 106.54 17.7267L103.165 8.60533L101.996 17.6881C101.946 18.0779 101.584 18.3968 101.19 18.3968H98.341C97.9479 18.3968 97.6701 18.0783 97.7236 17.6889L99.839 2.30437C99.8925 1.915 100.258 1.59644 100.651 1.59644H103.291C103.684 1.59644 104.119 1.89705 104.259 2.26448L108.232 12.7267L112.229 2.26396C112.369 1.89681 112.806 1.59644 113.199 1.59644H115.839C116.232 1.59644 116.597 1.915 116.65 2.30437L118.766 17.6889C118.819 18.0783 118.541 18.3968 118.148 18.3968H115.299Z" fill="#09101F"/>
<path d="M23.8379 14.2995L18.9732 5.82616C18.7502 5.43673 18.2005 5.1181 17.7517 5.1181H14.7147C14.0088 5.1181 13.7193 4.61754 14.0715 4.00576L15.737 1.11236C15.8691 0.882726 15.8688 0.600033 15.7362 0.370649C15.6036 0.141266 15.3587 0 15.0938 0H10.857C10.4082 0 9.85729 0.31791 9.63269 0.706481L1.39995 14.952C1.17541 15.3405 1.17524 15.9765 1.39965 16.3651L3.518 20.0343C3.87094 20.6457 4.44977 20.6463 4.80423 20.0359L6.45952 17.1853C6.81397 16.5749 7.3928 16.5756 7.74574 17.1869L9.24637 19.7862C9.47073 20.1748 10.0215 20.4929 10.4703 20.4929H20.2605C20.7093 20.4929 21.2601 20.1748 21.4845 19.7862L23.8354 15.7142C24.0598 15.3255 24.061 14.6889 23.8379 14.2995ZM17.2682 13.8917C17.6189 14.5043 17.3284 15.0055 16.6225 15.0055H9.00726C8.30136 15.0055 8.01255 14.5053 8.36549 13.894L12.1761 7.29382C12.5291 6.68249 13.1066 6.68251 13.4595 7.29386L17.2682 13.8917Z" fill="#09101F"/>
</svg>
