<?xml version="1.0" encoding="UTF-8"?>
<svg width="281px" height="78px" viewBox="0 0 281 78" version="1.1" xmlns="http://www.w3.org/2000/svg" xmlns:xlink="http://www.w3.org/1999/xlink">
    <title>WHITE-TRANSPARENT Copy</title>
    <g id="ads" stroke="none" stroke-width="1" fill="none" fill-rule="evenodd">
        <g id="WHITE-TRANSPARENT-Copy" fill="#0f459e" fill-rule="nonzero">
            <path d="M115.707632,60.1885957 C116.803321,60.1885957 117.788792,60.149958 118.65108,60.0726827 C119.513368,59.9954074 120.245988,59.8988133 120.835974,59.8022191 L120.835974,52.2034807 C120.492356,52.248558 120.148737,52.280756 119.811602,52.3129541 C119.474467,52.3451521 119.066015,52.3580313 118.579763,52.3580313 C117.504488,52.4450599 116.435507,52.127909 115.584448,51.4693653 C114.936112,50.8833609 114.60546,49.8916612 114.60546,48.5135849 L114.60546,34.6169091 L120.855424,34.6169091 L120.855424,26.7799051 L114.62491,26.7799051 L114.62491,16 L103.70044,16 L103.70044,26.7799051 L99,26.7799051 L99,34.6169091 L103.70044,34.6169091 L103.70044,50.2844773 C103.70044,53.8477275 104.6643,56.3892265 106.592021,57.9089741 C108.519741,59.4287218 111.558278,60.1885957 115.707632,60.1885957 Z M134.827076,60.1885957 L134.827076,42.6535409 C134.780708,41.2864409 135.072318,39.9288812 135.676397,38.6996211 C136.224327,37.6495716 137.093822,36.7994741 138.159526,36.2718885 C139.405421,35.6837561 140.774487,35.3989874 142.153279,35.441179 C142.81764,35.4409206 143.480992,35.492597 144.137189,35.5957296 C144.744189,35.6808184 145.339921,35.8319855 145.913631,36.0465022 L145.913631,26.9022577 C145.436438,26.7547647 144.948833,26.6428343 144.454874,26.5673981 C143.924675,26.4896808 143.389424,26.4509379 142.853482,26.4514851 C141.038493,26.3825335 139.259268,26.9655094 137.841841,28.0935853 C136.449753,29.3077304 135.505198,30.9484122 135.157728,32.7558621 L134.827076,32.7558621 L134.827076,27.0825668 L124.097107,27.0825668 L124.097107,60.1885957 L134.827076,60.1885957 Z M162.887081,60.9935468 C165.219223,61.0493731 167.543724,60.7074074 169.759448,59.9825282 C171.480707,59.4065977 173.075895,58.5105791 174.459888,57.3422886 C175.615297,56.3608835 176.59706,55.1942015 177.364435,53.8906582 C178.00387,52.8046808 178.47797,51.630686 178.771326,50.4068299 L178.862093,50.0397722 L169.059245,50.0397722 L168.994411,50.1943228 C168.758956,50.7005972 168.433961,51.1608067 168.034873,51.5530802 C167.478299,52.1054753 166.817298,52.5431683 166.089863,52.841002 C165.140304,53.2267265 164.120034,53.4109782 163.094549,53.3819291 C161.864809,53.4165145 160.649853,53.1086914 159.587048,52.4932631 C158.590802,51.8783011 157.802735,50.9811688 157.324354,49.9174196 C156.845484,48.842619 156.581261,47.6856962 156.54635,46.5108665 L156.54635,46.1438088 L179.076044,46.1438088 L179.076044,43.0399174 C179.148963,39.9950583 178.44885,36.9809744 177.040267,34.2756098 C175.735903,31.8305509 173.741894,29.8164307 171.302489,28.4799619 C168.601741,27.0604334 165.578612,26.3552143 162.524012,26.4321663 C159.45769,26.3547633 156.424422,27.0763247 153.726086,28.5250391 C151.259533,29.9098628 149.253994,31.9802034 147.955891,34.4816773 C146.530443,37.3379867 145.829353,40.4970203 145.913631,43.6838783 L145.913631,43.6838783 C145.829333,46.874867 146.530368,50.0380772 147.955891,52.8989585 C149.256581,55.4216335 151.289166,57.4988236 153.79092,58.8620362 C156.59062,60.3306774 159.721713,61.0643887 162.887081,60.9935468 L162.887081,60.9935468 Z M167.749605,40.1034558 L155.619229,40.1034558 L155.619229,39.9424656 C155.737219,39.2164347 155.955384,38.5100183 156.267565,37.8431531 C156.740694,36.8164685 157.501462,35.9468191 158.458942,35.3381453 C160.468767,34.202234 162.932483,34.202234 164.942308,35.3381453 C165.886077,35.9386409 166.632116,36.8005328 167.088302,37.8173946 C167.403263,38.4831969 167.62155,39.1900079 167.736638,39.9167071 L167.749605,40.1034558 Z M202.03364,60.1885957 C207.259447,60.4223759 212.041051,57.2830302 213.872265,52.4159878 C215.006364,49.5268663 215.550717,46.4425857 215.473656,43.342579 L215.473656,43.342579 C215.555873,40.2287024 215.015999,37.1295122 213.885232,34.2240929 C212.973436,31.89325 211.370471,29.8923996 209.288526,28.4864015 C207.124801,27.1184978 204.59735,26.4275228 202.03364,26.503002 C199.852024,26.4504259 197.70098,27.0203151 195.835543,28.1451022 C194.091423,29.2299115 192.731556,30.8282273 191.945524,32.7172245 L191.608389,32.7172245 L191.608389,16.0064396 L180.690402,16.0064396 L180.690402,59.5703932 L191.608389,59.5703932 L191.608389,54.2126387 L191.945524,54.2126387 C192.729067,56.0424288 194.07466,57.5795305 195.790159,58.6044519 C197.682377,59.699232 199.844619,60.2478528 202.03364,60.1885957 L202.03364,60.1885957 Z M198.500206,52.1584035 C197.282651,52.179725 196.089326,51.8191862 195.089956,51.1280661 C194.068843,50.3988589 193.281,49.3927538 192.820778,48.2302421 C192.250535,46.7965964 191.97711,45.2634849 192.016841,43.7225159 L192.016841,43.6581198 C191.978878,42.1172831 192.252242,40.5845185 192.820778,39.1503937 C193.294846,38.0096414 194.086495,37.0267583 195.102923,36.3169658 C197.169494,34.9857361 199.830918,34.9857361 201.89749,36.3169658 C202.911462,37.0461005 203.692511,38.0499156 204.147217,39.2083502 C204.706651,40.64467 204.975435,42.1764652 204.938188,43.7160763 L204.938188,43.7160763 C204.977146,45.2558134 204.708304,46.787939 204.147217,48.2238025 C203.698754,49.380268 202.930051,50.3871254 201.929906,51.1280661 C200.926519,51.8259412 199.7248,52.1869568 198.500206,52.1584035 L198.500206,52.1584035 Z M229.224874,60.1885957 L229.224874,16.0064396 L217.898435,16.0064396 L217.898435,60.1885957 L229.224874,60.1885957 Z M244.59045,60.1885957 L244.59045,16.0064396 L233.26401,16.0064396 L233.26401,60.1885957 L244.59045,60.1885957 Z M264.786132,60.9935468 C267.116122,61.0488896 269.43841,60.7069268 271.652016,59.9825282 C273.3746,59.4051898 274.97166,58.509356 276.358939,57.3422886 C277.511082,56.3594262 278.490486,55.192944 279.257003,53.8906582 C279.896438,52.8046808 280.370538,51.630686 280.663894,50.4068299 L280.754661,50.0397722 L270.971263,50.0397722 L270.912912,50.1943228 C270.682464,50.6986442 270.364221,51.1586165 269.972824,51.5530802 C269.417461,52.1069407 268.756146,52.5448419 268.027815,52.841002 C267.080698,53.2273127 266.062413,53.4116048 265.038983,53.3819291 C263.807173,53.4166908 262.590086,53.1088968 261.525,52.4932631 C260.528753,51.8783011 259.740687,50.9811688 259.262305,49.9174196 C258.788759,48.841164 258.526879,47.684864 258.490785,46.5108665 L258.490785,46.1438088 L280.994545,46.1438088 L280.994545,43.0399174 C281.069465,39.9956116 280.371589,36.9815584 278.965252,34.2756098 C277.65823,31.8303198 275.662104,29.8163372 273.22099,28.4799619 C270.520448,27.0598867 267.497174,26.3546335 264.442514,26.4321663 C261.378248,26.3546901 258.347052,27.0762902 255.651071,28.5250391 C253.182877,29.9077607 251.176801,31.9786564 249.880876,34.4816773 C248.450186,37.3363699 247.746697,40.4961821 247.832132,43.6838783 L247.832132,43.6838783 C247.736134,46.8924799 248.437561,50.0751485 249.874392,52.9504754 C251.175082,55.4731504 253.207667,57.5503405 255.709421,58.9135531 C258.508303,60.3605894 261.631889,61.0763816 264.786132,60.9935468 L264.786132,60.9935468 Z M269.642173,40.1034558 L257.531247,40.1034558 L257.531247,39.9424656 C257.646164,39.2157271 257.864458,38.5088926 258.179583,37.8431531 C258.645106,36.8155648 259.402123,35.9450523 260.357994,35.3381453 C262.367127,34.1996422 264.832226,34.1996422 266.841359,35.3381453 C267.786647,35.9369031 268.533124,36.7993025 268.987353,37.8173946 C269.305261,38.4820633 269.523681,39.1893052 269.635689,39.9167071 L269.642173,40.1034558 Z" id="treblle-copy"></path>
            <path d="M78.9287705,0 L0,0 L0,38.7598602 C0,60.4308537 17.6390164,78 39.5,78 C61.3609836,78 79,60.4308537 79,38.7598602 L78.9287705,0 Z M59.4636885,30.3874189 L48.1770492,30.3874189 L48.1770492,61.6055916 L31.0819672,61.6055916 L31.0819672,30.3874189 L14.0192623,30.3874189 L14.0192623,30.316026 L31.0107377,16.0374438 L31.1143443,16.0374438 L31.1143443,30.2835746 L48.0669672,16.0634049 L59.4636885,16.0634049 L59.4636885,30.3874189 Z" id="Shape"></path>
        </g>
    </g>
</svg>